<?xml version="1.0" standalone="no"?>
<!DOCTYPE svg PUBLIC "-//W3C//DTD SVG 1.1//EN" "http://www.w3.org/Graphics/SVG/1.1/DTD/svg11.dtd" >
<svg>
<metadata>
Created by FontForge 20090914 at Tue Nov  2 11:27:13 2021
 By www-data
Copyright (c) 2018 by Swiss Typefaces. All rights reserved. |DCNT
</metadata>
<defs>
<font id="EuclidCircularA-Light" horiz-adv-x="0" >
  <font-face 
    font-family="Euclid Circular A Light"
    font-weight="300"
    font-stretch="normal"
    units-per-em="1000"
    panose-1="2 11 3 4 0 0 0 0 0 0"
    ascent="732"
    descent="-268"
    x-height="500"
    cap-height="710"
    bbox="-358 -258.002 1385 1000"
    underline-thickness="50"
    underline-position="-215"
    unicode-range="U+0020-U+FEFF"
  />
<missing-glyph horiz-adv-x="694" 
d="M97 0v710h500v-710h-500zM336 355l-220 327v-654zM357 355l221 -327v654zM563 691h-432l216 -321zM347 339l-216 -320h432z" />
    <glyph glyph-name="_368" unicode="ff" horiz-adv-x="695" 
d="M124 0l-0.000976562 434.001h-107v66h107v112c0 47.333 12.833 83.166 38.5 107.499s59.834 36.5 102.501 36.5c28 0 53 -4.33301 75 -13v-63c-16.667 7.33301 -38 11 -64 11c-28 0 -48.667 -6.5 -62 -19.5s-20 -34.833 -20 -65.5v-106h127v-66h-127v-434h-70z
M465.999 0.000976562l-0.000976562 434.001h-87v66h87v112c0 47.333 12.833 83.166 38.5 107.499s59.834 36.5 102.501 36.5c28 0 53 -4.33301 75 -13v-63c-16.667 7.33301 -38 11 -64 11c-28 0 -48.667 -6.5 -62 -19.5s-20 -34.833 -20 -65.5v-106h146v-66h-146v-434h-70z
" />
    <glyph glyph-name="f_i" unicode="fi" horiz-adv-x="595" 
d="M124 0l-0.000976562 434.001h-107v66h107v112c0 47.333 12.833 83.166 38.5 107.499s59.834 36.5 102.501 36.5c28 0 53 -4.33301 75 -13v-63c-16.667 7.33301 -38 11 -64 11c-28 0 -48.667 -6.5 -62 -19.5s-20 -34.833 -20 -65.5v-106h146v-66h-146v-434h-70z
M474.999 650.001c-15.333 0 -28.166 5.16699 -38.499 15.5s-15.5 22.833 -15.5 37.5s5.16699 27.167 15.5 37.5s23.166 15.5 38.499 15.5c14.667 0 27 -5.16699 37 -15.5s15 -22.833 15 -37.5s-5 -27.167 -15 -37.5s-22.333 -15.5 -37 -15.5zM438.999 0.000976562v500h70
v-500h-70z" />
    <glyph glyph-name="_372" unicode="ffi" horiz-adv-x="937" 
d="M817 650c-15.333 0 -28.166 5.16699 -38.499 15.5s-15.5 22.833 -15.5 37.5s5.16699 27.167 15.5 37.5s23.166 15.5 38.499 15.5c14.667 0 27 -5.16699 37 -15.5s15 -22.833 15 -37.5s-5 -27.167 -15 -37.5s-22.333 -15.5 -37 -15.5zM781 0v500h70v-500h-70zM124 0
l-0.000976562 434.001h-107v66h107v112c0 47.333 12.833 83.166 38.5 107.499s59.834 36.5 102.501 36.5c28 0 53 -4.33301 75 -13v-63c-16.667 7.33301 -38 11 -64 11c-28 0 -48.667 -6.5 -62 -19.5s-20 -34.833 -20 -65.5v-106h127v-66h-127v-434h-70z
M465.999 0.000976562l-0.000976562 434.001h-87v66h87v112c0 47.333 12.833 83.166 38.5 107.499s59.834 36.5 102.501 36.5c28 0 53 -4.33301 75 -13v-63c-16.667 7.33301 -38 11 -64 11c-28 0 -48.667 -6.5 -62 -19.5s-20 -34.833 -20 -65.5v-106h146v-66h-146v-434h-70z
" />
    <glyph glyph-name="f_l" unicode="fl" horiz-adv-x="595" 
d="M124 0l-0.000976562 434.001h-107v66h107v112c0 47.333 12.833 83.166 38.5 107.499s59.834 36.5 102.501 36.5c28 0 53 -4.33301 75 -13v-63c-16.667 7.33301 -38 11 -64 11c-28 0 -48.667 -6.5 -62 -19.5s-20 -34.833 -20 -65.5v-106h146v-66h-146v-434h-70z
M438.999 0.000976562v750h70v-750h-70z" />
    <glyph glyph-name="_376" unicode="ffl" horiz-adv-x="937" 
d="M781 0v750h70v-750h-70zM124 0l-0.000976562 434.001h-107v66h107v112c0 47.333 12.833 83.166 38.5 107.499s59.834 36.5 102.501 36.5c28 0 53 -4.33301 75 -13v-63c-16.667 7.33301 -38 11 -64 11c-28 0 -48.667 -6.5 -62 -19.5s-20 -34.833 -20 -65.5v-106h127v-66
h-127v-434h-70zM465.999 0.000976562l-0.000976562 434.001h-87v66h87v112c0 47.333 12.833 83.166 38.5 107.499s59.834 36.5 102.501 36.5c28 0 53 -4.33301 75 -13v-63c-16.667 7.33301 -38 11 -64 11c-28 0 -48.667 -6.5 -62 -19.5s-20 -34.833 -20 -65.5v-106h146v-66
h-146v-434h-70z" />
    <glyph glyph-name="f_t" unicode="ft" horiz-adv-x="720" 
d="M124 0l-0.000976562 434.001h-107v66h107v112c0 47.333 12.833 83.166 38.5 107.499s59.834 36.5 102.501 36.5c28 0 53 -4.33301 75 -13v-63c-16.667 7.33301 -38 11 -64 11c-28 0 -48.667 -6.5 -62 -19.5s-20 -34.833 -20 -65.5v-106h131v-66h-131v-434h-70z
M617.999 -4.99902c-42 0 -76.167 12.168 -102.5 36.501s-39.5 60.166 -39.5 107.499v295h-93v66h93v139h70v-139h146v-66h-146v-289c0 -30.667 6.83301 -52.5 20.5 -65.5s34.5 -19.5 62.5 -19.5c25.333 0 46.333 3.66699 63 11v-63c-22 -8.66699 -46.667 -13 -74 -13z" />
    <glyph glyph-name="t_t" unicode="tt" horiz-adv-x="729" 
d="M627 -5c-42 0 -76.167 12.168 -102.5 36.501s-39.5 60.166 -39.5 107.499v295h-97v66h97v139h70v-139h146v-66h-146v-289c0 -30.667 6.83301 -52.5 20.5 -65.5s34.5 -19.5 62.5 -19.5c25.333 0 46.333 3.66699 63 11v-63c-22 -8.66699 -46.667 -13 -74 -13zM265 -4.99902
c-42 0 -76.167 12.168 -102.5 36.501s-39.5 60.166 -39.5 107.499v295h-107v66h107v139h70v-139h137v-66h-137v-289c0 -30.667 6.83301 -52.5 20.5 -65.5s34.5 -19.5 62.5 -19.5c25.333 0 46.333 3.66699 63 11v-63c-22 -8.66699 -46.667 -13 -74 -13z" />
    <glyph glyph-name="uni0407_uni0407" unicode="&#x407;&#x407;" horiz-adv-x="548" 
d="M99 0v710h76v-710h-76zM373 0v710h76v-710h-76zM24 789c-15.333 0 -28.166 5.16699 -38.499 15.5s-15.5 22.833 -15.5 37.5s5.16699 27.167 15.5 37.5s23.166 15.5 38.499 15.5c14.667 0 27 -5.16699 37 -15.5s15 -22.833 15 -37.5s-5 -27.167 -15 -37.5
s-22.333 -15.5 -37 -15.5zM275 789c-15.333 0 -28.166 5.16699 -38.499 15.5s-15.5 22.833 -15.5 37.5s5.16699 27.167 15.5 37.5s23.166 15.5 38.499 15.5c14.667 0 27 -5.16699 37 -15.5s15 -22.833 15 -37.5s-5 -27.167 -15 -37.5s-22.333 -15.5 -37 -15.5zM525 789
c-15.333 0 -28.166 5.16699 -38.499 15.5s-15.5 22.833 -15.5 37.5s5.16699 27.167 15.5 37.5s23.166 15.5 38.499 15.5c14.667 0 27 -5.16699 37 -15.5s15 -22.833 15 -37.5s-5 -27.167 -15 -37.5s-22.333 -15.5 -37 -15.5z" />
    <glyph glyph-name="uni0457_uni0458" unicode="&#x457;&#x458;" horiz-adv-x="484" 
d="M156 0h-70v500h70v-500zM41 602c-15.333 0 -28.5 5.5 -39.5 16.5s-16.5 24.167 -16.5 39.5s5.5 28.333 16.5 39s24.167 16 39.5 16s28.5 -5.33301 39.5 -16s16.5 -23.667 16.5 -39s-5.5 -28.5 -16.5 -39.5s-24.167 -16.5 -39.5 -16.5zM241 602
c-15.333 0 -28.5 5.5 -39.5 16.5s-16.5 24.167 -16.5 39.5s5.5 28.333 16.5 39s24.167 16 39.5 16s28.5 -5.33301 39.5 -16s16.5 -23.667 16.5 -39s-5.5 -28.5 -16.5 -39.5s-24.167 -16.5 -39.5 -16.5zM441 602c-15.333 0 -28.5 5.5 -39.5 16.5s-16.5 24.167 -16.5 39.5
s5.5 28.333 16.5 39s24.167 16 39.5 16s28.5 -5.33301 39.5 -16s16.5 -23.667 16.5 -39s-5.5 -28.5 -16.5 -39.5s-24.167 -16.5 -39.5 -16.5zM398 500v-575.001c0 -47.333 -12.833 -83.166 -38.5 -107.499s-59.834 -36.5 -102.501 -36.5c-13.333 0 -25 1 -35 3v64
c10.667 -1.33301 20.334 -2 29.001 -2c51.333 0 77 28.333 77 85v569h70z" />
    <glyph glyph-name="uni0457_uni0457" unicode="&#x457;&#x457;" horiz-adv-x="484" 
d="M156 0h-70v500h70v-500zM398 0h-70v500h70v-500zM41 602c-15.333 0 -28.5 5.5 -39.5 16.5s-16.5 24.167 -16.5 39.5s5.5 28.333 16.5 39s24.167 16 39.5 16s28.5 -5.33301 39.5 -16s16.5 -23.667 16.5 -39s-5.5 -28.5 -16.5 -39.5s-24.167 -16.5 -39.5 -16.5zM241 602
c-15.333 0 -28.5 5.5 -39.5 16.5s-16.5 24.167 -16.5 39.5s5.5 28.333 16.5 39s24.167 16 39.5 16s28.5 -5.33301 39.5 -16s16.5 -23.667 16.5 -39s-5.5 -28.5 -16.5 -39.5s-24.167 -16.5 -39.5 -16.5zM441 602c-15.333 0 -28.5 5.5 -39.5 16.5s-16.5 24.167 -16.5 39.5
s5.5 28.333 16.5 39s24.167 16 39.5 16s28.5 -5.33301 39.5 -16s16.5 -23.667 16.5 -39s-5.5 -28.5 -16.5 -39.5s-24.167 -16.5 -39.5 -16.5z" />
    <glyph glyph-name=".notdef" horiz-adv-x="694" 
d="M97 0v710h500v-710h-500zM336 355l-220 327v-654zM357 355l221 -327v654zM563 691h-432l216 -321zM347 339l-216 -320h432z" />
    <glyph glyph-name="space" unicode=" " horiz-adv-x="245" 
 />
    <glyph glyph-name="exclam" unicode="!" horiz-adv-x="266" 
d="M111 212l-13 208v290h70v-290l-13 -208h-44zM133 -8c-18 0 -33.5 6.66699 -46.5 20s-19.5 29 -19.5 47s6.5 33.667 19.5 47s28.5 20 46.5 20s33.5 -6.66699 46.5 -20s19.5 -29 19.5 -47s-6.5 -33.667 -19.5 -47s-28.5 -20 -46.5 -20z" />
    <glyph glyph-name="quotedbl" unicode="&#x22;" horiz-adv-x="406" 
d="M69 475v235h66v-235h-66zM271 475v235h66v-235h-66z" />
    <glyph glyph-name="numbersign" unicode="#" horiz-adv-x="741" 
d="M354 0l64 205h-193l-63 -205h-68l64 205h-124v63h143l58 183h-128v63h148l61 196h67l-61 -196h192l62 196h66l-61 -196h125v-63h-144l-58 -183h130v-63h-150l-63 -205h-67zM303 451l-58 -183h192l58 183h-192z" />
    <glyph glyph-name="dollar" unicode="$" horiz-adv-x="517" 
d="M235 -88v80.9971c-52.667 6 -97 26.333 -133 61s-54.667 82.334 -56 143.001h70c11.333 -78.667 51 -124 119 -136v272l-33 14c-100 39.333 -150 106 -150 200c0 50 17.333 90.5 52 121.5s78.334 48.5 131.001 52.5v77h54v-78c46 -7.33301 85.167 -25.666 117.5 -54.999
s48.5 -68.666 48.5 -117.999h-70c-4.66699 27.333 -15.334 50 -32.001 68s-38 29.667 -64 35v-257l22 -9c106.667 -44 160 -112 160 -204c0 -58.667 -17.167 -104.167 -51.5 -136.5s-77.833 -49.833 -130.5 -52.5v-79h-54zM401 172.997c0 34 -9.16699 61.5 -27.5 82.5
s-46.5 39.833 -84.5 56.5v-253c32.667 3.33301 59.5 15.333 80.5 36s31.5 46.667 31.5 78zM122 545.997c0 -30 8.66699 -55.167 26 -75.5s46 -38.833 86 -55.5l1 -1v239c-35.333 -4 -63 -15.667 -83 -35s-30 -43.333 -30 -72z" />
    <glyph glyph-name="percent" unicode="%" horiz-adv-x="994" 
d="M311 0h-78l450 710h78zM764 -8c-54.667 0 -101.167 19.333 -139.5 58s-57.5 85 -57.5 139c0 54.667 19.167 101.167 57.5 139.5s84.833 57.5 139.5 57.5c54 0 100.333 -19.167 139 -57.5s58 -84.833 58 -139.5c0 -54 -19.333 -100.333 -58 -139s-85 -58 -139 -58zM764 58
c36 0 66.667 12.833 92 38.5s38 56.5 38 92.5s-12.667 66.833 -38 92.5s-56 38.5 -92 38.5s-66.667 -12.833 -92 -38.5s-38 -56.5 -38 -92.5s12.667 -66.833 38 -92.5s56 -38.5 92 -38.5zM230 324c-54.667 0 -101.167 19.333 -139.5 58s-57.5 85 -57.5 139
c0 54.667 19.167 101.167 57.5 139.5s84.833 57.5 139.5 57.5c54 0 100.333 -19.167 139 -57.5s58 -84.833 58 -139.5c0 -54 -19.333 -100.333 -58 -139s-85 -58 -139 -58zM230 390c36 0 66.667 12.833 92 38.5s38 56.5 38 92.5s-12.667 66.833 -38 92.5s-56 38.5 -92 38.5
s-66.667 -12.833 -92 -38.5s-38 -56.5 -38 -92.5s12.667 -66.833 38 -92.5s56 -38.5 92 -38.5z" />
    <glyph glyph-name="ampersand" unicode="&#x26;" horiz-adv-x="737" 
d="M279 -10c-61.333 0 -112 19.001 -152 57.001s-60 86 -60 144c0 46 13.333 84.167 40 114.5s63.334 59.166 110.001 86.499l16 9c-27.333 27.333 -49.166 54 -65.499 80s-24.5 54.333 -24.5 85c0 46.667 16.833 84.334 50.5 113.001s75.167 43 124.5 43
s89.666 -15.333 120.999 -46s47 -69 47 -115c0 -68.667 -47.667 -127.334 -143 -176.001l163 -159l89 116h80l-123 -161l186 -181h-93l-133 129c-40.667 -48.667 -78.334 -84 -113.001 -106s-74.667 -33 -120 -33zM284 55.001c34 0 64.833 9.49805 92.5 28.498
s57.5 49.167 89.5 90.5l-186 181l-22 -11c-39.333 -21.333 -69 -43.166 -89 -65.499s-30 -51.166 -30 -86.499c0 -41.333 14.167 -74.5 42.5 -99.5s62.5 -37.5 102.5 -37.5zM212 563.999c0 -16.667 4.33301 -33.0029 13 -49.0029s17.5 -29 26.5 -39s24.167 -25 45.5 -45l6 3
c25.333 14 44.5 25.167 57.5 33.5s25.5 20.333 37.5 36s18 32.834 18 51.501c0 30.667 -9 55.834 -27 75.501s-42.333 29.5 -73 29.5c-29.333 0 -54 -8.66699 -74 -26s-30 -40.666 -30 -69.999z" />
    <glyph glyph-name="quotesingle" unicode="'" horiz-adv-x="204" 
d="M69 475v235h66v-235h-66z" />
    <glyph glyph-name="parenleft" unicode="(" horiz-adv-x="268" 
d="M236 -160h-59c-85.333 155.333 -128 315.333 -128 480s42.667 324.667 128 480h59c-80.667 -156.667 -121 -316.667 -121 -480s40.333 -323.333 121 -480z" />
    <glyph glyph-name="parenright" unicode=")" horiz-adv-x="267" 
d="M90 -160h-59c80.667 156.667 121 316.667 121 480s-40.333 323.333 -121 480h59c85.333 -155.333 128 -315.333 128 -480s-42.667 -324.667 -128 -480z" />
    <glyph glyph-name="asterisk" unicode="*" horiz-adv-x="424" 
d="M136 394l-47 33l75 104l-122 41l16 56l124 -41v123h58v-123l124 40l18 -55l-123 -40l76 -105l-46 -33l-78 104z" />
    <glyph glyph-name="plus" unicode="+" horiz-adv-x="502" 
d="M39 258v63h179v179h66v-179h179v-63h-179v-179h-66v179h-179z" />
    <glyph glyph-name="comma" unicode="," horiz-adv-x="248" 
d="M178 20l-100 -160h-50l65 140c-23.333 13.333 -35 33 -35 59c0 18 6.5 33.667 19.5 47s28.5 20 46.5 20s33.5 -6.66699 46.5 -20s19.5 -29 19.5 -47c0 -13.333 -4 -26.333 -12 -39z" />
    <glyph glyph-name="hyphen" unicode="-" horiz-adv-x="381" 
d="M68 244v72h245v-72h-245z" />
    <glyph glyph-name="period" unicode="." horiz-adv-x="244" 
d="M122 -8c-18 0 -33.5 6.66699 -46.5 20s-19.5 29 -19.5 47s6.5 33.667 19.5 47s28.5 20 46.5 20s33.5 -6.66699 46.5 -20s19.5 -29 19.5 -47s-6.5 -33.667 -19.5 -47s-28.5 -20 -46.5 -20z" />
    <glyph glyph-name="slash" unicode="/" horiz-adv-x="497" 
d="M22 -110l386 820h67l-386 -820h-67z" />
    <glyph glyph-name="zero" unicode="0" horiz-adv-x="620" 
d="M310 -10c-72 0 -131.167 24.5 -177.5 73.5s-69.5 112.167 -69.5 189.5v206c0 77.333 23.167 140.5 69.5 189.5s105.5 73.5 177.5 73.5s131.167 -24.5 177.5 -73.5s69.5 -112.167 69.5 -189.5v-206c0 -77.333 -23.167 -140.5 -69.5 -189.5s-105.5 -73.5 -177.5 -73.5z
M310 58c52.667 0 95.334 17.5 128.001 52.5s49 82.5 49 142.5v206c0 60 -16.333 107.5 -49 142.5s-75.334 52.5 -128.001 52.5s-95.334 -17.5 -128.001 -52.5s-49 -82.5 -49 -142.5v-206c0 -60 16.333 -107.5 49 -142.5s75.334 -52.5 128.001 -52.5z" />
    <glyph glyph-name="one" unicode="1" horiz-adv-x="312" 
d="M143 0v641h-133l61 69h142v-710h-70z" />
    <glyph glyph-name="two" unicode="2" horiz-adv-x="553" 
d="M504 67l-0.000976562 -66.998h-452v30c0 24.667 3.83301 48 11.5 70s16.667 40.833 27 56.5s24.833 32.5 43.5 50.5s34.834 32 48.501 42l56.5 41l53 39c27.333 20.667 47 36.167 59 46.5s24.833 23.333 38.5 39s22.667 31.667 27 48s6.5 36.166 6.5 59.499
c0 39.333 -13.167 71.166 -39.5 95.499s-60.166 36.5 -101.499 36.5c-44.667 0 -82.167 -13.167 -112.5 -39.5s-46.166 -64.166 -47.499 -113.499h-72c0 66 21.833 119.333 65.5 160s98.167 61 163.5 61c61.333 0 112.666 -17.833 153.999 -53.5s62 -85.834 62 -150.501
c0 -48.667 -12.167 -90.5 -36.5 -125.5s-68.166 -75.833 -131.499 -122.5l-54 -38c-23.333 -16 -40.833 -28.5 -52.5 -37.5s-24.834 -20.5 -39.501 -34.5s-25.834 -28.5 -33.501 -43.5s-13.167 -31.5 -16.5 -49.5h373z" />
    <glyph glyph-name="three" unicode="3" horiz-adv-x="578" 
d="M297 -10c-72 0 -131.67 21.333 -179.003 64s-71 95.334 -71 158.001h72c1.33301 -44.667 19.5 -81.5 54.5 -110.5s76.167 -43.5 123.5 -43.5c44 0 80.833 12.333 110.5 37s44.5 59 44.5 103c0 47.333 -15 82.333 -45 105s-71 34 -123 34h-50v69h57
c38.667 0 71.834 11.667 99.501 35s41.5 53 41.5 89s-13.5 65.667 -40.5 89s-60.167 35 -99.5 35c-45.333 0 -83.166 -13 -113.499 -39s-46.166 -64 -47.499 -114h-72c0 66 22.167 119.333 66.5 160s99.833 61 166.5 61c59.333 0 109.5 -17.333 150.5 -52
s61.5 -81.334 61.5 -140.001c-0.666992 -34 -10.167 -64.833 -28.5 -92.5s-42.5 -48.5 -72.5 -62.5c38.667 -15.333 68.5 -38.5 89.5 -69.5s31.5 -66.833 31.5 -107.5c0 -62 -21.167 -112.167 -63.5 -150.5s-96.833 -57.5 -163.5 -57.5z" />
    <glyph glyph-name="four" unicode="4" horiz-adv-x="610" 
d="M402 0v202h-385v57l395 451h60v-441h100v-67h-100v-202h-70zM111 269h291v332z" />
    <glyph glyph-name="five" unicode="5" horiz-adv-x="550" 
d="M271 -10c-62.667 0 -116.999 19.832 -162.999 59.499s-69.667 85.834 -71 138.501h72c8 -37.333 27.167 -68.333 57.5 -93s65.166 -37 104.499 -37c46.667 0 86 16.167 118 48.5s48 71.5 48 117.5c0 46.667 -15.167 86 -45.5 118s-68.833 48 -115.5 48
c-60.667 0 -108 -24 -142 -72l-69 20l70 372h328v-69h-270l-42 -225c34 28 77.667 42 131 42c66 0 120.333 -23.333 163 -70s64 -105 64 -175c0 -60.667 -23.167 -113 -69.5 -157s-102.5 -66 -168.5 -66z" />
    <glyph glyph-name="six" unicode="6" horiz-adv-x="556" 
d="M275 -10c-66 0 -122.168 22.833 -168.501 68.5s-69.5 99.834 -69.5 162.501c0 60 26 119.333 78 178l274 311h91l-231 -262c12.667 3.33301 26.667 5 42 5c60.667 0 112.834 -23.167 156.501 -69.5s65.5 -99.5 65.5 -159.5c0 -64.667 -23.167 -119.834 -69.5 -165.501
s-102.5 -68.5 -168.5 -68.5zM274.999 58c46.667 0 86 16.167 118 48.5s48 71.5 48 117.5s-16 85.167 -48 117.5s-71.333 48.5 -118 48.5s-86 -16.167 -118 -48.5s-48 -71.5 -48 -117.5s16 -85.167 48 -117.5s71.333 -48.5 118 -48.5z" />
    <glyph glyph-name="seven" unicode="7" horiz-adv-x="498" 
d="M144 0h-78l335 641h-373v69h457v-57z" />
    <glyph glyph-name="eight" unicode="8" horiz-adv-x="566" 
d="M283 -10c-68 0 -124 21.001 -168 63.001s-66 95 -66 159c0 44 10.667 82.333 32 115s51 57.334 89 74.001c-52.667 33.333 -79 80.333 -79 141c0 52 18.333 95 55 129s82.334 51 137.001 51c55.333 0 101.166 -17 137.499 -51s54.5 -77 54.5 -129
c0 -60.667 -25.667 -107.667 -77 -141c38 -16.667 67.333 -41.334 88 -74.001s31 -71 31 -115c0 -64.667 -21.5 -117.834 -64.5 -159.501s-99.5 -62.5 -169.5 -62.5zM283 58.001c50.667 0 90.666 14.499 119.999 43.499s44 65.5 44 109.5
c0 44.667 -14.667 81.334 -44 110.001s-69 43 -119 43c-49.333 0 -89.166 -14.333 -119.499 -43s-45.5 -65.334 -45.5 -110.001c0 -43.333 15.167 -79.666 45.5 -108.999s69.833 -44 118.5 -44zM282.999 431c38 0 68.001 10.999 90.001 32.999s33 48.333 33 79
c0 32.667 -10.833 59.334 -32.5 80.001s-51.834 31 -90.501 31c-36.667 0 -66.334 -10.5 -89.001 -31.5s-34 -47.5 -34 -79.5c0 -30.667 11.333 -57 34 -79s52.334 -33 89.001 -33z" />
    <glyph glyph-name="nine" unicode="9" horiz-adv-x="556" 
d="M75 0l232.001 263c-11.333 -2.66699 -25 -4 -41 -4c-60.667 0 -112.834 23.167 -156.501 69.5s-65.5 99.5 -65.5 159.5c0 64.667 23.167 119.834 69.5 165.501s102.5 68.5 168.5 68.5s122.167 -22.833 168.5 -68.5s69.5 -99.834 69.5 -162.501
c0 -60 -26 -119.333 -78 -178l-276 -313h-91zM282.001 322c46.667 0 86 16.167 118 48.5s48 71.5 48 117.5s-16 85.167 -48 117.5s-71.333 48.5 -118 48.5s-86 -16.167 -118 -48.5s-48 -71.5 -48 -117.5s16 -85.167 48 -117.5s71.333 -48.5 118 -48.5z" />
    <glyph glyph-name="colon" unicode=":" horiz-adv-x="266" 
d="M133 378c-18 0 -33.5 6.66699 -46.5 20s-19.5 29 -19.5 47s6.5 33.667 19.5 47s28.5 20 46.5 20s33.5 -6.66699 46.5 -20s19.5 -29 19.5 -47s-6.5 -33.667 -19.5 -47s-28.5 -20 -46.5 -20zM133 -8c-18 0 -33.5 6.66699 -46.5 20s-19.5 29 -19.5 47s6.5 33.667 19.5 47
s28.5 20 46.5 20s33.5 -6.66699 46.5 -20s19.5 -29 19.5 -47s-6.5 -33.667 -19.5 -47s-28.5 -20 -46.5 -20z" />
    <glyph glyph-name="semicolon" unicode=";" horiz-adv-x="280" 
d="M196 20l-100 -160h-50l65 140c-23.333 13.333 -35 33 -35 59c0 18 6.5 33.667 19.5 47s28.5 20 46.5 20s33.5 -6.66699 46.5 -20s19.5 -29 19.5 -47c0 -13.333 -4 -26.333 -12 -39zM142 378c-18 0 -33.5 6.66699 -46.5 20s-19.5 29 -19.5 47s6.5 33.667 19.5 47
s28.5 20 46.5 20s33.5 -6.66699 46.5 -20s19.5 -29 19.5 -47s-6.5 -33.667 -19.5 -47s-28.5 -20 -46.5 -20z" />
    <glyph glyph-name="less" unicode="&#x3c;" horiz-adv-x="412" 
d="M376 543l-253 -253l253 -253h-89l-253 253l253 253h89z" />
    <glyph glyph-name="equal" unicode="=" horiz-adv-x="566" 
d="M71 149v63h424v-63h-424zM71 368v63h424v-63h-424z" />
    <glyph glyph-name="greater" unicode="&#x3e;" horiz-adv-x="412" 
d="M289 290l-253 253h89l253 -253l-253 -253h-89z" />
    <glyph glyph-name="question" unicode="?" horiz-adv-x="502" 
d="M197 229l-0.00292969 20.001c0 38.667 31 81.667 93 129c33.333 24 57.333 46 72 66s22 44.667 22 74c0 38.667 -12.333 71 -37 97s-56 39 -94 39c-43.333 0 -79 -13.833 -107 -41.5s-42 -62.5 -42 -104.5h-70c0 59.333 20.833 109.833 62.5 151.5
s93.834 62.5 156.501 62.5c59.333 0 107.666 -20 144.999 -60s56 -88 56 -144c0 -29.333 -6.66699 -57 -20 -83s-26.666 -45.333 -39.999 -58s-29.666 -26.334 -48.999 -41.001c-35.333 -27.333 -57.666 -48 -66.999 -62c-7.33301 -12 -11 -23.667 -11 -35v-10h-70z
M231.997 -7.99902c-18 0 -33.5 6.66699 -46.5 20s-19.5 29 -19.5 47s6.5 33.667 19.5 47s28.5 20 46.5 20s33.5 -6.66699 46.5 -20s19.5 -29 19.5 -47s-6.5 -33.667 -19.5 -47s-28.5 -20 -46.5 -20z" />
    <glyph glyph-name="at" unicode="@" horiz-adv-x="815" 
d="M398 -10c-105.333 0 -189.83 32.999 -253.497 98.999s-95.5 148.667 -95.5 248c0 74 18.333 140.667 55 200s84.5 105 143.5 137s122.833 48 191.5 48c97.333 0 178.166 -29.167 242.499 -87.5s96.5 -134.5 96.5 -228.5c0 -80.667 -17.333 -142 -52 -184
s-76 -63 -124 -63c-55.333 0 -90.333 21.333 -105 64c-12 -18 -30.5 -33 -55.5 -45s-49.833 -18 -74.5 -18c-42.667 0 -78.834 15.5 -108.501 46.5s-44.5 73.167 -44.5 126.5c0 62.667 19.833 114.667 59.5 156s87.5 62 143.5 62c30 0 55.5 -7.33301 76.5 -22
s34.833 -32 41.5 -52l12 65h69l-50 -243c-6 -22 -6.33301 -40.667 -1 -56s18.666 -23 39.999 -23c32.667 0 58.5 15.833 77.5 47.5s28.5 78.5 28.5 140.5c0 75.333 -25.5 136.333 -76.5 183s-116.5 70 -196.5 70c-88 0 -163.667 -30.167 -227 -90.5
s-95 -138.166 -95 -233.499c0 -85.333 25.5 -154.333 76.5 -207s119.5 -79 205.5 -79c70 0 132 13.333 186 40v-67c-58 -22.667 -120 -34 -186 -34zM376.003 220.999c32.667 0 61.5 11.332 86.5 33.999s40.833 51.334 47.5 86.001c8 42 3 77.333 -15 106s-44.333 43 -79 43
c-32 0 -61 -11.5 -87 -34.5s-41.667 -51.5 -47 -85.5c-8 -42 -3 -77.333 15 -106s44.333 -43 79 -43z" />
    <glyph glyph-name="A" unicode="A" horiz-adv-x="710" 
d="M8 0l316 710h61l317 -710h-80l-99 221h-339l-98 -221h-78zM353 603l-138 -311h277z" />
    <glyph glyph-name="B" unicode="B" horiz-adv-x="628" 
d="M99 0l-0.000976562 710.001h224c65.333 0 117 -17.667 155 -53s57 -78.333 57 -129c0 -69.333 -27 -119.666 -81 -150.999c85.333 -28.667 128 -85.334 128 -170.001c0 -60.667 -22.167 -110.334 -66.5 -149.001s-103.166 -58 -176.499 -58h-240zM174.999 69.001h172
c52 0 91.667 12 119 36s41 56 41 96s-13.5 72.167 -40.5 96.5s-66.5 36.5 -118.5 36.5h-173v-265zM174.999 400.001l153.002 0.000976562c41.333 0 73.666 11.167 96.999 33.5s35 51.166 35 86.499c0 33.333 -11.833 61.833 -35.5 85.5s-55.834 35.5 -96.501 35.5h-153v-241
z" />
    <glyph glyph-name="C" unicode="C" horiz-adv-x="791" 
d="M415 -12c-102.667 0 -189.5 35.333 -260.5 106s-106.5 157.667 -106.5 261s35.5 190.333 106.5 261s157.833 106 260.5 106c88 0 162.5 -24.167 223.5 -72.5s99.5 -105.5 115.5 -171.5h-80c-16.667 49.333 -48.334 90.333 -95.001 123s-101.334 49 -164.001 49
c-82 0 -150.833 -28.5 -206.5 -85.5s-83.5 -126.833 -83.5 -209.5c0 -83.333 27.833 -153.333 83.5 -210s124.5 -85 206.5 -85c62.667 0 117.334 16.333 164.001 49s78.334 73.667 95.001 123h80c-16 -66 -54.5 -123.167 -115.5 -171.5s-135.5 -72.5 -223.5 -72.5z" />
    <glyph glyph-name="D" unicode="D" horiz-adv-x="723" 
d="M99 0v710h194c111.333 0 202.833 -33.5 274.5 -100.5s107.5 -151.833 107.5 -254.5s-35.833 -187.5 -107.5 -254.5s-163.167 -100.5 -274.5 -100.5h-194zM175 72h118c91.333 0 165 26.5 221 79.5s84 120.833 84 203.5s-28 150.5 -84 203.5s-129.667 79.5 -221 79.5h-118
v-566z" />
    <glyph glyph-name="E" unicode="E" horiz-adv-x="554" 
d="M99 0v710h405v-72h-329v-237h269v-72h-269v-257h329v-72h-405z" />
    <glyph glyph-name="F" unicode="F" horiz-adv-x="528" 
d="M99 0v710h407v-72h-331v-237h262v-72h-262v-329h-76z" />
    <glyph glyph-name="G" unicode="G" horiz-adv-x="820" 
d="M415 -12c-102.667 0 -189.501 35.333 -260.501 106s-106.5 157.667 -106.5 261s35.5 190.333 106.5 261s157.833 106 260.5 106c82 0 153.667 -22 215 -66s102 -96 122 -156h-84c-20.667 44 -53.5 80 -98.5 108s-96.5 42 -154.5 42c-82 0 -150.833 -28.5 -206.5 -85.5
s-83.5 -126.833 -83.5 -209.5c0 -83.333 27.833 -153.333 83.5 -210s124.5 -85 206.5 -85c77.333 0 141.5 25.333 192.5 76s79.833 114.667 86.5 192h-279v72h357c8 -120.667 -23.167 -219.5 -93.5 -296.5s-158.166 -115.5 -263.499 -115.5z" />
    <glyph glyph-name="H" unicode="H" horiz-adv-x="765" 
d="M99 0v710h76v-309h415v309h76v-710h-76v329h-415v-329h-76z" />
    <glyph glyph-name="I" unicode="I" horiz-adv-x="274" 
d="M99 0v710h76v-710h-76z" />
    <glyph glyph-name="J" unicode="J" horiz-adv-x="523" 
d="M229 -12c-60 0 -109.5 17.667 -148.5 53s-58.5 83.666 -58.5 144.999h76c0 -40 12.667 -71.167 38 -93.5s56 -33.5 92 -33.5c37.333 0 67.833 11.833 91.5 35.5s35.5 60.834 35.5 111.501v504h76v-514c0 -70 -19 -122.167 -57 -156.5s-86.333 -51.5 -145 -51.5z" />
    <glyph glyph-name="K" unicode="K" horiz-adv-x="664" 
d="M573 0l-399 343v-343h-75v710h75v-311l327 311h103l-353 -337l435 -373h-113z" />
    <glyph glyph-name="L" unicode="L" horiz-adv-x="547" 
d="M99 0v710h76v-638h355v-72h-431z" />
    <glyph glyph-name="M" unicode="M" horiz-adv-x="886" 
d="M99 710h70l274 -365l274 365h70v-710h-76v579l-268 -357l-268 357v-579h-76v710z" />
    <glyph glyph-name="N" unicode="N" horiz-adv-x="794" 
d="M695 0h-67l-453 581v-581h-76v710h67l453 -581v581h76v-710z" />
    <glyph glyph-name="O" unicode="O" horiz-adv-x="830" 
d="M415 60c82 0 150.833 28.333 206.5 85s83.5 126.667 83.5 210c0 82.667 -27.833 152.5 -83.5 209.5s-124.5 85.5 -206.5 85.5s-150.833 -28.5 -206.5 -85.5s-83.5 -126.833 -83.5 -209.5c0 -83.333 27.833 -153.333 83.5 -210s124.5 -85 206.5 -85zM415 -12
c-102.667 0 -189.5 35.333 -260.5 106s-106.5 157.667 -106.5 261s35.5 190.333 106.5 261s157.833 106 260.5 106s189.5 -35.333 260.5 -106s106.5 -157.667 106.5 -261s-35.5 -190.333 -106.5 -261s-157.833 -106 -260.5 -106z" />
    <glyph glyph-name="P" unicode="P" horiz-adv-x="584" 
d="M552 488c0 -64 -22.167 -116.833 -66.5 -158.5s-102.833 -62.5 -175.5 -62.5h-135v-267h-76v710h211c72.667 0 131.167 -21 175.5 -63s66.5 -95 66.5 -159zM475 488c0 44 -14.5 80.167 -43.5 108.5s-69.5 42.5 -121.5 42.5h-135v-301h135c52 0 92.5 14 121.5 42
s43.5 64 43.5 108z" />
    <glyph glyph-name="Q" unicode="Q" horiz-adv-x="839" 
d="M415 -12c-102.667 0 -189.5 35.333 -260.5 106s-106.5 157.667 -106.5 261s35.5 190.333 106.5 261s157.833 106 260.5 106s189.5 -35.333 260.5 -106s106.5 -157.667 106.5 -261c0 -94 -30 -175.333 -90 -244l116 -111h-103l-66 63c-67.333 -50 -142 -75 -224 -75z
M415 60c64.667 0 121.667 18 171 54l-115 111l49 52l118 -114c44.667 52.667 67 116.667 67 192c0 82.667 -27.833 152.5 -83.5 209.5s-124.5 85.5 -206.5 85.5s-150.833 -28.5 -206.5 -85.5s-83.5 -126.833 -83.5 -209.5c0 -83.333 27.833 -153.333 83.5 -210
s124.5 -85 206.5 -85z" />
    <glyph glyph-name="R" unicode="R" horiz-adv-x="628" 
d="M99 0l0.000976562 710.002h232c65.333 0 116.666 -17.167 153.999 -51.5s56 -80.833 56 -139.5c0 -54.667 -16.5 -98.834 -49.5 -132.501s-78.5 -52.834 -136.5 -57.501l281 -329h-99l-281 330h-81v-330h-76zM175.001 400.002h147c94.667 0 142 39.667 142 119
c0 80 -47.333 120 -142 120h-147v-239z" />
    <glyph glyph-name="S" unicode="S" horiz-adv-x="552" 
d="M284 -12c-69.333 0 -125.998 18.498 -169.998 55.498s-66.667 82.833 -68 137.5h76c4 -38.667 22.167 -68.5 54.5 -89.5s67.833 -31.5 106.5 -31.5c41.333 0 75.833 10.667 103.5 32s41.5 49.666 41.5 84.999c0 59.333 -34.333 102.333 -103 129l-105 40
c-55.333 21.333 -95.333 47.333 -120 78s-37 70.334 -37 119.001c0 54.667 19.667 98.167 59 130.5s89.333 48.5 150 48.5c65.333 0 116.166 -18.167 152.499 -54.5s57.5 -79.833 63.5 -130.5h-76c-8.66699 37.333 -26.167 65.5 -52.5 84.5s-56.5 28.5 -90.5 28.5
c-37.333 0 -68.333 -9.66699 -93 -29s-37 -45 -37 -77c0 -31.333 8.33301 -56.166 25 -74.499s43.667 -34.833 81 -49.5l94 -36c55.333 -21.333 96.666 -48.166 123.999 -80.499s41 -73.833 41 -124.5c0 -58.667 -20.5 -105.167 -61.5 -139.5s-93.833 -51.5 -158.5 -51.5z
" />
    <glyph glyph-name="T" unicode="T" horiz-adv-x="567" 
d="M246 0v638h-230v72h535v-72h-230v-638h-75z" />
    <glyph glyph-name="U" unicode="U" horiz-adv-x="728" 
d="M364 -12c-82 0 -148.169 25.833 -198.502 77.5s-75.5 121.5 -75.5 209.5v435h76v-437c0 -67.333 17.833 -119.666 53.5 -156.999s83.834 -56 144.501 -56s108.834 18.667 144.501 56s53.5 89.666 53.5 156.999v437h76v-435c0 -88 -25.167 -157.833 -75.5 -209.5
s-116.5 -77.5 -198.5 -77.5z" />
    <glyph glyph-name="V" unicode="V" horiz-adv-x="694" 
d="M316 0l-306 710h85l252 -586l252 586h84l-305 -710h-62z" />
    <glyph glyph-name="W" unicode="W" horiz-adv-x="942" 
d="M650 0l-179 516l-179 -516h-66l-202 710h79l162 -580l206 592l206 -592l162 580h79l-202 -710h-66z" />
    <glyph glyph-name="X" unicode="X" horiz-adv-x="662" 
d="M103 0h-96l276 359l-266 351h93l221 -289l221 289h93l-267 -351l277 -359h-96l-228 296z" />
    <glyph glyph-name="Y" unicode="Y" horiz-adv-x="669" 
d="M297 0v301l-280 409h92l226 -331l226 331h92l-281 -410v-300h-75z" />
    <glyph glyph-name="Z" unicode="Z" horiz-adv-x="578" 
d="M33 0v50l398 588h-386v72h488v-50l-399 -588h410v-72h-511z" />
    <glyph glyph-name="bracketleft" unicode="[" horiz-adv-x="298" 
d="M97 -160v960h176v-63h-110v-834h110v-63h-176z" />
    <glyph glyph-name="backslash" unicode="\" horiz-adv-x="497" 
d="M89 710l386 -820h-67l-386 820h67z" />
    <glyph glyph-name="bracketright" unicode="]" horiz-adv-x="298" 
d="M201 800v-960h-176v63h110v834h-110v63h176z" />
    <glyph glyph-name="asciicircum" unicode="^" horiz-adv-x="426" 
d="M125 500h-70l132 210h52l132 -210h-70l-88 140z" />
    <glyph glyph-name="underscore" unicode="_" horiz-adv-x="537" 
d="M58 -63v63h421v-63h-421z" />
    <glyph glyph-name="grave" unicode="`" 
d="M32 560l-125 190h95l90 -190h-60z" />
    <glyph glyph-name="a" unicode="a" horiz-adv-x="634" 
d="M293 -10c-70 0 -129 25.333 -177 76s-72 112 -72 184s24 133.333 72 184s107 76 177 76c38 0 73.833 -8.66699 107.5 -26s59.5 -40 77.5 -68v84h70v-500h-70v84c-18 -28 -43.833 -50.667 -77.5 -68s-69.5 -26 -107.5 -26zM300 55c54 0 98.167 18.833 132.5 56.5
s51.5 83.834 51.5 138.501s-17.167 100.834 -51.5 138.501s-78.5 56.5 -132.5 56.5s-98.167 -18.833 -132.5 -56.5s-51.5 -83.834 -51.5 -138.501s17.167 -100.834 51.5 -138.501s78.5 -56.5 132.5 -56.5z" />
    <glyph glyph-name="b" unicode="b" horiz-adv-x="634" 
d="M341 -10c-38 0 -73.833 8.66699 -107.5 26s-59.5 40 -77.5 68v-84h-70v750h70v-334c18 28 43.833 50.667 77.5 68s69.5 26 107.5 26c70 0 129 -25.333 177 -76s72 -112 72 -184s-24 -133.333 -72 -184s-107 -76 -177 -76zM334 55c54 0 98.167 18.833 132.5 56.5
s51.5 83.834 51.5 138.501s-17.167 100.834 -51.5 138.501s-78.5 56.5 -132.5 56.5s-98.167 -18.833 -132.5 -56.5s-51.5 -83.834 -51.5 -138.501s17.167 -100.834 51.5 -138.501s78.5 -56.5 132.5 -56.5z" />
    <glyph glyph-name="c" unicode="c" horiz-adv-x="590" 
d="M305 -10c-75.333 0 -137.666 25.1689 -186.999 75.502s-74 111.833 -74 184.5s24.667 134.167 74 184.5s111.666 75.5 186.999 75.5c60.667 0 113.667 -16.833 159 -50.5s75.666 -77.167 90.999 -130.5h-76c-12 34.667 -33.667 62.667 -65 84s-67.666 32 -108.999 32
c-56 0 -101.5 -18.833 -136.5 -56.5s-52.5 -83.834 -52.5 -138.501s17.5 -100.834 52.5 -138.501s80.5 -56.5 136.5 -56.5c41.333 0 77.666 10.667 108.999 32s53 49.333 65 84h76c-15.333 -53.333 -45.666 -96.833 -90.999 -130.5s-98.333 -50.5 -159 -50.5z" />
    <glyph glyph-name="d" unicode="d" horiz-adv-x="634" 
d="M293 -10c-70 0 -129 25.333 -177 76s-72 112 -72 184s24 133.333 72 184s107 76 177 76c38 0 73.833 -8.66699 107.5 -26s59.5 -40 77.5 -68v334h70v-750h-70v84c-18 -28 -43.833 -50.667 -77.5 -68s-69.5 -26 -107.5 -26zM300 55c54 0 98.167 18.833 132.5 56.5
s51.5 83.834 51.5 138.501s-17.167 100.834 -51.5 138.501s-78.5 56.5 -132.5 56.5s-98.167 -18.833 -132.5 -56.5s-51.5 -83.834 -51.5 -138.501s17.167 -100.834 51.5 -138.501s78.5 -56.5 132.5 -56.5z" />
    <glyph glyph-name="e" unicode="e" horiz-adv-x="575" 
d="M293 -10c-72 0 -131.334 24.667 -178.001 74s-70 111.333 -70 186s22.667 136.667 68 186s106.333 74 183 74s136.334 -27.833 179.001 -83.5s60.667 -121.167 54 -196.5h-412c0 -50 17.667 -91.667 53 -125s76.333 -50 123 -50c72 0 124 31.333 156 94h72
c-12.667 -46 -38.667 -84 -78 -114s-89.333 -45 -150 -45zM292.999 445c-42 0 -79 -12.5 -111 -37.5s-52.333 -63.833 -61 -116.5h336c-8 49.333 -26.667 87.333 -56 114s-65.333 40 -108 40z" />
    <glyph glyph-name="f" unicode="f" horiz-adv-x="353" 
d="M124 0l-0.000976562 434.001h-107v66h107v112c0 47.333 12.833 83.166 38.5 107.499s59.834 36.5 102.501 36.5c28 0 53 -4.33301 75 -13v-63c-16.667 7.33301 -38 11 -64 11c-28 0 -48.667 -6.5 -62 -19.5s-20 -34.833 -20 -65.5v-106h146v-66h-146v-434h-70z" />
    <glyph glyph-name="g" unicode="g" horiz-adv-x="631" 
d="M302 -219c-65.333 0 -120 15.5 -164 46.5s-70 71.5 -78 121.5h69c23.333 -69.333 81.333 -104 174 -104c51.333 0 92.833 16.667 124.5 50s47.5 80 47.5 140v59c-18.667 -28 -44.334 -50.667 -77.001 -68s-68 -26 -106 -26c-70.667 0 -129.5 24.5 -176.5 73.5
s-70.5 109.5 -70.5 181.5s23.5 132.5 70.5 181.5s105.833 73.5 176.5 73.5c38 0 73.333 -8.66699 106 -26s58.334 -40 77.001 -68v84h70v-469c0 -79.333 -22.5 -140.833 -67.5 -184.5s-103.5 -65.5 -175.5 -65.5zM299 65c54 0 97.833 18 131.5 54s50.5 81.333 50.5 136
s-16.833 100 -50.5 136s-77.5 54 -131.5 54s-97.833 -18 -131.5 -54s-50.5 -81.333 -50.5 -136s16.833 -100 50.5 -136s77.5 -54 131.5 -54z" />
    <glyph glyph-name="h" unicode="h" horiz-adv-x="586" 
d="M156 0h-70.001v750h70v-334c34 62.667 88.667 94 164 94c55.333 0 100.5 -17.667 135.5 -53s52.5 -83.333 52.5 -144v-313h-70v303c0 43.333 -11.5 77.833 -34.5 103.5s-53.5 38.5 -91.5 38.5c-45.333 0 -82.666 -17.5 -111.999 -52.5s-44 -82.833 -44 -143.5v-249z" />
    <glyph glyph-name="i" unicode="i" horiz-adv-x="242" 
d="M122 650c-15.333 0 -28.166 5.16699 -38.499 15.5s-15.5 22.833 -15.5 37.5s5.16699 27.167 15.5 37.5s23.166 15.5 38.499 15.5c14.667 0 27 -5.16699 37 -15.5s15 -22.833 15 -37.5s-5 -27.167 -15 -37.5s-22.333 -15.5 -37 -15.5zM86 0v500h70v-500h-70z" />
    <glyph glyph-name="j" unicode="j" horiz-adv-x="250" 
d="M164 500v-575.001c0 -47.333 -12.833 -83.166 -38.5 -107.499s-59.834 -36.5 -102.501 -36.5c-13.333 0 -25 1 -35 3v64c10.667 -1.33301 20.334 -2 29.001 -2c51.333 0 77 28.333 77 85v569h70zM130 649.999c-15.333 0 -28.166 5.16699 -38.499 15.5
s-15.5 22.833 -15.5 37.5s5.16699 27.167 15.5 37.5s23.166 15.5 38.499 15.5c14.667 0 27 -5.16699 37 -15.5s15 -22.833 15 -37.5s-5 -27.167 -15 -37.5s-22.333 -15.5 -37 -15.5z" />
    <glyph glyph-name="k" unicode="k" horiz-adv-x="534" 
d="M447 0l-291 255v-255h-70v750h70v-447l235 197h99l-263 -220l320 -280h-100z" />
    <glyph glyph-name="l" unicode="l" horiz-adv-x="242" 
d="M86 0v750h70v-750h-70z" />
    <glyph glyph-name="m" unicode="m" horiz-adv-x="882" 
d="M734 0l-0.000976562 303c0 42.667 -9.16699 77 -27.5 103s-44.5 39 -78.5 39c-44.667 0 -80.5 -17.833 -107.5 -53.5s-40.5 -83.167 -40.5 -142.5v-249h-70v303c0 42.667 -9.16699 77 -27.5 103s-44.166 39 -77.499 39c-44 0 -79.833 -17.833 -107.5 -53.5
s-41.5 -83.167 -41.5 -142.5v-249h-70v500h70v-84c14.667 29.333 35.667 52.333 63 69s58.333 25 93 25c37.333 0 69.5 -10 96.5 -30s46.5 -47.667 58.5 -83c12.667 34.667 33.5 62.167 62.5 82.5s63.5 30.5 103.5 30.5c52 0 93.5 -18.167 124.5 -54.5
s46.5 -83.833 46.5 -142.5v-313h-70z" />
    <glyph glyph-name="n" unicode="n" horiz-adv-x="586" 
d="M86 0l-0.000976562 500h70v-84c34 62.667 88.667 94 164 94c55.333 0 100.5 -17.667 135.5 -53s52.5 -83.333 52.5 -144v-313h-70v303c0 43.333 -11.5 77.833 -34.5 103.5s-53.5 38.5 -91.5 38.5c-45.333 0 -82.666 -17.5 -111.999 -52.5s-44 -82.833 -44 -143.5v-249
h-70z" />
    <glyph glyph-name="o" unicode="o" horiz-adv-x="610" 
d="M305 -10c-75.333 0 -137.666 25.167 -186.999 75.5s-74 111.833 -74 184.5s24.667 134.167 74 184.5s111.666 75.5 186.999 75.5s137.666 -25.167 186.999 -75.5s74 -111.833 74 -184.5s-24.667 -134.167 -74 -184.5s-111.666 -75.5 -186.999 -75.5zM305 55
c56 0 101.5 18.833 136.5 56.5s52.5 83.834 52.5 138.501s-17.5 100.834 -52.5 138.501s-80.5 56.5 -136.5 56.5s-101.5 -18.833 -136.5 -56.5s-52.5 -83.834 -52.5 -138.501s17.5 -100.834 52.5 -138.501s80.5 -56.5 136.5 -56.5z" />
    <glyph glyph-name="p" unicode="p" horiz-adv-x="635" 
d="M156 -209h-70v709h70v-84c18 28 43.833 50.667 77.5 68s69.5 26 107.5 26c70 0 129 -25.333 177 -76s72 -112 72 -184s-24 -133.333 -72 -184s-107 -76 -177 -76c-38 0 -73.833 8.66699 -107.5 26s-59.5 40 -77.5 68v-293zM334 55c54 0 98.167 18.833 132.5 56.5
s51.5 83.834 51.5 138.501s-17.167 100.834 -51.5 138.501s-78.5 56.5 -132.5 56.5s-98.167 -18.833 -132.5 -56.5s-51.5 -83.834 -51.5 -138.501s17.167 -100.834 51.5 -138.501s78.5 -56.5 132.5 -56.5z" />
    <glyph glyph-name="q" unicode="q" horiz-adv-x="634" 
d="M548 -209h-70v293c-18 -28 -43.833 -50.667 -77.5 -68s-69.5 -26 -107.5 -26c-70 0 -129 25.333 -177 76s-72 112 -72 184s24 133.333 72 184s107 76 177 76c38 0 73.833 -8.66699 107.5 -26s59.5 -40 77.5 -68v84h70v-709zM300 55c54 0 98.167 18.833 132.5 56.5
s51.5 83.834 51.5 138.501s-17.167 100.834 -51.5 138.501s-78.5 56.5 -132.5 56.5s-98.167 -18.833 -132.5 -56.5s-51.5 -83.834 -51.5 -138.501s17.167 -100.834 51.5 -138.501s78.5 -56.5 132.5 -56.5z" />
    <glyph glyph-name="r" unicode="r" horiz-adv-x="357" 
d="M86 0l0.000976562 500.001h70v-103c10.667 33.333 29.667 59.666 57 78.999s56.666 29 87.999 29c14 0 26 -1.33301 36 -4v-73c-12 4.66699 -26 7 -42 7c-35.333 0 -67.333 -16 -96 -48s-43 -77.333 -43 -136v-251h-70z" />
    <glyph glyph-name="s" unicode="s" horiz-adv-x="457" 
d="M237 -10c-53.333 0 -98.334 13.002 -135.001 39.002s-57 63.333 -61 112h70c14 -58.667 56 -88 126 -88c30.667 0 56 6.5 76 19.5s30 31.5 30 55.5c0 22 -7.16699 40.167 -21.5 54.5s-37.166 25.833 -68.499 34.5l-65 17c-86 23.333 -129 71.666 -129 144.999
c0 40 15.333 71.833 46 95.5s70 35.5 118 35.5c50.667 0 91.5 -13.333 122.5 -40s48.5 -59.667 52.5 -99h-69c-7.33301 24 -20.333 42.833 -39 56.5s-41 20.5 -67 20.5c-26.667 0 -49 -6.33301 -67 -19s-27 -29.334 -27 -50.001c0 -20 6.33301 -36.333 19 -49
s33.667 -23 63 -31l77 -20c40 -10 70.833 -27.5 92.5 -52.5s32.5 -56.167 32.5 -93.5c0 -48 -16.167 -83.833 -48.5 -107.5s-74.833 -35.5 -127.5 -35.5z" />
    <glyph glyph-name="t" unicode="t" horiz-adv-x="367" 
d="M265 -5c-42 0 -76.167 12.168 -102.5 36.501s-39.5 60.166 -39.5 107.499v295h-107v66h107v139h70v-139h146v-66h-146v-289c0 -30.667 6.83301 -52.5 20.5 -65.5s34.5 -19.5 62.5 -19.5c25.333 0 46.333 3.66699 63 11v-63c-22 -8.66699 -46.667 -13 -74 -13z" />
    <glyph glyph-name="u" unicode="u" horiz-adv-x="576" 
d="M261 -10c-54 0 -97.999 18 -131.999 54s-51 83.667 -51 143v313h70v-303c0 -43.333 11.333 -77.833 34 -103.5s52 -38.5 88 -38.5c43.333 0 79.166 17.833 107.499 53.5s42.5 83.167 42.5 142.5v249h70v-500h-70v84c-34 -62.667 -87 -94 -159 -94z" />
    <glyph glyph-name="v" unicode="v" horiz-adv-x="539" 
d="M242 0l-234 500h78l183 -397l183 397h79l-234 -500h-55z" />
    <glyph glyph-name="w" unicode="w" horiz-adv-x="751" 
d="M508 0l-133 381l-132 -381h-58l-171 500h72l129 -380l133 380h54l132 -380l130 380h73l-171 -500h-58z" />
    <glyph glyph-name="x" unicode="x" horiz-adv-x="518" 
d="M422 0l-163 201l-163 -201h-89l208 256l-187 244h85l145 -189l146 189h86l-188 -245l208 -255h-88z" />
    <glyph glyph-name="y" unicode="y" horiz-adv-x="540" 
d="M201 -209h-79l110 234l-222 475h78l183 -397l183 397h79z" />
    <glyph glyph-name="z" unicode="z" horiz-adv-x="479" 
d="M40 0v56l302 379h-298v65h388v-57l-301 -378h310v-65h-401z" />
    <glyph glyph-name="braceleft" unicode="{" horiz-adv-x="308" 
d="M283 -160l-52.999 -0.000976562c-46.667 0 -78.834 11.5 -96.501 34.5s-26.5 59.167 -26.5 108.5v230c0 27.333 -3.83301 46.666 -11.5 57.999s-23.5 17 -47.5 17h-17v63h17c24 0 39.833 5.66699 47.5 17s11.5 30.666 11.5 57.999v231c0 50 8.83301 86.333 26.5 109
s49.5 34 95.5 34h54v-63h-48c-25.333 0 -42 -5.66699 -50 -17s-12 -31.333 -12 -60v-227c0 -33.333 -3.5 -58.166 -10.5 -74.499s-20.833 -29.166 -41.5 -38.499c20 -11.333 33.667 -25.166 41 -41.499s11 -40.5 11 -72.5v-226c0 -29.333 4 -49.5 12 -60.5
s24.667 -16.5 50 -16.5h48v-63z" />
    <glyph glyph-name="bar" unicode="|" horiz-adv-x="261" 
d="M97 -110v820h67v-820h-67z" />
    <glyph glyph-name="braceright" unicode="}" horiz-adv-x="308" 
d="M78 -160l-52.999 0.000976562v63h48c25.333 0 42 5.5 50 16.5s12 31.167 12 60.5v226c0 32 3.66699 56.167 11 72.5s21 30.166 41 41.499c-20.667 9.33301 -34.5 22.166 -41.5 38.499s-10.5 41.166 -10.5 74.499v227c0 28.667 -4 48.667 -12 60s-24.667 17 -50 17h-48v63
h54c46 0 77.833 -11.333 95.5 -34s26.5 -59 26.5 -109v-231c0 -27.333 3.83301 -46.666 11.5 -57.999s23.5 -17 47.5 -17h17v-63h-17c-24 0 -39.833 -5.66699 -47.5 -17s-11.5 -30.666 -11.5 -57.999v-230c0 -49.333 -8.83301 -85.5 -26.5 -108.5
s-49.834 -34.5 -96.501 -34.5z" />
    <glyph glyph-name="asciitilde" unicode="~" horiz-adv-x="432" 
d="M72 230l55 119h46l95 -61l28 61h66l-55 -119h-46l-96 60l-27 -60h-66z" />
    <glyph glyph-name="uni00A0" unicode="&#xa0;" horiz-adv-x="245" 
 />
    <glyph glyph-name="exclamdown" unicode="&#xa1;" horiz-adv-x="252" 
d="M148 290l13 -208v-291h-70v291l13 208h44zM126 378c-18 0 -33.5 6.66699 -46.5 20s-19.5 29 -19.5 47s6.5 33.667 19.5 47s28.5 20 46.5 20s33.5 -6.66699 46.5 -20s19.5 -29 19.5 -47s-6.5 -33.667 -19.5 -47s-28.5 -20 -46.5 -20z" />
    <glyph glyph-name="cent" unicode="&#xa2;" horiz-adv-x="593" 
d="M278 -88l0.000976562 79.9961c-68 6.66699 -123.667 34.5 -167 83.5s-65 107.167 -65 174.5c0 66.667 21.833 124.667 65.5 174s99.167 77.333 166.5 84v80h54v-79c55.333 -5.33301 103.333 -24.5 144 -57.5s67.667 -73.833 81 -122.5h-76
c-10.667 30.667 -29.334 56.334 -56.001 77.001s-57.667 33 -93 37v-387c36 4.66699 67.167 17.334 93.5 38.001s44.833 46.334 55.5 77.001h76c-13.333 -49.333 -40.5 -90.666 -81.5 -123.999s-88.833 -52 -143.5 -56v-79h-54zM118.001 249.996
c0 -50.667 14.5 -93.833 43.5 -129.5s67.833 -56.834 116.5 -63.501v386c-48.667 -6.66699 -87.5 -28.167 -116.5 -64.5s-43.5 -79.166 -43.5 -128.499z" />
    <glyph glyph-name="sterling" unicode="&#xa3;" horiz-adv-x="555" 
d="M53 338l0.00195312 54.001h59c-14 50 -21 92.333 -21 127c0 57.333 19.167 105.5 57.5 144.5s88.166 58.5 149.499 58.5c62 0 112.5 -20.333 151.5 -61s58.5 -90.334 58.5 -149.001h-70c-1.33301 40 -14.833 73.667 -40.5 101s-58.834 41 -99.501 41
c-41.333 0 -74.5 -12.5 -99.5 -37.5s-37.5 -57.5 -37.5 -97.5c0 -36.667 8.33301 -79 25 -127h196v-54h-179c17.333 -52 26 -97.667 26 -137c0 -54 -13.667 -98.333 -41 -133h320v-68h-455v68h49c38.667 32 58 74.667 58 128c0 20 -10.667 67.333 -32 142h-75z" />
    <glyph glyph-name="yen" unicode="&#xa5;" horiz-adv-x="658" 
d="M89 300v54h171l-229 356h84l214 -340l213 340h85l-229 -356h171v-54h-205v-74h205v-54h-205v-172h-70v172h-205v54h205v74h-205z" />
    <glyph glyph-name="brokenbar" unicode="&#xa6;" horiz-adv-x="261" 
d="M97 -110v367h67v-367h-67zM97 343v367h67v-367h-67z" />
    <glyph glyph-name="section" unicode="&#xa7;" horiz-adv-x="459" 
d="M240 -219c-42.667 0 -79.8291 10.6689 -111.496 32.002s-50.167 54 -55.5 98h68c5.33301 -24 17.166 -41.5 35.499 -52.5s39.5 -16.5 63.5 -16.5c27.333 0 50.166 8.5 68.499 25.5s26.833 39.167 25.5 66.5c-2.66699 54 -36.667 96.333 -102 127l-65 29
c-75.333 33.333 -113 88 -113 164c0 77.333 38 131.666 114 162.999c-34.667 18 -61.5 39.667 -80.5 65s-28.5 58 -28.5 98c0 42 13.833 76.167 41.5 102.5s64.5 39.5 110.5 39.5c42 0 77.333 -10.667 106 -32s45.667 -54 51 -98h-68c-10.667 46 -40.334 69 -89.001 69
c-26.667 0 -47.334 -7.66699 -62.001 -23s-22 -35 -22 -59c0 -30 9.5 -53.833 28.5 -71.5s43.5 -32.834 73.5 -45.501l65 -29c75.333 -33.333 113 -88 113 -164c0 -78 -38.667 -132.667 -116 -164c71.333 -40.667 108.333 -98 111 -172
c1.33301 -45.333 -13.5 -82 -44.5 -110s-70.167 -42 -117.5 -42zM122.005 254.002c0 -47.333 27.667 -83.333 83 -108l10 -5c41.333 14 72.333 30.5 93 49.5s31 45.167 31 78.5c0 47.333 -27.667 83.333 -83 108l-10 4c-41.333 -13.333 -72.333 -29.333 -93 -48
s-31 -45 -31 -79z" />
    <glyph glyph-name="dieresis" unicode="&#xa8;" 
d="M-110 602c-15.333 0 -28.166 5.16699 -38.499 15.5s-15.5 22.833 -15.5 37.5s5.16699 27.167 15.5 37.5s23.166 15.5 38.499 15.5c14.667 0 27 -5.16699 37 -15.5s15 -22.833 15 -37.5s-5 -27.167 -15 -37.5s-22.333 -15.5 -37 -15.5zM112 602
c-15.333 0 -28.166 5.16699 -38.499 15.5s-15.5 22.833 -15.5 37.5s5.16699 27.167 15.5 37.5s23.166 15.5 38.499 15.5c14.667 0 27 -5.16699 37 -15.5s15 -22.833 15 -37.5s-5 -27.167 -15 -37.5s-22.333 -15.5 -37 -15.5z" />
    <glyph glyph-name="copyright" unicode="&#xa9;" horiz-adv-x="829" 
d="M419 163c-56 0 -102.5 18.501 -139.5 55.501s-55.5 82.5 -55.5 136.5s18.667 99.667 56 137s83.666 56 138.999 56c43.333 0 81.833 -12.5 115.5 -37.5s55.167 -56.5 64.5 -94.5h-72c-8 20.667 -21.833 37.167 -41.5 49.5s-41.834 18.5 -66.501 18.5
c-37.333 0 -68 -12.333 -92 -37s-36 -55.334 -36 -92.001s12 -67.167 36 -91.5s54.667 -36.5 92 -36.5c24.667 0 46.834 6.16699 66.501 18.5s33.5 28.833 41.5 49.5h72c-9.33301 -38 -30.666 -69.5 -63.999 -94.5s-72 -37.5 -116 -37.5zM414 55.001
c82 0 152.667 29.502 212 88.502s89 129.5 89 211.5s-29.667 152.5 -89 211.5s-130 88.5 -212 88.5s-152.5 -29.333 -211.5 -88s-88.5 -129.334 -88.5 -212.001s29.5 -153.334 88.5 -212.001s129.5 -88 211.5 -88zM414 -11.9971c-100.667 0 -187 36 -259 108
s-108 158.333 -108 259s36 187 108 259s158.333 108 259 108c101.333 0 188 -35.833 260 -107.5s108 -158.167 108 -259.5s-36 -187.833 -108 -259.5s-158.667 -107.5 -260 -107.5z" />
    <glyph glyph-name="ordfeminine" unicode="&#xaa;" horiz-adv-x="425" 
d="M191 404c-41.333 0 -75.833 15.1689 -103.5 45.502s-41.5 67.166 -41.5 110.499s13.833 80.166 41.5 110.499s62.167 45.5 103.5 45.5c44 0 77.333 -16 100 -48v42h61v-300h-61v42c-22.667 -32 -56 -48 -100 -48zM202 460.002c27.333 0 49.833 9.5 67.5 28.5
s26.5 42.833 26.5 71.5s-8.83301 52.5 -26.5 71.5s-40.167 28.5 -67.5 28.5s-49.833 -9.5 -67.5 -28.5s-26.5 -42.833 -26.5 -71.5s8.83301 -52.5 26.5 -71.5s40.167 -28.5 67.5 -28.5z" />
    <glyph glyph-name="guillemotleft" unicode="&#xab;" horiz-adv-x="462" 
d="M211 250l141 217h59l-116 -217l116 -217h-59zM47 250l141 217h59l-116 -217l116 -217h-59z" />
    <glyph glyph-name="uni00AD" unicode="&#xad;" horiz-adv-x="381" 
d="M68 244v72h245v-72h-245z" />
    <glyph glyph-name="registered" unicode="&#xae;" horiz-adv-x="829" 
d="M414 -12c-100.667 0 -187 36 -259 108s-108 158.333 -108 259s36 187 108 259s158.333 108 259 108c101.333 0 188 -35.833 260 -107.5s108 -158.167 108 -259.5s-36 -187.833 -108 -259.5s-158.667 -107.5 -260 -107.5zM414 55c82 0 152.667 29.502 212 88.502
s89 129.5 89 211.5s-29.667 152.5 -89 211.5s-130 88.5 -212 88.5s-152.5 -29.333 -211.5 -88s-88.5 -129.334 -88.5 -212.001s29.5 -153.334 88.5 -212.001s129.5 -88 211.5 -88zM297 169.002l-0.000976562 373h137c34.667 0 62.334 -10 83.001 -30s31 -46 31 -78
c0 -50 -27.333 -83 -82 -99l137 -166h-81l-133 161h-25v-161h-67zM363.999 388.002h63c16.667 0 30 4 40 12s15 19.333 15 34c0 30.667 -18.333 46 -55 46h-63v-92z" />
    <glyph glyph-name="macron" unicode="&#xaf;" 
d="M-158 649v61h316v-61h-316z" />
    <glyph glyph-name="degree" unicode="&#xb0;" horiz-adv-x="338" 
d="M169 523c19.333 0 35.666 6.66699 48.999 20s20 29.666 20 48.999s-6.66699 35.666 -20 48.999s-29.666 20 -48.999 20s-35.666 -6.66699 -48.999 -20s-20 -29.666 -20 -48.999s6.66699 -35.666 20 -48.999s29.666 -20 48.999 -20zM169 470
c-34 0 -62.833 11.833 -86.5 35.5s-35.5 52.5 -35.5 86.5s11.833 62.833 35.5 86.5s52.5 35.5 86.5 35.5s62.833 -11.833 86.5 -35.5s35.5 -52.5 35.5 -86.5s-11.833 -62.833 -35.5 -86.5s-52.5 -35.5 -86.5 -35.5z" />
    <glyph glyph-name="twosuperior" unicode="&#xb2;" horiz-adv-x="352" 
d="M317 469l0.00195312 -59.0029h-283v23c0 12.667 1.16699 24.667 3.5 36s7.16602 22.5 14.499 33.5l17 26c4 6.33301 12.667 15 26 26l25 20.5c3.33301 2.66699 13.333 9.83398 30 21.501s25.667 17.834 27 18.501c27.333 20 46.5 37.167 57.5 51.5
s16.5 32.166 16.5 53.499c0 20.667 -6.66699 37.334 -20 50.001s-31 19 -53 19c-23.333 0 -42.833 -6.83301 -58.5 -20.5s-23.5 -32.834 -23.5 -57.501h-62c0 40.667 13.667 73.834 41 99.501s61.666 38.5 102.999 38.5c38 0 70 -11.167 96 -33.5s39 -53.833 39 -94.5
c0 -31.333 -7.5 -58.166 -22.5 -80.499s-39.833 -46.166 -74.5 -71.499l-22 -15l-23 -15.5c-4.66699 -3 -11 -7.83301 -19 -14.5s-14.167 -12.334 -18.5 -17.001s-8.5 -10.5 -12.5 -17.5s-7 -13.833 -9 -20.5h205z" />
    <glyph glyph-name="threesuperior" unicode="&#xb3;" horiz-adv-x="365" 
d="M187 404c-43.333 0 -80.167 13.0029 -110.5 39.0029s-45.5 59.667 -45.5 101h61c2 -24.667 11.833 -44.334 29.5 -59.001s39.5 -22 65.5 -22c23.333 0 42.666 6.33301 57.999 19s23 30 23 52c0 24 -8 42.167 -24 54.5s-37.333 18.5 -64 18.5h-33v54h34
c22 0 39.833 5.83301 53.5 17.5s20.834 27.167 21.501 46.5s-6 34.833 -20 46.5s-31.333 17.5 -52 17.5c-24.667 0 -44.667 -6.83301 -60 -20.5s-23.333 -32.834 -24 -57.501h-61c0 41.333 14 74.666 42 99.999s62.333 38 103 38c38.667 0 70.667 -11.167 96 -33.5
s38 -51.5 38 -87.5c-0.666992 -42.667 -19 -73.667 -55 -93c20.667 -8.66699 37 -22 49 -40s18 -39 18 -63c0 -38 -13.333 -68.833 -40 -92.5s-61 -35.5 -103 -35.5z" />
    <glyph glyph-name="acute" unicode="&#xb4;" 
d="M-93 560l90 190h95l-125 -190h-60z" />
    <glyph glyph-name="paragraph" unicode="&#xb6;" horiz-adv-x="612" 
d="M256 -184v444c-62 0 -115 22 -159 66s-66 97 -66 159s22 115 66 159s97 66 159 66h247v-894h-67v828h-113v-828h-67z" />
    <glyph glyph-name="periodcentered" unicode="&#xb7;" horiz-adv-x="264" 
d="M132 202c-18 0 -33.5 6.66699 -46.5 20s-19.5 29 -19.5 47s6.5 33.667 19.5 47s28.5 20 46.5 20s33.5 -6.66699 46.5 -20s19.5 -29 19.5 -47s-6.5 -33.667 -19.5 -47s-28.5 -20 -46.5 -20z" />
    <glyph glyph-name="cedilla" unicode="&#xb8;" 
d="M-104 -204l0.000976562 52.001c20 -11.333 45.333 -17 76 -17c20.667 0 37.5 3.83301 50.5 11.5s19.5 18.5 19.5 32.5c0 20.667 -15.667 31 -47 31c-16.667 0 -32 -3.33301 -46 -10l-32 21l52 86h52l-34 -56c8 4 20.333 6 37 6c23.333 0 42.333 -6.83301 57 -20.5
s22 -32.167 22 -55.5c0 -28.667 -12.167 -51.834 -36.5 -69.501s-54.5 -26.5 -90.5 -26.5c-32.667 0 -59.334 5 -80.001 15z" />
    <glyph glyph-name="onesuperior" unicode="&#xb9;" horiz-adv-x="224" 
d="M98 410v372h-85l47 60h99v-432h-61z" />
    <glyph glyph-name="ordmasculine" unicode="&#xba;" horiz-adv-x="404" 
d="M202 404c-44.667 0 -82 15 -112 45s-45 67 -45 111s15 81 45 111s67.333 45 112 45s82 -15 112 -45s45 -67 45 -111s-15 -81 -45 -111s-67.333 -45 -112 -45zM202 461c28 0 50.833 9.50195 68.5 28.502s26.5 42.5 26.5 70.5s-8.83301 51.5 -26.5 70.5
s-40.5 28.5 -68.5 28.5s-50.833 -9.33301 -68.5 -28s-26.5 -42.334 -26.5 -71.001s8.83301 -52.334 26.5 -71.001s40.5 -28 68.5 -28z" />
    <glyph glyph-name="guillemotright" unicode="&#xbb;" horiz-adv-x="462" 
d="M274 467l141 -217l-141 -217h-59l116 217l-116 217h59zM110 467l141 -217l-141 -217h-59l116 217l-116 217h59z" />
    <glyph glyph-name="onequarter" unicode="&#xbc;" horiz-adv-x="776" 
d="M98 278v372h-85l47 60h99v-432h-61zM108 0h-69l500 710h69zM632 1v112h-225v49l232 271h54v-263h59v-57h-59v-112h-61zM484 170h148v171z" />
    <glyph glyph-name="onehalf" unicode="&#xbd;" horiz-adv-x="765" 
d="M98 278v372h-85l47 60h99v-432h-61zM108 0h-69l500 710h69zM730 60l0.00195312 -59.0029h-283v23c0 12.667 1.16699 24.667 3.5 36s7.16602 22.5 14.499 33.5l17 26c4 6.33301 12.667 15 26 26l25 20.5c3.33301 2.66699 13.333 9.83398 30 21.501
s25.667 17.834 27 18.501c27.333 20 46.5 37.167 57.5 51.5s16.5 32.166 16.5 53.499c0 20.667 -6.66699 37.334 -20 50.001s-31 19 -53 19c-23.333 0 -42.833 -6.83301 -58.5 -20.5s-23.5 -32.834 -23.5 -57.501h-62c0 40.667 13.667 73.834 41 99.501
s61.666 38.5 102.999 38.5c38 0 70 -11.167 96 -33.5s39 -53.833 39 -94.5c0 -31.333 -7.5 -58.166 -22.5 -80.499s-39.833 -46.166 -74.5 -71.499l-22 -15l-23 -15.5c-4.66699 -3 -11 -7.83301 -19 -14.5s-14.167 -12.334 -18.5 -17.001s-8.5 -10.5 -12.5 -17.5
s-7 -13.833 -9 -20.5h205z" />
    <glyph glyph-name="threequarters" unicode="&#xbe;" horiz-adv-x="908" 
d="M187 272c-43.333 0 -80.167 13.0029 -110.5 39.0029s-45.5 59.667 -45.5 101h61c2 -24.667 11.833 -44.334 29.5 -59.001s39.5 -22 65.5 -22c23.333 0 42.666 6.33301 57.999 19s23 30 23 52c0 24 -8 42.167 -24 54.5s-37.333 18.5 -64 18.5h-33v54h34
c22 0 39.833 5.83301 53.5 17.5s20.834 27.167 21.501 46.5s-6 34.833 -20 46.5s-31.333 17.5 -52 17.5c-24.667 0 -44.667 -6.83301 -60 -20.5s-23.333 -32.834 -24 -57.501h-61c0 41.333 14 74.666 42 99.999s62.333 38 103 38c38.667 0 70.667 -11.167 96 -33.5
s38 -51.5 38 -87.5c-0.666992 -42.667 -19 -73.667 -55 -93c20.667 -8.66699 37 -22 49 -40s18 -39 18 -63c0 -38 -13.333 -68.833 -40 -92.5s-61 -35.5 -103 -35.5zM239.999 0.00292969h-69l500 710h69zM763.999 1.00293v112h-225v49l232 271h54v-263h59v-57h-59v-112h-61z
M615.999 170.003h148v171z" />
    <glyph glyph-name="questiondown" unicode="&#xbf;" horiz-adv-x="489" 
d="M296 273l0.00292969 -19.999c0 -38 -31 -81 -93 -129c-23.333 -18 -40.5 -32.333 -51.5 -43s-20.833 -24.334 -29.5 -41.001s-13 -35.334 -13 -56.001c0 -38.667 12.167 -71 36.5 -97s55.833 -39 94.5 -39c43.333 0 79 13.833 107 41.5s42 62.5 42 104.5h70
c0 -59.333 -20.833 -109.833 -62.5 -151.5s-93.834 -62.5 -156.501 -62.5c-59.333 0 -107.666 20 -144.999 60s-56 88 -56 144c0 29.333 6.66699 57 20 83s26.666 45.333 39.999 58s29.666 26.334 48.999 41.001c35.333 27.333 57.666 48 66.999 62
c7.33301 12 11 23.667 11 35v10h70zM261.003 510.001c18 0 33.5 -6.66699 46.5 -20s19.5 -29 19.5 -47s-6.5 -33.667 -19.5 -47s-28.5 -20 -46.5 -20s-33.5 6.66699 -46.5 20s-19.5 29 -19.5 47s6.5 33.667 19.5 47s28.5 20 46.5 20z" />
    <glyph glyph-name="Agrave" unicode="&#xc0;" horiz-adv-x="710" 
d="M8 0l316 710h61l317 -710h-80l-99 221h-339l-98 -221h-78zM353 603l-138 -311h277zM384 770h-62l-112 157h94z" />
    <glyph glyph-name="Aacute" unicode="&#xc1;" horiz-adv-x="710" 
d="M8 0l316 710h61l317 -710h-80l-99 221h-339l-98 -221h-78zM353 603l-138 -311h277zM331 770l80 157h94l-112 -157h-62z" />
    <glyph glyph-name="Acircumflex" unicode="&#xc2;" horiz-adv-x="710" 
d="M8 0l316 710h61l317 -710h-80l-99 221h-339l-98 -221h-78zM353 603l-138 -311h277zM190 769v67l164 92l164 -92v-67l-164 92z" />
    <glyph glyph-name="Atilde" unicode="&#xc3;" horiz-adv-x="710" 
d="M8 0l316 710h61l317 -710h-80l-99 221h-339l-98 -221h-78zM353 603l-138 -311h277zM186 788l3 16c5.33301 26.667 17.166 48.167 35.499 64.5s40.5 24.5 66.5 24.5c18 0 41.5 -7.16699 70.5 -21.5s48.167 -21.5 57.5 -21.5c22 0 36.333 14.333 43 43h61l-3 -16
c-5.33301 -26.667 -17.166 -48.167 -35.499 -64.5s-40.5 -24.5 -66.5 -24.5c-18 0 -41.5 7.16699 -70.5 21.5s-48.167 21.5 -57.5 21.5c-22 0 -36.333 -14.333 -43 -43h-61z" />
    <glyph glyph-name="Adieresis" unicode="&#xc4;" horiz-adv-x="710" 
d="M8 0l316 710h61l317 -710h-80l-99 221h-339l-98 -221h-78zM353 603l-138 -311h277zM244 789c-15.333 0 -28.166 5.16699 -38.499 15.5s-15.5 22.833 -15.5 37.5s5.16699 27.167 15.5 37.5s23.166 15.5 38.499 15.5c14.667 0 27 -5.16699 37 -15.5s15 -22.833 15 -37.5
s-5 -27.167 -15 -37.5s-22.333 -15.5 -37 -15.5zM466 789c-15.333 0 -28.166 5.16699 -38.499 15.5s-15.5 22.833 -15.5 37.5s5.16699 27.167 15.5 37.5s23.166 15.5 38.499 15.5c14.667 0 27 -5.16699 37 -15.5s15 -22.833 15 -37.5s-5 -27.167 -15 -37.5
s-22.333 -15.5 -37 -15.5z" />
    <glyph glyph-name="Aring" unicode="&#xc5;" horiz-adv-x="710" 
d="M8 0l316 710h61l317 -710h-80l-99 221h-339l-98 -221h-78zM353 603l-138 -311h277zM354 753c-33.333 0 -61.833 11.6709 -85.5 35.0039s-35.5 51.666 -35.5 84.999s11.833 61.666 35.5 84.999s52.167 35 85.5 35s62 -11.833 86 -35.5s36 -51.834 36 -84.501
s-12 -60.834 -36 -84.501s-52.667 -35.5 -86 -35.5zM354 800.004c20.667 0 38.167 7 52.5 21s21.5 31.333 21.5 52c0 20 -7.16699 37.333 -21.5 52s-31.833 22 -52.5 22c-20 0 -37.167 -7.33301 -51.5 -22s-21.5 -32 -21.5 -52c0 -20.667 7.16699 -38 21.5 -52
s31.5 -21 51.5 -21z" />
    <glyph glyph-name="AE" unicode="&#xc6;" horiz-adv-x="906" 
d="M451 0v221h-253l-134 -221h-86l433 710h445v-72h-329v-237h269v-72h-269v-257h329v-72h-405zM450 638l-209 -346h210v346h-1z" />
    <glyph glyph-name="Ccedilla" unicode="&#xc7;" horiz-adv-x="791" 
d="M415 -12c-102.667 0 -189.5 35.333 -260.5 106s-106.5 157.667 -106.5 261s35.5 190.333 106.5 261s157.833 106 260.5 106c88 0 162.5 -24.167 223.5 -72.5s99.5 -105.5 115.5 -171.5h-80c-16.667 49.333 -48.334 90.333 -95.001 123s-101.334 49 -164.001 49
c-82 0 -150.833 -28.5 -206.5 -85.5s-83.5 -126.833 -83.5 -209.5c0 -83.333 27.833 -153.333 83.5 -210s124.5 -85 206.5 -85c62.667 0 117.334 16.333 164.001 49s78.334 73.667 95.001 123h80c-16 -66 -54.5 -123.167 -115.5 -171.5s-135.5 -72.5 -223.5 -72.5zM312 -204
v52.001c20 -11.333 45.333 -17 76 -17c20.667 0 37.5 3.83301 50.5 11.5s19.5 18.5 19.5 32.5c0 20.667 -15.667 31 -47 31c-16.667 0 -32 -3.33301 -46 -10l-32 21l52 86h52l-35 -57c8.66699 4.66699 21.334 7 38.001 7c23.333 0 42.333 -6.83301 57 -20.5
s22 -32.167 22 -55.5c0 -28.667 -12.167 -51.834 -36.5 -69.501s-54.5 -26.5 -90.5 -26.5c-32.667 0 -59.334 5 -80.001 15z" />
    <glyph glyph-name="Egrave" unicode="&#xc8;" horiz-adv-x="554" 
d="M99 0v710h405v-72h-329v-237h269v-72h-269v-257h329v-72h-405zM331 770h-62l-112 157h94z" />
    <glyph glyph-name="Eacute" unicode="&#xc9;" horiz-adv-x="554" 
d="M99 0v710h405v-72h-329v-237h269v-72h-269v-257h329v-72h-405zM278 770l80 157h94l-112 -157h-62z" />
    <glyph glyph-name="Ecircumflex" unicode="&#xca;" horiz-adv-x="554" 
d="M99 0v710h405v-72h-329v-237h269v-72h-269v-257h329v-72h-405zM137 769v67l164 92l164 -92v-67l-164 92z" />
    <glyph glyph-name="Edieresis" unicode="&#xcb;" horiz-adv-x="554" 
d="M99 0v710h405v-72h-329v-237h269v-72h-269v-257h329v-72h-405zM191 789c-15.333 0 -28.166 5.16699 -38.499 15.5s-15.5 22.833 -15.5 37.5s5.16699 27.167 15.5 37.5s23.166 15.5 38.499 15.5c14.667 0 27 -5.16699 37 -15.5s15 -22.833 15 -37.5s-5 -27.167 -15 -37.5
s-22.333 -15.5 -37 -15.5zM413 789c-15.333 0 -28.166 5.16699 -38.499 15.5s-15.5 22.833 -15.5 37.5s5.16699 27.167 15.5 37.5s23.166 15.5 38.499 15.5c14.667 0 27 -5.16699 37 -15.5s15 -22.833 15 -37.5s-5 -27.167 -15 -37.5s-22.333 -15.5 -37 -15.5z" />
    <glyph glyph-name="Igrave" unicode="&#xcc;" horiz-adv-x="274" 
d="M99 0v710h76v-710h-76zM167 770h-62l-112 157h94z" />
    <glyph glyph-name="Iacute" unicode="&#xcd;" horiz-adv-x="274" 
d="M99 0v710h76v-710h-76zM114 770l80 157h94l-112 -157h-62z" />
    <glyph glyph-name="Icircumflex" unicode="&#xce;" horiz-adv-x="274" 
d="M99 0v710h76v-710h-76zM-27 769v67l164 92l164 -92v-67l-164 92z" />
    <glyph glyph-name="Idieresis" unicode="&#xcf;" horiz-adv-x="274" 
d="M99 0v710h76v-710h-76zM27 789c-15.333 0 -28.166 5.16699 -38.499 15.5s-15.5 22.833 -15.5 37.5s5.16699 27.167 15.5 37.5s23.166 15.5 38.499 15.5c14.667 0 27 -5.16699 37 -15.5s15 -22.833 15 -37.5s-5 -27.167 -15 -37.5s-22.333 -15.5 -37 -15.5zM249 789
c-15.333 0 -28.166 5.16699 -38.499 15.5s-15.5 22.833 -15.5 37.5s5.16699 27.167 15.5 37.5s23.166 15.5 38.499 15.5c14.667 0 27 -5.16699 37 -15.5s15 -22.833 15 -37.5s-5 -27.167 -15 -37.5s-22.333 -15.5 -37 -15.5z" />
    <glyph glyph-name="Eth" unicode="&#xd0;" horiz-adv-x="728" 
d="M104 0v710h194c111.333 0 202.833 -33.5 274.5 -100.5s107.5 -151.833 107.5 -254.5s-35.833 -187.5 -107.5 -254.5s-163.167 -100.5 -274.5 -100.5h-194zM180 72h118c91.333 0 165 26.5 221 79.5s84 120.833 84 203.5s-28 150.5 -84 203.5s-129.667 79.5 -221 79.5h-118
v-566zM30 326v68h320v-68h-320z" />
    <glyph glyph-name="Ntilde" unicode="&#xd1;" horiz-adv-x="794" 
d="M695 0h-67l-453 581v-581h-76v710h67l453 -581v581h76v-710zM224 788l3 16c5.33301 26.667 17.166 48.167 35.499 64.5s40.5 24.5 66.5 24.5c18 0 41.5 -7.16699 70.5 -21.5s48.167 -21.5 57.5 -21.5c22 0 36.333 14.333 43 43h61l-3 -16
c-5.33301 -26.667 -17.166 -48.167 -35.499 -64.5s-40.5 -24.5 -66.5 -24.5c-18 0 -41.5 7.16699 -70.5 21.5s-48.167 21.5 -57.5 21.5c-22 0 -36.333 -14.333 -43 -43h-61z" />
    <glyph glyph-name="Ograve" unicode="&#xd2;" horiz-adv-x="830" 
d="M415 60c82 0 150.833 28.333 206.5 85s83.5 126.667 83.5 210c0 82.667 -27.833 152.5 -83.5 209.5s-124.5 85.5 -206.5 85.5s-150.833 -28.5 -206.5 -85.5s-83.5 -126.833 -83.5 -209.5c0 -83.333 27.833 -153.333 83.5 -210s124.5 -85 206.5 -85zM415 -12
c-102.667 0 -189.5 35.333 -260.5 106s-106.5 157.667 -106.5 261s35.5 190.333 106.5 261s157.833 106 260.5 106s189.5 -35.333 260.5 -106s106.5 -157.667 106.5 -261s-35.5 -190.333 -106.5 -261s-157.833 -106 -260.5 -106zM445 770h-62l-112 157h94z" />
    <glyph glyph-name="Oacute" unicode="&#xd3;" horiz-adv-x="830" 
d="M415 60c82 0 150.833 28.333 206.5 85s83.5 126.667 83.5 210c0 82.667 -27.833 152.5 -83.5 209.5s-124.5 85.5 -206.5 85.5s-150.833 -28.5 -206.5 -85.5s-83.5 -126.833 -83.5 -209.5c0 -83.333 27.833 -153.333 83.5 -210s124.5 -85 206.5 -85zM415 -12
c-102.667 0 -189.5 35.333 -260.5 106s-106.5 157.667 -106.5 261s35.5 190.333 106.5 261s157.833 106 260.5 106s189.5 -35.333 260.5 -106s106.5 -157.667 106.5 -261s-35.5 -190.333 -106.5 -261s-157.833 -106 -260.5 -106zM392 770l80 157h94l-112 -157h-62z" />
    <glyph glyph-name="Ocircumflex" unicode="&#xd4;" horiz-adv-x="830" 
d="M415 60c82 0 150.833 28.333 206.5 85s83.5 126.667 83.5 210c0 82.667 -27.833 152.5 -83.5 209.5s-124.5 85.5 -206.5 85.5s-150.833 -28.5 -206.5 -85.5s-83.5 -126.833 -83.5 -209.5c0 -83.333 27.833 -153.333 83.5 -210s124.5 -85 206.5 -85zM415 -12
c-102.667 0 -189.5 35.333 -260.5 106s-106.5 157.667 -106.5 261s35.5 190.333 106.5 261s157.833 106 260.5 106s189.5 -35.333 260.5 -106s106.5 -157.667 106.5 -261s-35.5 -190.333 -106.5 -261s-157.833 -106 -260.5 -106zM251 769v67l164 92l164 -92v-67l-164 92z
" />
    <glyph glyph-name="Otilde" unicode="&#xd5;" horiz-adv-x="830" 
d="M415 60c82 0 150.833 28.333 206.5 85s83.5 126.667 83.5 210c0 82.667 -27.833 152.5 -83.5 209.5s-124.5 85.5 -206.5 85.5s-150.833 -28.5 -206.5 -85.5s-83.5 -126.833 -83.5 -209.5c0 -83.333 27.833 -153.333 83.5 -210s124.5 -85 206.5 -85zM415 -12
c-102.667 0 -189.5 35.333 -260.5 106s-106.5 157.667 -106.5 261s35.5 190.333 106.5 261s157.833 106 260.5 106s189.5 -35.333 260.5 -106s106.5 -157.667 106.5 -261s-35.5 -190.333 -106.5 -261s-157.833 -106 -260.5 -106zM247 788l3 16
c5.33301 26.667 17.166 48.167 35.499 64.5s40.5 24.5 66.5 24.5c18 0 41.5 -7.16699 70.5 -21.5s48.167 -21.5 57.5 -21.5c22 0 36.333 14.333 43 43h61l-3 -16c-5.33301 -26.667 -17.166 -48.167 -35.499 -64.5s-40.5 -24.5 -66.5 -24.5c-18 0 -41.5 7.16699 -70.5 21.5
s-48.167 21.5 -57.5 21.5c-22 0 -36.333 -14.333 -43 -43h-61z" />
    <glyph glyph-name="Odieresis" unicode="&#xd6;" horiz-adv-x="830" 
d="M415 60c82 0 150.833 28.333 206.5 85s83.5 126.667 83.5 210c0 82.667 -27.833 152.5 -83.5 209.5s-124.5 85.5 -206.5 85.5s-150.833 -28.5 -206.5 -85.5s-83.5 -126.833 -83.5 -209.5c0 -83.333 27.833 -153.333 83.5 -210s124.5 -85 206.5 -85zM415 -12
c-102.667 0 -189.5 35.333 -260.5 106s-106.5 157.667 -106.5 261s35.5 190.333 106.5 261s157.833 106 260.5 106s189.5 -35.333 260.5 -106s106.5 -157.667 106.5 -261s-35.5 -190.333 -106.5 -261s-157.833 -106 -260.5 -106zM305 789
c-15.333 0 -28.166 5.16699 -38.499 15.5s-15.5 22.833 -15.5 37.5s5.16699 27.167 15.5 37.5s23.166 15.5 38.499 15.5c14.667 0 27 -5.16699 37 -15.5s15 -22.833 15 -37.5s-5 -27.167 -15 -37.5s-22.333 -15.5 -37 -15.5zM527 789
c-15.333 0 -28.166 5.16699 -38.499 15.5s-15.5 22.833 -15.5 37.5s5.16699 27.167 15.5 37.5s23.166 15.5 38.499 15.5c14.667 0 27 -5.16699 37 -15.5s15 -22.833 15 -37.5s-5 -27.167 -15 -37.5s-22.333 -15.5 -37 -15.5z" />
    <glyph glyph-name="multiply" unicode="&#xd7;" horiz-adv-x="502" 
d="M104 99l-47 46l147 145l-147 145l47 46l147 -144l147 144l47 -46l-147 -145l147 -145l-47 -46l-147 144z" />
    <glyph glyph-name="Oslash" unicode="&#xd8;" horiz-adv-x="830" 
d="M415 60c82 0 150.833 28.333 206.5 85s83.5 126.667 83.5 210c0 82.667 -27.833 152.5 -83.5 209.5s-124.5 85.5 -206.5 85.5s-150.833 -28.5 -206.5 -85.5s-83.5 -126.833 -83.5 -209.5c0 -83.333 27.833 -153.333 83.5 -210s124.5 -85 206.5 -85zM415 -12
c-102.667 0 -189.5 35.333 -260.5 106s-106.5 157.667 -106.5 261s35.5 190.333 106.5 261s157.833 106 260.5 106s189.5 -35.333 260.5 -106s106.5 -157.667 106.5 -261s-35.5 -190.333 -106.5 -261s-157.833 -106 -260.5 -106zM746 689l-614 -709l-47 42l614 708z" />
    <glyph glyph-name="Ugrave" unicode="&#xd9;" horiz-adv-x="728" 
d="M364 -12c-82 0 -148.169 25.833 -198.502 77.5s-75.5 121.5 -75.5 209.5v435h76v-437c0 -67.333 17.833 -119.666 53.5 -156.999s83.834 -56 144.501 -56s108.834 18.667 144.501 56s53.5 89.666 53.5 156.999v437h76v-435c0 -88 -25.167 -157.833 -75.5 -209.5
s-116.5 -77.5 -198.5 -77.5zM393.998 770h-62l-112 157h94z" />
    <glyph glyph-name="Uacute" unicode="&#xda;" horiz-adv-x="728" 
d="M364 -12c-82 0 -148.169 25.833 -198.502 77.5s-75.5 121.5 -75.5 209.5v435h76v-437c0 -67.333 17.833 -119.666 53.5 -156.999s83.834 -56 144.501 -56s108.834 18.667 144.501 56s53.5 89.666 53.5 156.999v437h76v-435c0 -88 -25.167 -157.833 -75.5 -209.5
s-116.5 -77.5 -198.5 -77.5zM340.998 770l80 157h94l-112 -157h-62z" />
    <glyph glyph-name="Ucircumflex" unicode="&#xdb;" horiz-adv-x="728" 
d="M364 -12c-82 0 -148.169 25.833 -198.502 77.5s-75.5 121.5 -75.5 209.5v435h76v-437c0 -67.333 17.833 -119.666 53.5 -156.999s83.834 -56 144.501 -56s108.834 18.667 144.501 56s53.5 89.666 53.5 156.999v437h76v-435c0 -88 -25.167 -157.833 -75.5 -209.5
s-116.5 -77.5 -198.5 -77.5zM199.998 769v67l164 92l164 -92v-67l-164 92z" />
    <glyph glyph-name="Udieresis" unicode="&#xdc;" horiz-adv-x="728" 
d="M364 -12c-82 0 -148.169 25.833 -198.502 77.5s-75.5 121.5 -75.5 209.5v435h76v-437c0 -67.333 17.833 -119.666 53.5 -156.999s83.834 -56 144.501 -56s108.834 18.667 144.501 56s53.5 89.666 53.5 156.999v437h76v-435c0 -88 -25.167 -157.833 -75.5 -209.5
s-116.5 -77.5 -198.5 -77.5zM253.998 789c-15.333 0 -28.166 5.16699 -38.499 15.5s-15.5 22.833 -15.5 37.5s5.16699 27.167 15.5 37.5s23.166 15.5 38.499 15.5c14.667 0 27 -5.16699 37 -15.5s15 -22.833 15 -37.5s-5 -27.167 -15 -37.5s-22.333 -15.5 -37 -15.5z
M475.998 789c-15.333 0 -28.166 5.16699 -38.499 15.5s-15.5 22.833 -15.5 37.5s5.16699 27.167 15.5 37.5s23.166 15.5 38.499 15.5c14.667 0 27 -5.16699 37 -15.5s15 -22.833 15 -37.5s-5 -27.167 -15 -37.5s-22.333 -15.5 -37 -15.5z" />
    <glyph glyph-name="Yacute" unicode="&#xdd;" horiz-adv-x="669" 
d="M297 0v301l-280 409h92l226 -331l226 331h92l-281 -410v-300h-75zM311 770l80 157h94l-112 -157h-62z" />
    <glyph glyph-name="Thorn" unicode="&#xde;" horiz-adv-x="594" 
d="M552 355c0 -64 -22.167 -116.833 -66.5 -158.5s-102.833 -62.5 -175.5 -62.5h-135v-134h-76v710h76v-133h135c72.667 0 131.167 -21 175.5 -63s66.5 -95 66.5 -159zM475 355c0 44 -14.5 80.167 -43.5 108.5s-69.5 42.5 -121.5 42.5h-135v-301h135c52 0 92.5 14 121.5 42
s43.5 64 43.5 108z" />
    <glyph glyph-name="germandbls" unicode="&#xdf;" horiz-adv-x="569" 
d="M86 0v552.998c0 59.333 19 108 57 146s84.667 57 140 57c54 0 100.667 -18.167 140 -54.5s59 -80.5 59 -132.5c0 -34.667 -8.33301 -66.167 -25 -94.5s-39.667 -50.5 -69 -66.5c43.333 -15.333 77.166 -41.166 101.499 -77.499s36.5 -74.833 36.5 -115.5
c0 -58 -20.667 -108.333 -62 -151s-96.666 -64 -165.999 -64h-55v67h52c46.667 0 85 14 115 42s45 64 45 108c0 42.667 -15.167 78.334 -45.5 107.001s-68.5 43 -114.5 43h-49v67h28c39.333 0 72 12.333 98 37s39 54.667 39 90c0 36 -12.167 66.333 -36.5 91
s-54.5 37 -90.5 37c-36.667 0 -67.167 -13 -91.5 -39s-36.5 -59 -36.5 -99v-551h-70z" />
    <glyph glyph-name="agrave" unicode="&#xe0;" horiz-adv-x="634" 
d="M293 -10c-70 0 -129 25.333 -177 76s-72 112 -72 184s24 133.333 72 184s107 76 177 76c38 0 73.833 -8.66699 107.5 -26s59.5 -40 77.5 -68v84h70v-500h-70v84c-18 -28 -43.833 -50.667 -77.5 -68s-69.5 -26 -107.5 -26zM300 55c54 0 98.167 18.833 132.5 56.5
s51.5 83.834 51.5 138.501s-17.167 100.834 -51.5 138.501s-78.5 56.5 -132.5 56.5s-98.167 -18.833 -132.5 -56.5s-51.5 -83.834 -51.5 -138.501s17.167 -100.834 51.5 -138.501s78.5 -56.5 132.5 -56.5zM286 560l-125 190h95l90 -190h-60z" />
    <glyph glyph-name="aacute" unicode="&#xe1;" horiz-adv-x="634" 
d="M293 -10c-70 0 -129 25.333 -177 76s-72 112 -72 184s24 133.333 72 184s107 76 177 76c38 0 73.833 -8.66699 107.5 -26s59.5 -40 77.5 -68v84h70v-500h-70v84c-18 -28 -43.833 -50.667 -77.5 -68s-69.5 -26 -107.5 -26zM300 55c54 0 98.167 18.833 132.5 56.5
s51.5 83.834 51.5 138.501s-17.167 100.834 -51.5 138.501s-78.5 56.5 -132.5 56.5s-98.167 -18.833 -132.5 -56.5s-51.5 -83.834 -51.5 -138.501s17.167 -100.834 51.5 -138.501s78.5 -56.5 132.5 -56.5zM294 560l90 190h95l-125 -190h-60z" />
    <glyph glyph-name="acircumflex" unicode="&#xe2;" horiz-adv-x="634" 
d="M293 -10c-70 0 -129 25.333 -177 76s-72 112 -72 184s24 133.333 72 184s107 76 177 76c38 0 73.833 -8.66699 107.5 -26s59.5 -40 77.5 -68v84h70v-500h-70v84c-18 -28 -43.833 -50.667 -77.5 -68s-69.5 -26 -107.5 -26zM300 55c54 0 98.167 18.833 132.5 56.5
s51.5 83.834 51.5 138.501s-17.167 100.834 -51.5 138.501s-78.5 56.5 -132.5 56.5s-98.167 -18.833 -132.5 -56.5s-51.5 -83.834 -51.5 -138.501s17.167 -100.834 51.5 -138.501s78.5 -56.5 132.5 -56.5zM320 756l154 -102v-70l-154 102l-154 -102v70z" />
    <glyph glyph-name="atilde" unicode="&#xe3;" horiz-adv-x="634" 
d="M293 -10c-70 0 -129 25.333 -177 76s-72 112 -72 184s24 133.333 72 184s107 76 177 76c38 0 73.833 -8.66699 107.5 -26s59.5 -40 77.5 -68v84h70v-500h-70v84c-18 -28 -43.833 -50.667 -77.5 -68s-69.5 -26 -107.5 -26zM300 55c54 0 98.167 18.833 132.5 56.5
s51.5 83.834 51.5 138.501s-17.167 100.834 -51.5 138.501s-78.5 56.5 -132.5 56.5s-98.167 -18.833 -132.5 -56.5s-51.5 -83.834 -51.5 -138.501s17.167 -100.834 51.5 -138.501s78.5 -56.5 132.5 -56.5zM151 600l3 16c5.33301 26.667 17.166 48.167 35.499 64.5
s40.5 24.5 66.5 24.5c18 0 41.5 -7.16699 70.5 -21.5s48.167 -21.5 57.5 -21.5c22 0 36.333 14.333 43 43h61l-3 -16c-5.33301 -26.667 -17.166 -48.167 -35.499 -64.5s-40.5 -24.5 -66.5 -24.5c-18 0 -41.5 7.16699 -70.5 21.5s-48.167 21.5 -57.5 21.5
c-22 0 -36.333 -14.333 -43 -43h-61z" />
    <glyph glyph-name="adieresis" unicode="&#xe4;" horiz-adv-x="634" 
d="M293 -10c-70 0 -129 25.333 -177 76s-72 112 -72 184s24 133.333 72 184s107 76 177 76c38 0 73.833 -8.66699 107.5 -26s59.5 -40 77.5 -68v84h70v-500h-70v84c-18 -28 -43.833 -50.667 -77.5 -68s-69.5 -26 -107.5 -26zM300 55c54 0 98.167 18.833 132.5 56.5
s51.5 83.834 51.5 138.501s-17.167 100.834 -51.5 138.501s-78.5 56.5 -132.5 56.5s-98.167 -18.833 -132.5 -56.5s-51.5 -83.834 -51.5 -138.501s17.167 -100.834 51.5 -138.501s78.5 -56.5 132.5 -56.5zM210 602c-15.333 0 -28.166 5.16699 -38.499 15.5
s-15.5 22.833 -15.5 37.5s5.16699 27.167 15.5 37.5s23.166 15.5 38.499 15.5c14.667 0 27 -5.16699 37 -15.5s15 -22.833 15 -37.5s-5 -27.167 -15 -37.5s-22.333 -15.5 -37 -15.5zM432 602c-15.333 0 -28.166 5.16699 -38.499 15.5s-15.5 22.833 -15.5 37.5
s5.16699 27.167 15.5 37.5s23.166 15.5 38.499 15.5c14.667 0 27 -5.16699 37 -15.5s15 -22.833 15 -37.5s-5 -27.167 -15 -37.5s-22.333 -15.5 -37 -15.5z" />
    <glyph glyph-name="aring" unicode="&#xe5;" horiz-adv-x="634" 
d="M293 -10c-70 0 -129 25.333 -177 76s-72 112 -72 184s24 133.333 72 184s107 76 177 76c38 0 73.833 -8.66699 107.5 -26s59.5 -40 77.5 -68v84h70v-500h-70v84c-18 -28 -43.833 -50.667 -77.5 -68s-69.5 -26 -107.5 -26zM300 55c54 0 98.167 18.833 132.5 56.5
s51.5 83.834 51.5 138.501s-17.167 100.834 -51.5 138.501s-78.5 56.5 -132.5 56.5s-98.167 -18.833 -132.5 -56.5s-51.5 -83.834 -51.5 -138.501s17.167 -100.834 51.5 -138.501s78.5 -56.5 132.5 -56.5zM320 543c-33.333 0 -61.833 11.6709 -85.5 35.0039
s-35.5 51.666 -35.5 84.999s11.833 61.666 35.5 84.999s52.167 35 85.5 35s62 -11.833 86 -35.5s36 -51.834 36 -84.501s-12 -60.834 -36 -84.501s-52.667 -35.5 -86 -35.5zM320 590.004c20.667 0 38.167 7 52.5 21s21.5 31.333 21.5 52c0 20 -7.16699 37.333 -21.5 52
s-31.833 22 -52.5 22c-20 0 -37.167 -7.33301 -51.5 -22s-21.5 -32 -21.5 -52c0 -20.667 7.16699 -38 21.5 -52s31.5 -21 51.5 -21z" />
    <glyph glyph-name="ae" unicode="&#xe6;" horiz-adv-x="898" 
d="M616 -10c-84.667 0 -152.003 34.3311 -202.003 102.998c-36.667 -68.667 -102 -103 -196 -103c-55.333 0 -98.333 14.333 -129 43s-46 62.334 -46 101.001c0 44.667 17.5 78.5 52.5 101.5s87.833 41.833 158.5 56.5c56.667 12.667 90.667 23 102 31
c12 8.66699 18 21 18 37c0 25.333 -9.33301 45.833 -28 61.5s-46.667 23.5 -84 23.5c-40 0 -72.167 -9.5 -96.5 -28.5s-37.166 -45.5 -38.499 -79.5h-72c0 48.667 19.5 89.667 58.5 123s88.5 50 148.5 50c82.667 0 137.667 -31 165 -93c20 28.667 46.833 51.334 80.5 68.001
s70.834 25 111.501 25c76.667 0 136.334 -27.833 179.001 -83.5s60.667 -121.167 54 -196.5h-412c0 -50 17.667 -91.667 53 -125s76.333 -50 123 -50c72 0 124 31.333 156 94h72c-12.667 -46 -38.667 -84 -78 -114s-89.333 -45 -150 -45zM615.997 444.998
c-42 0 -79 -12.5 -111 -37.5s-52.333 -63.833 -61 -116.5h336c-8 49.333 -26.667 87.333 -56 114s-65.333 40 -108 40zM375.997 189.998l0.000976562 80.002c-15.333 -8.66699 -62 -24 -140 -46c-42.667 -10.667 -72.167 -22.334 -88.5 -35.001s-24.5 -30.334 -24.5 -53.001
c0 -26 9.66699 -46 29 -60s44.666 -21 75.999 -21c98.667 0 148 45 148 135z" />
    <glyph glyph-name="ccedilla" unicode="&#xe7;" horiz-adv-x="590" 
d="M305 -10c-75.333 0 -137.666 25.1689 -186.999 75.502s-74 111.833 -74 184.5s24.667 134.167 74 184.5s111.666 75.5 186.999 75.5c60.667 0 113.667 -16.833 159 -50.5s75.666 -77.167 90.999 -130.5h-76c-12 34.667 -33.667 62.667 -65 84s-67.666 32 -108.999 32
c-56 0 -101.5 -18.833 -136.5 -56.5s-52.5 -83.834 -52.5 -138.501s17.5 -100.834 52.5 -138.501s80.5 -56.5 136.5 -56.5c41.333 0 77.666 10.667 108.999 32s53 49.333 65 84h76c-15.333 -53.333 -45.666 -96.833 -90.999 -130.5s-98.333 -50.5 -159 -50.5zM202 -203.998
l0.000976562 52.001c20 -11.333 45.333 -17 76 -17c20.667 0 37.5 3.83301 50.5 11.5s19.5 18.5 19.5 32.5c0 20.667 -15.667 31 -47 31c-16.667 0 -32 -3.33301 -46 -10l-32 21l52 86h52l-34 -56c8 4 20.333 6 37 6c23.333 0 42.333 -6.83301 57 -20.5s22 -32.167 22 -55.5
c0 -28.667 -12.167 -51.834 -36.5 -69.501s-54.5 -26.5 -90.5 -26.5c-32.667 0 -59.334 5 -80.001 15z" />
    <glyph glyph-name="egrave" unicode="&#xe8;" horiz-adv-x="575" 
d="M293 -10c-72 0 -131.334 24.667 -178.001 74s-70 111.333 -70 186s22.667 136.667 68 186s106.333 74 183 74s136.334 -27.833 179.001 -83.5s60.667 -121.167 54 -196.5h-412c0 -50 17.667 -91.667 53 -125s76.333 -50 123 -50c72 0 124 31.333 156 94h72
c-12.667 -46 -38.667 -84 -78 -114s-89.333 -45 -150 -45zM292.999 445c-42 0 -79 -12.5 -111 -37.5s-52.333 -63.833 -61 -116.5h336c-8 49.333 -26.667 87.333 -56 114s-65.333 40 -108 40zM259.999 560l-125 190h95l90 -190h-60z" />
    <glyph glyph-name="eacute" unicode="&#xe9;" horiz-adv-x="575" 
d="M293 -10c-72 0 -131.334 24.667 -178.001 74s-70 111.333 -70 186s22.667 136.667 68 186s106.333 74 183 74s136.334 -27.833 179.001 -83.5s60.667 -121.167 54 -196.5h-412c0 -50 17.667 -91.667 53 -125s76.333 -50 123 -50c72 0 124 31.333 156 94h72
c-12.667 -46 -38.667 -84 -78 -114s-89.333 -45 -150 -45zM292.999 445c-42 0 -79 -12.5 -111 -37.5s-52.333 -63.833 -61 -116.5h336c-8 49.333 -26.667 87.333 -56 114s-65.333 40 -108 40zM267.999 560l90 190h95l-125 -190h-60z" />
    <glyph glyph-name="ecircumflex" unicode="&#xea;" horiz-adv-x="575" 
d="M293 -10c-72 0 -131.334 24.667 -178.001 74s-70 111.333 -70 186s22.667 136.667 68 186s106.333 74 183 74s136.334 -27.833 179.001 -83.5s60.667 -121.167 54 -196.5h-412c0 -50 17.667 -91.667 53 -125s76.333 -50 123 -50c72 0 124 31.333 156 94h72
c-12.667 -46 -38.667 -84 -78 -114s-89.333 -45 -150 -45zM292.999 445c-42 0 -79 -12.5 -111 -37.5s-52.333 -63.833 -61 -116.5h336c-8 49.333 -26.667 87.333 -56 114s-65.333 40 -108 40zM293.999 756l154 -102v-70l-154 102l-154 -102v70z" />
    <glyph glyph-name="edieresis" unicode="&#xeb;" horiz-adv-x="575" 
d="M293 -10c-72 0 -131.334 24.667 -178.001 74s-70 111.333 -70 186s22.667 136.667 68 186s106.333 74 183 74s136.334 -27.833 179.001 -83.5s60.667 -121.167 54 -196.5h-412c0 -50 17.667 -91.667 53 -125s76.333 -50 123 -50c72 0 124 31.333 156 94h72
c-12.667 -46 -38.667 -84 -78 -114s-89.333 -45 -150 -45zM292.999 445c-42 0 -79 -12.5 -111 -37.5s-52.333 -63.833 -61 -116.5h336c-8 49.333 -26.667 87.333 -56 114s-65.333 40 -108 40zM183.999 602c-15.333 0 -28.166 5.16699 -38.499 15.5s-15.5 22.833 -15.5 37.5
s5.16699 27.167 15.5 37.5s23.166 15.5 38.499 15.5c14.667 0 27 -5.16699 37 -15.5s15 -22.833 15 -37.5s-5 -27.167 -15 -37.5s-22.333 -15.5 -37 -15.5zM405.999 602c-15.333 0 -28.166 5.16699 -38.499 15.5s-15.5 22.833 -15.5 37.5s5.16699 27.167 15.5 37.5
s23.166 15.5 38.499 15.5c14.667 0 27 -5.16699 37 -15.5s15 -22.833 15 -37.5s-5 -27.167 -15 -37.5s-22.333 -15.5 -37 -15.5z" />
    <glyph glyph-name="igrave" unicode="&#xec;" horiz-adv-x="242" 
d="M86 0v500h70v-500h-70zM87 560l-125 190h95l90 -190h-60z" />
    <glyph glyph-name="iacute" unicode="&#xed;" horiz-adv-x="242" 
d="M86 0v500h70v-500h-70zM95 560l90 190h95l-125 -190h-60z" />
    <glyph glyph-name="icircumflex" unicode="&#xee;" horiz-adv-x="242" 
d="M86 0v500h70v-500h-70zM121 756l154 -102v-70l-154 102l-154 -102v70z" />
    <glyph glyph-name="idieresis" unicode="&#xef;" horiz-adv-x="242" 
d="M86 0v500h70v-500h-70zM22 602c-15.333 0 -28.5 5.5 -39.5 16.5s-16.5 24.167 -16.5 39.5s5.5 28.333 16.5 39s24.167 16 39.5 16s28.5 -5.33301 39.5 -16s16.5 -23.667 16.5 -39s-5.5 -28.5 -16.5 -39.5s-24.167 -16.5 -39.5 -16.5zM220 602
c-15.333 0 -28.5 5.5 -39.5 16.5s-16.5 24.167 -16.5 39.5s5.5 28.333 16.5 39s24.167 16 39.5 16s28.5 -5.33301 39.5 -16s16.5 -23.667 16.5 -39s-5.5 -28.5 -16.5 -39.5s-24.167 -16.5 -39.5 -16.5z" />
    <glyph glyph-name="eth" unicode="&#xf0;" horiz-adv-x="610" 
d="M483 578h-85l113 -165c36.667 -54 55 -108.333 55 -163c0 -72.667 -24.667 -134.167 -74 -184.5s-111.666 -75.5 -186.999 -75.5s-137.666 25.167 -186.999 75.5s-74 111.833 -74 184.5s24.667 134.167 74 184.5s111.666 75.5 186.999 75.5
c21.333 0 43.666 -2.66699 66.999 -8l-51 76h-144v61h102l-75 111h77l76 -111h126v-61zM305 55c56 0 101.5 18.833 136.5 56.5s52.5 83.834 52.5 138.501s-17.5 100.834 -52.5 138.501s-80.5 56.5 -136.5 56.5s-101.5 -18.833 -136.5 -56.5s-52.5 -83.834 -52.5 -138.501
s17.5 -100.834 52.5 -138.501s80.5 -56.5 136.5 -56.5z" />
    <glyph glyph-name="ntilde" unicode="&#xf1;" horiz-adv-x="586" 
d="M86 0l-0.000976562 500h70v-84c34 62.667 88.667 94 164 94c55.333 0 100.5 -17.667 135.5 -53s52.5 -83.333 52.5 -144v-313h-70v303c0 43.333 -11.5 77.833 -34.5 103.5s-53.5 38.5 -91.5 38.5c-45.333 0 -82.666 -17.5 -111.999 -52.5s-44 -82.833 -44 -143.5v-249
h-70zM127.999 600l3 16c5.33301 26.667 17.166 48.167 35.499 64.5s40.5 24.5 66.5 24.5c18 0 41.5 -7.16699 70.5 -21.5s48.167 -21.5 57.5 -21.5c22 0 36.333 14.333 43 43h61l-3 -16c-5.33301 -26.667 -17.166 -48.167 -35.499 -64.5s-40.5 -24.5 -66.5 -24.5
c-18 0 -41.5 7.16699 -70.5 21.5s-48.167 21.5 -57.5 21.5c-22 0 -36.333 -14.333 -43 -43h-61z" />
    <glyph glyph-name="ograve" unicode="&#xf2;" horiz-adv-x="610" 
d="M305 -10c-75.333 0 -137.666 25.167 -186.999 75.5s-74 111.833 -74 184.5s24.667 134.167 74 184.5s111.666 75.5 186.999 75.5s137.666 -25.167 186.999 -75.5s74 -111.833 74 -184.5s-24.667 -134.167 -74 -184.5s-111.666 -75.5 -186.999 -75.5zM305 55
c56 0 101.5 18.833 136.5 56.5s52.5 83.834 52.5 138.501s-17.5 100.834 -52.5 138.501s-80.5 56.5 -136.5 56.5s-101.5 -18.833 -136.5 -56.5s-52.5 -83.834 -52.5 -138.501s17.5 -100.834 52.5 -138.501s80.5 -56.5 136.5 -56.5zM271 560l-125 190h95l90 -190h-60z" />
    <glyph glyph-name="oacute" unicode="&#xf3;" horiz-adv-x="610" 
d="M305 -10c-75.333 0 -137.666 25.167 -186.999 75.5s-74 111.833 -74 184.5s24.667 134.167 74 184.5s111.666 75.5 186.999 75.5s137.666 -25.167 186.999 -75.5s74 -111.833 74 -184.5s-24.667 -134.167 -74 -184.5s-111.666 -75.5 -186.999 -75.5zM305 55
c56 0 101.5 18.833 136.5 56.5s52.5 83.834 52.5 138.501s-17.5 100.834 -52.5 138.501s-80.5 56.5 -136.5 56.5s-101.5 -18.833 -136.5 -56.5s-52.5 -83.834 -52.5 -138.501s17.5 -100.834 52.5 -138.501s80.5 -56.5 136.5 -56.5zM279 560l90 190h95l-125 -190h-60z" />
    <glyph glyph-name="ocircumflex" unicode="&#xf4;" horiz-adv-x="610" 
d="M305 -10c-75.333 0 -137.666 25.167 -186.999 75.5s-74 111.833 -74 184.5s24.667 134.167 74 184.5s111.666 75.5 186.999 75.5s137.666 -25.167 186.999 -75.5s74 -111.833 74 -184.5s-24.667 -134.167 -74 -184.5s-111.666 -75.5 -186.999 -75.5zM305 55
c56 0 101.5 18.833 136.5 56.5s52.5 83.834 52.5 138.501s-17.5 100.834 -52.5 138.501s-80.5 56.5 -136.5 56.5s-101.5 -18.833 -136.5 -56.5s-52.5 -83.834 -52.5 -138.501s17.5 -100.834 52.5 -138.501s80.5 -56.5 136.5 -56.5zM305 756l154 -102v-70l-154 102l-154 -102
v70z" />
    <glyph glyph-name="otilde" unicode="&#xf5;" horiz-adv-x="610" 
d="M305 -10c-75.333 0 -137.666 25.167 -186.999 75.5s-74 111.833 -74 184.5s24.667 134.167 74 184.5s111.666 75.5 186.999 75.5s137.666 -25.167 186.999 -75.5s74 -111.833 74 -184.5s-24.667 -134.167 -74 -184.5s-111.666 -75.5 -186.999 -75.5zM305 55
c56 0 101.5 18.833 136.5 56.5s52.5 83.834 52.5 138.501s-17.5 100.834 -52.5 138.501s-80.5 56.5 -136.5 56.5s-101.5 -18.833 -136.5 -56.5s-52.5 -83.834 -52.5 -138.501s17.5 -100.834 52.5 -138.501s80.5 -56.5 136.5 -56.5zM136 600l3 16
c5.33301 26.667 17.166 48.167 35.499 64.5s40.5 24.5 66.5 24.5c18 0 41.5 -7.16699 70.5 -21.5s48.167 -21.5 57.5 -21.5c22 0 36.333 14.333 43 43h61l-3 -16c-5.33301 -26.667 -17.166 -48.167 -35.499 -64.5s-40.5 -24.5 -66.5 -24.5c-18 0 -41.5 7.16699 -70.5 21.5
s-48.167 21.5 -57.5 21.5c-22 0 -36.333 -14.333 -43 -43h-61z" />
    <glyph glyph-name="odieresis" unicode="&#xf6;" horiz-adv-x="610" 
d="M305 -10c-75.333 0 -137.666 25.167 -186.999 75.5s-74 111.833 -74 184.5s24.667 134.167 74 184.5s111.666 75.5 186.999 75.5s137.666 -25.167 186.999 -75.5s74 -111.833 74 -184.5s-24.667 -134.167 -74 -184.5s-111.666 -75.5 -186.999 -75.5zM305 55
c56 0 101.5 18.833 136.5 56.5s52.5 83.834 52.5 138.501s-17.5 100.834 -52.5 138.501s-80.5 56.5 -136.5 56.5s-101.5 -18.833 -136.5 -56.5s-52.5 -83.834 -52.5 -138.501s17.5 -100.834 52.5 -138.501s80.5 -56.5 136.5 -56.5zM195 602
c-15.333 0 -28.166 5.16699 -38.499 15.5s-15.5 22.833 -15.5 37.5s5.16699 27.167 15.5 37.5s23.166 15.5 38.499 15.5c14.667 0 27 -5.16699 37 -15.5s15 -22.833 15 -37.5s-5 -27.167 -15 -37.5s-22.333 -15.5 -37 -15.5zM417 602
c-15.333 0 -28.166 5.16699 -38.499 15.5s-15.5 22.833 -15.5 37.5s5.16699 27.167 15.5 37.5s23.166 15.5 38.499 15.5c14.667 0 27 -5.16699 37 -15.5s15 -22.833 15 -37.5s-5 -27.167 -15 -37.5s-22.333 -15.5 -37 -15.5z" />
    <glyph glyph-name="oslash" unicode="&#xf8;" horiz-adv-x="622" 
d="M311 -10c-75.333 0 -137.666 25.167 -186.999 75.5s-74 111.833 -74 184.5s24.667 134.167 74 184.5s111.666 75.5 186.999 75.5s137.666 -25.167 186.999 -75.5s74 -111.833 74 -184.5s-24.667 -134.167 -74 -184.5s-111.666 -75.5 -186.999 -75.5zM311 55
c56 0 101.5 18.833 136.5 56.5s52.5 83.834 52.5 138.501s-17.5 100.834 -52.5 138.501s-80.5 56.5 -136.5 56.5s-101.5 -18.833 -136.5 -56.5s-52.5 -83.834 -52.5 -138.501s17.5 -100.834 52.5 -138.501s80.5 -56.5 136.5 -56.5zM565 473l-469 -483l-39 38l470 482z" />
    <glyph glyph-name="ugrave" unicode="&#xf9;" horiz-adv-x="576" 
d="M261 -10c-54 0 -97.999 18 -131.999 54s-51 83.667 -51 143v313h70v-303c0 -43.333 11.333 -77.833 34 -103.5s52 -38.5 88 -38.5c43.333 0 79.166 17.833 107.499 53.5s42.5 83.167 42.5 142.5v249h70v-500h-70v84c-34 -62.667 -87 -94 -159 -94zM249.001 560l-125 190
h95l90 -190h-60z" />
    <glyph glyph-name="uacute" unicode="&#xfa;" horiz-adv-x="576" 
d="M261 -10c-54 0 -97.999 18 -131.999 54s-51 83.667 -51 143v313h70v-303c0 -43.333 11.333 -77.833 34 -103.5s52 -38.5 88 -38.5c43.333 0 79.166 17.833 107.499 53.5s42.5 83.167 42.5 142.5v249h70v-500h-70v84c-34 -62.667 -87 -94 -159 -94zM257.001 560l90 190h95
l-125 -190h-60z" />
    <glyph glyph-name="ucircumflex" unicode="&#xfb;" horiz-adv-x="576" 
d="M261 -10c-54 0 -97.999 18 -131.999 54s-51 83.667 -51 143v313h70v-303c0 -43.333 11.333 -77.833 34 -103.5s52 -38.5 88 -38.5c43.333 0 79.166 17.833 107.499 53.5s42.5 83.167 42.5 142.5v249h70v-500h-70v84c-34 -62.667 -87 -94 -159 -94zM283.001 756l154 -102
v-70l-154 102l-154 -102v70z" />
    <glyph glyph-name="udieresis" unicode="&#xfc;" horiz-adv-x="576" 
d="M261 -10c-54 0 -97.999 18 -131.999 54s-51 83.667 -51 143v313h70v-303c0 -43.333 11.333 -77.833 34 -103.5s52 -38.5 88 -38.5c43.333 0 79.166 17.833 107.499 53.5s42.5 83.167 42.5 142.5v249h70v-500h-70v84c-34 -62.667 -87 -94 -159 -94zM173.001 602
c-15.333 0 -28.166 5.16699 -38.499 15.5s-15.5 22.833 -15.5 37.5s5.16699 27.167 15.5 37.5s23.166 15.5 38.499 15.5c14.667 0 27 -5.16699 37 -15.5s15 -22.833 15 -37.5s-5 -27.167 -15 -37.5s-22.333 -15.5 -37 -15.5zM395.001 602
c-15.333 0 -28.166 5.16699 -38.499 15.5s-15.5 22.833 -15.5 37.5s5.16699 27.167 15.5 37.5s23.166 15.5 38.499 15.5c14.667 0 27 -5.16699 37 -15.5s15 -22.833 15 -37.5s-5 -27.167 -15 -37.5s-22.333 -15.5 -37 -15.5z" />
    <glyph glyph-name="yacute" unicode="&#xfd;" horiz-adv-x="540" 
d="M201 -209h-79l110 234l-222 475h78l183 -397l183 397h79zM245 560l90 190h95l-125 -190h-60z" />
    <glyph glyph-name="thorn" unicode="&#xfe;" horiz-adv-x="634" 
d="M156 -209h-70v959h70v-334c18 28 43.833 50.667 77.5 68s69.5 26 107.5 26c70 0 129 -25.333 177 -76s72 -112 72 -184s-24 -133.333 -72 -184s-107 -76 -177 -76c-38 0 -73.833 8.66699 -107.5 26s-59.5 40 -77.5 68v-293zM334 55c54 0 98.167 18.833 132.5 56.5
s51.5 83.834 51.5 138.501s-17.167 100.834 -51.5 138.501s-78.5 56.5 -132.5 56.5s-98.167 -18.833 -132.5 -56.5s-51.5 -83.834 -51.5 -138.501s17.167 -100.834 51.5 -138.501s78.5 -56.5 132.5 -56.5z" />
    <glyph glyph-name="ydieresis" unicode="&#xff;" horiz-adv-x="540" 
d="M201 -209h-79l110 234l-222 475h78l183 -397l183 397h79zM161 602c-15.333 0 -28.166 5.16699 -38.499 15.5s-15.5 22.833 -15.5 37.5s5.16699 27.167 15.5 37.5s23.166 15.5 38.499 15.5c14.667 0 27 -5.16699 37 -15.5s15 -22.833 15 -37.5s-5 -27.167 -15 -37.5
s-22.333 -15.5 -37 -15.5zM383 602c-15.333 0 -28.166 5.16699 -38.499 15.5s-15.5 22.833 -15.5 37.5s5.16699 27.167 15.5 37.5s23.166 15.5 38.499 15.5c14.667 0 27 -5.16699 37 -15.5s15 -22.833 15 -37.5s-5 -27.167 -15 -37.5s-22.333 -15.5 -37 -15.5z" />
    <glyph glyph-name="Amacron" unicode="&#x100;" horiz-adv-x="710" 
d="M8 0l316 710h61l317 -710h-80l-99 221h-339l-98 -221h-78zM353 603l-138 -311h277zM196 809v61h316v-61h-316z" />
    <glyph glyph-name="amacron" unicode="&#x101;" horiz-adv-x="634" 
d="M293 -10c-70 0 -129 25.333 -177 76s-72 112 -72 184s24 133.333 72 184s107 76 177 76c38 0 73.833 -8.66699 107.5 -26s59.5 -40 77.5 -68v84h70v-500h-70v84c-18 -28 -43.833 -50.667 -77.5 -68s-69.5 -26 -107.5 -26zM300 55c54 0 98.167 18.833 132.5 56.5
s51.5 83.834 51.5 138.501s-17.167 100.834 -51.5 138.501s-78.5 56.5 -132.5 56.5s-98.167 -18.833 -132.5 -56.5s-51.5 -83.834 -51.5 -138.501s17.167 -100.834 51.5 -138.501s78.5 -56.5 132.5 -56.5zM162 649v61h316v-61h-316z" />
    <glyph glyph-name="Abreve" unicode="&#x102;" horiz-adv-x="710" 
d="M8 0l316 710h61l317 -710h-80l-99 221h-339l-98 -221h-78zM353 603l-138 -311h277zM354 762c-43.333 0 -79.833 14 -109.5 42s-44.5 65 -44.5 111h51c0 -32.667 9.66699 -58 29 -76s44 -27 74 -27s54.667 9 74 27s29 43.333 29 76h51c0 -46 -14.833 -83 -44.5 -111
s-66.167 -42 -109.5 -42z" />
    <glyph glyph-name="abreve" unicode="&#x103;" horiz-adv-x="634" 
d="M293 -10c-70 0 -129 25.333 -177 76s-72 112 -72 184s24 133.333 72 184s107 76 177 76c38 0 73.833 -8.66699 107.5 -26s59.5 -40 77.5 -68v84h70v-500h-70v84c-18 -28 -43.833 -50.667 -77.5 -68s-69.5 -26 -107.5 -26zM300 55c54 0 98.167 18.833 132.5 56.5
s51.5 83.834 51.5 138.501s-17.167 100.834 -51.5 138.501s-78.5 56.5 -132.5 56.5s-98.167 -18.833 -132.5 -56.5s-51.5 -83.834 -51.5 -138.501s17.167 -100.834 51.5 -138.501s78.5 -56.5 132.5 -56.5zM320 585c-44 0 -80.667 14 -110 42s-44 65.333 -44 112v11h51v-11
c0 -32.667 9.66699 -58.167 29 -76.5s44 -27.5 74 -27.5s54.667 9.16699 74 27.5s29 43.833 29 76.5v11h51v-11c0 -46.667 -14.667 -84 -44 -112s-66 -42 -110 -42z" />
    <glyph glyph-name="Aogonek" unicode="&#x104;" horiz-adv-x="710" 
d="M8 0l316 710.001h61l317 -710c-62 -41.333 -93 -81 -93 -119c0 -24 12 -36 36 -36c18 0 37 8 57 24v-63c-18.667 -16.667 -43.334 -25 -74.001 -25c-25.333 0 -46.666 8 -63.999 24s-26 36.667 -26 62c0 19.333 5 38.166 15 56.499s20 32.5 30 42.5s23 21.333 39 34
l-99 221h-339l-98 -221h-78zM353 603.001l-138 -311h277z" />
    <glyph glyph-name="aogonek" unicode="&#x105;" horiz-adv-x="634" 
d="M293 -10c-70 0 -129 25.333 -177 76s-72 112 -72 184s24 133.333 72 184s107 76 177 76c38 0 73.833 -8.66699 107.5 -26s59.5 -40 77.5 -68v84h70v-500h-70v84c-18 -28 -43.833 -50.667 -77.5 -68s-69.5 -26 -107.5 -26zM300 55c54 0 98.167 18.833 132.5 56.5
s51.5 83.834 51.5 138.501s-17.167 100.834 -51.5 138.501s-78.5 56.5 -132.5 56.5s-98.167 -18.833 -132.5 -56.5s-51.5 -83.834 -51.5 -138.501s17.167 -100.834 51.5 -138.501s78.5 -56.5 132.5 -56.5zM477 -219c-24.667 0 -45.667 8.00098 -63 24.001s-26 35.667 -26 59
c0 21.333 5.83301 41.833 17.5 61.5s21.834 33.167 30.501 40.5l42 34h70c-63.333 -42 -95 -82.667 -95 -122c0 -12.667 3.66699 -22.334 11 -29.001s16.333 -10 27 -10c18 0 37 8 57 24v-57c-18.667 -16.667 -42.334 -25 -71.001 -25z" />
    <glyph glyph-name="Cacute" unicode="&#x106;" horiz-adv-x="791" 
d="M415 -12c-102.667 0 -189.5 35.333 -260.5 106s-106.5 157.667 -106.5 261s35.5 190.333 106.5 261s157.833 106 260.5 106c88 0 162.5 -24.167 223.5 -72.5s99.5 -105.5 115.5 -171.5h-80c-16.667 49.333 -48.334 90.333 -95.001 123s-101.334 49 -164.001 49
c-82 0 -150.833 -28.5 -206.5 -85.5s-83.5 -126.833 -83.5 -209.5c0 -83.333 27.833 -153.333 83.5 -210s124.5 -85 206.5 -85c62.667 0 117.334 16.333 164.001 49s78.334 73.667 95.001 123h80c-16 -66 -54.5 -123.167 -115.5 -171.5s-135.5 -72.5 -223.5 -72.5zM387 770
l80 157h94l-112 -157h-62z" />
    <glyph glyph-name="cacute" unicode="&#x107;" horiz-adv-x="590" 
d="M305 -10c-75.333 0 -137.666 25.1689 -186.999 75.502s-74 111.833 -74 184.5s24.667 134.167 74 184.5s111.666 75.5 186.999 75.5c60.667 0 113.667 -16.833 159 -50.5s75.666 -77.167 90.999 -130.5h-76c-12 34.667 -33.667 62.667 -65 84s-67.666 32 -108.999 32
c-56 0 -101.5 -18.833 -136.5 -56.5s-52.5 -83.834 -52.5 -138.501s17.5 -100.834 52.5 -138.501s80.5 -56.5 136.5 -56.5c41.333 0 77.666 10.667 108.999 32s53 49.333 65 84h76c-15.333 -53.333 -45.666 -96.833 -90.999 -130.5s-98.333 -50.5 -159 -50.5zM279 560.002
l90 190h95l-125 -190h-60z" />
    <glyph glyph-name="Ccircumflex" unicode="&#x108;" horiz-adv-x="791" 
d="M415 -12c-102.667 0 -189.5 35.333 -260.5 106s-106.5 157.667 -106.5 261s35.5 190.333 106.5 261s157.833 106 260.5 106c88 0 162.5 -24.167 223.5 -72.5s99.5 -105.5 115.5 -171.5h-80c-16.667 49.333 -48.334 90.333 -95.001 123s-101.334 49 -164.001 49
c-82 0 -150.833 -28.5 -206.5 -85.5s-83.5 -126.833 -83.5 -209.5c0 -83.333 27.833 -153.333 83.5 -210s124.5 -85 206.5 -85c62.667 0 117.334 16.333 164.001 49s78.334 73.667 95.001 123h80c-16 -66 -54.5 -123.167 -115.5 -171.5s-135.5 -72.5 -223.5 -72.5zM246 769
v67l164 92l164 -92v-67l-164 92z" />
    <glyph glyph-name="ccircumflex" unicode="&#x109;" horiz-adv-x="590" 
d="M305 -10c-75.333 0 -137.666 25.1689 -186.999 75.502s-74 111.833 -74 184.5s24.667 134.167 74 184.5s111.666 75.5 186.999 75.5c60.667 0 113.667 -16.833 159 -50.5s75.666 -77.167 90.999 -130.5h-76c-12 34.667 -33.667 62.667 -65 84s-67.666 32 -108.999 32
c-56 0 -101.5 -18.833 -136.5 -56.5s-52.5 -83.834 -52.5 -138.501s17.5 -100.834 52.5 -138.501s80.5 -56.5 136.5 -56.5c41.333 0 77.666 10.667 108.999 32s53 49.333 65 84h76c-15.333 -53.333 -45.666 -96.833 -90.999 -130.5s-98.333 -50.5 -159 -50.5zM305 756.002
l154 -102v-70l-154 102l-154 -102v70z" />
    <glyph glyph-name="Cdotaccent" unicode="&#x10a;" horiz-adv-x="791" 
d="M415 -12c-102.667 0 -189.5 35.333 -260.5 106s-106.5 157.667 -106.5 261s35.5 190.333 106.5 261s157.833 106 260.5 106c88 0 162.5 -24.167 223.5 -72.5s99.5 -105.5 115.5 -171.5h-80c-16.667 49.333 -48.334 90.333 -95.001 123s-101.334 49 -164.001 49
c-82 0 -150.833 -28.5 -206.5 -85.5s-83.5 -126.833 -83.5 -209.5c0 -83.333 27.833 -153.333 83.5 -210s124.5 -85 206.5 -85c62.667 0 117.334 16.333 164.001 49s78.334 73.667 95.001 123h80c-16 -66 -54.5 -123.167 -115.5 -171.5s-135.5 -72.5 -223.5 -72.5zM410 789
c-15.333 0 -28.166 5.16699 -38.499 15.5s-15.5 22.833 -15.5 37.5s5.16699 27.167 15.5 37.5s23.166 15.5 38.499 15.5c14.667 0 27 -5.16699 37 -15.5s15 -22.833 15 -37.5s-5 -27.167 -15 -37.5s-22.333 -15.5 -37 -15.5z" />
    <glyph glyph-name="cdotaccent" unicode="&#x10b;" horiz-adv-x="590" 
d="M305 -10c-75.333 0 -137.666 25.1689 -186.999 75.502s-74 111.833 -74 184.5s24.667 134.167 74 184.5s111.666 75.5 186.999 75.5c60.667 0 113.667 -16.833 159 -50.5s75.666 -77.167 90.999 -130.5h-76c-12 34.667 -33.667 62.667 -65 84s-67.666 32 -108.999 32
c-56 0 -101.5 -18.833 -136.5 -56.5s-52.5 -83.834 -52.5 -138.501s17.5 -100.834 52.5 -138.501s80.5 -56.5 136.5 -56.5c41.333 0 77.666 10.667 108.999 32s53 49.333 65 84h76c-15.333 -53.333 -45.666 -96.833 -90.999 -130.5s-98.333 -50.5 -159 -50.5zM305 602.002
c-15.333 0 -28.166 5.16699 -38.499 15.5s-15.5 22.833 -15.5 37.5s5.16699 27.167 15.5 37.5s23.166 15.5 38.499 15.5c14.667 0 27 -5.16699 37 -15.5s15 -22.833 15 -37.5s-5 -27.167 -15 -37.5s-22.333 -15.5 -37 -15.5z" />
    <glyph glyph-name="Ccaron" unicode="&#x10c;" horiz-adv-x="791" 
d="M415 -12c-102.667 0 -189.5 35.333 -260.5 106s-106.5 157.667 -106.5 261s35.5 190.333 106.5 261s157.833 106 260.5 106c88 0 162.5 -24.167 223.5 -72.5s99.5 -105.5 115.5 -171.5h-80c-16.667 49.333 -48.334 90.333 -95.001 123s-101.334 49 -164.001 49
c-82 0 -150.833 -28.5 -206.5 -85.5s-83.5 -126.833 -83.5 -209.5c0 -83.333 27.833 -153.333 83.5 -210s124.5 -85 206.5 -85c62.667 0 117.334 16.333 164.001 49s78.334 73.667 95.001 123h80c-16 -66 -54.5 -123.167 -115.5 -171.5s-135.5 -72.5 -223.5 -72.5zM410 769
l-164 92v67l164 -92l164 92v-67z" />
    <glyph glyph-name="ccaron" unicode="&#x10d;" horiz-adv-x="590" 
d="M305 -10c-75.333 0 -137.666 25.1689 -186.999 75.502s-74 111.833 -74 184.5s24.667 134.167 74 184.5s111.666 75.5 186.999 75.5c60.667 0 113.667 -16.833 159 -50.5s75.666 -77.167 90.999 -130.5h-76c-12 34.667 -33.667 62.667 -65 84s-67.666 32 -108.999 32
c-56 0 -101.5 -18.833 -136.5 -56.5s-52.5 -83.834 -52.5 -138.501s17.5 -100.834 52.5 -138.501s80.5 -56.5 136.5 -56.5c41.333 0 77.666 10.667 108.999 32s53 49.333 65 84h76c-15.333 -53.333 -45.666 -96.833 -90.999 -130.5s-98.333 -50.5 -159 -50.5zM305 584.002
l-154 102v70l154 -102l154 102v-70z" />
    <glyph glyph-name="Dcaron" unicode="&#x10e;" horiz-adv-x="723" 
d="M99 0v710h194c111.333 0 202.833 -33.5 274.5 -100.5s107.5 -151.833 107.5 -254.5s-35.833 -187.5 -107.5 -254.5s-163.167 -100.5 -274.5 -100.5h-194zM175 72h118c91.333 0 165 26.5 221 79.5s84 120.833 84 203.5s-28 150.5 -84 203.5s-129.667 79.5 -221 79.5h-118
v-566zM342 769l-164 92v67l164 -92l164 92v-67z" />
    <glyph glyph-name="dcaron" unicode="&#x10f;" horiz-adv-x="634" 
d="M293 -10c-70 0 -129 25.333 -177 76s-72 112 -72 184s24 133.333 72 184s107 76 177 76c38 0 73.833 -8.66699 107.5 -26s59.5 -40 77.5 -68v334h70v-750h-70v84c-18 -28 -43.833 -50.667 -77.5 -68s-69.5 -26 -107.5 -26zM300 55c54 0 98.167 18.833 132.5 56.5
s51.5 83.834 51.5 138.501s-17.167 100.834 -51.5 138.501s-78.5 56.5 -132.5 56.5s-98.167 -18.833 -132.5 -56.5s-51.5 -83.834 -51.5 -138.501s17.167 -100.834 51.5 -138.501s78.5 -56.5 132.5 -56.5zM588 584l25 166h70l-45 -166h-50z" />
    <glyph glyph-name="Dcroat" unicode="&#x110;" horiz-adv-x="728" 
d="M104 0v710h194c111.333 0 202.833 -33.5 274.5 -100.5s107.5 -151.833 107.5 -254.5s-35.833 -187.5 -107.5 -254.5s-163.167 -100.5 -274.5 -100.5h-194zM180 72h118c91.333 0 165 26.5 221 79.5s84 120.833 84 203.5s-28 150.5 -84 203.5s-129.667 79.5 -221 79.5h-118
v-566zM30 326v68h320v-68h-320z" />
    <glyph glyph-name="dcroat" unicode="&#x111;" horiz-adv-x="634" 
d="M293 -10c-70 0 -129 25.333 -177 76s-72 112 -72 184s24 133.333 72 184s107 76 177 76c38 0 73.833 -8.66699 107.5 -26s59.5 -40 77.5 -68v334h70v-750h-70v84c-18 -28 -43.833 -50.667 -77.5 -68s-69.5 -26 -107.5 -26zM300 55c54 0 98.167 18.833 132.5 56.5
s51.5 83.834 51.5 138.501s-17.167 100.834 -51.5 138.501s-78.5 56.5 -132.5 56.5s-98.167 -18.833 -132.5 -56.5s-51.5 -83.834 -51.5 -138.501s17.167 -100.834 51.5 -138.501s78.5 -56.5 132.5 -56.5zM622 580h-318v61h318v-61z" />
    <glyph glyph-name="Emacron" unicode="&#x112;" horiz-adv-x="554" 
d="M99 0v710h405v-72h-329v-237h269v-72h-269v-257h329v-72h-405zM143 809v61h316v-61h-316z" />
    <glyph glyph-name="emacron" unicode="&#x113;" horiz-adv-x="575" 
d="M293 -10c-72 0 -131.334 24.667 -178.001 74s-70 111.333 -70 186s22.667 136.667 68 186s106.333 74 183 74s136.334 -27.833 179.001 -83.5s60.667 -121.167 54 -196.5h-412c0 -50 17.667 -91.667 53 -125s76.333 -50 123 -50c72 0 124 31.333 156 94h72
c-12.667 -46 -38.667 -84 -78 -114s-89.333 -45 -150 -45zM292.999 445c-42 0 -79 -12.5 -111 -37.5s-52.333 -63.833 -61 -116.5h336c-8 49.333 -26.667 87.333 -56 114s-65.333 40 -108 40zM135.999 649v61h316v-61h-316z" />
    <glyph glyph-name="Ebreve" unicode="&#x114;" horiz-adv-x="554" 
d="M99 0v710h405v-72h-329v-237h269v-72h-269v-257h329v-72h-405zM301 762c-43.333 0 -79.833 14 -109.5 42s-44.5 65 -44.5 111h51c0 -32.667 9.66699 -58 29 -76s44 -27 74 -27s54.667 9 74 27s29 43.333 29 76h51c0 -46 -14.833 -83 -44.5 -111s-66.167 -42 -109.5 -42z
" />
    <glyph glyph-name="ebreve" unicode="&#x115;" horiz-adv-x="575" 
d="M293 -10c-72 0 -131.334 24.667 -178.001 74s-70 111.333 -70 186s22.667 136.667 68 186s106.333 74 183 74s136.334 -27.833 179.001 -83.5s60.667 -121.167 54 -196.5h-412c0 -50 17.667 -91.667 53 -125s76.333 -50 123 -50c72 0 124 31.333 156 94h72
c-12.667 -46 -38.667 -84 -78 -114s-89.333 -45 -150 -45zM292.999 445c-42 0 -79 -12.5 -111 -37.5s-52.333 -63.833 -61 -116.5h336c-8 49.333 -26.667 87.333 -56 114s-65.333 40 -108 40zM293.999 585c-44 0 -80.667 14 -110 42s-44 65.333 -44 112v11h51v-11
c0 -32.667 9.66699 -58.167 29 -76.5s44 -27.5 74 -27.5s54.667 9.16699 74 27.5s29 43.833 29 76.5v11h51v-11c0 -46.667 -14.667 -84 -44 -112s-66 -42 -110 -42z" />
    <glyph glyph-name="Edotaccent" unicode="&#x116;" horiz-adv-x="554" 
d="M99 0v710h405v-72h-329v-237h269v-72h-269v-257h329v-72h-405zM301 789c-15.333 0 -28.166 5.16699 -38.499 15.5s-15.5 22.833 -15.5 37.5s5.16699 27.167 15.5 37.5s23.166 15.5 38.499 15.5c14.667 0 27 -5.16699 37 -15.5s15 -22.833 15 -37.5s-5 -27.167 -15 -37.5
s-22.333 -15.5 -37 -15.5z" />
    <glyph glyph-name="edotaccent" unicode="&#x117;" horiz-adv-x="575" 
d="M293 -10c-72 0 -131.334 24.667 -178.001 74s-70 111.333 -70 186s22.667 136.667 68 186s106.333 74 183 74s136.334 -27.833 179.001 -83.5s60.667 -121.167 54 -196.5h-412c0 -50 17.667 -91.667 53 -125s76.333 -50 123 -50c72 0 124 31.333 156 94h72
c-12.667 -46 -38.667 -84 -78 -114s-89.333 -45 -150 -45zM292.999 445c-42 0 -79 -12.5 -111 -37.5s-52.333 -63.833 -61 -116.5h336c-8 49.333 -26.667 87.333 -56 114s-65.333 40 -108 40zM293.999 602c-15.333 0 -28.166 5.16699 -38.499 15.5s-15.5 22.833 -15.5 37.5
s5.16699 27.167 15.5 37.5s23.166 15.5 38.499 15.5c14.667 0 27 -5.16699 37 -15.5s15 -22.833 15 -37.5s-5 -27.167 -15 -37.5s-22.333 -15.5 -37 -15.5z" />
    <glyph glyph-name="Eogonek" unicode="&#x118;" horiz-adv-x="554" 
d="M99 0v710h405v-72h-329v-237h269v-72h-269v-257h329v-72h-405zM430 -219c-25.333 0 -46.666 7.99805 -63.999 23.998s-26 36.667 -26 62c0 19.333 5.33301 38.333 16 57s21.167 32.834 31.5 42.501s23.833 20.834 40.5 33.501h76c-62 -41.333 -93 -81 -93 -119
c0 -24 12 -36 36 -36c18 0 37 8 57 24v-63c-18.667 -16.667 -43.334 -25 -74.001 -25z" />
    <glyph glyph-name="eogonek" unicode="&#x119;" horiz-adv-x="576" 
d="M449 149l71.999 0.000976562c-6 -20 -17.667 -43.667 -35 -71c-55.333 -80 -83 -143.667 -83 -191c0 -32 17 -48 51 -48c18 0 37 8 57 24v-57c-18.667 -16.667 -42.334 -25 -71.001 -25c-29.333 0 -53.666 9.16699 -72.999 27.5s-29 41.5 -29 69.5
c0 43.333 16.333 85.666 49 126.999c-30 -10 -61.333 -15 -94 -15c-72 0 -131.333 24.667 -178 74s-70 111.333 -70 186s22.667 136.667 68 186s106.333 74 183 74s136.334 -27.833 179.001 -83.5s60.667 -121.167 54 -196.5h-412c0 -50 17.667 -91.667 53 -125
s76.333 -50 123 -50c72 0 124 31.333 156 94zM292.999 445.001c-42 0 -79 -12.5 -111 -37.5s-52.333 -63.833 -61 -116.5h336c-8 49.333 -26.667 87.333 -56 114s-65.333 40 -108 40z" />
    <glyph glyph-name="Ecaron" unicode="&#x11a;" horiz-adv-x="554" 
d="M99 0v710h405v-72h-329v-237h269v-72h-269v-257h329v-72h-405zM301 769l-164 92v67l164 -92l164 92v-67z" />
    <glyph glyph-name="ecaron" unicode="&#x11b;" horiz-adv-x="575" 
d="M293 -10c-72 0 -131.334 24.667 -178.001 74s-70 111.333 -70 186s22.667 136.667 68 186s106.333 74 183 74s136.334 -27.833 179.001 -83.5s60.667 -121.167 54 -196.5h-412c0 -50 17.667 -91.667 53 -125s76.333 -50 123 -50c72 0 124 31.333 156 94h72
c-12.667 -46 -38.667 -84 -78 -114s-89.333 -45 -150 -45zM292.999 445c-42 0 -79 -12.5 -111 -37.5s-52.333 -63.833 -61 -116.5h336c-8 49.333 -26.667 87.333 -56 114s-65.333 40 -108 40zM293.999 584l-154 102v70l154 -102l154 102v-70z" />
    <glyph glyph-name="Gcircumflex" unicode="&#x11c;" horiz-adv-x="820" 
d="M415 -12c-102.667 0 -189.501 35.333 -260.501 106s-106.5 157.667 -106.5 261s35.5 190.333 106.5 261s157.833 106 260.5 106c82 0 153.667 -22 215 -66s102 -96 122 -156h-84c-20.667 44 -53.5 80 -98.5 108s-96.5 42 -154.5 42c-82 0 -150.833 -28.5 -206.5 -85.5
s-83.5 -126.833 -83.5 -209.5c0 -83.333 27.833 -153.333 83.5 -210s124.5 -85 206.5 -85c77.333 0 141.5 25.333 192.5 76s79.833 114.667 86.5 192h-279v72h357c8 -120.667 -23.167 -219.5 -93.5 -296.5s-158.166 -115.5 -263.499 -115.5zM250.999 769v67l164 92l164 -92
v-67l-164 92z" />
    <glyph glyph-name="gcircumflex" unicode="&#x11d;" horiz-adv-x="631" 
d="M302 -219c-65.333 0 -120 15.5 -164 46.5s-70 71.5 -78 121.5h69c23.333 -69.333 81.333 -104 174 -104c51.333 0 92.833 16.667 124.5 50s47.5 80 47.5 140v59c-18.667 -28 -44.334 -50.667 -77.001 -68s-68 -26 -106 -26c-70.667 0 -129.5 24.5 -176.5 73.5
s-70.5 109.5 -70.5 181.5s23.5 132.5 70.5 181.5s105.833 73.5 176.5 73.5c38 0 73.333 -8.66699 106 -26s58.334 -40 77.001 -68v84h70v-469c0 -79.333 -22.5 -140.833 -67.5 -184.5s-103.5 -65.5 -175.5 -65.5zM299 65c54 0 97.833 18 131.5 54s50.5 81.333 50.5 136
s-16.833 100 -50.5 136s-77.5 54 -131.5 54s-97.833 -18 -131.5 -54s-50.5 -81.333 -50.5 -136s16.833 -100 50.5 -136s77.5 -54 131.5 -54zM315 756l154 -102v-70l-154 102l-154 -102v70z" />
    <glyph glyph-name="Gbreve" unicode="&#x11e;" horiz-adv-x="820" 
d="M415 -12c-102.667 0 -189.501 35.333 -260.501 106s-106.5 157.667 -106.5 261s35.5 190.333 106.5 261s157.833 106 260.5 106c82 0 153.667 -22 215 -66s102 -96 122 -156h-84c-20.667 44 -53.5 80 -98.5 108s-96.5 42 -154.5 42c-82 0 -150.833 -28.5 -206.5 -85.5
s-83.5 -126.833 -83.5 -209.5c0 -83.333 27.833 -153.333 83.5 -210s124.5 -85 206.5 -85c77.333 0 141.5 25.333 192.5 76s79.833 114.667 86.5 192h-279v72h357c8 -120.667 -23.167 -219.5 -93.5 -296.5s-158.166 -115.5 -263.499 -115.5zM414.999 762
c-43.333 0 -79.833 14 -109.5 42s-44.5 65 -44.5 111h51c0 -32.667 9.66699 -58 29 -76s44 -27 74 -27s54.667 9 74 27s29 43.333 29 76h51c0 -46 -14.833 -83 -44.5 -111s-66.167 -42 -109.5 -42z" />
    <glyph glyph-name="gbreve" unicode="&#x11f;" horiz-adv-x="631" 
d="M302 -219c-65.333 0 -120 15.5 -164 46.5s-70 71.5 -78 121.5h69c23.333 -69.333 81.333 -104 174 -104c51.333 0 92.833 16.667 124.5 50s47.5 80 47.5 140v59c-18.667 -28 -44.334 -50.667 -77.001 -68s-68 -26 -106 -26c-70.667 0 -129.5 24.5 -176.5 73.5
s-70.5 109.5 -70.5 181.5s23.5 132.5 70.5 181.5s105.833 73.5 176.5 73.5c38 0 73.333 -8.66699 106 -26s58.334 -40 77.001 -68v84h70v-469c0 -79.333 -22.5 -140.833 -67.5 -184.5s-103.5 -65.5 -175.5 -65.5zM299 65c54 0 97.833 18 131.5 54s50.5 81.333 50.5 136
s-16.833 100 -50.5 136s-77.5 54 -131.5 54s-97.833 -18 -131.5 -54s-50.5 -81.333 -50.5 -136s16.833 -100 50.5 -136s77.5 -54 131.5 -54zM315 585c-44 0 -80.667 14 -110 42s-44 65.333 -44 112v11h51v-11c0 -32.667 9.66699 -58.167 29 -76.5s44 -27.5 74 -27.5
s54.667 9.16699 74 27.5s29 43.833 29 76.5v11h51v-11c0 -46.667 -14.667 -84 -44 -112s-66 -42 -110 -42z" />
    <glyph glyph-name="Gdotaccent" unicode="&#x120;" horiz-adv-x="820" 
d="M415 -12c-102.667 0 -189.501 35.333 -260.501 106s-106.5 157.667 -106.5 261s35.5 190.333 106.5 261s157.833 106 260.5 106c82 0 153.667 -22 215 -66s102 -96 122 -156h-84c-20.667 44 -53.5 80 -98.5 108s-96.5 42 -154.5 42c-82 0 -150.833 -28.5 -206.5 -85.5
s-83.5 -126.833 -83.5 -209.5c0 -83.333 27.833 -153.333 83.5 -210s124.5 -85 206.5 -85c77.333 0 141.5 25.333 192.5 76s79.833 114.667 86.5 192h-279v72h357c8 -120.667 -23.167 -219.5 -93.5 -296.5s-158.166 -115.5 -263.499 -115.5zM414.999 789
c-15.333 0 -28.166 5.16699 -38.499 15.5s-15.5 22.833 -15.5 37.5s5.16699 27.167 15.5 37.5s23.166 15.5 38.499 15.5c14.667 0 27 -5.16699 37 -15.5s15 -22.833 15 -37.5s-5 -27.167 -15 -37.5s-22.333 -15.5 -37 -15.5z" />
    <glyph glyph-name="gdotaccent" unicode="&#x121;" horiz-adv-x="631" 
d="M302 -219c-65.333 0 -120 15.5 -164 46.5s-70 71.5 -78 121.5h69c23.333 -69.333 81.333 -104 174 -104c51.333 0 92.833 16.667 124.5 50s47.5 80 47.5 140v59c-18.667 -28 -44.334 -50.667 -77.001 -68s-68 -26 -106 -26c-70.667 0 -129.5 24.5 -176.5 73.5
s-70.5 109.5 -70.5 181.5s23.5 132.5 70.5 181.5s105.833 73.5 176.5 73.5c38 0 73.333 -8.66699 106 -26s58.334 -40 77.001 -68v84h70v-469c0 -79.333 -22.5 -140.833 -67.5 -184.5s-103.5 -65.5 -175.5 -65.5zM299 65c54 0 97.833 18 131.5 54s50.5 81.333 50.5 136
s-16.833 100 -50.5 136s-77.5 54 -131.5 54s-97.833 -18 -131.5 -54s-50.5 -81.333 -50.5 -136s16.833 -100 50.5 -136s77.5 -54 131.5 -54zM315 602c-15.333 0 -28.166 5.16699 -38.499 15.5s-15.5 22.833 -15.5 37.5s5.16699 27.167 15.5 37.5s23.166 15.5 38.499 15.5
c14.667 0 27 -5.16699 37 -15.5s15 -22.833 15 -37.5s-5 -27.167 -15 -37.5s-22.333 -15.5 -37 -15.5z" />
    <glyph glyph-name="uni0122" unicode="&#x122;" horiz-adv-x="820" 
d="M415 -12c-102.667 0 -189.501 35.333 -260.501 106s-106.5 157.667 -106.5 261s35.5 190.333 106.5 261s157.833 106 260.5 106c82 0 153.667 -22 215 -66s102 -96 122 -156h-84c-20.667 44 -53.5 80 -98.5 108s-96.5 42 -154.5 42c-82 0 -150.833 -28.5 -206.5 -85.5
s-83.5 -126.833 -83.5 -209.5c0 -83.333 27.833 -153.333 83.5 -210s124.5 -85 206.5 -85c77.333 0 141.5 25.333 192.5 76s79.833 114.667 86.5 192h-279v72h357c8 -120.667 -23.167 -219.5 -93.5 -296.5s-158.166 -115.5 -263.499 -115.5zM355.999 -258l34 83
c-18 12.667 -27 28 -27 46c0 14.667 5 27.334 15 38.001s22.333 16 37 16s27 -5.33301 37 -16s15 -23.334 15 -38.001c0 -11.333 -3 -21.333 -9 -30l-62 -99h-40z" />
    <glyph glyph-name="uni0123" unicode="&#x123;" horiz-adv-x="631" 
d="M302 -219c-65.333 0 -120 15.5 -164 46.5s-70 71.5 -78 121.5h69c23.333 -69.333 81.333 -104 174 -104c51.333 0 92.833 16.667 124.5 50s47.5 80 47.5 140v59c-18.667 -28 -44.334 -50.667 -77.001 -68s-68 -26 -106 -26c-70.667 0 -129.5 24.5 -176.5 73.5
s-70.5 109.5 -70.5 181.5s23.5 132.5 70.5 181.5s105.833 73.5 176.5 73.5c38 0 73.333 -8.66699 106 -26s58.334 -40 77.001 -68v84h70v-469c0 -79.333 -22.5 -140.833 -67.5 -184.5s-103.5 -65.5 -175.5 -65.5zM299 65c54 0 97.833 18 131.5 54s50.5 81.333 50.5 136
s-16.833 100 -50.5 136s-77.5 54 -131.5 54s-97.833 -18 -131.5 -54s-50.5 -81.333 -50.5 -136s16.833 -100 50.5 -136s77.5 -54 131.5 -54zM315 602c-14.667 0 -27 5.33301 -37 16s-15 23.334 -15 38.001c0 10.667 3 20.667 9 30l62 99h40l-34 -83
c18 -12.667 27 -28 27 -46c0 -14.667 -5 -27.334 -15 -38.001s-22.333 -16 -37 -16z" />
    <glyph glyph-name="Hcircumflex" unicode="&#x124;" horiz-adv-x="765" 
d="M99 0v710h76v-309h415v309h76v-710h-76v329h-415v-329h-76zM218 769v67l164 92l164 -92v-67l-164 92z" />
    <glyph glyph-name="hcircumflex" unicode="&#x125;" horiz-adv-x="586" 
d="M156 0h-70.001v750h70v-334c34 62.667 88.667 94 164 94c55.333 0 100.5 -17.667 135.5 -53s52.5 -83.333 52.5 -144v-313h-70v303c0 43.333 -11.5 77.833 -34.5 103.5s-53.5 38.5 -91.5 38.5c-45.333 0 -82.666 -17.5 -111.999 -52.5s-44 -82.833 -44 -143.5v-249z
M128.999 769v67l164 92l164 -92v-67l-164 92z" />
    <glyph glyph-name="Hbar" unicode="&#x126;" horiz-adv-x="773" 
d="M103 0v710h76v-309h415v309h76v-710h-76v329h-415v-329h-76zM29 525v63h715v-63h-715z" />
    <glyph glyph-name="hbar" unicode="&#x127;" horiz-adv-x="586" 
d="M156 0h-70.001v750h70v-334c34 62.667 88.667 94 164 94c55.333 0 100.5 -17.667 135.5 -53s52.5 -83.333 52.5 -144v-313h-70v303c0 43.333 -11.5 77.833 -34.5 103.5s-53.5 38.5 -91.5 38.5c-45.333 0 -82.666 -17.5 -111.999 -52.5s-44 -82.833 -44 -143.5v-249z
M329.999 580h-318v61h318v-61z" />
    <glyph glyph-name="Itilde" unicode="&#x128;" horiz-adv-x="274" 
d="M99 0v710h76v-710h-76zM-31 788l3 16c5.33301 26.667 17.166 48.167 35.499 64.5s40.5 24.5 66.5 24.5c18 0 41.5 -7.16699 70.5 -21.5s48.167 -21.5 57.5 -21.5c22 0 36.333 14.333 43 43h61l-3 -16c-5.33301 -26.667 -17.166 -48.167 -35.499 -64.5
s-40.5 -24.5 -66.5 -24.5c-18 0 -41.5 7.16699 -70.5 21.5s-48.167 21.5 -57.5 21.5c-22 0 -36.333 -14.333 -43 -43h-61z" />
    <glyph glyph-name="itilde" unicode="&#x129;" horiz-adv-x="242" 
d="M86 0v500h70v-500h-70zM-48 600l3 16c5.33301 26.667 17.166 48.167 35.499 64.5s40.5 24.5 66.5 24.5c18 0 41.5 -7.16699 70.5 -21.5s48.167 -21.5 57.5 -21.5c22 0 36.333 14.333 43 43h61l-3 -16c-5.33301 -26.667 -17.166 -48.167 -35.499 -64.5
s-40.5 -24.5 -66.5 -24.5c-18 0 -41.5 7.16699 -70.5 21.5s-48.167 21.5 -57.5 21.5c-22 0 -36.333 -14.333 -43 -43h-61z" />
    <glyph glyph-name="Imacron" unicode="&#x12a;" horiz-adv-x="274" 
d="M99 0v710h76v-710h-76zM-21 809v61h316v-61h-316z" />
    <glyph glyph-name="imacron" unicode="&#x12b;" horiz-adv-x="242" 
d="M86 0v500h70v-500h-70zM-37 649v61h316v-61h-316z" />
    <glyph glyph-name="Ibreve" unicode="&#x12c;" horiz-adv-x="274" 
d="M99 0v710h76v-710h-76zM137 762c-43.333 0 -79.833 14 -109.5 42s-44.5 65 -44.5 111h51c0 -32.667 9.66699 -58 29 -76s44 -27 74 -27s54.667 9 74 27s29 43.333 29 76h51c0 -46 -14.833 -83 -44.5 -111s-66.167 -42 -109.5 -42z" />
    <glyph glyph-name="ibreve" unicode="&#x12d;" horiz-adv-x="242" 
d="M86 0v500h70v-500h-70zM121 585c-44 0 -80.667 14 -110 42s-44 65.333 -44 112v11h51v-11c0 -32.667 9.66699 -58.167 29 -76.5s44 -27.5 74 -27.5s54.667 9.16699 74 27.5s29 43.833 29 76.5v11h51v-11c0 -46.667 -14.667 -84 -44 -112s-66 -42 -110 -42z" />
    <glyph glyph-name="Iogonek" unicode="&#x12e;" horiz-adv-x="274" 
d="M99 0v710h76v-710h-76zM101 -219c-25.333 0 -46.666 7.99805 -63.999 23.998s-26 36.667 -26 62c0 19.333 5.33301 38.333 16 57s21.167 32.834 31.5 42.501s23.833 20.834 40.5 33.501h76c-62 -41.333 -93 -81 -93 -119c0 -24 12 -36 36 -36c18 0 37 8 57 24v-63
c-18.667 -16.667 -43.334 -25 -74.001 -25z" />
    <glyph glyph-name="iogonek" unicode="&#x12f;" horiz-adv-x="242" 
d="M122 650c-15.333 0 -28.166 5.16699 -38.499 15.5s-15.5 22.833 -15.5 37.5s5.16699 27.167 15.5 37.5s23.166 15.5 38.499 15.5c14.667 0 27 -5.16699 37 -15.5s15 -22.833 15 -37.5s-5 -27.167 -15 -37.5s-22.333 -15.5 -37 -15.5zM86 0v500h70v-500h-70zM85 -219
c-24.667 0 -45.667 8.00098 -63 24.001s-26 35.667 -26 59c0 21.333 5.83301 41.833 17.5 61.5s21.834 33.167 30.501 40.5l42 34h70c-63.333 -42 -95 -82.667 -95 -122c0 -12.667 3.66699 -22.334 11 -29.001s16.333 -10 27 -10c18 0 37 8 57 24v-57
c-18.667 -16.667 -42.334 -25 -71.001 -25z" />
    <glyph glyph-name="Idotaccent" unicode="&#x130;" horiz-adv-x="274" 
d="M99 0v710h76v-710h-76zM137 789c-15.333 0 -28.166 5.16699 -38.499 15.5s-15.5 22.833 -15.5 37.5s5.16699 27.167 15.5 37.5s23.166 15.5 38.499 15.5c14.667 0 27 -5.16699 37 -15.5s15 -22.833 15 -37.5s-5 -27.167 -15 -37.5s-22.333 -15.5 -37 -15.5z" />
    <glyph glyph-name="dotlessi" unicode="&#x131;" horiz-adv-x="242" 
d="M86 0v500h70v-500h-70z" />
    <glyph glyph-name="Jcircumflex" unicode="&#x134;" horiz-adv-x="523" 
d="M229 -12c-60 0 -109.5 17.667 -148.5 53s-58.5 83.666 -58.5 144.999h76c0 -40 12.667 -71.167 38 -93.5s56 -33.5 92 -33.5c37.333 0 67.833 11.833 91.5 35.5s35.5 60.834 35.5 111.501v504h76v-514c0 -70 -19 -122.167 -57 -156.5s-86.333 -51.5 -145 -51.5zM229 769
v67l164 92l164 -92v-67l-164 92z" />
    <glyph glyph-name="jcircumflex" unicode="&#x135;" horiz-adv-x="250" 
d="M164 500v-575.001c0 -47.333 -12.833 -83.166 -38.5 -107.499s-59.834 -36.5 -102.501 -36.5c-13.333 0 -25 1 -35 3v64c10.667 -1.33301 20.334 -2 29.001 -2c51.333 0 77 28.333 77 85v569h70zM128 755.999l154 -102v-70l-154 102l-154 -102v70z" />
    <glyph glyph-name="uni0136" unicode="&#x136;" horiz-adv-x="664" 
d="M573 0l-399 343v-343h-75v710h75v-311l327 311h103l-353 -337l435 -373h-113zM315 -258l34 83c-18 12.667 -27 28 -27 46c0 14.667 5 27.334 15 38.001s22.333 16 37 16s27 -5.33301 37 -16s15 -23.334 15 -38.001c0 -11.333 -3 -21.333 -9 -30l-62 -99h-40z" />
    <glyph glyph-name="uni0137" unicode="&#x137;" horiz-adv-x="534" 
d="M447 0l-291 255v-255h-70v750h70v-447l235 197h99l-263 -220l320 -280h-100zM241 -258l34 83c-18 12.667 -27 28 -27 46c0 14.667 5 27.334 15 38.001s22.333 16 37 16s27 -5.33301 37 -16s15 -23.334 15 -38.001c0 -11.333 -3 -21.333 -9 -30l-62 -99h-40z" />
    <glyph glyph-name="Lacute" unicode="&#x139;" horiz-adv-x="547" 
d="M99 0v710h76v-638h355v-72h-431zM114 770l80 157h94l-112 -157h-62z" />
    <glyph glyph-name="lacute" unicode="&#x13a;" horiz-adv-x="242" 
d="M86 0v750h70v-750h-70zM95 810l90 190h95l-125 -190h-60z" />
    <glyph glyph-name="uni013B" unicode="&#x13b;" horiz-adv-x="547" 
d="M99 0v710h76v-638h355v-72h-431zM248 -258l34 83c-18 12.667 -27 28 -27 46c0 14.667 5 27.334 15 38.001s22.333 16 37 16s27 -5.33301 37 -16s15 -23.334 15 -38.001c0 -11.333 -3 -21.333 -9 -30l-62 -99h-40z" />
    <glyph glyph-name="uni013C" unicode="&#x13c;" horiz-adv-x="242" 
d="M86 0v750h70v-750h-70zM62 -258l34 83c-18 12.667 -27 28 -27 46c0 14.667 5 27.334 15 38.001s22.333 16 37 16s27 -5.33301 37 -16s15 -23.334 15 -38.001c0 -11.333 -3 -21.333 -9 -30l-62 -99h-40z" />
    <glyph glyph-name="Lcaron" unicode="&#x13d;" horiz-adv-x="547" 
d="M99 0v710h76v-638h355v-72h-431zM285 584l25 166h70l-45 -166h-50z" />
    <glyph glyph-name="lcaron" unicode="&#x13e;" horiz-adv-x="242" 
d="M86 0v750h70v-750h-70zM197 584l25 166h70l-45 -166h-50z" />
    <glyph glyph-name="Ldot" unicode="&#x13f;" horiz-adv-x="551" 
d="M99 0v710h76v-638h355v-72h-431zM415 338c-15.333 0 -28.166 5.16699 -38.499 15.5s-15.5 22.833 -15.5 37.5s5.16699 27.167 15.5 37.5s23.166 15.5 38.499 15.5c14.667 0 27 -5.16699 37 -15.5s15 -22.833 15 -37.5s-5 -27.167 -15 -37.5s-22.333 -15.5 -37 -15.5z" />
    <glyph glyph-name="ldot" unicode="&#x140;" horiz-adv-x="376" 
d="M86 0v750h70v-750h-70zM310 322c-15.333 0 -28.166 5.16699 -38.499 15.5s-15.5 22.833 -15.5 37.5s5.16699 27.167 15.5 37.5s23.166 15.5 38.499 15.5c14.667 0 27 -5.16699 37 -15.5s15 -22.833 15 -37.5s-5 -27.167 -15 -37.5s-22.333 -15.5 -37 -15.5z" />
    <glyph glyph-name="Lslash" unicode="&#x141;" horiz-adv-x="563" 
d="M115 0v710h76v-638h355v-72h-431zM358 424l-317 -211v74l317 211v-74z" />
    <glyph glyph-name="lslash" unicode="&#x142;" horiz-adv-x="310" 
d="M122 0v750h70v-750h-70zM272 417l-230 -153v68l230 153v-68z" />
    <glyph glyph-name="Nacute" unicode="&#x143;" horiz-adv-x="794" 
d="M695 0h-67l-453 581v-581h-76v710h67l453 -581v581h76v-710zM369 770l80 157h94l-112 -157h-62z" />
    <glyph glyph-name="nacute" unicode="&#x144;" horiz-adv-x="586" 
d="M86 0l-0.000976562 500h70v-84c34 62.667 88.667 94 164 94c55.333 0 100.5 -17.667 135.5 -53s52.5 -83.333 52.5 -144v-313h-70v303c0 43.333 -11.5 77.833 -34.5 103.5s-53.5 38.5 -91.5 38.5c-45.333 0 -82.666 -17.5 -111.999 -52.5s-44 -82.833 -44 -143.5v-249
h-70zM270.999 560l90 190h95l-125 -190h-60z" />
    <glyph glyph-name="uni0145" unicode="&#x145;" horiz-adv-x="794" 
d="M695 0h-67l-453 581v-581h-76v710h67l453 -581v581h76v-710zM342 -258l34 83c-18 12.667 -27 28 -27 46c0 14.667 5 27.334 15 38.001s22.333 16 37 16s27 -5.33301 37 -16s15 -23.334 15 -38.001c0 -11.333 -3 -21.333 -9 -30l-62 -99h-40z" />
    <glyph glyph-name="uni0146" unicode="&#x146;" horiz-adv-x="586" 
d="M86 0l-0.000976562 500h70v-84c34 62.667 88.667 94 164 94c55.333 0 100.5 -17.667 135.5 -53s52.5 -83.333 52.5 -144v-313h-70v303c0 43.333 -11.5 77.833 -34.5 103.5s-53.5 38.5 -91.5 38.5c-45.333 0 -82.666 -17.5 -111.999 -52.5s-44 -82.833 -44 -143.5v-249
h-70zM237.999 -258l34 83c-18 12.667 -27 28 -27 46c0 14.667 5 27.334 15 38.001s22.333 16 37 16s27 -5.33301 37 -16s15 -23.334 15 -38.001c0 -11.333 -3 -21.333 -9 -30l-62 -99h-40z" />
    <glyph glyph-name="Ncaron" unicode="&#x147;" horiz-adv-x="794" 
d="M695 0h-67l-453 581v-581h-76v710h67l453 -581v581h76v-710zM392 769l-164 92v67l164 -92l164 92v-67z" />
    <glyph glyph-name="ncaron" unicode="&#x148;" horiz-adv-x="586" 
d="M86 0l-0.000976562 500h70v-84c34 62.667 88.667 94 164 94c55.333 0 100.5 -17.667 135.5 -53s52.5 -83.333 52.5 -144v-313h-70v303c0 43.333 -11.5 77.833 -34.5 103.5s-53.5 38.5 -91.5 38.5c-45.333 0 -82.666 -17.5 -111.999 -52.5s-44 -82.833 -44 -143.5v-249
h-70zM296.999 584l-154 102v70l154 -102l154 102v-70z" />
    <glyph glyph-name="Eng" unicode="&#x14a;" horiz-adv-x="794" 
d="M619 -67v77.999l-444 570v-581h-76v710h67l453 -581v581h76v-785c0 -47.333 -13.167 -83.166 -39.5 -107.499s-60.5 -36.5 -102.5 -36.5c-27.333 0 -52 4.33301 -74 13v65c16.667 -7.33301 38.667 -11 66 -11c24.667 0 43.167 6.5 55.5 19.5s18.5 34.833 18.5 65.5z" />
    <glyph glyph-name="eng" unicode="&#x14b;" horiz-adv-x="586" 
d="M86 0l-0.000976562 499.999h70v-84c34 62.667 88.667 94 164 94c55.333 0 100.5 -17.667 135.5 -53s52.5 -83.333 52.5 -144v-383c0 -47.333 -13.167 -83.166 -39.5 -107.499s-60.5 -36.5 -102.5 -36.5c-18 0 -35 2 -51 6v64c16.667 -3.33301 30 -5 40 -5
c28 0 48.833 6.5 62.5 19.5s20.5 34.833 20.5 65.5v367c0 43.333 -11.5 77.833 -34.5 103.5s-53.5 38.5 -91.5 38.5c-45.333 0 -82.666 -17.5 -111.999 -52.5s-44 -82.833 -44 -143.5v-249h-70z" />
    <glyph glyph-name="Omacron" unicode="&#x14c;" horiz-adv-x="830" 
d="M415 60c82 0 150.833 28.333 206.5 85s83.5 126.667 83.5 210c0 82.667 -27.833 152.5 -83.5 209.5s-124.5 85.5 -206.5 85.5s-150.833 -28.5 -206.5 -85.5s-83.5 -126.833 -83.5 -209.5c0 -83.333 27.833 -153.333 83.5 -210s124.5 -85 206.5 -85zM415 -12
c-102.667 0 -189.5 35.333 -260.5 106s-106.5 157.667 -106.5 261s35.5 190.333 106.5 261s157.833 106 260.5 106s189.5 -35.333 260.5 -106s106.5 -157.667 106.5 -261s-35.5 -190.333 -106.5 -261s-157.833 -106 -260.5 -106zM257 809v61h316v-61h-316z" />
    <glyph glyph-name="omacron" unicode="&#x14d;" horiz-adv-x="610" 
d="M305 -10c-75.333 0 -137.666 25.167 -186.999 75.5s-74 111.833 -74 184.5s24.667 134.167 74 184.5s111.666 75.5 186.999 75.5s137.666 -25.167 186.999 -75.5s74 -111.833 74 -184.5s-24.667 -134.167 -74 -184.5s-111.666 -75.5 -186.999 -75.5zM305 55
c56 0 101.5 18.833 136.5 56.5s52.5 83.834 52.5 138.501s-17.5 100.834 -52.5 138.501s-80.5 56.5 -136.5 56.5s-101.5 -18.833 -136.5 -56.5s-52.5 -83.834 -52.5 -138.501s17.5 -100.834 52.5 -138.501s80.5 -56.5 136.5 -56.5zM147 649v61h316v-61h-316z" />
    <glyph glyph-name="Obreve" unicode="&#x14e;" horiz-adv-x="830" 
d="M415 60c82 0 150.833 28.333 206.5 85s83.5 126.667 83.5 210c0 82.667 -27.833 152.5 -83.5 209.5s-124.5 85.5 -206.5 85.5s-150.833 -28.5 -206.5 -85.5s-83.5 -126.833 -83.5 -209.5c0 -83.333 27.833 -153.333 83.5 -210s124.5 -85 206.5 -85zM415 -12
c-102.667 0 -189.5 35.333 -260.5 106s-106.5 157.667 -106.5 261s35.5 190.333 106.5 261s157.833 106 260.5 106s189.5 -35.333 260.5 -106s106.5 -157.667 106.5 -261s-35.5 -190.333 -106.5 -261s-157.833 -106 -260.5 -106zM415 762c-43.333 0 -79.833 14 -109.5 42
s-44.5 65 -44.5 111h51c0 -32.667 9.66699 -58 29 -76s44 -27 74 -27s54.667 9 74 27s29 43.333 29 76h51c0 -46 -14.833 -83 -44.5 -111s-66.167 -42 -109.5 -42z" />
    <glyph glyph-name="obreve" unicode="&#x14f;" horiz-adv-x="610" 
d="M305 -10c-75.333 0 -137.666 25.167 -186.999 75.5s-74 111.833 -74 184.5s24.667 134.167 74 184.5s111.666 75.5 186.999 75.5s137.666 -25.167 186.999 -75.5s74 -111.833 74 -184.5s-24.667 -134.167 -74 -184.5s-111.666 -75.5 -186.999 -75.5zM305 55
c56 0 101.5 18.833 136.5 56.5s52.5 83.834 52.5 138.501s-17.5 100.834 -52.5 138.501s-80.5 56.5 -136.5 56.5s-101.5 -18.833 -136.5 -56.5s-52.5 -83.834 -52.5 -138.501s17.5 -100.834 52.5 -138.501s80.5 -56.5 136.5 -56.5zM305 585c-44 0 -80.667 14 -110 42
s-44 65.333 -44 112v11h51v-11c0 -32.667 9.66699 -58.167 29 -76.5s44 -27.5 74 -27.5s54.667 9.16699 74 27.5s29 43.833 29 76.5v11h51v-11c0 -46.667 -14.667 -84 -44 -112s-66 -42 -110 -42z" />
    <glyph glyph-name="Ohungarumlaut" unicode="&#x150;" horiz-adv-x="830" 
d="M415 60c82 0 150.833 28.333 206.5 85s83.5 126.667 83.5 210c0 82.667 -27.833 152.5 -83.5 209.5s-124.5 85.5 -206.5 85.5s-150.833 -28.5 -206.5 -85.5s-83.5 -126.833 -83.5 -209.5c0 -83.333 27.833 -153.333 83.5 -210s124.5 -85 206.5 -85zM415 -12
c-102.667 0 -189.5 35.333 -260.5 106s-106.5 157.667 -106.5 261s35.5 190.333 106.5 261s157.833 106 260.5 106s189.5 -35.333 260.5 -106s106.5 -157.667 106.5 -261s-35.5 -190.333 -106.5 -261s-157.833 -106 -260.5 -106zM471 770l70 157h85l-105 -157h-50zM309 770
l70 157h85l-105 -157h-50z" />
    <glyph glyph-name="ohungarumlaut" unicode="&#x151;" horiz-adv-x="610" 
d="M305 -10c-75.333 0 -137.666 25.167 -186.999 75.5s-74 111.833 -74 184.5s24.667 134.167 74 184.5s111.666 75.5 186.999 75.5s137.666 -25.167 186.999 -75.5s74 -111.833 74 -184.5s-24.667 -134.167 -74 -184.5s-111.666 -75.5 -186.999 -75.5zM305 55
c56 0 101.5 18.833 136.5 56.5s52.5 83.834 52.5 138.501s-17.5 100.834 -52.5 138.501s-80.5 56.5 -136.5 56.5s-101.5 -18.833 -136.5 -56.5s-52.5 -83.834 -52.5 -138.501s17.5 -100.834 52.5 -138.501s80.5 -56.5 136.5 -56.5zM361 560l70 190h85l-105 -190h-50z
M199 560l70 190h85l-105 -190h-50z" />
    <glyph glyph-name="OE" unicode="&#x152;" horiz-adv-x="1160" 
d="M415 60c82 0 150.833 28.333 206.5 85s83.5 126.667 83.5 210c0 82.667 -27.833 152.5 -83.5 209.5s-124.5 85.5 -206.5 85.5s-150.833 -28.5 -206.5 -85.5s-83.5 -126.833 -83.5 -209.5c0 -83.333 27.833 -153.333 83.5 -210s124.5 -85 206.5 -85zM705 0v133
c-71.333 -96.667 -168 -145 -290 -145c-102.667 0 -189.5 35.333 -260.5 106s-106.5 157.667 -106.5 261s35.5 190.333 106.5 261s157.833 106 260.5 106c122 0 218.667 -48.333 290 -145v133h405v-72h-329v-237h269v-72h-269v-257h329v-72h-405z" />
    <glyph glyph-name="oe" unicode="&#x153;" horiz-adv-x="1024" 
d="M305 -10c-75.333 0 -137.665 25.167 -186.998 75.5s-74 111.833 -74 184.5s24.667 134.167 74 184.5s111.666 75.5 186.999 75.5c48 0 91.333 -11 130 -33s69.667 -51.667 93 -89c44.667 81.333 117 122 217 122c76.667 0 136.334 -27.833 179.001 -83.5
s60.667 -121.167 54 -196.5h-412c0 -50 17.667 -91.667 53 -125s76.333 -50 123 -50c72 0 124 31.333 156 94h72c-12.667 -46 -38.667 -84 -78 -114s-89.333 -45 -150 -45c-47.333 0 -89.333 10.667 -126 32s-66 51.333 -88 90c-22.667 -37.333 -53.334 -67 -92.001 -89
s-82.334 -33 -131.001 -33zM305.001 55c56 0 101.5 18.833 136.5 56.5s52.5 83.834 52.5 138.501s-17.5 100.834 -52.5 138.501s-80.5 56.5 -136.5 56.5s-101.5 -18.833 -136.5 -56.5s-52.5 -83.834 -52.5 -138.501s17.5 -100.834 52.5 -138.501s80.5 -56.5 136.5 -56.5z
M742.001 445c-42 0 -79 -12.5 -111 -37.5s-52.333 -63.833 -61 -116.5h336c-8 49.333 -26.667 87.333 -56 114s-65.333 40 -108 40z" />
    <glyph glyph-name="Racute" unicode="&#x154;" horiz-adv-x="628" 
d="M99 0l0.000976562 710.002h232c65.333 0 116.666 -17.167 153.999 -51.5s56 -80.833 56 -139.5c0 -54.667 -16.5 -98.834 -49.5 -132.501s-78.5 -52.834 -136.5 -57.501l281 -329h-99l-281 330h-81v-330h-76zM175.001 400.002h147c94.667 0 142 39.667 142 119
c0 80 -47.333 120 -142 120h-147v-239zM276.001 770.002l80 157h94l-112 -157h-62z" />
    <glyph glyph-name="racute" unicode="&#x155;" horiz-adv-x="357" 
d="M86 0l0.000976562 500.001h70v-103c10.667 33.333 29.667 59.666 57 78.999s56.666 29 87.999 29c14 0 26 -1.33301 36 -4v-73c-12 4.66699 -26 7 -42 7c-35.333 0 -67.333 -16 -96 -48s-43 -77.333 -43 -136v-251h-70zM185.001 560.001l90 190h95l-125 -190h-60z" />
    <glyph glyph-name="uni0156" unicode="&#x156;" horiz-adv-x="628" 
d="M99 0l0.000976562 710.002h232c65.333 0 116.666 -17.167 153.999 -51.5s56 -80.833 56 -139.5c0 -54.667 -16.5 -98.834 -49.5 -132.501s-78.5 -52.834 -136.5 -57.501l281 -329h-99l-281 330h-81v-330h-76zM175.001 400.002h147c94.667 0 142 39.667 142 119
c0 80 -47.333 120 -142 120h-147v-239zM297.001 -257.998l34 83c-18 12.667 -27 28 -27 46c0 14.667 5 27.334 15 38.001s22.333 16 37 16s27 -5.33301 37 -16s15 -23.334 15 -38.001c0 -11.333 -3 -21.333 -9 -30l-62 -99h-40z" />
    <glyph glyph-name="uni0157" unicode="&#x157;" horiz-adv-x="357" 
d="M86 0l0.000976562 500.001h70v-103c10.667 33.333 29.667 59.666 57 78.999s56.666 29 87.999 29c14 0 26 -1.33301 36 -4v-73c-12 4.66699 -26 7 -42 7c-35.333 0 -67.333 -16 -96 -48s-43 -77.333 -43 -136v-251h-70zM63.001 -257.999l34 83c-18 12.667 -27 28 -27 46
c0 14.667 5 27.334 15 38.001s22.333 16 37 16s27 -5.33301 37 -16s15 -23.334 15 -38.001c0 -11.333 -3 -21.333 -9 -30l-62 -99h-40z" />
    <glyph glyph-name="Rcaron" unicode="&#x158;" horiz-adv-x="628" 
d="M99 0l0.000976562 710.002h232c65.333 0 116.666 -17.167 153.999 -51.5s56 -80.833 56 -139.5c0 -54.667 -16.5 -98.834 -49.5 -132.501s-78.5 -52.834 -136.5 -57.501l281 -329h-99l-281 330h-81v-330h-76zM175.001 400.002h147c94.667 0 142 39.667 142 119
c0 80 -47.333 120 -142 120h-147v-239zM299.001 769.002l-164 92v67l164 -92l164 92v-67z" />
    <glyph glyph-name="rcaron" unicode="&#x159;" horiz-adv-x="357" 
d="M86 0l0.000976562 500.001h70v-103c10.667 33.333 29.667 59.666 57 78.999s56.666 29 87.999 29c14 0 26 -1.33301 36 -4v-73c-12 4.66699 -26 7 -42 7c-35.333 0 -67.333 -16 -96 -48s-43 -77.333 -43 -136v-251h-70zM211.001 584.001l-154 102v70l154 -102l154 102
v-70z" />
    <glyph glyph-name="Sacute" unicode="&#x15a;" horiz-adv-x="552" 
d="M284 -12c-69.333 0 -125.998 18.498 -169.998 55.498s-66.667 82.833 -68 137.5h76c4 -38.667 22.167 -68.5 54.5 -89.5s67.833 -31.5 106.5 -31.5c41.333 0 75.833 10.667 103.5 32s41.5 49.666 41.5 84.999c0 59.333 -34.333 102.333 -103 129l-105 40
c-55.333 21.333 -95.333 47.333 -120 78s-37 70.334 -37 119.001c0 54.667 19.667 98.167 59 130.5s89.333 48.5 150 48.5c65.333 0 116.166 -18.167 152.499 -54.5s57.5 -79.833 63.5 -130.5h-76c-8.66699 37.333 -26.167 65.5 -52.5 84.5s-56.5 28.5 -90.5 28.5
c-37.333 0 -68.333 -9.66699 -93 -29s-37 -45 -37 -77c0 -31.333 8.33301 -56.166 25 -74.499s43.667 -34.833 81 -49.5l94 -36c55.333 -21.333 96.666 -48.166 123.999 -80.499s41 -73.833 41 -124.5c0 -58.667 -20.5 -105.167 -61.5 -139.5s-93.833 -51.5 -158.5 -51.5z
M257.002 769.998l80 157h94l-112 -157h-62z" />
    <glyph glyph-name="sacute" unicode="&#x15b;" horiz-adv-x="457" 
d="M237 -10c-53.333 0 -98.334 13.002 -135.001 39.002s-57 63.333 -61 112h70c14 -58.667 56 -88 126 -88c30.667 0 56 6.5 76 19.5s30 31.5 30 55.5c0 22 -7.16699 40.167 -21.5 54.5s-37.166 25.833 -68.499 34.5l-65 17c-86 23.333 -129 71.666 -129 144.999
c0 40 15.333 71.833 46 95.5s70 35.5 118 35.5c50.667 0 91.5 -13.333 122.5 -40s48.5 -59.667 52.5 -99h-69c-7.33301 24 -20.333 42.833 -39 56.5s-41 20.5 -67 20.5c-26.667 0 -49 -6.33301 -67 -19s-27 -29.334 -27 -50.001c0 -20 6.33301 -36.333 19 -49
s33.667 -23 63 -31l77 -20c40 -10 70.833 -27.5 92.5 -52.5s32.5 -56.167 32.5 -93.5c0 -48 -16.167 -83.833 -48.5 -107.5s-74.833 -35.5 -127.5 -35.5zM208.999 560.002l90 190h95l-125 -190h-60z" />
    <glyph glyph-name="Scircumflex" unicode="&#x15c;" horiz-adv-x="552" 
d="M284 -12c-69.333 0 -125.998 18.498 -169.998 55.498s-66.667 82.833 -68 137.5h76c4 -38.667 22.167 -68.5 54.5 -89.5s67.833 -31.5 106.5 -31.5c41.333 0 75.833 10.667 103.5 32s41.5 49.666 41.5 84.999c0 59.333 -34.333 102.333 -103 129l-105 40
c-55.333 21.333 -95.333 47.333 -120 78s-37 70.334 -37 119.001c0 54.667 19.667 98.167 59 130.5s89.333 48.5 150 48.5c65.333 0 116.166 -18.167 152.499 -54.5s57.5 -79.833 63.5 -130.5h-76c-8.66699 37.333 -26.167 65.5 -52.5 84.5s-56.5 28.5 -90.5 28.5
c-37.333 0 -68.333 -9.66699 -93 -29s-37 -45 -37 -77c0 -31.333 8.33301 -56.166 25 -74.499s43.667 -34.833 81 -49.5l94 -36c55.333 -21.333 96.666 -48.166 123.999 -80.499s41 -73.833 41 -124.5c0 -58.667 -20.5 -105.167 -61.5 -139.5s-93.833 -51.5 -158.5 -51.5z
M116.002 768.998v67l164 92l164 -92v-67l-164 92z" />
    <glyph glyph-name="scircumflex" unicode="&#x15d;" horiz-adv-x="457" 
d="M237 -10c-53.333 0 -98.334 13.002 -135.001 39.002s-57 63.333 -61 112h70c14 -58.667 56 -88 126 -88c30.667 0 56 6.5 76 19.5s30 31.5 30 55.5c0 22 -7.16699 40.167 -21.5 54.5s-37.166 25.833 -68.499 34.5l-65 17c-86 23.333 -129 71.666 -129 144.999
c0 40 15.333 71.833 46 95.5s70 35.5 118 35.5c50.667 0 91.5 -13.333 122.5 -40s48.5 -59.667 52.5 -99h-69c-7.33301 24 -20.333 42.833 -39 56.5s-41 20.5 -67 20.5c-26.667 0 -49 -6.33301 -67 -19s-27 -29.334 -27 -50.001c0 -20 6.33301 -36.333 19 -49
s33.667 -23 63 -31l77 -20c40 -10 70.833 -27.5 92.5 -52.5s32.5 -56.167 32.5 -93.5c0 -48 -16.167 -83.833 -48.5 -107.5s-74.833 -35.5 -127.5 -35.5zM234.999 756.002l154 -102v-70l-154 102l-154 -102v70z" />
    <glyph glyph-name="Scedilla" unicode="&#x15e;" horiz-adv-x="552" 
d="M284 -12c-69.333 0 -125.998 18.498 -169.998 55.498s-66.667 82.833 -68 137.5h76c4 -38.667 22.167 -68.5 54.5 -89.5s67.833 -31.5 106.5 -31.5c41.333 0 75.833 10.667 103.5 32s41.5 49.666 41.5 84.999c0 59.333 -34.333 102.333 -103 129l-105 40
c-55.333 21.333 -95.333 47.333 -120 78s-37 70.334 -37 119.001c0 54.667 19.667 98.167 59 130.5s89.333 48.5 150 48.5c65.333 0 116.166 -18.167 152.499 -54.5s57.5 -79.833 63.5 -130.5h-76c-8.66699 37.333 -26.167 65.5 -52.5 84.5s-56.5 28.5 -90.5 28.5
c-37.333 0 -68.333 -9.66699 -93 -29s-37 -45 -37 -77c0 -31.333 8.33301 -56.166 25 -74.499s43.667 -34.833 81 -49.5l94 -36c55.333 -21.333 96.666 -48.166 123.999 -80.499s41 -73.833 41 -124.5c0 -58.667 -20.5 -105.167 -61.5 -139.5s-93.833 -51.5 -158.5 -51.5z
M181.002 -204.002v52.001c20 -11.333 45.333 -17 76 -17c20.667 0 37.5 3.83301 50.5 11.5s19.5 18.5 19.5 32.5c0 20.667 -15.667 31 -47 31c-16.667 0 -32 -3.33301 -46 -10l-32 21l52 86h52l-35 -57c8.66699 4.66699 21.334 7 38.001 7
c23.333 0 42.333 -6.83301 57 -20.5s22 -32.167 22 -55.5c0 -28.667 -12.167 -51.834 -36.5 -69.501s-54.5 -26.5 -90.5 -26.5c-32.667 0 -59.334 5 -80.001 15z" />
    <glyph glyph-name="scedilla" unicode="&#x15f;" horiz-adv-x="457" 
d="M237 -10c-53.333 0 -98.334 13.002 -135.001 39.002s-57 63.333 -61 112h70c14 -58.667 56 -88 126 -88c30.667 0 56 6.5 76 19.5s30 31.5 30 55.5c0 22 -7.16699 40.167 -21.5 54.5s-37.166 25.833 -68.499 34.5l-65 17c-86 23.333 -129 71.666 -129 144.999
c0 40 15.333 71.833 46 95.5s70 35.5 118 35.5c50.667 0 91.5 -13.333 122.5 -40s48.5 -59.667 52.5 -99h-69c-7.33301 24 -20.333 42.833 -39 56.5s-41 20.5 -67 20.5c-26.667 0 -49 -6.33301 -67 -19s-27 -29.334 -27 -50.001c0 -20 6.33301 -36.333 19 -49
s33.667 -23 63 -31l77 -20c40 -10 70.833 -27.5 92.5 -52.5s32.5 -56.167 32.5 -93.5c0 -48 -16.167 -83.833 -48.5 -107.5s-74.833 -35.5 -127.5 -35.5zM130.999 -203.998l0.000976562 52.001c20 -11.333 45.333 -17 76 -17c20.667 0 37.5 3.83301 50.5 11.5
s19.5 18.5 19.5 32.5c0 20.667 -15.667 31 -47 31c-16.667 0 -32 -3.33301 -46 -10l-32 21l52 86h52l-34 -56c8 4 20.333 6 37 6c23.333 0 42.333 -6.83301 57 -20.5s22 -32.167 22 -55.5c0 -28.667 -12.167 -51.834 -36.5 -69.501s-54.5 -26.5 -90.5 -26.5
c-32.667 0 -59.334 5 -80.001 15z" />
    <glyph glyph-name="Scaron" unicode="&#x160;" horiz-adv-x="552" 
d="M284 -12c-69.333 0 -125.998 18.498 -169.998 55.498s-66.667 82.833 -68 137.5h76c4 -38.667 22.167 -68.5 54.5 -89.5s67.833 -31.5 106.5 -31.5c41.333 0 75.833 10.667 103.5 32s41.5 49.666 41.5 84.999c0 59.333 -34.333 102.333 -103 129l-105 40
c-55.333 21.333 -95.333 47.333 -120 78s-37 70.334 -37 119.001c0 54.667 19.667 98.167 59 130.5s89.333 48.5 150 48.5c65.333 0 116.166 -18.167 152.499 -54.5s57.5 -79.833 63.5 -130.5h-76c-8.66699 37.333 -26.167 65.5 -52.5 84.5s-56.5 28.5 -90.5 28.5
c-37.333 0 -68.333 -9.66699 -93 -29s-37 -45 -37 -77c0 -31.333 8.33301 -56.166 25 -74.499s43.667 -34.833 81 -49.5l94 -36c55.333 -21.333 96.666 -48.166 123.999 -80.499s41 -73.833 41 -124.5c0 -58.667 -20.5 -105.167 -61.5 -139.5s-93.833 -51.5 -158.5 -51.5z
M280.002 768.998l-164 92v67l164 -92l164 92v-67z" />
    <glyph glyph-name="scaron" unicode="&#x161;" horiz-adv-x="457" 
d="M237 -10c-53.333 0 -98.334 13.002 -135.001 39.002s-57 63.333 -61 112h70c14 -58.667 56 -88 126 -88c30.667 0 56 6.5 76 19.5s30 31.5 30 55.5c0 22 -7.16699 40.167 -21.5 54.5s-37.166 25.833 -68.499 34.5l-65 17c-86 23.333 -129 71.666 -129 144.999
c0 40 15.333 71.833 46 95.5s70 35.5 118 35.5c50.667 0 91.5 -13.333 122.5 -40s48.5 -59.667 52.5 -99h-69c-7.33301 24 -20.333 42.833 -39 56.5s-41 20.5 -67 20.5c-26.667 0 -49 -6.33301 -67 -19s-27 -29.334 -27 -50.001c0 -20 6.33301 -36.333 19 -49
s33.667 -23 63 -31l77 -20c40 -10 70.833 -27.5 92.5 -52.5s32.5 -56.167 32.5 -93.5c0 -48 -16.167 -83.833 -48.5 -107.5s-74.833 -35.5 -127.5 -35.5zM234.999 584.002l-154 102v70l154 -102l154 102v-70z" />
    <glyph glyph-name="uni0162" unicode="&#x162;" horiz-adv-x="567" 
d="M246 0v638h-230v72h535v-72h-230v-638h-75zM224 -258l34 83c-18 12.667 -27 28 -27 46c0 14.667 5 27.334 15 38.001s22.333 16 37 16s27 -5.33301 37 -16s15 -23.334 15 -38.001c0 -11.333 -3 -21.333 -9 -30l-62 -99h-40z" />
    <glyph glyph-name="uni0163" unicode="&#x163;" horiz-adv-x="367" 
d="M265 -5c-42 0 -76.167 12.168 -102.5 36.501s-39.5 60.166 -39.5 107.499v295h-107v66h107v139h70v-139h146v-66h-146v-289c0 -30.667 6.83301 -52.5 20.5 -65.5s34.5 -19.5 62.5 -19.5c25.333 0 46.333 3.66699 63 11v-63c-22 -8.66699 -46.667 -13 -74 -13z
M172 -257.999l34 83c-18 12.667 -27 28 -27 46c0 14.667 5 27.334 15 38.001s22.333 16 37 16s27 -5.33301 37 -16s15 -23.334 15 -38.001c0 -11.333 -3 -21.333 -9 -30l-62 -99h-40z" />
    <glyph glyph-name="Tcaron" unicode="&#x164;" horiz-adv-x="567" 
d="M246 0v638h-230v72h535v-72h-230v-638h-75zM283 769l-164 92v67l164 -92l164 92v-67z" />
    <glyph glyph-name="tcaron" unicode="&#x165;" horiz-adv-x="367" 
d="M265 -5c-42 0 -76.167 12.168 -102.5 36.501s-39.5 60.166 -39.5 107.499v295h-107v66h107v139h70v-139h146v-66h-146v-289c0 -30.667 6.83301 -52.5 20.5 -65.5s34.5 -19.5 62.5 -19.5c25.333 0 46.333 3.66699 63 11v-63c-22 -8.66699 -46.667 -13 -74 -13z
M233 544.001l25 166h70l-45 -166h-50z" />
    <glyph glyph-name="Tbar" unicode="&#x166;" horiz-adv-x="593" 
d="M259 0v638h-230v72h535v-72h-230v-638h-75zM97 332v68h399v-68h-399z" />
    <glyph glyph-name="tbar" unicode="&#x167;" horiz-adv-x="381" 
d="M274 -5c-42 0 -76.167 12.168 -102.5 36.501s-39.5 60.166 -39.5 107.499v295h-107v66h107v139h70v-139h146v-66h-146v-289c0 -30.667 6.83301 -52.5 20.5 -65.5s34.5 -19.5 62.5 -19.5c25.333 0 46.333 3.66699 63 11v-63c-22 -8.66699 -46.667 -13 -74 -13zM25 281.001
v61h323v-61h-323z" />
    <glyph glyph-name="Utilde" unicode="&#x168;" horiz-adv-x="728" 
d="M364 -12c-82 0 -148.169 25.833 -198.502 77.5s-75.5 121.5 -75.5 209.5v435h76v-437c0 -67.333 17.833 -119.666 53.5 -156.999s83.834 -56 144.501 -56s108.834 18.667 144.501 56s53.5 89.666 53.5 156.999v437h76v-435c0 -88 -25.167 -157.833 -75.5 -209.5
s-116.5 -77.5 -198.5 -77.5zM195.998 788l3 16c5.33301 26.667 17.166 48.167 35.499 64.5s40.5 24.5 66.5 24.5c18 0 41.5 -7.16699 70.5 -21.5s48.167 -21.5 57.5 -21.5c22 0 36.333 14.333 43 43h61l-3 -16c-5.33301 -26.667 -17.166 -48.167 -35.499 -64.5
s-40.5 -24.5 -66.5 -24.5c-18 0 -41.5 7.16699 -70.5 21.5s-48.167 21.5 -57.5 21.5c-22 0 -36.333 -14.333 -43 -43h-61z" />
    <glyph glyph-name="utilde" unicode="&#x169;" horiz-adv-x="576" 
d="M261 -10c-54 0 -97.999 18 -131.999 54s-51 83.667 -51 143v313h70v-303c0 -43.333 11.333 -77.833 34 -103.5s52 -38.5 88 -38.5c43.333 0 79.166 17.833 107.499 53.5s42.5 83.167 42.5 142.5v249h70v-500h-70v84c-34 -62.667 -87 -94 -159 -94zM114.001 600l3 16
c5.33301 26.667 17.166 48.167 35.499 64.5s40.5 24.5 66.5 24.5c18 0 41.5 -7.16699 70.5 -21.5s48.167 -21.5 57.5 -21.5c22 0 36.333 14.333 43 43h61l-3 -16c-5.33301 -26.667 -17.166 -48.167 -35.499 -64.5s-40.5 -24.5 -66.5 -24.5c-18 0 -41.5 7.16699 -70.5 21.5
s-48.167 21.5 -57.5 21.5c-22 0 -36.333 -14.333 -43 -43h-61z" />
    <glyph glyph-name="Umacron" unicode="&#x16a;" horiz-adv-x="728" 
d="M364 -12c-82 0 -148.169 25.833 -198.502 77.5s-75.5 121.5 -75.5 209.5v435h76v-437c0 -67.333 17.833 -119.666 53.5 -156.999s83.834 -56 144.501 -56s108.834 18.667 144.501 56s53.5 89.666 53.5 156.999v437h76v-435c0 -88 -25.167 -157.833 -75.5 -209.5
s-116.5 -77.5 -198.5 -77.5zM205.998 809v61h316v-61h-316z" />
    <glyph glyph-name="umacron" unicode="&#x16b;" horiz-adv-x="576" 
d="M261 -10c-54 0 -97.999 18 -131.999 54s-51 83.667 -51 143v313h70v-303c0 -43.333 11.333 -77.833 34 -103.5s52 -38.5 88 -38.5c43.333 0 79.166 17.833 107.499 53.5s42.5 83.167 42.5 142.5v249h70v-500h-70v84c-34 -62.667 -87 -94 -159 -94zM125.001 649v61h316
v-61h-316z" />
    <glyph glyph-name="Ubreve" unicode="&#x16c;" horiz-adv-x="728" 
d="M364 -12c-82 0 -148.169 25.833 -198.502 77.5s-75.5 121.5 -75.5 209.5v435h76v-437c0 -67.333 17.833 -119.666 53.5 -156.999s83.834 -56 144.501 -56s108.834 18.667 144.501 56s53.5 89.666 53.5 156.999v437h76v-435c0 -88 -25.167 -157.833 -75.5 -209.5
s-116.5 -77.5 -198.5 -77.5zM363.998 762c-43.333 0 -79.833 14 -109.5 42s-44.5 65 -44.5 111h51c0 -32.667 9.66699 -58 29 -76s44 -27 74 -27s54.667 9 74 27s29 43.333 29 76h51c0 -46 -14.833 -83 -44.5 -111s-66.167 -42 -109.5 -42z" />
    <glyph glyph-name="ubreve" unicode="&#x16d;" horiz-adv-x="576" 
d="M261 -10c-54 0 -97.999 18 -131.999 54s-51 83.667 -51 143v313h70v-303c0 -43.333 11.333 -77.833 34 -103.5s52 -38.5 88 -38.5c43.333 0 79.166 17.833 107.499 53.5s42.5 83.167 42.5 142.5v249h70v-500h-70v84c-34 -62.667 -87 -94 -159 -94zM283.001 585
c-44 0 -80.667 14 -110 42s-44 65.333 -44 112v11h51v-11c0 -32.667 9.66699 -58.167 29 -76.5s44 -27.5 74 -27.5s54.667 9.16699 74 27.5s29 43.833 29 76.5v11h51v-11c0 -46.667 -14.667 -84 -44 -112s-66 -42 -110 -42z" />
    <glyph glyph-name="Uring" unicode="&#x16e;" horiz-adv-x="728" 
d="M364 -12c-82 0 -148.169 25.833 -198.502 77.5s-75.5 121.5 -75.5 209.5v435h76v-437c0 -67.333 17.833 -119.666 53.5 -156.999s83.834 -56 144.501 -56s108.834 18.667 144.501 56s53.5 89.666 53.5 156.999v437h76v-435c0 -88 -25.167 -157.833 -75.5 -209.5
s-116.5 -77.5 -198.5 -77.5zM363.998 753c-33.333 0 -61.833 11.6709 -85.5 35.0039s-35.5 51.666 -35.5 84.999s11.833 61.666 35.5 84.999s52.167 35 85.5 35s62 -11.833 86 -35.5s36 -51.834 36 -84.501s-12 -60.834 -36 -84.501s-52.667 -35.5 -86 -35.5z
M363.998 800.004c20.667 0 38.167 7 52.5 21s21.5 31.333 21.5 52c0 20 -7.16699 37.333 -21.5 52s-31.833 22 -52.5 22c-20 0 -37.167 -7.33301 -51.5 -22s-21.5 -32 -21.5 -52c0 -20.667 7.16699 -38 21.5 -52s31.5 -21 51.5 -21z" />
    <glyph glyph-name="uring" unicode="&#x16f;" horiz-adv-x="576" 
d="M261 -10c-54 0 -97.999 18 -131.999 54s-51 83.667 -51 143v313h70v-303c0 -43.333 11.333 -77.833 34 -103.5s52 -38.5 88 -38.5c43.333 0 79.166 17.833 107.499 53.5s42.5 83.167 42.5 142.5v249h70v-500h-70v84c-34 -62.667 -87 -94 -159 -94zM283.001 543
c-33.333 0 -61.833 11.6709 -85.5 35.0039s-35.5 51.666 -35.5 84.999s11.833 61.666 35.5 84.999s52.167 35 85.5 35s62 -11.833 86 -35.5s36 -51.834 36 -84.501s-12 -60.834 -36 -84.501s-52.667 -35.5 -86 -35.5zM283.001 590.004c20.667 0 38.167 7 52.5 21
s21.5 31.333 21.5 52c0 20 -7.16699 37.333 -21.5 52s-31.833 22 -52.5 22c-20 0 -37.167 -7.33301 -51.5 -22s-21.5 -32 -21.5 -52c0 -20.667 7.16699 -38 21.5 -52s31.5 -21 51.5 -21z" />
    <glyph glyph-name="Uhungarumlaut" unicode="&#x170;" horiz-adv-x="728" 
d="M364 -12c-82 0 -148.169 25.833 -198.502 77.5s-75.5 121.5 -75.5 209.5v435h76v-437c0 -67.333 17.833 -119.666 53.5 -156.999s83.834 -56 144.501 -56s108.834 18.667 144.501 56s53.5 89.666 53.5 156.999v437h76v-435c0 -88 -25.167 -157.833 -75.5 -209.5
s-116.5 -77.5 -198.5 -77.5zM419.998 770l70 157h85l-105 -157h-50zM257.998 770l70 157h85l-105 -157h-50z" />
    <glyph glyph-name="uhungarumlaut" unicode="&#x171;" horiz-adv-x="576" 
d="M261 -10c-54 0 -97.999 18 -131.999 54s-51 83.667 -51 143v313h70v-303c0 -43.333 11.333 -77.833 34 -103.5s52 -38.5 88 -38.5c43.333 0 79.166 17.833 107.499 53.5s42.5 83.167 42.5 142.5v249h70v-500h-70v84c-34 -62.667 -87 -94 -159 -94zM339.001 560l70 190h85
l-105 -190h-50zM177.001 560l70 190h85l-105 -190h-50z" />
    <glyph glyph-name="Uogonek" unicode="&#x172;" horiz-adv-x="728" 
d="M419 -219c-25.333 0 -46.668 8 -64.001 24s-26 36.667 -26 62c0 44 26 85.667 78 125c-20.667 -2.66699 -35 -4 -43 -4c-82 0 -148.167 25.833 -198.5 77.5s-75.5 121.5 -75.5 209.5v435h76v-437c0 -67.333 17.833 -119.666 53.5 -156.999s83.834 -56 144.501 -56
s108.834 18.667 144.501 56s53.5 89.666 53.5 156.999v437h76v-435c0 -98 -30.333 -172.667 -91 -224c-58.667 -47.333 -96.667 -81.333 -114 -102c-22 -26 -33 -48.667 -33 -68c0 -24 12 -36 36 -36c18 0 37 8 57 24v-63c-18.667 -16.667 -43.334 -25 -74.001 -25z" />
    <glyph glyph-name="uogonek" unicode="&#x173;" horiz-adv-x="576" 
d="M261 -10c-54 0 -97.999 18 -131.999 54s-51 83.667 -51 143v313h70v-303c0 -43.333 11.333 -77.833 34 -103.5s52 -38.5 88 -38.5c43.333 0 79.166 17.833 107.499 53.5s42.5 83.167 42.5 142.5v249h70v-500h-70v84c-34 -62.667 -87 -94 -159 -94zM419.001 -219
c-24.667 0 -45.667 8.00098 -63 24.001s-26 35.667 -26 59c0 21.333 5.83301 41.833 17.5 61.5s21.834 33.167 30.501 40.5l42 34h70c-63.333 -42 -95 -82.667 -95 -122c0 -12.667 3.66699 -22.334 11 -29.001s16.333 -10 27 -10c18 0 37 8 57 24v-57
c-18.667 -16.667 -42.334 -25 -71.001 -25z" />
    <glyph glyph-name="Wcircumflex" unicode="&#x174;" horiz-adv-x="942" 
d="M650 0l-179 516l-179 -516h-66l-202 710h79l162 -580l206 592l206 -592l162 580h79l-202 -710h-66zM307 769v67l164 92l164 -92v-67l-164 92z" />
    <glyph glyph-name="wcircumflex" unicode="&#x175;" horiz-adv-x="751" 
d="M508 0l-133 381l-132 -381h-58l-171 500h72l129 -380l133 380h54l132 -380l130 380h73l-171 -500h-58zM375 756l154 -102v-70l-154 102l-154 -102v70z" />
    <glyph glyph-name="Ycircumflex" unicode="&#x176;" horiz-adv-x="669" 
d="M297 0v301l-280 409h92l226 -331l226 331h92l-281 -410v-300h-75zM170 769v67l164 92l164 -92v-67l-164 92z" />
    <glyph glyph-name="ycircumflex" unicode="&#x177;" horiz-adv-x="540" 
d="M201 -209h-79l110 234l-222 475h78l183 -397l183 397h79zM271 756l154 -102v-70l-154 102l-154 -102v70z" />
    <glyph glyph-name="Ydieresis" unicode="&#x178;" horiz-adv-x="669" 
d="M297 0v301l-280 409h92l226 -331l226 331h92l-281 -410v-300h-75zM224 789c-15.333 0 -28.166 5.16699 -38.499 15.5s-15.5 22.833 -15.5 37.5s5.16699 27.167 15.5 37.5s23.166 15.5 38.499 15.5c14.667 0 27 -5.16699 37 -15.5s15 -22.833 15 -37.5
s-5 -27.167 -15 -37.5s-22.333 -15.5 -37 -15.5zM446 789c-15.333 0 -28.166 5.16699 -38.499 15.5s-15.5 22.833 -15.5 37.5s5.16699 27.167 15.5 37.5s23.166 15.5 38.499 15.5c14.667 0 27 -5.16699 37 -15.5s15 -22.833 15 -37.5s-5 -27.167 -15 -37.5
s-22.333 -15.5 -37 -15.5z" />
    <glyph glyph-name="Zacute" unicode="&#x179;" horiz-adv-x="578" 
d="M33 0v50l398 588h-386v72h488v-50l-399 -588h410v-72h-511zM275 770l80 157h94l-112 -157h-62z" />
    <glyph glyph-name="zacute" unicode="&#x17a;" horiz-adv-x="479" 
d="M40 0v56l302 379h-298v65h388v-57l-301 -378h310v-65h-401zM212 560l90 190h95l-125 -190h-60z" />
    <glyph glyph-name="Zdotaccent" unicode="&#x17b;" horiz-adv-x="578" 
d="M33 0v50l398 588h-386v72h488v-50l-399 -588h410v-72h-511zM298 789c-15.333 0 -28.166 5.16699 -38.499 15.5s-15.5 22.833 -15.5 37.5s5.16699 27.167 15.5 37.5s23.166 15.5 38.499 15.5c14.667 0 27 -5.16699 37 -15.5s15 -22.833 15 -37.5s-5 -27.167 -15 -37.5
s-22.333 -15.5 -37 -15.5z" />
    <glyph glyph-name="zdotaccent" unicode="&#x17c;" horiz-adv-x="479" 
d="M40 0v56l302 379h-298v65h388v-57l-301 -378h310v-65h-401zM238 602c-15.333 0 -28.166 5.16699 -38.499 15.5s-15.5 22.833 -15.5 37.5s5.16699 27.167 15.5 37.5s23.166 15.5 38.499 15.5c14.667 0 27 -5.16699 37 -15.5s15 -22.833 15 -37.5s-5 -27.167 -15 -37.5
s-22.333 -15.5 -37 -15.5z" />
    <glyph glyph-name="Zcaron" unicode="&#x17d;" horiz-adv-x="578" 
d="M33 0v50l398 588h-386v72h488v-50l-399 -588h410v-72h-511zM298 769l-164 92v67l164 -92l164 92v-67z" />
    <glyph glyph-name="zcaron" unicode="&#x17e;" horiz-adv-x="479" 
d="M40 0v56l302 379h-298v65h388v-57l-301 -378h310v-65h-401zM238 584l-154 102v70l154 -102l154 102v-70z" />
    <glyph glyph-name="uni018F" unicode="&#x18f;" horiz-adv-x="829" 
d="M414 -12c-102.667 0 -189.498 35.3311 -260.498 105.998s-106.5 157.667 -106.5 261v43h655c-12 76 -45 137 -99 183s-117 69 -189 69c-58.667 0 -112.334 -14.167 -161.001 -42.5s-83.334 -64.166 -104.001 -107.499h-83c21.333 60.667 63.833 112.834 127.5 156.501
s137.167 65.5 220.5 65.5c102.667 0 189.5 -35.333 260.5 -106s106.5 -157.667 106.5 -261s-35.5 -190.333 -106.5 -261s-157.833 -106 -260.5 -106zM414.002 59.998c76 0 141.166 24.5 195.499 73.5s85.5 114.167 93.5 195.5h-579
c6.66699 -80 37.834 -144.833 93.501 -194.5s121.167 -74.5 196.5 -74.5z" />
    <glyph glyph-name="uni0218" unicode="&#x218;" horiz-adv-x="552" 
d="M284 -12c-69.333 0 -125.998 18.498 -169.998 55.498s-66.667 82.833 -68 137.5h76c4 -38.667 22.167 -68.5 54.5 -89.5s67.833 -31.5 106.5 -31.5c41.333 0 75.833 10.667 103.5 32s41.5 49.666 41.5 84.999c0 59.333 -34.333 102.333 -103 129l-105 40
c-55.333 21.333 -95.333 47.333 -120 78s-37 70.334 -37 119.001c0 54.667 19.667 98.167 59 130.5s89.333 48.5 150 48.5c65.333 0 116.166 -18.167 152.499 -54.5s57.5 -79.833 63.5 -130.5h-76c-8.66699 37.333 -26.167 65.5 -52.5 84.5s-56.5 28.5 -90.5 28.5
c-37.333 0 -68.333 -9.66699 -93 -29s-37 -45 -37 -77c0 -31.333 8.33301 -56.166 25 -74.499s43.667 -34.833 81 -49.5l94 -36c55.333 -21.333 96.666 -48.166 123.999 -80.499s41 -73.833 41 -124.5c0 -58.667 -20.5 -105.167 -61.5 -139.5s-93.833 -51.5 -158.5 -51.5z
M225.002 -258.002l34 83c-18 12.667 -27 28 -27 46c0 14.667 5 27.334 15 38.001s22.333 16 37 16s27 -5.33301 37 -16s15 -23.334 15 -38.001c0 -11.333 -3 -21.333 -9 -30l-62 -99h-40z" />
    <glyph glyph-name="uni0219" unicode="&#x219;" horiz-adv-x="457" 
d="M237 -10c-53.333 0 -98.334 13.002 -135.001 39.002s-57 63.333 -61 112h70c14 -58.667 56 -88 126 -88c30.667 0 56 6.5 76 19.5s30 31.5 30 55.5c0 22 -7.16699 40.167 -21.5 54.5s-37.166 25.833 -68.499 34.5l-65 17c-86 23.333 -129 71.666 -129 144.999
c0 40 15.333 71.833 46 95.5s70 35.5 118 35.5c50.667 0 91.5 -13.333 122.5 -40s48.5 -59.667 52.5 -99h-69c-7.33301 24 -20.333 42.833 -39 56.5s-41 20.5 -67 20.5c-26.667 0 -49 -6.33301 -67 -19s-27 -29.334 -27 -50.001c0 -20 6.33301 -36.333 19 -49
s33.667 -23 63 -31l77 -20c40 -10 70.833 -27.5 92.5 -52.5s32.5 -56.167 32.5 -93.5c0 -48 -16.167 -83.833 -48.5 -107.5s-74.833 -35.5 -127.5 -35.5zM174.999 -257.998l34 83c-18 12.667 -27 28 -27 46c0 14.667 5 27.334 15 38.001s22.333 16 37 16s27 -5.33301 37 -16
s15 -23.334 15 -38.001c0 -11.333 -3 -21.333 -9 -30l-62 -99h-40z" />
    <glyph glyph-name="uni021A" unicode="&#x21a;" horiz-adv-x="567" 
d="M246 0v638h-230v72h535v-72h-230v-638h-75zM224 -258l34 83c-18 12.667 -27 28 -27 46c0 14.667 5 27.334 15 38.001s22.333 16 37 16s27 -5.33301 37 -16s15 -23.334 15 -38.001c0 -11.333 -3 -21.333 -9 -30l-62 -99h-40z" />
    <glyph glyph-name="uni021B" unicode="&#x21b;" horiz-adv-x="367" 
d="M265 -5c-42 0 -76.167 12.168 -102.5 36.501s-39.5 60.166 -39.5 107.499v295h-107v66h107v139h70v-139h146v-66h-146v-289c0 -30.667 6.83301 -52.5 20.5 -65.5s34.5 -19.5 62.5 -19.5c25.333 0 46.333 3.66699 63 11v-63c-22 -8.66699 -46.667 -13 -74 -13z
M172 -257.999l34 83c-18 12.667 -27 28 -27 46c0 14.667 5 27.334 15 38.001s22.333 16 37 16s27 -5.33301 37 -16s15 -23.334 15 -38.001c0 -11.333 -3 -21.333 -9 -30l-62 -99h-40z" />
    <glyph glyph-name="uni0232" unicode="&#x232;" horiz-adv-x="669" 
d="M297 0v301l-280 409h92l226 -331l226 331h92l-281 -410v-300h-75zM176 809v61h316v-61h-316z" />
    <glyph glyph-name="uni0233" unicode="&#x233;" horiz-adv-x="540" 
d="M201 -209h-79l110 234l-222 475h78l183 -397l183 397h79zM113 649v61h316v-61h-316z" />
    <glyph glyph-name="uni0237" unicode="&#x237;" horiz-adv-x="250" 
d="M164 500v-575.001c0 -47.333 -12.833 -83.166 -38.5 -107.499s-59.834 -36.5 -102.501 -36.5c-13.333 0 -25 1 -35 3v64c10.667 -1.33301 20.334 -2 29.001 -2c51.333 0 77 28.333 77 85v569h70z" />
    <glyph glyph-name="uni0259" unicode="&#x259;" horiz-adv-x="576" 
d="M286 510c70 0 128.165 -24.668 174.498 -74.001s69.5 -111.333 69.5 -186c0 -78 -21.5 -140.833 -64.5 -188.5s-102.833 -71.5 -179.5 -71.5c-78.667 0 -140 27.833 -184 83.5s-62.667 121.167 -56 196.5h412c-1.33301 50 -19 91.667 -53 125s-73.667 50 -119 50
c-74.667 0 -128 -31.333 -160 -94h-72c12.667 46.667 38.834 84.834 78.501 114.501s90.834 44.5 153.501 44.5zM288.998 54.999c41.333 0 77.333 12.333 108 37s49.667 63.667 57 117h-336c8 -49.333 27.5 -87.333 58.5 -114s68.5 -40 112.5 -40z" />
    <glyph glyph-name="uni02BB" unicode="&#x2bb;" horiz-adv-x="243" 
d="M56 550l100 160h50l-65 -140c23.333 -13.333 35 -33 35 -59c0 -18 -6.5 -33.667 -19.5 -47s-28.5 -20 -46.5 -20s-33.5 6.66699 -46.5 20s-19.5 29 -19.5 47c0 13.333 4 26.333 12 39z" />
    <glyph glyph-name="uni02BC" unicode="&#x2bc;" horiz-adv-x="246" 
d="M200 616l-100 -160h-50l65 140c-23.333 13.333 -35 33 -35 59c0 18 6.5 33.667 19.5 47s28.5 20 46.5 20s33.5 -6.66699 46.5 -20s19.5 -29 19.5 -47c0 -13.333 -4 -26.333 -12 -39z" />
    <glyph glyph-name="circumflex" unicode="&#x2c6;" 
d="M0 756l154 -102v-70l-154 102l-154 -102v70z" />
    <glyph glyph-name="caron" unicode="&#x2c7;" 
d="M0 584l-154 102v70l154 -102l154 102v-70z" />
    <glyph glyph-name="breve" unicode="&#x2d8;" 
d="M0 585c-44 0 -80.667 14 -110 42s-44 65.333 -44 112v11h51v-11c0 -32.667 9.66699 -58.167 29 -76.5s44 -27.5 74 -27.5s54.667 9.16699 74 27.5s29 43.833 29 76.5v11h51v-11c0 -46.667 -14.667 -84 -44 -112s-66 -42 -110 -42z" />
    <glyph glyph-name="dotaccent" unicode="&#x2d9;" 
d="M0 602c-15.333 0 -28.166 5.16699 -38.499 15.5s-15.5 22.833 -15.5 37.5s5.16699 27.167 15.5 37.5s23.166 15.5 38.499 15.5c14.667 0 27 -5.16699 37 -15.5s15 -22.833 15 -37.5s-5 -27.167 -15 -37.5s-22.333 -15.5 -37 -15.5z" />
    <glyph glyph-name="ring" unicode="&#x2da;" 
d="M0 543c-33.333 0 -61.833 11.6709 -85.5 35.0039s-35.5 51.666 -35.5 84.999s11.833 61.666 35.5 84.999s52.167 35 85.5 35s62 -11.833 86 -35.5s36 -51.834 36 -84.501s-12 -60.834 -36 -84.501s-52.667 -35.5 -86 -35.5zM0 590.004c20.667 0 38.167 7 52.5 21
s21.5 31.333 21.5 52c0 20 -7.16699 37.333 -21.5 52s-31.833 22 -52.5 22c-20 0 -37.167 -7.33301 -51.5 -22s-21.5 -32 -21.5 -52c0 -20.667 7.16699 -38 21.5 -52s31.5 -21 51.5 -21z" />
    <glyph glyph-name="ogonek" unicode="&#x2db;" 
d="M9 -219c-24.667 0 -45.667 8.00098 -63 24.001s-26 35.667 -26 59c0 21.333 5.83301 41.833 17.5 61.5s21.834 33.167 30.501 40.5l42 34h70c-63.333 -42 -95 -82.667 -95 -122c0 -12.667 3.66699 -22.334 11 -29.001s16.333 -10 27 -10c18 0 37 8 57 24v-57
c-18.667 -16.667 -42.334 -25 -71.001 -25z" />
    <glyph glyph-name="tilde" unicode="&#x2dc;" 
d="M-169 600l3 16c5.33301 26.667 17.166 48.167 35.499 64.5s40.5 24.5 66.5 24.5c18 0 41.5 -7.16699 70.5 -21.5s48.167 -21.5 57.5 -21.5c22 0 36.333 14.333 43 43h61l-3 -16c-5.33301 -26.667 -17.166 -48.167 -35.499 -64.5s-40.5 -24.5 -66.5 -24.5
c-18 0 -41.5 7.16699 -70.5 21.5s-48.167 21.5 -57.5 21.5c-22 0 -36.333 -14.333 -43 -43h-61z" />
    <glyph glyph-name="hungarumlaut" unicode="&#x2dd;" 
d="M3 560l70 190h85l-105 -190h-50zM-159 560l70 190h85l-105 -190h-50z" />
    <glyph glyph-name="uni0401" unicode="&#x401;" horiz-adv-x="554" 
d="M99 0v710h405v-72h-329v-237h269v-72h-269v-257h329v-72h-405zM190 789c-15.333 0 -28.166 5.16699 -38.499 15.5s-15.5 22.833 -15.5 37.5s5.16699 27.167 15.5 37.5s23.166 15.5 38.499 15.5c14.667 0 27 -5.16699 37 -15.5s15 -22.833 15 -37.5s-5 -27.167 -15 -37.5
s-22.333 -15.5 -37 -15.5zM412 789c-15.333 0 -28.166 5.16699 -38.499 15.5s-15.5 22.833 -15.5 37.5s5.16699 27.167 15.5 37.5s23.166 15.5 38.499 15.5c14.667 0 27 -5.16699 37 -15.5s15 -22.833 15 -37.5s-5 -27.167 -15 -37.5s-22.333 -15.5 -37 -15.5z" />
    <glyph glyph-name="uni0402" unicode="&#x402;" horiz-adv-x="741" 
d="M477 440c73.333 0 130 -22.832 170 -68.499s60 -98.5 60 -158.5c0 -68.667 -21.667 -123.334 -65 -164.001s-98 -61 -164 -61c-29.333 0 -57.333 1.66699 -84 5v71c31.333 -3.33301 60 -5 86 -5c40.667 0 76 13.833 106 41.5s45 65.167 45 112.5
c0 46.667 -14.833 84.167 -44.5 112.5s-70.167 42.5 -121.5 42.5c-56 0 -103 -19 -141 -57s-57 -91.667 -57 -161v-150h-76v638h-174v72h478v-72h-228v-305c22 34.667 51.5 61.167 88.5 79.5s77.5 27.5 121.5 27.5z" />
    <glyph glyph-name="uni0403" unicode="&#x403;" horiz-adv-x="511" 
d="M494 710v-72h-319v-638h-76v710h395zM274 770l80 157h94l-112 -157h-62z" />
    <glyph glyph-name="uni0404" unicode="&#x404;" horiz-adv-x="791" 
d="M415 -11c-102.667 0 -189.5 35.333 -260.5 106s-106.5 157.667 -106.5 261s35.5 190.333 106.5 261s157.833 106 260.5 106c88 0 162.5 -24.167 223.5 -72.5s99.5 -105.5 115.5 -171.5h-80c-16.667 49.333 -48.334 90.333 -95.001 123s-101.334 49 -164.001 49
c-75.333 0 -139.833 -24 -193.5 -72s-85.167 -109 -94.5 -183h384v-72h-385c8 -76 39 -138.833 93 -188.5s119.333 -74.5 196 -74.5c62.667 0 117.334 16.333 164.001 49s78.334 73.667 95.001 123h80c-16 -66 -54.5 -123.167 -115.5 -171.5s-135.5 -72.5 -223.5 -72.5z" />
    <glyph glyph-name="uni0405" unicode="&#x405;" horiz-adv-x="554" 
d="M285 -12c-69.333 0 -125.998 18.498 -169.998 55.498s-66.667 82.833 -68 137.5h76c4 -38.667 22.167 -68.5 54.5 -89.5s67.833 -31.5 106.5 -31.5c41.333 0 75.833 10.667 103.5 32s41.5 49.666 41.5 84.999c0 59.333 -34.333 102.333 -103 129l-105 40
c-55.333 21.333 -95.333 47.333 -120 78s-37 70.334 -37 119.001c0 54.667 19.667 98.167 59 130.5s89.333 48.5 150 48.5c65.333 0 116.166 -18.167 152.499 -54.5s57.5 -79.833 63.5 -130.5h-76c-8.66699 37.333 -26.167 65.5 -52.5 84.5s-56.5 28.5 -90.5 28.5
c-37.333 0 -68.333 -9.66699 -93 -29s-37 -45 -37 -77c0 -31.333 8.33301 -56.166 25 -74.499s43.667 -34.833 81 -49.5l94 -36c55.333 -21.333 96.666 -48.166 123.999 -80.499s41 -73.833 41 -124.5c0 -58.667 -20.5 -105.167 -61.5 -139.5s-93.833 -51.5 -158.5 -51.5z
" />
    <glyph glyph-name="uni0406" unicode="&#x406;" horiz-adv-x="274" 
d="M99 0v710h76v-710h-76z" />
    <glyph glyph-name="uni0407" unicode="&#x407;" horiz-adv-x="274" 
d="M99 0v710h76v-710h-76zM38 812c-15.333 0 -28.5 5.5 -39.5 16.5s-16.5 24.167 -16.5 39.5s5.5 28.333 16.5 39s24.167 16 39.5 16s28.5 -5.33301 39.5 -16s16.5 -23.667 16.5 -39s-5.5 -28.5 -16.5 -39.5s-24.167 -16.5 -39.5 -16.5zM236 812
c-15.333 0 -28.5 5.5 -39.5 16.5s-16.5 24.167 -16.5 39.5s5.5 28.333 16.5 39s24.167 16 39.5 16s28.5 -5.33301 39.5 -16s16.5 -23.667 16.5 -39s-5.5 -28.5 -16.5 -39.5s-24.167 -16.5 -39.5 -16.5z" />
    <glyph glyph-name="uni0408" unicode="&#x408;" horiz-adv-x="523" 
d="M229 -12c-60 0 -109.5 17.667 -148.5 53s-58.5 83.666 -58.5 144.999h76c0 -40 12.667 -71.167 38 -93.5s56 -33.5 92 -33.5c37.333 0 67.833 11.833 91.5 35.5s35.5 60.834 35.5 111.501v504h76v-514c0 -70 -19 -122.167 -57 -156.5s-86.333 -51.5 -145 -51.5z" />
    <glyph glyph-name="uni0409" unicode="&#x409;" horiz-adv-x="1027" 
d="M917 205c0 38.667 -14.332 69.167 -42.999 91.5s-69.334 33.5 -122.001 33.5h-126v-259h126c54 0 95 11.5 123 34.5s42 56.167 42 99.5zM138.001 710h488.001v-309h127c74.667 0 133.5 -18.5 176.5 -55.5s64.5 -83.5 64.5 -139.5c0 -62.667 -21.333 -112.667 -64 -150
s-101.667 -56 -177 -56h-203v638h-336v-461c0 -126 -46.667 -189 -140 -189c-21.333 0 -39 1.33301 -53 4v70c8.66699 -2 23.667 -3 45 -3c25.333 0 43.666 9.5 54.999 28.5s17 53.167 17 102.5v520z" />
    <glyph glyph-name="uni040A" unicode="&#x40a;" horiz-adv-x="1044" 
d="M99 0v710h76v-309h392v309h76v-309h127c74.667 0 133.5 -18.5 176.5 -55.5s64.5 -83.5 64.5 -139.5c0 -62.667 -21.333 -112.667 -64 -150s-101.667 -56 -177 -56h-203v329h-392v-329h-76zM769 330h-125.999v-259h126c54 0 95 11.5 123 34.5s42 56.167 42 99.5
c0 38.667 -14.333 69.167 -43 91.5s-69.334 33.5 -122.001 33.5z" />
    <glyph glyph-name="uni040B" unicode="&#x40b;" horiz-adv-x="750" 
d="M191 638l-174 0.000976562v72h478v-72h-228v-305c44.667 71.333 116.667 107 216 107c66.667 0 120.334 -22.5 161.001 -67.5s61 -104.833 61 -179.5v-193h-76v185c0 59.333 -14.333 104.666 -43 135.999s-68 47 -118 47c-54.667 0 -101.834 -18.333 -141.501 -55
s-59.5 -90.667 -59.5 -162v-151h-76v638z" />
    <glyph glyph-name="uni040C" unicode="&#x40c;" horiz-adv-x="664" 
d="M573 0l-399 343v-343h-75v710h75v-311l327 311h103l-353 -337l435 -373h-113zM318 770l80 157h94l-112 -157h-62z" />
    <glyph glyph-name="uni040E" unicode="&#x40e;" horiz-adv-x="690" 
d="M135 -6l-0.000976562 69.001c15.333 -2.66699 35 -4 59 -4c44.667 0 80.334 25.667 107.001 77l17 32l-278 542h86l235 -461l248 461h81l-307 -575c-30 -54.667 -58.167 -92.834 -84.5 -114.501s-58.833 -32.5 -97.5 -32.5c-21.333 0 -43.333 2 -66 6zM366.999 762.001
c-43.333 0 -79.835 14 -109.502 42s-44.5 65 -44.5 111h58c0 -31.333 8.83301 -56 26.5 -74s40.834 -27 69.501 -27s51.834 9 69.501 27s26.5 42.667 26.5 74h58c0 -46 -14.833 -83 -44.5 -111s-66.167 -42 -109.5 -42z" />
    <glyph glyph-name="uni040F" unicode="&#x40f;" horiz-adv-x="745" 
d="M410 0v-148h-74v148h-237v710h76v-638h395v638h76v-710h-236z" />
    <glyph glyph-name="uni0410" unicode="&#x410;" horiz-adv-x="710" 
d="M8 0l316 710h61l317 -710h-80l-99 221h-339l-98 -221h-78zM353 603l-138 -311h277z" />
    <glyph glyph-name="uni0411" unicode="&#x411;" horiz-adv-x="620" 
d="M175 407l171 -0.000976562c71.333 0 129 -17.667 173 -53s66 -85.666 66 -150.999c0 -64.667 -22 -114.667 -66 -150s-101.667 -53 -173 -53h-247v710h419v-72h-343v-231zM508 202.999c0 42.667 -13.833 75.5 -41.5 98.5s-67.5 34.5 -119.5 34.5h-172v-265h172
c52 0 91.833 11.5 119.5 34.5s41.5 55.5 41.5 97.5z" />
    <glyph glyph-name="uni0412" unicode="&#x412;" horiz-adv-x="628" 
d="M99 0l-0.000976562 710.001h224c65.333 0 117 -17.667 155 -53s57 -78.333 57 -129c0 -69.333 -27 -119.666 -81 -150.999c85.333 -28.667 128 -85.334 128 -170.001c0 -60.667 -22.167 -110.334 -66.5 -149.001s-103.166 -58 -176.499 -58h-240zM174.999 69.001h172
c52 0 91.667 12 119 36s41 56 41 96s-13.5 72.167 -40.5 96.5s-66.5 36.5 -118.5 36.5h-173v-265zM174.999 400.001l153.002 0.000976562c41.333 0 73.666 11.167 96.999 33.5s35 51.166 35 86.499c0 33.333 -11.833 61.833 -35.5 85.5s-55.834 35.5 -96.501 35.5h-153v-241
z" />
    <glyph glyph-name="uni0413" unicode="&#x413;" horiz-adv-x="511" 
d="M494 710v-72h-319v-638h-76v710h395z" />
    <glyph glyph-name="uni0414" unicode="&#x414;" horiz-adv-x="753" 
d="M643 -148v148h-537v-148h-72v220h14c18.667 0 34.167 6.33301 46.5 19s23 39.167 32 79.5s13.5 94.5 13.5 162.5v377h488v-638h87v-220h-72zM216 638v-320c0 -118.667 -15.667 -200.667 -47 -246h383v566h-336z" />
    <glyph glyph-name="uni0415" unicode="&#x415;" horiz-adv-x="554" 
d="M99 0v710h405v-72h-329v-237h269v-72h-269v-257h329v-72h-405z" />
    <glyph glyph-name="uni0416" unicode="&#x416;" horiz-adv-x="950" 
d="M852 0l-339 320v-320h-76v320l-339 -320h-105l372 351l-343 359h96l319 -335v335h76v-335l319 335h96l-343 -359l372 -351h-105z" />
    <glyph glyph-name="uni0417" unicode="&#x417;" horiz-adv-x="581" 
d="M137 545l-77.0039 -0.000976562c11.333 60 38.333 104.5 81 133.5s91.334 43.5 146.001 43.5c62.667 0 113.5 -17.833 152.5 -53.5s58.5 -81.834 58.5 -138.501c0 -32 -7.5 -62.167 -22.5 -90.5s-37.833 -51.166 -68.5 -68.499c38.667 -14 68 -36.5 88 -67.5
s30 -66.833 30 -107.5c0 -66 -23.167 -117.167 -69.5 -153.5s-102.5 -54.5 -168.5 -54.5c-64.667 0 -120.334 15.833 -167.001 47.5s-74.667 78.5 -84 140.5h77c8.66699 -39.333 29.334 -68.666 62.001 -87.999s70.334 -29 113.001 -29c48.667 0 87.834 12.833 117.501 38.5
s44.5 59.5 44.5 101.5c0 40 -13.833 72.5 -41.5 97.5s-66.834 37.5 -117.501 37.5h-81v66h84c40.667 0 72.334 12 95.001 36s34 53.667 34 89c0 38 -12.333 68.5 -37 91.5s-58.667 34.5 -102 34.5c-34 0 -64.667 -9.16699 -92 -27.5s-45.666 -44.5 -54.999 -78.5z" />
    <glyph glyph-name="uni0418" unicode="&#x418;" horiz-adv-x="794" 
d="M166 0h-67v710h76v-581l453 581h67v-710h-76v581z" />
    <glyph glyph-name="uni0419" unicode="&#x419;" horiz-adv-x="794" 
d="M166 0h-67v710h76v-581l453 581h67v-710h-76v581zM406 762c-43.333 0 -79.835 14 -109.502 42s-44.5 65 -44.5 111h58c0 -31.333 8.83301 -56 26.5 -74s40.834 -27 69.501 -27s51.834 9 69.501 27s26.5 42.667 26.5 74h58c0 -46 -14.833 -83 -44.5 -111
s-66.167 -42 -109.5 -42z" />
    <glyph glyph-name="uni041A" unicode="&#x41a;" horiz-adv-x="664" 
d="M573 0l-399 343v-343h-75v710h75v-311l327 311h103l-353 -337l435 -373h-113z" />
    <glyph glyph-name="uni041B" unicode="&#x41b;" horiz-adv-x="725" 
d="M138 190l0.000976562 520h488v-710h-76v638h-336v-461c0 -126 -46.667 -189 -140 -189c-22 0 -39.667 1.33301 -53 4v70c8.66699 -2 23.667 -3 45 -3c25.333 0 43.666 9.5 54.999 28.5s17 53.167 17 102.5z" />
    <glyph glyph-name="uni041C" unicode="&#x41c;" horiz-adv-x="886" 
d="M99 710h70l274 -365l274 365h70v-710h-76v579l-268 -357l-268 357v-579h-76v710z" />
    <glyph glyph-name="uni041D" unicode="&#x41d;" horiz-adv-x="765" 
d="M99 0v710h76v-309h415v309h76v-710h-76v329h-415v-329h-76z" />
    <glyph glyph-name="uni041E" unicode="&#x41e;" horiz-adv-x="830" 
d="M415 60c82 0 150.833 28.333 206.5 85s83.5 126.667 83.5 210c0 82.667 -27.833 152.5 -83.5 209.5s-124.5 85.5 -206.5 85.5s-150.833 -28.5 -206.5 -85.5s-83.5 -126.833 -83.5 -209.5c0 -83.333 27.833 -153.333 83.5 -210s124.5 -85 206.5 -85zM415 -12
c-102.667 0 -189.5 35.333 -260.5 106s-106.5 157.667 -106.5 261s35.5 190.333 106.5 261s157.833 106 260.5 106s189.5 -35.333 260.5 -106s106.5 -157.667 106.5 -261s-35.5 -190.333 -106.5 -261s-157.833 -106 -260.5 -106z" />
    <glyph glyph-name="uni041F" unicode="&#x41f;" horiz-adv-x="746" 
d="M573 0v638h-401v-638h-73v710h548v-710h-74z" />
    <glyph glyph-name="uni0420" unicode="&#x420;" horiz-adv-x="584" 
d="M552 488c0 -64 -22.167 -116.833 -66.5 -158.5s-102.833 -62.5 -175.5 -62.5h-135v-267h-76v710h211c72.667 0 131.167 -21 175.5 -63s66.5 -95 66.5 -159zM475 488c0 44 -14.5 80.167 -43.5 108.5s-69.5 42.5 -121.5 42.5h-135v-301h135c52 0 92.5 14 121.5 42
s43.5 64 43.5 108z" />
    <glyph glyph-name="uni0421" unicode="&#x421;" horiz-adv-x="791" 
d="M415 -12c-102.667 0 -189.5 35.333 -260.5 106s-106.5 157.667 -106.5 261s35.5 190.333 106.5 261s157.833 106 260.5 106c88 0 162.5 -24.167 223.5 -72.5s99.5 -105.5 115.5 -171.5h-80c-16.667 49.333 -48.334 90.333 -95.001 123s-101.334 49 -164.001 49
c-82 0 -150.833 -28.5 -206.5 -85.5s-83.5 -126.833 -83.5 -209.5c0 -83.333 27.833 -153.333 83.5 -210s124.5 -85 206.5 -85c62.667 0 117.334 16.333 164.001 49s78.334 73.667 95.001 123h80c-16 -66 -54.5 -123.167 -115.5 -171.5s-135.5 -72.5 -223.5 -72.5z" />
    <glyph glyph-name="uni0422" unicode="&#x422;" horiz-adv-x="567" 
d="M246 0v638h-230v72h535v-72h-230v-638h-75z" />
    <glyph glyph-name="uni0423" unicode="&#x423;" horiz-adv-x="690" 
d="M135 -6l-0.000976562 69.001c15.333 -2.66699 35 -4 59 -4c44.667 0 80.334 25.667 107.001 77l17 32l-278 542h86l235 -461l248 461h81l-307 -575c-30 -54.667 -58.167 -92.834 -84.5 -114.501s-58.833 -32.5 -97.5 -32.5c-21.333 0 -43.333 2 -66 6z" />
    <glyph glyph-name="uni0424" unicode="&#x424;" horiz-adv-x="859" 
d="M392 135v446h-8c-85.333 0 -150.5 -19.5 -195.5 -58.5s-67.5 -93.5 -67.5 -163.5c0 -71.333 22.167 -126.5 66.5 -165.5s109.833 -58.5 196.5 -58.5h8zM467 -30h-75v95h-7c-105.333 0 -188.5 26.333 -249.5 79s-91.5 124.334 -91.5 215.001c0 90 30.333 161.167 91 213.5
s144 78.5 250 78.5h7v89h75v-89h7c106 0 189.333 -26.167 250 -78.5s91 -123.5 91 -213.5c0 -90.667 -30.5 -162.334 -91.5 -215.001s-144.167 -79 -249.5 -79h-7v-95zM467 135h8c86.667 0 152.167 19.5 196.5 58.5s66.5 94.167 66.5 165.5c0 70 -22.5 124.5 -67.5 163.5
s-110.167 58.5 -195.5 58.5h-8v-446z" />
    <glyph glyph-name="uni0425" unicode="&#x425;" horiz-adv-x="662" 
d="M103 0h-96l276 359l-266 351h93l221 -289l221 289h93l-267 -351l277 -359h-96l-228 296z" />
    <glyph glyph-name="uni0426" unicode="&#x426;" horiz-adv-x="758" 
d="M633 72h88v-220h-74v148h-548v710h76v-638h382v638h76v-638z" />
    <glyph glyph-name="uni0427" unicode="&#x427;" horiz-adv-x="685" 
d="M586 0h-76v377c-21.333 -34 -51.833 -60.333 -91.5 -79s-84.834 -28 -135.501 -28c-72.667 0 -130.5 22.167 -173.5 66.5s-64.5 104.5 -64.5 180.5v193h76v-186c0 -60 15.333 -105.5 46 -136.5s74.334 -46.5 131.001 -46.5c57.333 0 107 18.5 149 55.5
s63 91.167 63 162.5v151h76v-710z" />
    <glyph glyph-name="uni0428" unicode="&#x428;" horiz-adv-x="990" 
d="M99 0v710h76v-638h282v638h76v-638h282v638h76v-710h-792z" />
    <glyph glyph-name="uni0429" unicode="&#x429;" horiz-adv-x="1016" 
d="M905 -148v148h-806v710h76v-638h282v638h76v-638h282v638h76v-638h88v-220h-74z" />
    <glyph glyph-name="uni042A" unicode="&#x42a;" horiz-adv-x="701" 
d="M288 416h137c74.667 0 133.667 -18.833 177 -56.5s65 -88.167 65 -151.5s-21.667 -113.833 -65 -151.5s-102.333 -56.5 -177 -56.5h-213v638h-196v72h272v-294zM288 71h134c54.667 0 96.334 11.833 125.001 35.5s43 57.5 43 101.5s-14.333 77.833 -43 101.5
s-70.334 35.5 -125.001 35.5h-134v-274z" />
    <glyph glyph-name="uni042B" unicode="&#x42b;" horiz-adv-x="833" 
d="M175 416h137c74.667 0 133.667 -18.833 177 -56.5s65 -88.167 65 -151.5s-21.667 -113.833 -65 -151.5s-102.333 -56.5 -177 -56.5h-213v710h76v-294zM175 71h134c54.667 0 96.334 11.833 125.001 35.5s43 57.5 43 101.5s-14.333 77.833 -43 101.5
s-70.334 35.5 -125.001 35.5h-134v-274zM658 0v710h76v-710h-76z" />
    <glyph glyph-name="uni042C" unicode="&#x42c;" horiz-adv-x="588" 
d="M175 416h137c74.667 0 133.667 -18.833 177 -56.5s65 -88.167 65 -151.5s-21.667 -113.833 -65 -151.5s-102.333 -56.5 -177 -56.5h-213v710h76v-294zM175 71h134c54.667 0 96.334 11.833 125.001 35.5s43 57.5 43 101.5s-14.333 77.833 -43 101.5
s-70.334 35.5 -125.001 35.5h-134v-274z" />
    <glyph glyph-name="uni042D" unicode="&#x42d;" horiz-adv-x="791" 
d="M376 -11c-88 0 -162.5 24.167 -223.5 72.5s-99.5 105.5 -115.5 171.5h80c16.667 -49.333 48.334 -90.333 95.001 -123s101.334 -49 164.001 -49c76.667 0 142 24.833 196 74.5s85 112.5 93 188.5h-385v72h384c-9.33301 74 -40.833 135 -94.5 183s-118.167 72 -193.5 72
c-62.667 0 -117.334 -16.333 -164.001 -49s-78.334 -73.667 -95.001 -123h-80c16 66 54.5 123.167 115.5 171.5s135.5 72.5 223.5 72.5c102.667 0 189.5 -35.333 260.5 -106s106.5 -157.667 106.5 -261s-35.5 -190.333 -106.5 -261s-157.833 -106 -260.5 -106z" />
    <glyph glyph-name="uni042E" unicode="&#x42e;" horiz-adv-x="1065" 
d="M99 0l0.000976562 710h76v-310h132c10.667 92 49.334 168.667 116.001 230s146 92 238 92c100 0 184.333 -35.5 253 -106.5s103 -157.833 103 -260.5s-34.333 -189.5 -103 -260.5s-153 -106.5 -253 -106.5c-94.667 0 -175.834 32.5 -243.501 97.5
s-104.834 145.833 -111.501 242.5h-131v-328h-76zM940.001 355c0 82.667 -26.833 152.5 -80.5 209.5s-119.834 85.5 -198.501 85.5s-144.834 -28.5 -198.501 -85.5s-80.5 -126.833 -80.5 -209.5c0 -83.333 26.833 -153.333 80.5 -210s119.834 -85 198.501 -85
s144.834 28.333 198.501 85s80.5 126.667 80.5 210z" />
    <glyph glyph-name="uni042F" unicode="&#x42f;" horiz-adv-x="624" 
d="M449 0v303h-100l-257 -303h-97l267 312c-56 8 -99.833 30.167 -131.5 66.5s-47.5 79.5 -47.5 129.5c0 59.333 21.5 107.833 64.5 145.5s101.167 56.5 174.5 56.5h203v-710h-76zM160 508c0 -42 14.1689 -74.833 42.502 -98.5s69.166 -35.5 122.499 -35.5h124v265h-124
c-52.667 0 -93.334 -11.667 -122.001 -35s-43 -55.333 -43 -96z" />
    <glyph glyph-name="uni0430" unicode="&#x430;" horiz-adv-x="634" 
d="M293 -10c-70 0 -129 25.333 -177 76s-72 112 -72 184s24 133.333 72 184s107 76 177 76c38 0 73.833 -8.66699 107.5 -26s59.5 -40 77.5 -68v84h70v-500h-70v84c-18 -28 -43.833 -50.667 -77.5 -68s-69.5 -26 -107.5 -26zM300 55c54 0 98.167 18.833 132.5 56.5
s51.5 83.834 51.5 138.501s-17.167 100.834 -51.5 138.501s-78.5 56.5 -132.5 56.5s-98.167 -18.833 -132.5 -56.5s-51.5 -83.834 -51.5 -138.501s17.167 -100.834 51.5 -138.501s78.5 -56.5 132.5 -56.5z" />
    <glyph glyph-name="uni0431" unicode="&#x431;" horiz-adv-x="631" 
d="M325 -10c-76.667 0 -139 25.8311 -187 77.498s-72 117.834 -72 198.501v58c0 121.333 21.167 212.833 63.5 274.5s113.166 101.834 212.499 120.501l190 35v-67l-175 -32c-75.333 -14 -128.666 -40 -159.999 -78s-52 -95.667 -62 -173c46 66.667 112 100 198 100
c75.333 0 136.5 -24.333 183.5 -73s70.5 -108 70.5 -178c0 -74 -24.5 -136.333 -73.5 -187s-111.833 -76 -188.5 -76zM325 54.998c55.333 0 100.832 18.8311 136.499 56.498s53.5 84.834 53.5 141.501c0 54.667 -17.667 99.334 -53 134.001s-80.333 52 -135 52
c-55.333 0 -100.666 -17.667 -135.999 -53s-53 -79.333 -53 -132c0 -58 17.333 -105.667 52 -143s79.667 -56 135 -56z" />
    <glyph glyph-name="uni0432" unicode="&#x432;" horiz-adv-x="541" 
d="M86 0v500h211c53.333 0 94.333 -11.5 123 -34.5s43 -55.5 43 -97.5c0 -43.333 -18 -77.333 -54 -102c58 -24 87 -65 87 -123c0 -42.667 -15 -77.167 -45 -103.5s-74.667 -39.5 -134 -39.5h-231zM156 64h170c30.667 0 54.667 7.16699 72 21.5s26 34.5 26 60.5
s-8.66699 46.167 -26 60.5s-41.333 21.5 -72 21.5h-170v-164zM156 290l151 0.000976562c24.667 0 45 6 61 18s24 30.667 24 56s-8 43.666 -24 54.999s-36.333 17 -61 17h-151v-146z" />
    <glyph glyph-name="uni0433" unicode="&#x433;" horiz-adv-x="405" 
d="M86 0v500h303v-66h-233v-434h-70z" />
    <glyph glyph-name="uni0434" unicode="&#x434;" horiz-adv-x="617" 
d="M34 66h12c22 0 39.5 12.167 52.5 36.5s19.5 69.833 19.5 136.5v261h387v-434h74v-193h-68v127h-409v-127h-68v193zM188 434v-211.001c0 -71.333 -11 -123.666 -33 -156.999h280v368h-247z" />
    <glyph glyph-name="uni0435" unicode="&#x435;" horiz-adv-x="575" 
d="M293 -10c-72 0 -131.334 24.667 -178.001 74s-70 111.333 -70 186s22.667 136.667 68 186s106.333 74 183 74s136.334 -27.833 179.001 -83.5s60.667 -121.167 54 -196.5h-412c0 -50 17.667 -91.667 53 -125s76.333 -50 123 -50c72 0 124 31.333 156 94h72
c-12.667 -46 -38.667 -84 -78 -114s-89.333 -45 -150 -45zM292.999 445c-42 0 -79 -12.5 -111 -37.5s-52.333 -63.833 -61 -116.5h336c-8 49.333 -26.667 87.333 -56 114s-65.333 40 -108 40z" />
    <glyph glyph-name="uni0436" unicode="&#x436;" horiz-adv-x="764" 
d="M670 0l-253 229v-229h-70v229l-253 -229h-96l280 254l-244 246h90l223 -227v227h70v-227l223 227h90l-245 -246l281 -254h-96z" />
    <glyph glyph-name="uni0437" unicode="&#x437;" horiz-adv-x="478" 
d="M235 -10c-50.667 0 -94.002 12.1699 -130.002 36.5029s-58.667 58.166 -68 101.499h70c18.667 -51.333 61.667 -77 129 -77c40 0 70.333 8.66699 91 26s31 39 31 65c0 28 -10.333 49.667 -31 65s-50 23 -88 23h-57v62h58c31.333 0 55.833 6.5 73.5 19.5
s26.5 32.5 26.5 58.5c0 25.333 -9.66699 44.833 -29 58.5s-44.666 20.5 -75.999 20.5c-63.333 0 -102.666 -25.333 -117.999 -76h-69c8 44 29.333 77.833 64 101.5s75.667 35.5 123 35.5c53.333 0 95.5 -12.5 126.5 -37.5s46.5 -57.833 46.5 -98.5
c0 -50.667 -21.667 -88 -65 -112c57.333 -24.667 86 -66.334 86 -125.001c0 -42.667 -17.167 -77.834 -51.5 -105.501s-81.833 -41.5 -142.5 -41.5z" />
    <glyph glyph-name="uni0438" unicode="&#x438;" horiz-adv-x="604" 
d="M148 0h-62v500h70v-389l300 389h62v-500h-70v389z" />
    <glyph glyph-name="uni0439" unicode="&#x439;" horiz-adv-x="604" 
d="M148 0h-62v500h70v-389l300 389h62v-500h-70v389zM309 585c-44 0 -80.665 14 -109.998 42s-44 65.333 -44 112v11h61v-11c0 -32.667 8.66699 -58.167 26 -76.5s39.666 -27.5 66.999 -27.5s49.666 9.16699 66.999 27.5s26 43.833 26 76.5v11h61v-11
c0 -46.667 -14.667 -84 -44 -112s-66 -42 -110 -42z" />
    <glyph glyph-name="uni043A" unicode="&#x43a;" horiz-adv-x="515" 
d="M424 0l-268 230v-230h-70v500h70v-228l238 228h92l-258 -246l296 -254h-100z" />
    <glyph glyph-name="uni043B" unicode="&#x43b;" horiz-adv-x="573" 
d="M60 -6c-18.667 0 -31.668 1.00098 -39.001 3.00098v64c5.33301 -1.33301 16 -2 32 -2c20 0 35 7.66699 45 23s15 41.666 15 78.999v339h374v-500h-70v434h-234v-292c0 -48 -11.167 -84.667 -33.5 -110s-52.166 -38 -89.499 -38z" />
    <glyph glyph-name="uni043C" unicode="&#x43c;" horiz-adv-x="690" 
d="M86 500h67l192 -259l192 259h67v-500h-70v384l-189 -254l-189 254v-384h-70v500z" />
    <glyph glyph-name="uni043D" unicode="&#x43d;" horiz-adv-x="605" 
d="M86 0v500h70v-211h293v211h70v-500h-70v223h-293v-223h-70z" />
    <glyph glyph-name="uni043E" unicode="&#x43e;" horiz-adv-x="610" 
d="M305 -10c-75.333 0 -137.666 25.167 -186.999 75.5s-74 111.833 -74 184.5s24.667 134.167 74 184.5s111.666 75.5 186.999 75.5s137.666 -25.167 186.999 -75.5s74 -111.833 74 -184.5s-24.667 -134.167 -74 -184.5s-111.666 -75.5 -186.999 -75.5zM305 55
c56 0 101.5 18.833 136.5 56.5s52.5 83.834 52.5 138.501s-17.5 100.834 -52.5 138.501s-80.5 56.5 -136.5 56.5s-101.5 -18.833 -136.5 -56.5s-52.5 -83.834 -52.5 -138.501s17.5 -100.834 52.5 -138.501s80.5 -56.5 136.5 -56.5z" />
    <glyph glyph-name="uni043F" unicode="&#x43f;" horiz-adv-x="594" 
d="M86 0v500h422v-500h-70v434h-282v-434h-70z" />
    <glyph glyph-name="uni0440" unicode="&#x440;" horiz-adv-x="635" 
d="M156 -209h-70v709h70v-84c18 28 43.833 50.667 77.5 68s69.5 26 107.5 26c70 0 129 -25.333 177 -76s72 -112 72 -184s-24 -133.333 -72 -184s-107 -76 -177 -76c-38 0 -73.833 8.66699 -107.5 26s-59.5 40 -77.5 68v-293zM334 55c54 0 98.167 18.833 132.5 56.5
s51.5 83.834 51.5 138.501s-17.167 100.834 -51.5 138.501s-78.5 56.5 -132.5 56.5s-98.167 -18.833 -132.5 -56.5s-51.5 -83.834 -51.5 -138.501s17.167 -100.834 51.5 -138.501s78.5 -56.5 132.5 -56.5z" />
    <glyph glyph-name="uni0441" unicode="&#x441;" horiz-adv-x="590" 
d="M305 -10c-75.333 0 -137.666 25.1689 -186.999 75.502s-74 111.833 -74 184.5s24.667 134.167 74 184.5s111.666 75.5 186.999 75.5c60.667 0 113.667 -16.833 159 -50.5s75.666 -77.167 90.999 -130.5h-76c-12 34.667 -33.667 62.667 -65 84s-67.666 32 -108.999 32
c-56 0 -101.5 -18.833 -136.5 -56.5s-52.5 -83.834 -52.5 -138.501s17.5 -100.834 52.5 -138.501s80.5 -56.5 136.5 -56.5c41.333 0 77.666 10.667 108.999 32s53 49.333 65 84h76c-15.333 -53.333 -45.666 -96.833 -90.999 -130.5s-98.333 -50.5 -159 -50.5z" />
    <glyph glyph-name="uni0442" unicode="&#x442;" horiz-adv-x="441" 
d="M182 0v434h-165v66h407v-66h-172v-434h-70z" />
    <glyph glyph-name="uni0443" unicode="&#x443;" horiz-adv-x="541" 
d="M533 500l-276.999 -597c-20 -44 -41.833 -75.333 -65.5 -94s-53.5 -28 -89.5 -28c-22.667 0 -40.334 1.66699 -53.001 5v63c10.667 -2 27 -3 49 -3c37.333 0 68 26 92 78l45 98l-224 478h78l183 -396l183 396h79z" />
    <glyph glyph-name="uni0444" unicode="&#x444;" horiz-adv-x="722" 
d="M396 -209h-70v199h-4c-85.333 0 -153 25 -203 75s-75 111.667 -75 185s25 135 75 185s117.667 75 203 75h4v241h70v-241h4c85.333 0 153 -25 203 -75s75 -111.667 75 -185s-25 -135 -75 -185s-117.667 -75 -203 -75h-4v-199zM400 445l-4 -0.000976562v-390h4
c64.667 0 115.167 18.333 151.5 55s54.5 83.334 54.5 140.001c0 56 -18.667 102.5 -56 139.5s-87.333 55.5 -150 55.5zM326 54.999v390.001h-4c-62.667 0 -112.667 -18.5 -150 -55.5s-56 -83.5 -56 -139.5c0 -56.667 18.167 -103.334 54.5 -140.001s86.833 -55 151.5 -55h4z
" />
    <glyph glyph-name="uni0445" unicode="&#x445;" horiz-adv-x="518" 
d="M422 0l-163 201l-163 -201h-89l208 256l-187 244h85l145 -189l146 189h86l-188 -245l208 -255h-88z" />
    <glyph glyph-name="uni0446" unicode="&#x446;" horiz-adv-x="615" 
d="M578 66v-193h-68v127h-424v500h70v-434h277v434h70v-434h75z" />
    <glyph glyph-name="uni0447" unicode="&#x447;" horiz-adv-x="537" 
d="M451 0h-70v242c-14.667 -22 -36.167 -39.333 -64.5 -52s-59.5 -19 -93.5 -19c-56 0 -100.167 15.833 -132.5 47.5s-48.5 75.5 -48.5 131.5v150h70v-144c0 -80 42 -120 126 -120c36.667 0 69.667 12.5 99 37.5s44 60.5 44 106.5v120h70v-500z" />
    <glyph glyph-name="uni0448" unicode="&#x448;" horiz-adv-x="814" 
d="M86 0v500h70v-434h216v434h70v-434h216v434h70v-500h-642z" />
    <glyph glyph-name="uni0449" unicode="&#x449;" horiz-adv-x="840" 
d="M803 66v-193h-68v127h-649v500h70v-434h216v434h70v-434h216v434h70v-434h75z" />
    <glyph glyph-name="uni044A" unicode="&#x44a;" horiz-adv-x="569" 
d="M162 0v436h-144v64h214v-190h122c60 0 105.5 -14.833 136.5 -44.5s46.5 -66.167 46.5 -109.5c0 -44 -15.667 -81 -47 -111s-77 -45 -137 -45h-191zM232 244l0.000976562 -178h122c35.333 0 62.666 8 81.999 24s29 38 29 66s-9.5 49.667 -28.5 65s-46.167 23 -81.5 23
h-123z" />
    <glyph glyph-name="uni044B" unicode="&#x44b;" horiz-adv-x="698" 
d="M542 0v500h70v-500h-70zM86 0v500h70v-190h122c60 0 105.5 -14.833 136.5 -44.5s46.5 -66.167 46.5 -109.5c0 -44 -15.667 -81 -47 -111s-77 -45 -137 -45h-191zM156 244l0.000976562 -178h122c35.333 0 62.666 8 81.999 24s29 38 29 66s-9.5 49.667 -28.5 65
s-46.167 23 -81.5 23h-123z" />
    <glyph glyph-name="uni044C" unicode="&#x44c;" horiz-adv-x="493" 
d="M86 0v500h70v-190h122c60 0 105.5 -14.833 136.5 -44.5s46.5 -66.167 46.5 -109.5c0 -44 -15.667 -81 -47 -111s-77 -45 -137 -45h-191zM156 244l0.000976562 -178h122c35.333 0 62.666 8 81.999 24s29 38 29 66s-9.5 49.667 -28.5 65s-46.167 23 -81.5 23h-123z" />
    <glyph glyph-name="uni044D" unicode="&#x44d;" horiz-adv-x="590" 
d="M285 -10c-60.667 0 -113.667 16.833 -159 50.5s-75.666 77.167 -90.999 130.5h76c12 -34.667 33.667 -62.667 65 -84s67.666 -32 108.999 -32c50.667 0 93.167 15.667 127.5 47s54.166 71 59.499 119h-251v66h250c-8 46 -28.667 83.833 -62 113.5
s-74.666 44.5 -123.999 44.5c-41.333 0 -77.666 -10.667 -108.999 -32s-53 -49.333 -65 -84h-76c15.333 53.333 45.666 96.833 90.999 130.5s98.333 50.5 159 50.5c75.333 0 137.666 -25.167 186.999 -75.5s74 -111.833 74 -184.5s-24.667 -134.167 -74 -184.5
s-111.666 -75.5 -186.999 -75.5z" />
    <glyph glyph-name="uni044E" unicode="&#x44e;" horiz-adv-x="799" 
d="M505 -10c-68 0 -125 22 -171 66s-71.667 100 -77 168h-101v-224h-70v500h70v-212h102c8 64 35 117 81 159s101.333 63 166 63c72 0 131.5 -24.833 178.5 -74.5s70.5 -111.5 70.5 -185.5s-23.5 -135.833 -70.5 -185.5s-106.5 -74.5 -178.5 -74.5zM505 56
c52 0 94.5 18.5 127.5 55.5s49.5 83.167 49.5 138.5s-16.5 101.5 -49.5 138.5s-75.5 55.5 -127.5 55.5s-94.5 -18.5 -127.5 -55.5s-49.5 -83.167 -49.5 -138.5s16.5 -101.5 49.5 -138.5s75.5 -55.5 127.5 -55.5z" />
    <glyph glyph-name="uni044F" unicode="&#x44f;" horiz-adv-x="518" 
d="M-2 0l213 199.999c-42 6.66699 -74.833 23.167 -98.5 49.5s-35.5 57.833 -35.5 94.5c0 44.667 15.833 81.834 47.5 111.501s76.167 44.5 133.5 44.5h174v-500h-70v190h-69l-202 -190h-93zM262 255.999h100v178h-100c-75.333 0 -113 -30 -113 -90
c0 -58.667 37.667 -88 113 -88z" />
    <glyph glyph-name="uni0451" unicode="&#x451;" horiz-adv-x="575" 
d="M293 -10c-72 0 -131.334 24.667 -178.001 74s-70 111.333 -70 186s22.667 136.667 68 186s106.333 74 183 74s136.334 -27.833 179.001 -83.5s60.667 -121.167 54 -196.5h-412c0 -50 17.667 -91.667 53 -125s76.333 -50 123 -50c72 0 124 31.333 156 94h72
c-12.667 -46 -38.667 -84 -78 -114s-89.333 -45 -150 -45zM292.999 445c-42 0 -79 -12.5 -111 -37.5s-52.333 -63.833 -61 -116.5h336c-8 49.333 -26.667 87.333 -56 114s-65.333 40 -108 40zM184.999 602c-15.333 0 -28.166 5.16699 -38.499 15.5s-15.5 22.833 -15.5 37.5
s5.16699 27.167 15.5 37.5s23.166 15.5 38.499 15.5c14.667 0 27 -5.16699 37 -15.5s15 -22.833 15 -37.5s-5 -27.167 -15 -37.5s-22.333 -15.5 -37 -15.5zM406.999 602c-15.333 0 -28.166 5.16699 -38.499 15.5s-15.5 22.833 -15.5 37.5s5.16699 27.167 15.5 37.5
s23.166 15.5 38.499 15.5c14.667 0 27 -5.16699 37 -15.5s15 -22.833 15 -37.5s-5 -27.167 -15 -37.5s-22.333 -15.5 -37 -15.5z" />
    <glyph glyph-name="uni0452" unicode="&#x452;" horiz-adv-x="586" 
d="M367 -219c-13.333 0 -25.001 0.999023 -35.001 2.99902v64c10.667 -1.33301 20.334 -2 29.001 -2c51.333 0 77 28.333 77 85v372c0 43.333 -11.5 77.833 -34.5 103.5s-53.5 38.5 -91.5 38.5c-45.333 0 -82.666 -17.5 -111.999 -52.5s-44 -82.833 -44 -143.5v-249h-70v589
h-74v63h74v98h70v-98h176v-63h-176v-173c34 62.667 88.667 94 164 94c55.333 0 100.5 -17.667 135.5 -53s52.5 -83.333 52.5 -144v-388c0 -47.333 -12.833 -83.166 -38.5 -107.499s-59.834 -36.5 -102.501 -36.5z" />
    <glyph glyph-name="uni0453" unicode="&#x453;" horiz-adv-x="405" 
d="M86 0v500h303v-66h-233v-434h-70zM210 560l90 190h95l-125 -190h-60z" />
    <glyph glyph-name="uni0454" unicode="&#x454;" horiz-adv-x="590" 
d="M305 -10c-75.333 0 -137.666 25.167 -186.999 75.5s-74 111.833 -74 184.5s24.667 134.167 74 184.5s111.666 75.5 186.999 75.5c60.667 0 113.667 -16.833 159 -50.5s75.666 -77.167 90.999 -130.5h-76c-12 34.667 -33.667 62.667 -65 84s-67.666 32 -108.999 32
c-49.333 0 -90.666 -14.833 -123.999 -44.5s-54 -67.5 -62 -113.5h250v-66h-251c5.33301 -48 25.166 -87.667 59.499 -119s76.833 -47 127.5 -47c41.333 0 77.666 10.667 108.999 32s53 49.333 65 84h76c-15.333 -53.333 -45.666 -96.833 -90.999 -130.5
s-98.333 -50.5 -159 -50.5z" />
    <glyph glyph-name="uni0455" unicode="&#x455;" horiz-adv-x="457" 
d="M237 -10c-53.333 0 -98.334 13.002 -135.001 39.002s-57 63.333 -61 112h70c14 -58.667 56 -88 126 -88c30.667 0 56 6.5 76 19.5s30 31.5 30 55.5c0 22 -7.16699 40.167 -21.5 54.5s-37.166 25.833 -68.499 34.5l-65 17c-86 23.333 -129 71.666 -129 144.999
c0 40 15.333 71.833 46 95.5s70 35.5 118 35.5c50.667 0 91.5 -13.333 122.5 -40s48.5 -59.667 52.5 -99h-69c-7.33301 24 -20.333 42.833 -39 56.5s-41 20.5 -67 20.5c-26.667 0 -49 -6.33301 -67 -19s-27 -29.334 -27 -50.001c0 -20 6.33301 -36.333 19 -49
s33.667 -23 63 -31l77 -20c40 -10 70.833 -27.5 92.5 -52.5s32.5 -56.167 32.5 -93.5c0 -48 -16.167 -83.833 -48.5 -107.5s-74.833 -35.5 -127.5 -35.5z" />
    <glyph glyph-name="uni0456" unicode="&#x456;" horiz-adv-x="242" 
d="M122 650c-15.333 0 -28.166 5.16699 -38.499 15.5s-15.5 22.833 -15.5 37.5s5.16699 27.167 15.5 37.5s23.166 15.5 38.499 15.5c14.667 0 27 -5.16699 37 -15.5s15 -22.833 15 -37.5s-5 -27.167 -15 -37.5s-22.333 -15.5 -37 -15.5zM86 0v500h70v-500h-70z" />
    <glyph glyph-name="uni0457" unicode="&#x457;" horiz-adv-x="242" 
d="M86 0v500h70v-500h-70zM22 602c-15.333 0 -28.5 5.5 -39.5 16.5s-16.5 24.167 -16.5 39.5s5.5 28.333 16.5 39s24.167 16 39.5 16s28.5 -5.33301 39.5 -16s16.5 -23.667 16.5 -39s-5.5 -28.5 -16.5 -39.5s-24.167 -16.5 -39.5 -16.5zM220 602
c-15.333 0 -28.5 5.5 -39.5 16.5s-16.5 24.167 -16.5 39.5s5.5 28.333 16.5 39s24.167 16 39.5 16s28.5 -5.33301 39.5 -16s16.5 -23.667 16.5 -39s-5.5 -28.5 -16.5 -39.5s-24.167 -16.5 -39.5 -16.5z" />
    <glyph glyph-name="uni0458" unicode="&#x458;" horiz-adv-x="250" 
d="M164 500v-575.001c0 -47.333 -12.833 -83.166 -38.5 -107.499s-59.834 -36.5 -102.501 -36.5c-13.333 0 -25 1 -35 3v64c10.667 -1.33301 20.334 -2 29.001 -2c51.333 0 77 28.333 77 85v569h70zM130 649.999c-15.333 0 -28.166 5.16699 -38.499 15.5
s-15.5 22.833 -15.5 37.5s5.16699 27.167 15.5 37.5s23.166 15.5 38.499 15.5c14.667 0 27 -5.16699 37 -15.5s15 -22.833 15 -37.5s-5 -27.167 -15 -37.5s-22.333 -15.5 -37 -15.5z" />
    <glyph glyph-name="uni0459" unicode="&#x459;" horiz-adv-x="806" 
d="M480 223v-157.001h122c32 0 56.833 6.83301 74.5 20.5s26.5 32.834 26.5 57.501s-8.83301 44 -26.5 58s-42.5 21 -74.5 21h-122zM113 499.999h366.999v-211h122c55.333 0 98 -14.333 128 -43s45 -62.667 45 -102s-15 -73.166 -45 -101.499s-72.667 -42.5 -128 -42.5h-192
v434h-227v-292c0 -48 -11.167 -84.667 -33.5 -110s-52.166 -38 -89.499 -38c-18.667 0 -31.667 1 -39 3v64c5.33301 -1.33301 16 -2 32 -2c20 0 35 7.66699 45 23s15 41.666 15 78.999v339z" />
    <glyph glyph-name="uni045A" unicode="&#x45a;" horiz-adv-x="835" 
d="M732 144c0 24.667 -8.83301 43.999 -26.5 57.999s-42.5 21 -74.5 21h-122v-157h122c32 0 56.833 6.83301 74.5 20.5s26.5 32.834 26.5 57.501zM804 143.999c0 -39.333 -15 -73.167 -45 -101.5s-72.667 -42.5 -128 -42.5h-192v223h-283v-223h-70v500h70v-211h283v211h70
v-211h122c55.333 0 98 -14.333 128 -43s45 -62.667 45 -102z" />
    <glyph glyph-name="uni045B" unicode="&#x45b;" horiz-adv-x="586" 
d="M86 579h-74.001v63h74v88h70v-88h176v-63h-176v-163c34 62.667 88.667 94 164 94c55.333 0 100.5 -17.667 135.5 -53s52.5 -83.333 52.5 -144v-313h-70v303c0 43.333 -11.5 77.833 -34.5 103.5s-53.5 38.5 -91.5 38.5c-45.333 0 -82.666 -17.5 -111.999 -52.5
s-44 -82.833 -44 -143.5v-249h-70v579z" />
    <glyph glyph-name="uni045C" unicode="&#x45c;" horiz-adv-x="515" 
d="M424 0l-268 230v-230h-70v500h70v-228l238 228h92l-258 -246l296 -254h-100zM251 560l90 190h95l-125 -190h-60z" />
    <glyph glyph-name="uni045E" unicode="&#x45e;" horiz-adv-x="541" 
d="M533 500l-276.999 -597c-20 -44 -41.833 -75.333 -65.5 -94s-53.5 -28 -89.5 -28c-22.667 0 -40.334 1.66699 -53.001 5v63c10.667 -2 27 -3 49 -3c37.333 0 68 26 92 78l45 98l-224 478h78l183 -396l183 396h79zM271.001 585c-44 0 -80.665 14 -109.998 42
s-44 65.333 -44 112v11h61v-11c0 -32.667 8.66699 -58.167 26 -76.5s39.666 -27.5 66.999 -27.5s49.666 9.16699 66.999 27.5s26 43.833 26 76.5v11h61v-11c0 -46.667 -14.667 -84 -44 -112s-66 -42 -110 -42z" />
    <glyph glyph-name="uni045F" unicode="&#x45f;" horiz-adv-x="601" 
d="M515 0h-180v-127h-68v127h-181v500h70v-434h289v434h70v-500z" />
    <glyph glyph-name="uni0462" unicode="&#x462;" horiz-adv-x="700" 
d="M286 416h137c74.667 0 133.667 -18.833 177 -56.5s65 -88.167 65 -151.5s-21.667 -113.833 -65 -151.5s-102.333 -56.5 -177 -56.5h-213v539h-182v63h182v108h76v-108h228v-63h-228v-123zM286 71h134c54.667 0 96.334 11.833 125.001 35.5s43 57.5 43 101.5
s-14.333 77.833 -43 101.5s-70.334 35.5 -125.001 35.5h-134v-274z" />
    <glyph glyph-name="uni0463" unicode="&#x463;" horiz-adv-x="546" 
d="M19 437v63h118v250h70v-250h210v-63h-210v-127h122c60 0 105.5 -14.833 136.5 -44.5s46.5 -66.167 46.5 -109.5c0 -44 -15.667 -81 -47 -111s-77 -45 -137 -45h-191v437h-118zM330 244h-122.999v-178h122c35.333 0 62.666 8 81.999 24s29 38 29 66s-9.5 49.667 -28.5 65
s-46.167 23 -81.5 23z" />
    <glyph glyph-name="uni0472" unicode="&#x472;" horiz-adv-x="830" 
d="M415 60c82 0 150.833 28.333 206.5 85s83.5 126.667 83.5 210c0 82.667 -27.833 152.5 -83.5 209.5s-124.5 85.5 -206.5 85.5s-150.833 -28.5 -206.5 -85.5s-83.5 -126.833 -83.5 -209.5c0 -83.333 27.833 -153.333 83.5 -210s124.5 -85 206.5 -85zM415 -12
c-102.667 0 -189.5 35.333 -260.5 106s-106.5 157.667 -106.5 261s35.5 190.333 106.5 261s157.833 106 260.5 106s189.5 -35.333 260.5 -106s106.5 -157.667 106.5 -261s-35.5 -190.333 -106.5 -261s-157.833 -106 -260.5 -106zM549 366
c61.333 0 115.666 16.667 162.999 50v-71c-47.333 -33.333 -101.666 -50 -162.999 -50c-32.667 0 -78 8.33301 -136 25s-101.667 25 -131 25c-61.333 0 -115.666 -16.667 -162.999 -50v71c47.333 33.333 101.666 50 162.999 50c36.667 0 82.5 -8.33301 137.5 -25
s98.167 -25 129.5 -25z" />
    <glyph glyph-name="uni0473" unicode="&#x473;" horiz-adv-x="610" 
d="M305 -10c-75.333 0 -137.666 25.167 -186.999 75.5s-74 111.833 -74 184.5s24.667 134.167 74 184.5s111.666 75.5 186.999 75.5s137.666 -25.167 186.999 -75.5s74 -111.833 74 -184.5s-24.667 -134.167 -74 -184.5s-111.666 -75.5 -186.999 -75.5zM305 55
c56 0 101.5 18.833 136.5 56.5s52.5 83.834 52.5 138.501s-17.5 100.834 -52.5 138.501s-80.5 56.5 -136.5 56.5s-101.5 -18.833 -136.5 -56.5s-52.5 -83.834 -52.5 -138.501s17.5 -100.834 52.5 -138.501s80.5 -56.5 136.5 -56.5zM101 281v-62h409v62h-409z" />
    <glyph glyph-name="uni0474" unicode="&#x474;" horiz-adv-x="770" 
d="M96 710l251.999 -585.999l200 464c22.667 52 44.667 87.333 66 106s49.666 28 84.999 28c20.667 0 38.667 -2.33301 54 -7v-70c-37.333 6 -64.166 4.16699 -80.499 -5.5s-33.166 -34.834 -50.499 -75.501l-243 -564h-62l-306 710h85z" />
    <glyph glyph-name="uni0475" unicode="&#x475;" horiz-adv-x="590" 
d="M8 500h77.999l183 -396l136 293c18.667 40.667 37.334 69.667 56.001 87s42 26 70 26c18 0 33.667 -1.66699 47 -5v-64c-27.333 4 -47.5 2.5 -60.5 -4.5s-26.167 -24.167 -39.5 -51.5l-181 -385h-55z" />
    <glyph glyph-name="uni0490" unicode="&#x490;" horiz-adv-x="511" 
d="M494 710v-72h-319v-638h-76v710h395zM494 710h-74v148h74v-148z" />
    <glyph glyph-name="uni0491" unicode="&#x491;" horiz-adv-x="405" 
d="M86 0v500h303v-66h-233v-434h-70zM389 500h-68v127h68v-127z" />
    <glyph glyph-name="uni0492" unicode="&#x492;" horiz-adv-x="526" 
d="M506 710v-72h-319v-638h-76v710h395zM19 323v72h353v-72h-353z" />
    <glyph glyph-name="uni0493" unicode="&#x493;" horiz-adv-x="419" 
d="M99 0v500h303v-66h-233v-434h-70zM306 235h-288v64h288v-64z" />
    <glyph glyph-name="uni0496" unicode="&#x496;" horiz-adv-x="972" 
d="M852 0l-339 320v-320h-76v320l-339 -320h-105l372 351l-343 359h96l319 -335v335h76v-335l319 335h96l-343 -359l372 -351h-105zM895 -148v148h-28v72h102v-220h-74z" />
    <glyph glyph-name="uni0497" unicode="&#x497;" horiz-adv-x="784" 
d="M670 0l-253 229v-229h-70v229l-253 -229h-96l280 254l-244 246h90l223 -227v227h70v-227l223 227h90l-245 -246l281 -254h-96zM708 -127v127h-30v66h98v-193h-68z" />
    <glyph glyph-name="uni049A" unicode="&#x49a;" horiz-adv-x="685" 
d="M573 0l-399 343v-343h-75v710h75v-311l327 311h103l-353 -337l435 -373h-113zM617 -148v148h-28v72h102v-220h-74z" />
    <glyph glyph-name="uni049B" unicode="&#x49b;" horiz-adv-x="534" 
d="M424 0l-268 230v-230h-70v500h70v-228l238 228h92l-258 -246l296 -254h-100zM463 -127v127h-30v66h98v-193h-68z" />
    <glyph glyph-name="uni04A2" unicode="&#x4a2;" horiz-adv-x="791" 
d="M99 0v710h76v-309h415v309h76v-710h-76v329h-415v-329h-76zM680 -148v148h-28v72h102v-220h-74z" />
    <glyph glyph-name="uni04A3" unicode="&#x4a3;" horiz-adv-x="631" 
d="M86 0v500h70v-211h293v211h70v-500h-70v223h-293v-223h-70zM526 -127v127h-30v66h98v-193h-68z" />
    <glyph glyph-name="uni04AE" unicode="&#x4ae;" horiz-adv-x="669" 
d="M297 0v301l-280 409h92l226 -331l226 331h92l-281 -410v-300h-75z" />
    <glyph glyph-name="uni04AF" unicode="&#x4af;" horiz-adv-x="541" 
d="M236 -209v209l-227 500h78l183 -410l183 410h79l-226 -499v-210h-70z" />
    <glyph glyph-name="uni04B0" unicode="&#x4b0;" horiz-adv-x="668" 
d="M297 0v301l-280 409h92l226 -331l226 331h92l-281 -410v-300h-75zM529 302v-72h-392v72h392z" />
    <glyph glyph-name="uni04B1" unicode="&#x4b1;" horiz-adv-x="541" 
d="M236 -209v209l-227 500h78l183 -410l183 410h79l-226 -499v-210h-70zM97 -64v64h349v-64h-349z" />
    <glyph glyph-name="uni04B2" unicode="&#x4b2;" horiz-adv-x="693" 
d="M103 0h-96l276 359l-266 351h93l221 -289l221 289h93l-267 -351l277 -359h-96l-228 296zM613 -148v148h-28v72h102v-220h-74z" />
    <glyph glyph-name="uni04B3" unicode="&#x4b3;" horiz-adv-x="544" 
d="M422 0l-163 201l-163 -201h-89l208 256l-187 244h85l145 -189l146 189h86l-188 -245l208 -255h-88zM465 -127v127h-30v66h98v-193h-68z" />
    <glyph glyph-name="uni04B6" unicode="&#x4b6;" horiz-adv-x="711" 
d="M586 0h-76v377c-21.333 -34 -51.833 -60.333 -91.5 -79s-84.834 -28 -135.501 -28c-72.667 0 -130.5 22.167 -173.5 66.5s-64.5 104.5 -64.5 180.5v193h76v-186c0 -60 15.333 -105.5 46 -136.5s74.334 -46.5 131.001 -46.5c57.333 0 107 18.5 149 55.5
s63 91.167 63 162.5v151h76v-710zM600 -148v148h-28v72h102v-220h-74z" />
    <glyph glyph-name="uni04B7" unicode="&#x4b7;" horiz-adv-x="563" 
d="M451 0h-70v242c-14.667 -22 -36.167 -39.333 -64.5 -52s-59.5 -19 -93.5 -19c-56 0 -100.167 15.833 -132.5 47.5s-48.5 75.5 -48.5 131.5v150h70v-144c0 -80 42 -120 126 -120c36.667 0 69.667 12.5 99 37.5s44 60.5 44 106.5v120h70v-500zM458 -127v127h-30v66h98v-193
h-68z" />
    <glyph glyph-name="uni04BA" unicode="&#x4ba;" horiz-adv-x="685" 
d="M99 710h76v-377c21.333 34 51.833 60.333 91.5 79s84.834 28 135.501 28c72.667 0 130.5 -22.167 173.5 -66.5s64.5 -104.5 64.5 -180.5v-193h-76v186c0 60 -15.333 105.5 -46 136.5s-74.334 46.5 -131.001 46.5c-57.333 0 -107 -18.5 -149 -55.5s-63 -91.167 -63 -162.5
v-151h-76v710z" />
    <glyph glyph-name="uni04BB" unicode="&#x4bb;" horiz-adv-x="586" 
d="M156 0h-70.001v750h70v-334c34 62.667 88.667 94 164 94c55.333 0 100.5 -17.667 135.5 -53s52.5 -83.333 52.5 -144v-313h-70v303c0 43.333 -11.5 77.833 -34.5 103.5s-53.5 38.5 -91.5 38.5c-45.333 0 -82.666 -17.5 -111.999 -52.5s-44 -82.833 -44 -143.5v-249z" />
    <glyph glyph-name="uni04C0" unicode="&#x4c0;" horiz-adv-x="274" 
d="M99 0v710h76v-710h-76z" />
    <glyph glyph-name="uni04CF" unicode="&#x4cf;" horiz-adv-x="242" 
d="M86 0v750h70v-750h-70z" />
    <glyph glyph-name="uni04D8" unicode="&#x4d8;" horiz-adv-x="829" 
d="M414 -12c-102.667 0 -189.498 35.3311 -260.498 105.998s-106.5 157.667 -106.5 261v43h655c-12 76 -45 137 -99 183s-117 69 -189 69c-58.667 0 -112.334 -14.167 -161.001 -42.5s-83.334 -64.166 -104.001 -107.499h-83c21.333 60.667 63.833 112.834 127.5 156.501
s137.167 65.5 220.5 65.5c102.667 0 189.5 -35.333 260.5 -106s106.5 -157.667 106.5 -261s-35.5 -190.333 -106.5 -261s-157.833 -106 -260.5 -106zM414.002 59.998c76 0 141.166 24.5 195.499 73.5s85.5 114.167 93.5 195.5h-579
c6.66699 -80 37.834 -144.833 93.501 -194.5s121.167 -74.5 196.5 -74.5z" />
    <glyph glyph-name="uni04D9" unicode="&#x4d9;" horiz-adv-x="575" 
d="M282 510c72 0 131.332 -24.667 177.999 -74s70 -111.333 70 -186s-22.667 -136.667 -68 -186s-106.333 -74 -183 -74s-136.334 27.833 -179.001 83.5s-60.667 121.167 -54 196.5h412c-1.33301 50.667 -19.166 92.5 -53.499 125.5s-75.166 49.5 -122.499 49.5
c-72 0 -124 -31.333 -156 -94h-72c12.667 46 38.667 84 78 114s89.333 45 150 45zM281.999 55c41.333 0 78.167 12.333 110.5 37s52.833 63.667 61.5 117h-336c8 -49.333 26.667 -87.333 56 -114s65.333 -40 108 -40z" />
    <glyph glyph-name="uni04E2" unicode="&#x4e2;" horiz-adv-x="794" 
d="M166 0h-67v710h76v-581l453 581h67v-710h-76v581zM248 809v61h316v-61h-316z" />
    <glyph glyph-name="uni04E3" unicode="&#x4e3;" horiz-adv-x="604" 
d="M148 0h-62v500h70v-389l300 389h62v-500h-70v389zM151 649v61h316v-61h-316z" />
    <glyph glyph-name="uni04E8" unicode="&#x4e8;" horiz-adv-x="830" 
d="M415 60c82 0 150.833 28.333 206.5 85s83.5 126.667 83.5 210c0 82.667 -27.833 152.5 -83.5 209.5s-124.5 85.5 -206.5 85.5s-150.833 -28.5 -206.5 -85.5s-83.5 -126.833 -83.5 -209.5c0 -83.333 27.833 -153.333 83.5 -210s124.5 -85 206.5 -85zM415 -12
c-102.667 0 -189.5 35.333 -260.5 106s-106.5 157.667 -106.5 261s35.5 190.333 106.5 261s157.833 106 260.5 106s189.5 -35.333 260.5 -106s106.5 -157.667 106.5 -261s-35.5 -190.333 -106.5 -261s-157.833 -106 -260.5 -106zM88 392v-72h654v72h-654z" />
    <glyph glyph-name="uni04E9" unicode="&#x4e9;" horiz-adv-x="610" 
d="M305 -10c-75.333 0 -137.666 25.167 -186.999 75.5s-74 111.833 -74 184.5s24.667 134.167 74 184.5s111.666 75.5 186.999 75.5s137.666 -25.167 186.999 -75.5s74 -111.833 74 -184.5s-24.667 -134.167 -74 -184.5s-111.666 -75.5 -186.999 -75.5zM305 55
c56 0 101.5 18.833 136.5 56.5s52.5 83.834 52.5 138.501s-17.5 100.834 -52.5 138.501s-80.5 56.5 -136.5 56.5s-101.5 -18.833 -136.5 -56.5s-52.5 -83.834 -52.5 -138.501s17.5 -100.834 52.5 -138.501s80.5 -56.5 136.5 -56.5zM101 281v-62h409v62h-409z" />
    <glyph glyph-name="uni04EE" unicode="&#x4ee;" horiz-adv-x="690" 
d="M135 -6l-0.000976562 69.001c15.333 -2.66699 35 -4 59 -4c44.667 0 80.334 25.667 107.001 77l17 32l-278 542h86l235 -461l248 461h81l-307 -575c-30 -54.667 -58.167 -92.834 -84.5 -114.501s-58.833 -32.5 -97.5 -32.5c-21.333 0 -43.333 2 -66 6zM208.999 809.001
v61h316v-61h-316z" />
    <glyph glyph-name="uni04EF" unicode="&#x4ef;" horiz-adv-x="541" 
d="M533 500l-276.999 -597c-20 -44 -41.833 -75.333 -65.5 -94s-53.5 -28 -89.5 -28c-22.667 0 -40.334 1.66699 -53.001 5v63c10.667 -2 27 -3 49 -3c37.333 0 68 26 92 78l45 98l-224 478h78l183 -396l183 396h79zM113.001 649v61h316v-61h-316z" />
    <glyph glyph-name="Wgrave" unicode="&#x1e80;" horiz-adv-x="942" 
d="M650 0l-179 516l-179 -516h-66l-202 710h79l162 -580l206 592l206 -592l162 580h79l-202 -710h-66zM501 770h-62l-112 157h94z" />
    <glyph glyph-name="wgrave" unicode="&#x1e81;" horiz-adv-x="751" 
d="M508 0l-133 381l-132 -381h-58l-171 500h72l129 -380l133 380h54l132 -380l130 380h73l-171 -500h-58zM341 560l-125 190h95l90 -190h-60z" />
    <glyph glyph-name="Wacute" unicode="&#x1e82;" horiz-adv-x="942" 
d="M650 0l-179 516l-179 -516h-66l-202 710h79l162 -580l206 592l206 -592l162 580h79l-202 -710h-66zM448 770l80 157h94l-112 -157h-62z" />
    <glyph glyph-name="wacute" unicode="&#x1e83;" horiz-adv-x="751" 
d="M508 0l-133 381l-132 -381h-58l-171 500h72l129 -380l133 380h54l132 -380l130 380h73l-171 -500h-58zM349 560l90 190h95l-125 -190h-60z" />
    <glyph glyph-name="Wdieresis" unicode="&#x1e84;" horiz-adv-x="942" 
d="M650 0l-179 516l-179 -516h-66l-202 710h79l162 -580l206 592l206 -592l162 580h79l-202 -710h-66zM361 789c-15.333 0 -28.166 5.16699 -38.499 15.5s-15.5 22.833 -15.5 37.5s5.16699 27.167 15.5 37.5s23.166 15.5 38.499 15.5c14.667 0 27 -5.16699 37 -15.5
s15 -22.833 15 -37.5s-5 -27.167 -15 -37.5s-22.333 -15.5 -37 -15.5zM583 789c-15.333 0 -28.166 5.16699 -38.499 15.5s-15.5 22.833 -15.5 37.5s5.16699 27.167 15.5 37.5s23.166 15.5 38.499 15.5c14.667 0 27 -5.16699 37 -15.5s15 -22.833 15 -37.5
s-5 -27.167 -15 -37.5s-22.333 -15.5 -37 -15.5z" />
    <glyph glyph-name="wdieresis" unicode="&#x1e85;" horiz-adv-x="751" 
d="M508 0l-133 381l-132 -381h-58l-171 500h72l129 -380l133 380h54l132 -380l130 380h73l-171 -500h-58zM265 602c-15.333 0 -28.166 5.16699 -38.499 15.5s-15.5 22.833 -15.5 37.5s5.16699 27.167 15.5 37.5s23.166 15.5 38.499 15.5c14.667 0 27 -5.16699 37 -15.5
s15 -22.833 15 -37.5s-5 -27.167 -15 -37.5s-22.333 -15.5 -37 -15.5zM487 602c-15.333 0 -28.166 5.16699 -38.499 15.5s-15.5 22.833 -15.5 37.5s5.16699 27.167 15.5 37.5s23.166 15.5 38.499 15.5c14.667 0 27 -5.16699 37 -15.5s15 -22.833 15 -37.5
s-5 -27.167 -15 -37.5s-22.333 -15.5 -37 -15.5z" />
    <glyph glyph-name="uni1E9E" unicode="&#x1e9e;" horiz-adv-x="629" 
d="M99 0v710h427v-50l-144 -220c133.333 -16.667 200 -89 200 -217c0 -72 -23.167 -127.167 -69.5 -165.5s-107.833 -57.5 -184.5 -57.5h-34v72h44c51.333 0 92.333 13 123 39s46 63.333 46 112s-15.333 86 -46 112s-71.667 39 -123 39h-44v60l136 207h-255v-641h-76z" />
    <glyph glyph-name="uni1ECA" unicode="&#x1eca;" horiz-adv-x="274" 
d="M99 0v710h76v-710h-76zM137 -181c-15.333 0 -28.166 5.16699 -38.499 15.5s-15.5 22.833 -15.5 37.5s5.16699 27.167 15.5 37.5s23.166 15.5 38.499 15.5c14.667 0 27 -5.16699 37 -15.5s15 -22.833 15 -37.5s-5 -27.167 -15 -37.5s-22.333 -15.5 -37 -15.5z" />
    <glyph glyph-name="uni1ECB" unicode="&#x1ecb;" horiz-adv-x="242" 
d="M122 650c-15.333 0 -28.166 5.16699 -38.499 15.5s-15.5 22.833 -15.5 37.5s5.16699 27.167 15.5 37.5s23.166 15.5 38.499 15.5c14.667 0 27 -5.16699 37 -15.5s15 -22.833 15 -37.5s-5 -27.167 -15 -37.5s-22.333 -15.5 -37 -15.5zM86 0v500h70v-500h-70zM122 -181
c-15.333 0 -28.166 5.16699 -38.499 15.5s-15.5 22.833 -15.5 37.5s5.16699 27.167 15.5 37.5s23.166 15.5 38.499 15.5c14.667 0 27 -5.16699 37 -15.5s15 -22.833 15 -37.5s-5 -27.167 -15 -37.5s-22.333 -15.5 -37 -15.5z" />
    <glyph glyph-name="uni1ECC" unicode="&#x1ecc;" horiz-adv-x="830" 
d="M415 60c82 0 150.833 28.333 206.5 85s83.5 126.667 83.5 210c0 82.667 -27.833 152.5 -83.5 209.5s-124.5 85.5 -206.5 85.5s-150.833 -28.5 -206.5 -85.5s-83.5 -126.833 -83.5 -209.5c0 -83.333 27.833 -153.333 83.5 -210s124.5 -85 206.5 -85zM415 -12
c-102.667 0 -189.5 35.333 -260.5 106s-106.5 157.667 -106.5 261s35.5 190.333 106.5 261s157.833 106 260.5 106s189.5 -35.333 260.5 -106s106.5 -157.667 106.5 -261s-35.5 -190.333 -106.5 -261s-157.833 -106 -260.5 -106zM415 -181
c-15.333 0 -28.166 5.16699 -38.499 15.5s-15.5 22.833 -15.5 37.5s5.16699 27.167 15.5 37.5s23.166 15.5 38.499 15.5c14.667 0 27 -5.16699 37 -15.5s15 -22.833 15 -37.5s-5 -27.167 -15 -37.5s-22.333 -15.5 -37 -15.5z" />
    <glyph glyph-name="uni1ECD" unicode="&#x1ecd;" horiz-adv-x="610" 
d="M305 -10c-75.333 0 -137.666 25.167 -186.999 75.5s-74 111.833 -74 184.5s24.667 134.167 74 184.5s111.666 75.5 186.999 75.5s137.666 -25.167 186.999 -75.5s74 -111.833 74 -184.5s-24.667 -134.167 -74 -184.5s-111.666 -75.5 -186.999 -75.5zM305 55
c56 0 101.5 18.833 136.5 56.5s52.5 83.834 52.5 138.501s-17.5 100.834 -52.5 138.501s-80.5 56.5 -136.5 56.5s-101.5 -18.833 -136.5 -56.5s-52.5 -83.834 -52.5 -138.501s17.5 -100.834 52.5 -138.501s80.5 -56.5 136.5 -56.5zM305 -181
c-15.333 0 -28.166 5.16699 -38.499 15.5s-15.5 22.833 -15.5 37.5s5.16699 27.167 15.5 37.5s23.166 15.5 38.499 15.5c14.667 0 27 -5.16699 37 -15.5s15 -22.833 15 -37.5s-5 -27.167 -15 -37.5s-22.333 -15.5 -37 -15.5z" />
    <glyph glyph-name="uni1EE4" unicode="&#x1ee4;" horiz-adv-x="728" 
d="M364 -12c-82 0 -148.169 25.833 -198.502 77.5s-75.5 121.5 -75.5 209.5v435h76v-437c0 -67.333 17.833 -119.666 53.5 -156.999s83.834 -56 144.501 -56s108.834 18.667 144.501 56s53.5 89.666 53.5 156.999v437h76v-435c0 -88 -25.167 -157.833 -75.5 -209.5
s-116.5 -77.5 -198.5 -77.5zM363.998 -181c-15.333 0 -28.166 5.16699 -38.499 15.5s-15.5 22.833 -15.5 37.5s5.16699 27.167 15.5 37.5s23.166 15.5 38.499 15.5c14.667 0 27 -5.16699 37 -15.5s15 -22.833 15 -37.5s-5 -27.167 -15 -37.5s-22.333 -15.5 -37 -15.5z" />
    <glyph glyph-name="uni1EE5" unicode="&#x1ee5;" horiz-adv-x="576" 
d="M261 -10c-54 0 -97.999 18 -131.999 54s-51 83.667 -51 143v313h70v-303c0 -43.333 11.333 -77.833 34 -103.5s52 -38.5 88 -38.5c43.333 0 79.166 17.833 107.499 53.5s42.5 83.167 42.5 142.5v249h70v-500h-70v84c-34 -62.667 -87 -94 -159 -94zM283.001 -181
c-15.333 0 -28.166 5.16699 -38.499 15.5s-15.5 22.833 -15.5 37.5s5.16699 27.167 15.5 37.5s23.166 15.5 38.499 15.5c14.667 0 27 -5.16699 37 -15.5s15 -22.833 15 -37.5s-5 -27.167 -15 -37.5s-22.333 -15.5 -37 -15.5z" />
    <glyph glyph-name="Ygrave" unicode="&#x1ef2;" horiz-adv-x="669" 
d="M297 0v301l-280 409h92l226 -331l226 331h92l-281 -410v-300h-75zM364 770h-62l-112 157h94z" />
    <glyph glyph-name="ygrave" unicode="&#x1ef3;" horiz-adv-x="540" 
d="M201 -209h-79l110 234l-222 475h78l183 -397l183 397h79zM237 560l-125 190h95l90 -190h-60z" />
    <glyph glyph-name="uni2007" unicode="&#x2007;" horiz-adv-x="590" 
 />
    <glyph glyph-name="uni2008" unicode="&#x2008;" horiz-adv-x="244" 
 />
    <glyph glyph-name="uni2009" unicode="&#x2009;" horiz-adv-x="125" 
 />
    <glyph glyph-name="uni200B" unicode="&#x200b;" 
 />
    <glyph glyph-name="endash" unicode="&#x2013;" horiz-adv-x="558" 
d="M68 244v72h422v-72h-422z" />
    <glyph glyph-name="emdash" unicode="&#x2014;" horiz-adv-x="558" 
d="M68 244v72h422v-72h-422z" />
    <glyph glyph-name="quoteleft" unicode="&#x2018;" horiz-adv-x="243" 
d="M56 550l100 160h50l-65 -140c23.333 -13.333 35 -33 35 -59c0 -18 -6.5 -33.667 -19.5 -47s-28.5 -20 -46.5 -20s-33.5 6.66699 -46.5 20s-19.5 29 -19.5 47c0 13.333 4 26.333 12 39z" />
    <glyph glyph-name="quoteright" unicode="&#x2019;" horiz-adv-x="246" 
d="M200 616l-100 -160h-50l65 140c-23.333 13.333 -35 33 -35 59c0 18 6.5 33.667 19.5 47s28.5 20 46.5 20s33.5 -6.66699 46.5 -20s19.5 -29 19.5 -47c0 -13.333 -4 -26.333 -12 -39z" />
    <glyph glyph-name="quotesinglbase" unicode="&#x201a;" horiz-adv-x="248" 
d="M178 20l-100 -160h-50l65 140c-23.333 13.333 -35 33 -35 59c0 18 6.5 33.667 19.5 47s28.5 20 46.5 20s33.5 -6.66699 46.5 -20s19.5 -29 19.5 -47c0 -13.333 -4 -26.333 -12 -39z" />
    <glyph glyph-name="quotedblleft" unicode="&#x201c;" horiz-adv-x="415" 
d="M56 550l100 160h50l-65 -140c23.333 -13.333 35 -33 35 -59c0 -18 -6.5 -33.667 -19.5 -47s-28.5 -20 -46.5 -20s-33.5 6.66699 -46.5 20s-19.5 29 -19.5 47c0 13.333 4 26.333 12 39zM228 550l100 160h50l-65 -140c23.333 -13.333 35 -33 35 -59
c0 -18 -6.5 -33.667 -19.5 -47s-28.5 -20 -46.5 -20s-33.5 6.66699 -46.5 20s-19.5 29 -19.5 47c0 13.333 4 26.333 12 39z" />
    <glyph glyph-name="quotedblright" unicode="&#x201d;" horiz-adv-x="418" 
d="M200 616l-100 -160h-50l65 140c-23.333 13.333 -35 33 -35 59c0 18 6.5 33.667 19.5 47s28.5 20 46.5 20s33.5 -6.66699 46.5 -20s19.5 -29 19.5 -47c0 -13.333 -4 -26.333 -12 -39zM372 616l-100 -160h-50l65 140c-23.333 13.333 -35 33 -35 59c0 18 6.5 33.667 19.5 47
s28.5 20 46.5 20s33.5 -6.66699 46.5 -20s19.5 -29 19.5 -47c0 -13.333 -4 -26.333 -12 -39z" />
    <glyph glyph-name="quotedblbase" unicode="&#x201e;" horiz-adv-x="420" 
d="M178 20l-100 -160h-50l65 140c-23.333 13.333 -35 33 -35 59c0 18 6.5 33.667 19.5 47s28.5 20 46.5 20s33.5 -6.66699 46.5 -20s19.5 -29 19.5 -47c0 -13.333 -4 -26.333 -12 -39zM350 20l-100 -160h-50l65 140c-23.333 13.333 -35 33 -35 59c0 18 6.5 33.667 19.5 47
s28.5 20 46.5 20s33.5 -6.66699 46.5 -20s19.5 -29 19.5 -47c0 -13.333 -4 -26.333 -12 -39z" />
    <glyph glyph-name="dagger" unicode="&#x2020;" horiz-adv-x="503" 
d="M218 -98v533h-188v65h188v210h67v-210h188v-65h-188v-533h-67z" />
    <glyph glyph-name="daggerdbl" unicode="&#x2021;" horiz-adv-x="537" 
d="M490 112h-188v-210h-67v210h-188v65h188v258h-188v65h188v210h67v-210h188v-65h-188v-258h188v-65z" />
    <glyph glyph-name="bullet" unicode="&#x2022;" horiz-adv-x="425" 
d="M212 166c-37.333 0 -69.333 13.167 -96 39.5s-40 58.5 -40 96.5s13.333 70.167 40 96.5s58.667 39.5 96 39.5c38 0 70.333 -13.167 97 -39.5s40 -58.5 40 -96.5s-13.333 -70.167 -40 -96.5s-59 -39.5 -97 -39.5z" />
    <glyph glyph-name="ellipsis" unicode="&#x2026;" horiz-adv-x="696" 
d="M348 -8c-18 0 -33.5 6.66699 -46.5 20s-19.5 29 -19.5 47s6.5 33.667 19.5 47s28.5 20 46.5 20s33.5 -6.66699 46.5 -20s19.5 -29 19.5 -47s-6.5 -33.667 -19.5 -47s-28.5 -20 -46.5 -20zM580 -8c-18 0 -33.5 6.66699 -46.5 20s-19.5 29 -19.5 47s6.5 33.667 19.5 47
s28.5 20 46.5 20s33.5 -6.66699 46.5 -20s19.5 -29 19.5 -47s-6.5 -33.667 -19.5 -47s-28.5 -20 -46.5 -20zM117 -8c-18 0 -33.5 6.66699 -46.5 20s-19.5 29 -19.5 47s6.5 33.667 19.5 47s28.5 20 46.5 20s33.5 -6.66699 46.5 -20s19.5 -29 19.5 -47s-6.5 -33.667 -19.5 -47
s-28.5 -20 -46.5 -20z" />
    </font>
</defs>
</svg>
