<svg width="20" height="22" viewBox="0 0 20 22" fill="none" xmlns="http://www.w3.org/2000/svg">
<path d="M14.9984 16.9047C14.8514 16.5157 14.4789 16.2582 14.063 16.2582H5.9249C5.50726 16.2582 5.1336 16.5178 4.98781 16.9092L3.33382 21.3491C3.18802 21.7405 2.81437 22 2.39673 22H1.46961C0.764145 22 0.28047 21.2892 0.539404 20.633L8.43097 0.63296C8.58168 0.251006 8.95056 0 9.36117 0H10.6237C11.0341 0 11.4028 0.250737 11.5536 0.63239L19.4594 20.6324C19.7188 21.2887 19.2351 22 18.5294 22H17.6154C17.1995 22 16.827 21.7426 16.6799 21.3536L14.9984 16.9047ZM6.64213 12.5199C6.39713 13.1737 6.8804 13.8709 7.57853 13.8709H12.4194C13.1181 13.8709 13.6014 13.1726 13.3554 12.5187L10.93 6.07332C10.6048 5.20895 9.38179 5.20976 9.05769 6.07457L6.64213 12.5199Z" fill="#292D32"/>
</svg>
