<svg width="14" height="14" viewBox="0 0 14 14" fill="none" xmlns="http://www.w3.org/2000/svg">
<path d="M1.01786 7.30328C0.995773 7.2104 0.99415 7.11347 1.01311 7.01985C1.03208 6.92622 1.07113 6.83835 1.12731 6.76291C1.18349 6.68747 1.25531 6.62645 1.33734 6.58447C1.41936 6.54249 1.50942 6.52066 1.60069 6.52063H12.0796C12.1709 6.52066 12.2609 6.54249 12.343 6.58447C12.425 6.62645 12.4968 6.68747 12.553 6.76291C12.6092 6.83835 12.6482 6.92622 12.6672 7.01985C12.6861 7.11347 12.6845 7.2104 12.6624 7.30328L11.5743 11.8675C11.5093 12.1401 11.3593 12.3822 11.1481 12.5551C10.9369 12.7281 10.6766 12.8221 10.4086 12.8221H3.27167C3.00369 12.8221 2.74342 12.7281 2.53221 12.5551C2.32101 12.3822 2.17099 12.1401 2.10601 11.8675L1.01786 7.30328Z" stroke="white" stroke-width="1.5" stroke-linejoin="round"/>
<path d="M5.0376 9.04126V10.3015" stroke="white" stroke-width="1.5" stroke-linecap="square"/>
<path d="M8.64258 9.04126V10.3015" stroke="white" stroke-width="1.5" stroke-linecap="square"/>
<path d="M3.23486 5.78093L5.63831 2.00005" stroke="white" stroke-width="1.5" stroke-linecap="square"/>
<path d="M10.4453 5.78093L8.04199 2.00005" stroke="white" stroke-width="1.5" stroke-linecap="square"/>
</svg>
