<svg width="36" height="37" viewBox="0 0 36 37" fill="none" xmlns="http://www.w3.org/2000/svg">
<path d="M19.38 3.41495L29.145 8.71873C30.285 9.33826 30.285 11.1062 29.145 11.7257L19.38 17.0295C18.51 17.4979 17.49 17.4979 16.62 17.0295L6.855 11.7257C5.715 11.1062 5.715 9.33826 6.855 8.71873L16.62 3.41495C17.49 2.94652 18.51 2.94652 19.38 3.41495Z" stroke="white" stroke-width="3" stroke-linecap="round" stroke-linejoin="round"/>
<path d="M5.415 15.307L14.49 19.8855C15.615 20.4597 16.335 21.6232 16.335 22.8925V31.5357C16.335 32.7898 15.03 33.5907 13.92 33.0316L4.845 28.4531C3.72 27.8789 3 26.7154 3 25.4461V16.8029C3 15.5488 4.305 14.7479 5.415 15.307Z" stroke="white" stroke-width="3" stroke-linecap="round" stroke-linejoin="round"/>
<path d="M30.585 15.307L21.51 19.8855C20.385 20.4597 19.665 21.6232 19.665 22.8925V31.5357C19.665 32.7898 20.97 33.5907 22.08 33.0316L31.155 28.4531C32.28 27.8789 33 26.7154 33 25.4461V16.8029C33 15.5488 31.695 14.7479 30.585 15.307Z" stroke="white" stroke-width="3" stroke-linecap="round" stroke-linejoin="round"/>
</svg>
