<svg width="24" height="24" viewBox="0 0 24 24" fill="none" xmlns="http://www.w3.org/2000/svg">
<g clip-path="url(#clip0_196_4813)">
<path d="M11.271 8.67741C11.271 9.54375 10.5395 10.2747 9.6013 10.2747C8.66306 10.2747 7.93164 9.54375 7.93164 8.67741C7.93164 7.81107 8.66306 7.08008 9.6013 7.08008C10.5395 7.08008 11.271 7.81107 11.271 8.67741Z" stroke="#292D32"/>
<path d="M16.6948 14.9694C16.6948 15.8357 15.9634 16.5667 15.0251 16.5667C14.0869 16.5667 13.3555 15.8357 13.3555 14.9694C13.3555 14.1031 14.0869 13.3721 15.0251 13.3721C15.9634 13.3721 16.6948 14.1031 16.6948 14.9694Z" stroke="#292D32"/>
<line y1="-0.5" x2="12.0706" y2="-0.5" transform="matrix(0.718988 -0.695022 0.718988 0.695022 8.51562 16.0181)" stroke="#292D32"/>
<path d="M2.19862 15.4096L1.87863 15.7937L2.19862 15.4096L1.78328 15.0636C1.2656 14.6325 1.0989 13.909 1.37568 13.2948L1.5759 12.8505C1.87019 12.1974 1.87019 11.4494 1.5759 10.7963L1.37569 10.352C1.0989 9.73777 1.2656 9.01435 1.78329 8.58318L2.19862 8.23726C2.74255 7.78423 3.06892 7.12184 3.09674 6.41451L3.11708 5.89714C3.14307 5.23628 3.59882 4.67042 4.23897 4.50422L4.85457 4.34439C5.52189 4.17113 6.08804 3.72998 6.41915 3.12524L6.71062 2.5929C7.02099 2.02604 7.65955 1.72169 8.29535 1.8376L8.98455 1.96325C9.6488 2.08435 10.3338 1.93162 10.8837 1.5398L10.5935 1.13259L10.8837 1.5398L11.4435 1.14092C11.9644 0.769728 12.6634 0.769728 13.1844 1.14092L13.7441 1.5398C14.294 1.93162 14.979 2.08435 15.6433 1.96325L16.3325 1.8376C16.9683 1.72169 17.6068 2.02604 17.9172 2.5929L18.2087 3.12524C18.5398 3.72998 19.1059 4.17113 19.7733 4.34439L20.3889 4.50422C21.029 4.67042 21.4848 5.23628 21.5108 5.89714L21.5311 6.41451C21.5589 7.12184 21.8853 7.78423 22.4292 8.23726L22.8445 8.58318C23.3622 9.01435 23.5289 9.73777 23.2521 10.352L23.0519 10.7963C22.7576 11.4494 22.7576 12.1974 23.0519 12.8505L23.2521 13.2948C23.5289 13.909 23.3622 14.6325 22.8445 15.0636L22.4292 15.4096C21.8853 15.8626 21.5589 16.525 21.5311 17.2323L21.5108 17.7497C21.4848 18.4105 21.029 18.9764 20.3889 19.1426L19.7733 19.3024C19.1059 19.4757 18.5398 19.9168 18.2087 20.5216L17.9172 21.0539C17.6068 21.6208 16.9683 21.9251 16.3325 21.8092L15.6433 21.6836C14.979 21.5625 14.294 21.7152 13.7442 22.107L14.0343 22.5142L13.7441 22.107L13.1844 22.5059C12.6634 22.8771 11.9644 22.8771 11.4435 22.5059L10.8837 22.107C10.3338 21.7152 9.6488 21.5625 8.98455 21.6836L8.29534 21.8092C7.65955 21.9251 7.02099 21.6208 6.71062 21.0539L6.41915 20.5216C6.08804 19.9168 5.52189 19.4757 4.85457 19.3024L4.23897 19.1426C3.59882 18.9764 3.14307 18.4105 3.11708 17.7497L3.09674 17.2323C3.06892 16.525 2.74255 15.8626 2.19862 15.4096Z" stroke="#292D32"/>
</g>
<defs>
<clipPath id="clip0_196_4813">
<rect width="24" height="24" fill="white"/>
</clipPath>
</defs>
</svg>
