<svg width="20" height="20" viewBox="0 0 20 20" fill="none" xmlns="http://www.w3.org/2000/svg">
<path d="M19.3 11.92C19.019 12.2574 18.6674 12.5289 18.27 12.7155C17.8726 12.9021 17.439 12.9993 17 13H12.44L13 14.43C13.2329 15.0561 13.3105 15.7294 13.2261 16.3921C13.1416 17.0548 12.8977 17.6871 12.5152 18.2348C12.1327 18.7825 11.623 19.2292 11.0299 19.5367C10.4369 19.8441 9.77804 20.0031 9.11 20C8.91764 19.9996 8.72948 19.9437 8.56807 19.8391C8.40666 19.7344 8.27887 19.5855 8.2 19.41L5.35 13H3C2.20435 13 1.44129 12.6839 0.87868 12.1213C0.316071 11.5587 0 10.7957 0 10V3C0 2.20435 0.316071 1.44129 0.87868 0.878681C1.44129 0.316072 2.20435 1.90735e-06 3 1.90735e-06H15.73C16.4318 0.000236511 17.1113 0.246511 17.6503 0.695978C18.1893 1.14544 18.5537 1.76966 18.68 2.46L19.95 9.46C20.0286 9.89262 20.011 10.3372 19.8987 10.7623C19.7864 11.1874 19.582 11.5826 19.3 11.92ZM5 2H3C2.73478 2 2.48043 2.10536 2.29289 2.29289C2.10536 2.48043 2 2.73479 2 3V10C2 10.2652 2.10536 10.5196 2.29289 10.7071C2.48043 10.8946 2.73478 11 3 11H5V2ZM18 9.82L16.73 2.82C16.6874 2.58704 16.5635 2.37676 16.3804 2.2266C16.1973 2.07644 15.9668 1.99614 15.73 2H7V11.79L9.72 17.91C9.99998 17.8284 10.26 17.6896 10.4837 17.5024C10.7073 17.3152 10.8897 17.0837 11.0194 16.8225C11.1491 16.5613 11.2232 16.276 11.2371 15.9847C11.2509 15.6934 11.2043 15.4024 11.1 15.13L10.57 13.7C10.4571 13.3977 10.4189 13.0727 10.4589 12.7525C10.4988 12.4323 10.6156 12.1265 10.7993 11.8613C10.983 11.596 11.2282 11.3791 11.5139 11.2292C11.7996 11.0792 12.1173 11.0006 12.44 11H17C17.1469 11.0002 17.2921 10.9681 17.4252 10.9059C17.5582 10.8437 17.676 10.7529 17.77 10.64C17.8663 10.5287 17.9369 10.3975 17.9767 10.2557C18.0164 10.114 18.0244 9.96518 18 9.82Z" fill="#C0C0C0"/>
</svg>
