<svg width="20" height="20" viewBox="0 0 20 20" fill="none" xmlns="http://www.w3.org/2000/svg">
<path fill-rule="evenodd" clip-rule="evenodd" d="M14.0353 5.45649C13.0028 4.47174 11.6249 3.93527 10.1992 3.95732C7.59036 3.95732 5.37468 5.71736 4.58467 8.08736V8.08742C4.16578 9.32938 4.16578 10.6742 4.58466 11.9162H4.58833C5.38201 14.2825 7.59403 16.0426 10.2029 16.0426C11.5496 16.0426 12.7057 15.6981 13.6018 15.0897V15.0872C14.6563 14.3891 15.3765 13.2904 15.6007 12.0485H10.1992V8.19766H19.6315C19.7491 8.86641 19.8042 9.54986 19.8042 10.2296C19.8042 13.2712 18.7172 15.8427 16.8259 17.5843L16.8279 17.5858C15.1707 19.1144 12.8963 20 10.1992 20C6.41821 20 2.96055 17.8688 1.26296 14.492V14.492C-0.155365 11.6663 -0.155362 8.33727 1.26297 5.51163H1.26299L1.26296 5.51161C2.96055 2.13112 6.4182 -5.85336e-05 10.1992 -5.85336e-05C12.6831 -0.0294541 15.0825 0.903855 16.8904 2.60145L14.0353 5.45649Z" fill="#292D32"/>
</svg>
