<svg width="20" height="19" viewBox="0 0 20 19" fill="none" xmlns="http://www.w3.org/2000/svg">
<path d="M9.93381 3.59926L9.04348 2.68409C6.95363 0.53588 3.12161 1.2772 1.73831 3.97799C1.08888 5.24829 0.942352 7.08235 2.12822 9.42303C3.27062 11.6768 5.64732 14.3763 9.93381 17.3168C14.2203 14.3763 16.5958 11.6768 17.7394 9.42303C18.9253 7.08111 18.78 5.24829 18.1293 3.97799C16.746 1.2772 12.914 0.534638 10.8241 2.68285L9.93381 3.59926ZM9.93381 18.8131C-9.10583 6.23175 4.07154 -3.58795 9.71526 1.60626C9.78977 1.67456 9.86303 1.74534 9.93381 1.8186C10.0039 1.7454 10.0768 1.67498 10.1524 1.6075C15.7948 -3.59043 28.9734 6.23051 9.93381 18.8131Z" fill="#C0C0C0"/>
</svg>
