<svg width="17" height="18" viewBox="0 0 17 18" fill="none" xmlns="http://www.w3.org/2000/svg">
<path d="M16 13.7475C16 14.0175 15.9399 14.295 15.8122 14.565C15.6845 14.835 15.5193 15.09 15.3015 15.33C14.9334 15.735 14.5278 16.0275 14.0696 16.215C13.6189 16.4025 13.1307 16.5 12.6049 16.5C11.8388 16.5 11.02 16.32 10.1562 15.9525C9.29244 15.585 8.42864 15.09 7.57236 14.4675C6.70856 13.8375 5.88983 13.14 5.10866 12.3675C4.335 11.5875 3.63645 10.77 3.01302 9.915C2.3971 9.06 1.90135 8.205 1.54081 7.3575C1.18027 6.5025 1 5.685 1 4.905C1 4.395 1.09014 3.9075 1.27041 3.4575C1.45068 3 1.7361 2.58 2.1342 2.205C2.61492 1.7325 3.14071 1.5 3.69654 1.5C3.90686 1.5 4.11718 1.545 4.30496 1.635C4.50025 1.725 4.67301 1.86 4.80821 2.055L6.55083 4.5075C6.68603 4.695 6.78368 4.8675 6.85128 5.0325C6.91888 5.19 6.95644 5.3475 6.95644 5.49C6.95644 5.67 6.90386 5.85 6.7987 6.0225C6.70105 6.195 6.55834 6.375 6.37807 6.555L5.80721 7.1475C5.72459 7.23 5.68703 7.3275 5.68703 7.4475C5.68703 7.5075 5.69454 7.56 5.70956 7.62C5.7321 7.68 5.75463 7.725 5.76965 7.77C5.90486 8.0175 6.13771 8.34 6.4682 8.73C6.80621 9.12 7.16675 9.5175 7.55734 9.915C7.96294 10.3125 8.35353 10.68 8.75163 11.0175C9.14221 11.3475 9.4652 11.5725 9.72058 11.7075C9.75814 11.7225 9.8032 11.745 9.85578 11.7675C9.91587 11.79 9.97596 11.7975 10.0436 11.7975C10.1713 11.7975 10.2689 11.7525 10.3515 11.67L10.9224 11.1075C11.1102 10.92 11.2904 10.7775 11.4632 10.6875C11.636 10.5825 11.8087 10.53 11.9965 10.53C12.1392 10.53 12.2894 10.56 12.4547 10.6275C12.6199 10.695 12.7927 10.7925 12.9805 10.92L15.4667 12.6825C15.662 12.8175 15.7972 12.975 15.8798 13.1625C15.9549 13.35 16 13.5375 16 13.7475Z" stroke="white" stroke-width="1.6" stroke-miterlimit="10" stroke-linejoin="round"/>
</svg>
