<svg width="19" height="19" viewBox="0 0 19 19" fill="none" xmlns="http://www.w3.org/2000/svg">
<path d="M17.9927 6.14636V10.11C17.9927 10.3676 17.982 10.6153 17.9501 10.8532C17.7056 13.5286 16.0148 14.8564 12.8991 14.8564H12.4738C12.2079 14.8564 11.9527 14.9753 11.7932 15.1735L10.5172 16.759C9.95359 17.4625 9.03908 17.4625 8.47549 16.759L7.19944 15.1735C7.0612 15.0051 6.75284 14.8564 6.5189 14.8564H6.09355C2.7014 14.8564 1 14.0736 1 10.11V6.14636C1 3.243 2.43556 1.66746 5.29603 1.43955C5.55124 1.40982 5.81708 1.3999 6.09355 1.3999H12.8991C16.2913 1.3999 17.9927 2.98536 17.9927 6.14636Z" stroke="#C0C0C0" stroke-width="2" stroke-miterlimit="10" stroke-linecap="round" stroke-linejoin="round"/>
<path d="M13.2237 8.08411C12.9475 8.08411 12.7237 8.30796 12.7237 8.58411C12.7237 8.86025 12.9475 9.08411 13.2237 9.08411H13.2332C13.5094 9.08411 13.7332 8.86025 13.7332 8.58411C13.7332 8.30796 13.5094 8.08411 13.2332 8.08411H13.2237Z" stroke="#C0C0C0" stroke-linecap="round" stroke-linejoin="round"/>
<path d="M9.50199 8.08411C9.22585 8.08411 9.00199 8.30796 9.00199 8.58411C9.00199 8.86025 9.22585 9.08411 9.50199 9.08411H9.51156C9.7877 9.08411 10.0116 8.86025 10.0116 8.58411C10.0116 8.30796 9.7877 8.08411 9.51156 8.08411H9.50199Z" stroke="#C0C0C0" stroke-linecap="round" stroke-linejoin="round"/>
<path d="M5.78037 8.08411C5.50423 8.08411 5.28037 8.30796 5.28037 8.58411C5.28037 8.86025 5.50423 9.08411 5.78037 9.08411H5.78994C6.06608 9.08411 6.28994 8.86025 6.28994 8.58411C6.28994 8.30796 6.06608 8.08411 5.78994 8.08411H5.78037Z" stroke="#C0C0C0" stroke-linecap="round" stroke-linejoin="round"/>
</svg>
