<svg width="20" height="20" viewBox="0 0 20 20" fill="none" xmlns="http://www.w3.org/2000/svg">
<path d="M18.9422 17.8579L14.366 13.2817C15.6131 11.7564 16.2262 9.81023 16.0786 7.84561C15.931 5.88098 15.0339 4.04825 13.5729 2.7265C12.1119 1.40475 10.1988 0.6951 8.22925 0.744345C6.2597 0.79359 4.38443 1.59796 2.99132 2.99107C1.5982 4.38419 0.793834 6.25946 0.744589 8.229C0.695344 10.1985 1.40499 12.1117 2.72674 13.5727C4.0485 15.0337 5.88123 15.9307 7.84585 16.0784C9.81047 16.226 11.7567 15.6128 13.2819 14.3657L17.8582 18.942C18.0028 19.0817 18.1964 19.1589 18.3974 19.1572C18.5985 19.1554 18.7908 19.0748 18.9329 18.9327C19.0751 18.7905 19.1557 18.5982 19.1574 18.3972C19.1592 18.1962 19.0819 18.0025 18.9422 17.8579ZM8.43346 14.5666C7.22039 14.5666 6.03456 14.2069 5.02593 13.5329C4.0173 12.859 3.23117 11.9011 2.76695 10.7804C2.30273 9.65963 2.18127 8.42641 2.41792 7.23665C2.65458 6.04689 3.23873 4.95403 4.0965 4.09626C4.95427 3.23849 6.04713 2.65434 7.23689 2.41768C8.42665 2.18102 9.65987 2.30248 10.7806 2.76671C11.9013 3.23093 12.8592 4.01706 13.5332 5.02569C14.2071 6.03432 14.5668 7.22014 14.5668 8.43321C14.565 10.0593 13.9182 11.6183 12.7684 12.7682C11.6186 13.918 10.0596 14.5648 8.43346 14.5666Z" fill="#292D32"/>
</svg>
