<svg width="13" height="12" viewBox="0 0 13 12" fill="none" xmlns="http://www.w3.org/2000/svg">
<path d="M5.63227 0.921927C5.9926 0.15649 7.08145 0.156488 7.44179 0.921926L8.43482 3.03136C8.58058 3.34099 8.87456 3.55458 9.21409 3.59753L11.5271 3.8901C12.3665 3.99627 12.7029 5.03183 12.0863 5.61106L10.387 7.20734C10.1375 7.44165 10.0253 7.78724 10.0893 8.12342L10.5258 10.4137C10.6842 11.2447 9.80334 11.8847 9.06191 11.4773L7.01864 10.3544C6.71872 10.1896 6.35534 10.1896 6.05541 10.3544L4.01215 11.4773C3.27072 11.8847 2.38982 11.2447 2.54821 10.4137L2.98473 8.12342C3.0488 7.78724 2.93651 7.44165 2.68707 7.20734L0.98775 5.61106C0.371125 5.03183 0.707597 3.99627 1.54692 3.8901L3.85997 3.59753C4.19949 3.55458 4.49348 3.34099 4.63924 3.03136L5.63227 0.921927Z" fill="#33A9FF"/>
</svg>
