<svg width="20" height="19" viewBox="0 0 20 19" fill="none" xmlns="http://www.w3.org/2000/svg">
<path d="M6.2918 18.0313C13.8371 18.0313 17.9652 11.4659 17.9652 5.77416C17.9652 5.58959 17.9613 5.40092 17.9535 5.21635C18.7566 4.60656 19.4496 3.85125 20 2.98592C19.2521 3.33531 18.458 3.56349 17.6449 3.66267C18.5011 3.12383 19.1421 2.27732 19.4492 1.28008C18.6438 1.78127 17.763 2.13482 16.8445 2.32556C16.2257 1.63515 15.4075 1.17801 14.5164 1.02483C13.6253 0.871643 12.711 1.03095 11.9148 1.47811C11.1186 1.92528 10.4848 2.6354 10.1115 3.49868C9.73825 4.36196 9.64619 5.33032 9.84961 6.25404C8.21874 6.16811 6.62328 5.72327 5.16665 4.94837C3.71002 4.17346 2.42474 3.08579 1.39414 1.75586C0.870333 2.70412 0.710047 3.82622 0.945859 4.89411C1.18167 5.962 1.79589 6.89555 2.66367 7.50502C2.01219 7.4833 1.37498 7.29913 0.804688 6.96771V7.02103C0.804104 8.01616 1.13175 8.98079 1.73192 9.75095C2.3321 10.5211 3.16777 11.0493 4.09687 11.2456C3.49338 11.419 2.85999 11.4443 2.2457 11.3195C2.50788 12.1753 3.01798 12.9238 3.70481 13.4606C4.39164 13.9973 5.22093 14.2956 6.07695 14.3136C4.62369 15.5123 2.82848 16.1624 0.980469 16.1593C0.652739 16.1588 0.325333 16.1377 0 16.0962C1.87738 17.3608 4.06128 18.0325 6.2918 18.0313Z" fill="#292D32"/>
</svg>
