<svg width="17" height="16" viewBox="0 0 17 16" fill="none" xmlns="http://www.w3.org/2000/svg">
<path d="M15.3165 13.6922C15.8126 13.0271 16.1531 12.2592 16.3128 11.4449C16.4725 10.6307 16.4473 9.79107 16.2391 8.9879C16.0309 8.18473 15.645 7.43856 15.1099 6.80446C14.5747 6.17035 13.9041 5.66451 13.1473 5.32424C12.9825 4.3759 12.6037 3.47761 12.0397 2.69762C11.4756 1.91764 10.7412 1.27647 9.89227 0.822847C9.04331 0.369223 8.10212 0.115075 7.14021 0.0797148C6.17831 0.0443545 5.221 0.228712 4.34102 0.618779C3.46105 1.00885 2.68156 1.59436 2.06178 2.33083C1.44201 3.0673 0.998253 3.93535 0.764239 4.86903C0.530225 5.8027 0.512108 6.77743 0.711263 7.71916C0.910419 8.66089 1.32161 9.54483 1.91359 10.3038L0.813169 11.3963C0.703319 11.5077 0.628905 11.649 0.599318 11.8026C0.56973 11.9562 0.586293 12.1151 0.646919 12.2592C0.70631 12.4038 0.807166 12.5276 0.936778 12.6149C1.06639 12.7023 1.21896 12.7493 1.37525 12.7501H5.87984C6.32843 13.6958 7.0357 14.4951 7.91976 15.0556C8.80382 15.616 9.82853 15.9146 10.8753 15.9167H15.6253C15.7815 15.916 15.9341 15.8689 16.0637 15.7816C16.1933 15.6942 16.2942 15.5705 16.3536 15.4259C16.4142 15.2817 16.4308 15.1228 16.4012 14.9693C16.3716 14.8157 16.2972 14.6743 16.1873 14.563L15.3165 13.6922ZM5.33359 10.3751C5.33467 10.6402 5.35584 10.9048 5.39692 11.1667H3.28317L3.56025 10.8976C3.63445 10.824 3.69335 10.7364 3.73354 10.6399C3.77373 10.5435 3.79443 10.44 3.79443 10.3355C3.79443 10.231 3.77373 10.1275 3.73354 10.031C3.69335 9.93456 3.63445 9.847 3.56025 9.77341C3.11657 9.33459 2.76483 8.81172 2.52559 8.23537C2.28635 7.65903 2.16442 7.04076 2.16692 6.41674C2.16692 5.15696 2.66736 3.94878 3.55816 3.05798C4.44896 2.16718 5.65714 1.66674 6.91692 1.66674C7.89992 1.66083 8.86006 1.96313 9.66236 2.53113C10.4647 3.09914 11.0688 3.90429 11.3898 4.83341C11.2157 4.83341 11.0494 4.83341 10.8753 4.83341C9.40551 4.83341 7.99597 5.41726 6.9567 6.45652C5.91744 7.49579 5.33359 8.90533 5.33359 10.3751ZM13.6778 14.3334L13.7173 14.373H10.8753C9.95956 14.3714 9.07276 14.0523 8.36592 13.4702C7.65908 12.888 7.17593 12.0789 6.99877 11.1805C6.82162 10.2821 6.96142 9.35005 7.39435 8.54317C7.82729 7.73629 8.52659 7.10447 9.37311 6.75534C10.2196 6.4062 11.161 6.36136 12.0369 6.62845C12.9128 6.89554 13.6689 7.45804 14.1766 8.22012C14.6843 8.98219 14.912 9.89671 14.8211 10.8079C14.7301 11.719 14.3261 12.5705 13.6778 13.2172C13.5286 13.3633 13.4432 13.5625 13.4403 13.7713C13.4407 13.8761 13.4619 13.9797 13.5027 14.0762C13.5434 14.1727 13.603 14.2601 13.6778 14.3334Z" fill="white"/>
</svg>
