<svg width="36" height="36" viewBox="0 0 36 36" fill="none" xmlns="http://www.w3.org/2000/svg">
<path d="M11.6 18H10.1H11.6ZM24.4 18H25.9H24.4ZM18 24.4V25.9V24.4ZM21.3111 33.657L21.6199 35.1248L21.3111 33.657ZM14.689 33.657L14.3801 35.1248L14.689 33.657ZM3.18177 11.9539L1.79314 11.3867H1.79314L3.18177 11.9539ZM2.34301 21.311L0.875155 21.6199L2.34301 21.311ZM14.689 2.34301L14.3801 0.875156L14.689 2.34301ZM21.3111 2.34301L21.6199 0.875157L21.3111 2.34301ZM32.6893 12.0116L32.254 10.5762L32.6893 12.0116ZM3.30875 12.0111L3.74415 10.5756L3.30875 12.0111ZM31.4312 12.525C32.1198 14.2124 32.5 16.0599 32.5 18H35.5C35.5 15.6646 35.0417 13.4325 34.2088 11.3915L31.4312 12.525ZM32.5 18C32.5 19.0308 32.3927 20.0348 32.1891 21.0022L35.1248 21.6199C35.3709 20.4506 35.5 19.2396 35.5 18H32.5ZM32.1891 21.0022C31.0113 26.5997 26.5997 31.0113 21.0022 32.1891L21.6199 35.1248C28.3813 33.7021 33.7021 28.3813 35.1248 21.6199L32.1891 21.0022ZM21.0022 32.1891C20.0348 32.3927 19.0308 32.5 18 32.5V35.5C19.2396 35.5 20.4507 35.3709 21.6199 35.1248L21.0022 32.1891ZM18 32.5C16.9692 32.5 15.9652 32.3927 14.9978 32.1891L14.3801 35.1248C15.5494 35.3709 16.7604 35.5 18 35.5V32.5ZM3.5 18C3.5 16.0584 3.88081 14.2095 4.57041 12.5211L1.79314 11.3867C0.958985 13.429 0.5 15.6628 0.5 18H3.5ZM14.9978 32.1891C9.40027 31.0113 4.98871 26.5997 3.81087 21.0022L0.875155 21.6199C2.29788 28.3813 7.61872 33.7021 14.3801 35.1248L14.9978 32.1891ZM3.81087 21.0022C3.60732 20.0348 3.5 19.0308 3.5 18H0.5C0.5 19.2396 0.629118 20.4506 0.875155 21.6199L3.81087 21.0022ZM4.57041 12.5211C6.36586 8.12518 10.2581 4.80821 14.9978 3.81087L14.3801 0.875156C8.65108 2.08066 3.9591 6.08368 1.79314 11.3867L4.57041 12.5211ZM14.9978 3.81087C15.9652 3.60732 16.9692 3.5 18 3.5V0.5C16.7604 0.5 15.5494 0.629118 14.3801 0.875156L14.9978 3.81087ZM18 3.5C19.0308 3.5 20.0348 3.60732 21.0022 3.81087L21.6199 0.875157C20.4507 0.629118 19.2396 0.5 18 0.5V3.5ZM21.0022 3.81087C25.7434 4.80851 29.6365 8.12718 31.4312 12.525L34.2088 11.3915C32.0437 6.08609 27.3506 2.08102 21.6199 0.875157L21.0022 3.81087ZM19.882 2.79898C20.3227 4.18001 21.95 9.48079 22.6161 14.3429L25.5884 13.9357C24.885 8.80165 23.189 3.29391 22.7401 1.88705L19.882 2.79898ZM22.6161 14.3429C22.7944 15.6445 22.9 16.8886 22.9 18H25.9C25.9 16.7112 25.7786 15.3241 25.5884 13.9357L22.6161 14.3429ZM32.254 10.5762C30.5027 11.1074 27.2167 12.0392 23.83 12.6642L24.3745 15.6144C27.9192 14.9602 31.3261 13.9926 33.1247 13.4471L32.254 10.5762ZM23.83 12.6642C21.7744 13.0436 19.7335 13.3 18 13.3V16.3C19.9927 16.3 22.2346 16.0093 24.3745 15.6144L23.83 12.6642ZM22.9 18C22.9 19.6479 22.6682 21.5752 22.3185 23.5311L25.2717 24.0591C25.6367 22.0175 25.9 19.8966 25.9 18H22.9ZM22.3185 23.5311C21.5521 27.8174 20.2635 32.0056 19.882 33.201L22.7401 34.113C23.1341 32.8782 24.4702 28.5415 25.2717 24.0591L22.3185 23.5311ZM33.201 19.882C32.0056 20.2635 27.8174 21.5521 23.5311 22.3185L24.0591 25.2717C28.5415 24.4702 32.8782 23.1341 34.113 22.7401L33.201 19.882ZM23.5311 22.3185C21.5752 22.6682 19.6479 22.9 18 22.9V25.9C19.8966 25.9 22.0175 25.6367 24.0591 25.2717L23.5311 22.3185ZM18 22.9C16.3521 22.9 14.4248 22.6682 12.4689 22.3185L11.9409 25.2717C13.9825 25.6367 16.1034 25.9 18 25.9V22.9ZM12.4689 22.3185C8.18259 21.5521 3.99441 20.2635 2.79898 19.882L1.88704 22.7401C3.12183 23.1341 7.45854 24.4702 11.9409 25.2717L12.4689 22.3185ZM10.1 18C10.1 19.8966 10.3633 22.0175 10.7283 24.0591L13.6815 23.5311C13.3318 21.5752 13.1 19.6479 13.1 18H10.1ZM10.7283 24.0591C11.5298 28.5415 12.8659 32.8782 13.2599 34.113L16.118 33.201C15.7365 32.0056 14.4479 27.8174 13.6815 23.5311L10.7283 24.0591ZM13.2599 1.88704C12.811 3.29391 11.115 8.80165 10.4116 13.9357L13.3839 14.3429C14.05 9.48079 15.6773 4.18001 16.118 2.79898L13.2599 1.88704ZM10.4116 13.9357C10.2214 15.3241 10.1 16.7112 10.1 18H13.1C13.1 16.8886 13.2056 15.6445 13.3839 14.3429L10.4116 13.9357ZM18 13.3C16.2665 13.3 14.2256 13.0436 12.17 12.6642L11.6255 15.6144C13.7654 16.0093 16.0073 16.3 18 16.3V13.3ZM12.17 12.6642C8.78209 12.0389 5.49492 11.1067 3.74415 10.5756L2.87335 13.4465C4.67149 13.9919 8.07951 14.9599 11.6255 15.6144L12.17 12.6642ZM32.1288 10.6271C32.1658 10.6078 32.2084 10.5901 32.254 10.5762L33.1247 13.4471C33.2613 13.4056 33.3898 13.3526 33.5113 13.2895L32.1288 10.6271ZM2.39919 13.2336C2.5446 13.3225 2.70284 13.3948 2.87335 13.4465L3.74415 10.5756C3.82472 10.6001 3.89913 10.6343 3.96436 10.6742L2.39919 13.2336Z" fill="#48A4EB"/>
</svg>
