<svg width="28" height="20" viewBox="0 0 28 20" fill="none" xmlns="http://www.w3.org/2000/svg">
<path d="M1.6233 19.5643C1.30372 19.4891 1.04866 19.2284 0.990991 18.8921C0.99093 18.8908 0.990768 18.8877 0.990581 18.8821C0.990254 18.8721 0.98992 18.8578 0.989586 18.839C0.988919 18.8015 0.988277 18.7478 0.987662 18.6786C0.986431 18.5403 0.985312 18.3414 0.9843 18.0906C0.982275 17.5889 0.980676 16.8797 0.979443 16.0323C0.976978 14.3375 0.97598 12.0903 0.975977 9.84501C0.975973 7.59977 0.976963 5.35662 0.978475 3.67015C0.97923 2.82691 0.980116 2.12286 0.981073 1.62732C0.981551 1.37954 0.982047 1.18394 0.982554 1.04914L0.983318 0.89383L0.9837 0.852846C0.98378 0.846801 0.98386 0.843801 0.983873 0.842788C1.02526 0.485814 1.28752 0.207746 1.61587 0.127635L1.62945 0.126843C1.64309 0.126201 1.6627 0.125546 1.68845 0.124893C1.73981 0.12359 1.81351 0.122342 1.90832 0.121151C2.09783 0.118771 2.37029 0.116636 2.71397 0.114726C3.40125 0.110907 4.37254 0.107992 5.53279 0.105805C7.85326 0.10143 10.9291 0.0999676 13.9995 0.100001C17.0698 0.100033 20.1345 0.101562 22.4327 0.10317C23.5818 0.103975 24.5392 0.104799 25.2099 0.105466L25.989 0.106326L26.1949 0.106626L26.248 0.106737L26.2614 0.10678L26.262 0.106783C26.6986 0.145717 27.0237 0.514349 27.0237 0.940126C27.0237 5.16407 27.0238 8.39048 27.0239 10.8552C27.024 13.8846 27.0241 15.7634 27.0238 16.9295C27.0234 18.834 27.0219 18.8359 27.019 18.8395C27.0187 18.8399 27.0184 18.8403 27.018 18.8436L27.018 18.8437C26.9779 19.2024 26.7119 19.4927 26.3641 19.568L26.3505 19.5686C26.337 19.5691 26.3177 19.5697 26.2923 19.5702C26.2417 19.5712 26.1687 19.5721 26.0747 19.5731C25.8868 19.575 25.6158 19.5767 25.2735 19.5783C24.589 19.5815 23.62 19.5842 22.4613 19.5863C20.1438 19.5904 17.0677 19.5923 13.9916 19.5919C10.9156 19.5915 7.83976 19.5889 5.52282 19.5841C4.36433 19.5817 3.39565 19.5788 2.71158 19.5753C2.36951 19.5735 2.09876 19.5716 1.91107 19.5696C1.81718 19.5686 1.74436 19.5675 1.69388 19.5665C1.66858 19.5659 1.64933 19.5654 1.63603 19.5649L1.6233 19.5643ZM2.81822 2.92252L2.65259 2.77842V2.99796V16.6919V16.9115L2.81822 16.7674L10.6886 9.9204L10.7753 9.84495L10.6886 9.76951L2.81822 2.92252ZM13.9352 10.3741L14.0008 10.4312L14.0664 10.3741L23.7464 1.95292L23.948 1.77748H23.6807H4.32083H4.05353L4.2552 1.95292L13.9352 10.3741ZM12.1167 11.0119L12.0511 10.9548L11.9855 11.0119L4.2552 17.737L4.05353 17.9124H4.32083H23.6807H23.948L23.7464 17.737L16.0161 11.0119L15.9504 10.9548L15.8848 11.0119L14.5504 12.1728C14.5504 12.1728 14.5503 12.1728 14.5503 12.1728C14.2352 12.4469 13.7663 12.4469 13.4512 12.1728L12.1167 11.0119ZM17.313 9.76951L17.2262 9.84495L17.313 9.9204L25.1833 16.7673L25.349 16.9114V16.6919V2.99796V2.77842L25.1833 2.92252L17.313 9.76951Z" fill="#333333" stroke="#F4F4F4" stroke-width="0.2"/>
</svg>
