<svg width="26" height="26" viewBox="0 0 26 26" fill="none" xmlns="http://www.w3.org/2000/svg">
<path d="M13 0C5.82029 0 0 5.82029 0 13C0 20.1797 5.82029 26 13 26C20.1797 26 26 20.1797 26 13C26 5.82029 20.1797 0 13 0ZM13 24.375C6.71775 24.375 1.625 19.2822 1.625 13C1.625 6.71775 6.71775 1.625 13 1.625C19.2822 1.625 24.375 6.71775 24.375 13C24.375 19.2822 19.2822 24.375 13 24.375Z" fill="#333333"/>
<path d="M13 3.25C7.61521 3.25 3.25 7.61521 3.25 13C3.25 18.3848 7.61521 22.75 13 22.75C18.3848 22.75 22.75 18.3848 22.75 13C22.75 7.61521 18.3848 3.25 13 3.25ZM13 21.125C8.51266 21.125 4.875 17.4873 4.875 13C4.875 8.51266 8.51266 4.875 13 4.875C17.4873 4.875 21.125 8.51266 21.125 13C21.125 17.4873 17.4873 21.125 13 21.125Z" fill="#333333"/>
<path d="M13.812 8.125H12.187V13C12.1858 13.216 12.2706 13.4235 12.4227 13.5769L15.6727 16.8269L16.8183 15.6812L13.812 12.6669V8.125Z" fill="#333333"/>
</svg>
