<svg width="12" height="17" viewBox="0 0 12 17" fill="none" xmlns="http://www.w3.org/2000/svg">
<path d="M2.55888 11.696C3.40553 12.8421 3.06538 12.3964 5.50403 15.8781C5.72568 16.1958 6.19702 16.1973 6.41994 15.8786C8.86961 12.3803 8.53255 12.8234 9.36542 11.6959C10.2091 10.5537 11.0815 9.37261 11.5596 7.98855C12.2516 5.98502 11.9525 4.00263 10.7175 2.40653C10.7175 2.40653 10.7174 2.40649 10.7174 2.40649C9.58614 0.944869 7.80846 0.0722656 5.96215 0.0722656C4.11584 0.0722656 2.33816 0.944869 1.20685 2.40657C-0.0281326 4.00267 -0.327243 5.98509 0.364747 7.98863C0.842757 9.37265 1.71521 10.5537 2.55888 11.696ZM2.0904 3.09014C3.01164 1.89992 4.45904 1.18931 5.96215 1.18931C7.46526 1.18931 8.91266 1.89992 9.8339 3.09014L9.83382 3.09011C10.8306 4.3783 11.0684 5.98848 10.5036 7.62398C10.0813 8.84649 9.26052 9.95768 8.46675 11.0323C7.84872 11.869 8.03369 11.6131 5.96215 14.5825C3.89277 11.616 4.0754 11.8687 3.45755 11.0323C2.66378 9.95768 1.84298 8.84645 1.42072 7.62398C0.855866 5.98844 1.09368 4.3783 2.0904 3.09014Z" fill="white"/>
<path d="M5.94814 9.20381C7.67161 9.20381 9.07377 7.81174 9.07377 6.10066C9.07377 4.38959 7.67161 2.99756 5.94814 2.99756C4.22467 2.99756 2.82251 4.38959 2.82251 6.10066C2.82251 7.81174 4.22467 9.20381 5.94814 9.20381ZM5.94814 4.10672C7.05559 4.10672 7.95657 5.00123 7.95657 6.10066C7.95657 7.20014 7.05562 8.09465 5.94814 8.09465C4.84066 8.09465 3.93971 7.20014 3.93971 6.10066C3.93971 5.00123 4.8407 4.10672 5.94814 4.10672Z" fill="white"/>
</svg>
