<svg width="18" height="22" viewBox="0 0 18 22" fill="none" xmlns="http://www.w3.org/2000/svg">
<path d="M8.90003 20.9999C13.2503 20.9999 16.8 17.6747 16.8 13.5997L16.8 8.66627C16.8 4.59125 13.2503 1.26611 8.90002 1.26611C4.54974 1.26611 1 4.59125 1 8.66628L1 13.5997C1 17.6747 4.54975 20.9999 8.90003 20.9999Z" stroke="white" stroke-width="1.07727" stroke-linecap="round" stroke-linejoin="round"/>
<path d="M8.89983 10.1463C8.02556 10.1463 7.31983 9.48525 7.31982 8.6663L7.31982 6.69292C7.31982 5.87397 8.02556 5.21289 8.89983 5.21289C9.76356 5.21289 10.4798 5.87397 10.4798 6.69292L10.4798 8.6663C10.4798 9.48525 9.76357 10.1463 8.89983 10.1463Z" stroke="white" stroke-width="1.07727" stroke-linecap="round" stroke-linejoin="round"/>
<path d="M8.89844 5.21287L8.89844 1.26611" stroke="white" stroke-width="1.07727" stroke-linecap="round" stroke-linejoin="round"/>
</svg>
