<svg width="53" height="45" viewBox="0 0 53 45" fill="none" xmlns="http://www.w3.org/2000/svg">
<path d="M45.2278 18.6992C44.6066 18.6992 44.0109 18.9407 43.5717 19.3705C43.1324 19.8002 42.8857 20.3831 42.8857 20.9909V37.0326C42.8857 37.6404 42.6389 38.2233 42.1996 38.653C41.7604 39.0828 41.1647 39.3242 40.5435 39.3242H7.75308C7.1319 39.3242 6.53615 39.0828 6.09691 38.653C5.65767 38.2233 5.41091 37.6404 5.41091 37.0326V18.6992C5.41091 18.0915 5.65767 17.5086 6.09691 17.0788C6.53615 16.649 7.1319 16.4076 7.75308 16.4076H12.4374C12.9482 16.4337 13.4536 16.2955 13.8765 16.0141C14.2995 15.7327 14.6166 15.3236 14.7796 14.8492L16.0444 11.0909C16.2015 10.6357 16.5008 10.2404 16.9001 9.96075C17.2994 9.68112 17.7784 9.53133 18.2694 9.53257H31.1748C31.796 9.53257 32.3917 9.29113 32.831 8.86136C33.2702 8.43159 33.517 7.84869 33.517 7.24091C33.517 6.63312 33.2702 6.05022 32.831 5.62045C32.3917 5.19068 31.796 4.94924 31.1748 4.94924H18.1523C16.6804 4.95193 15.2465 5.40685 14.053 6.24977C12.8595 7.0927 11.9667 8.28107 11.5006 9.64716L10.7511 11.9388H7.75308C5.88953 11.9388 4.10231 12.6632 2.78458 13.9525C1.46685 15.2418 0.726563 16.9905 0.726562 18.8138V37.1472C0.726563 38.9705 1.46685 40.7192 2.78458 42.0085C4.10231 43.2978 5.88953 44.0222 7.75308 44.0222H40.5435C42.407 44.0222 44.1943 43.2978 45.512 42.0085C46.8297 40.7192 47.57 38.9705 47.57 37.1472V21.1055C47.5859 20.795 47.5371 20.4847 47.4265 20.1933C47.3159 19.9019 47.1459 19.6355 46.9268 19.4104C46.7077 19.1854 46.4441 19.0062 46.152 18.884C45.86 18.7617 45.5455 18.6989 45.2278 18.6992ZM24.1483 16.4076C22.2953 16.4076 20.484 16.9452 18.9433 17.9524C17.4026 18.9597 16.2018 20.3913 15.4927 22.0663C14.7836 23.7413 14.5981 25.5844 14.9596 27.3626C15.3211 29.1407 16.2134 30.7741 17.5236 32.0561C18.8339 33.338 20.5032 34.2111 22.3205 34.5648C24.1379 34.9185 26.0216 34.7369 27.7335 34.0431C29.4454 33.3493 30.9086 32.1744 31.9381 30.667C32.9675 29.1595 33.517 27.3872 33.517 25.5742C33.517 23.1431 32.5299 20.8115 30.7729 19.0924C29.016 17.3733 26.633 16.4076 24.1483 16.4076ZM24.1483 30.1576C23.2218 30.1576 22.3161 29.8888 21.5458 29.3851C20.7755 28.8815 20.1751 28.1657 19.8205 27.3282C19.466 26.4907 19.3732 25.5692 19.5539 24.6801C19.7347 23.791 20.1808 22.9743 20.8359 22.3333C21.4911 21.6923 22.3257 21.2558 23.2344 21.079C24.1431 20.9021 25.0849 20.9929 25.9409 21.3398C26.7969 21.6867 27.5284 22.2742 28.0432 23.0279C28.5579 23.7816 28.8326 24.6677 28.8326 25.5742C28.8326 26.7898 28.3391 27.9556 27.4606 28.8151C26.5821 29.6747 25.3906 30.1576 24.1483 30.1576ZM49.9122 4.94924H47.57V2.65757C47.57 2.04978 47.3232 1.46689 46.884 1.03712C46.4447 0.607348 45.849 0.365906 45.2278 0.365906C44.6066 0.365906 44.0109 0.607348 43.5717 1.03712C43.1324 1.46689 42.8857 2.04978 42.8857 2.65757V4.94924H40.5435C39.9223 4.94924 39.3266 5.19068 38.8873 5.62045C38.4481 6.05022 38.2013 6.63312 38.2013 7.24091C38.2013 7.84869 38.4481 8.43159 38.8873 8.86136C39.3266 9.29113 39.9223 9.53257 40.5435 9.53257H42.8857V11.8242C42.8857 12.432 43.1324 13.0149 43.5717 13.4447C44.0109 13.8745 44.6066 14.1159 45.2278 14.1159C45.849 14.1159 46.4447 13.8745 46.884 13.4447C47.3232 13.0149 47.57 12.432 47.57 11.8242V9.53257H49.9122C50.5334 9.53257 51.1291 9.29113 51.5683 8.86136C52.0076 8.43159 52.2543 7.84869 52.2543 7.24091C52.2543 6.63312 52.0076 6.05022 51.5683 5.62045C51.1291 5.19068 50.5334 4.94924 49.9122 4.94924Z" fill="#33A9FF"/>
</svg>
