<svg width="22" height="24" viewBox="0 0 22 24" fill="none" xmlns="http://www.w3.org/2000/svg">
<path d="M16.1157 7.69568V5.55802C16.1157 4.8919 15.9845 4.2323 15.7296 3.61689C15.4747 3.00147 15.101 2.44229 14.63 1.97127C14.159 1.50026 13.5998 1.12662 12.9844 0.871711C12.369 0.616798 11.7094 0.485596 11.0433 0.485596C10.3772 0.485596 9.71756 0.616798 9.10215 0.871711C8.48674 1.12662 7.92756 1.50026 7.45654 1.97127C6.98552 2.44229 6.61189 3.00147 6.35698 3.61689C6.10206 4.2323 5.97086 4.8919 5.97086 5.55802V10.6304C5.97086 10.8226 6.0472 11.0069 6.1831 11.1428C6.31899 11.2787 6.50331 11.3551 6.69549 11.3551C6.88768 11.3551 7.07199 11.2787 7.20788 11.1428C7.34378 11.0069 7.42012 10.8226 7.42012 10.6304V9.14494H13.2172V7.69568H7.42012V5.55802C7.42012 4.5971 7.80185 3.67553 8.48132 2.99606C9.1608 2.31658 10.0824 1.93486 11.0433 1.93486C12.0042 1.93486 12.9258 2.31658 13.6052 2.99606C14.2847 3.67553 14.6664 4.5971 14.6664 5.55802V10.5942C14.6664 10.7864 14.7428 10.9707 14.8787 11.1066C15.0146 11.2425 15.1989 11.3188 15.3911 11.3188C15.5833 11.3188 15.7676 11.2425 15.9035 11.1066C16.0394 10.9707 16.1157 10.7864 16.1157 10.5942V9.14494H19.7389V22.1883H2.3477V9.14494H4.5216V7.69568H0.898438V22.2535C0.898438 22.6206 1.04426 22.9726 1.30382 23.2322C1.56337 23.4918 1.91541 23.6376 2.28248 23.6376H19.8041C20.1712 23.6376 20.5232 23.4918 20.7827 23.2322C21.0423 22.9726 21.1881 22.6206 21.1881 22.2535V7.69568H16.1157Z" fill="#292D32"/>
</svg>
