<svg width="24" height="23" viewBox="0 0 24 23" fill="none" xmlns="http://www.w3.org/2000/svg">
<path d="M8.5496 3.50736C9.63585 0.164215 14.3655 0.164215 15.4518 3.50736C15.9375 5.00245 17.3308 6.01471 18.9028 6.01471C22.418 6.01471 23.8796 10.5129 21.0357 12.579C19.7639 13.5031 19.2317 15.1409 19.7175 16.636C20.8038 19.9792 16.9774 22.7592 14.1336 20.693C12.8618 19.769 11.1396 19.769 9.86779 20.693C7.02395 22.7592 3.19758 19.9792 4.28384 16.636C4.76962 15.1409 4.23745 13.5031 2.96564 12.579C0.121796 10.5129 1.58334 6.01471 5.09852 6.01471C6.67056 6.01471 8.06381 5.00245 8.5496 3.50736Z" stroke="#292D32" stroke-width="1.5"/>
</svg>
