<svg width="15" height="16" viewBox="0 0 15 16" fill="none" xmlns="http://www.w3.org/2000/svg">
<path d="M13.6248 0.375H0.958171C0.748208 0.375 0.546844 0.458407 0.398378 0.606874C0.249912 0.75534 0.166504 0.956704 0.166504 1.16667V3.21708C0.166504 3.63113 0.335129 4.03804 0.628046 4.33096L4.9165 8.61942V14.625C4.91666 14.7599 4.95124 14.8925 5.01697 15.0103C5.08269 15.128 5.1774 15.2271 5.2921 15.298C5.40681 15.369 5.53773 15.4095 5.67247 15.4157C5.80721 15.4219 5.9413 15.3936 6.06205 15.3335L9.22871 13.7502C9.49709 13.6156 9.6665 13.3417 9.6665 13.0417V8.61942L13.955 4.33096C14.2479 4.03804 14.4165 3.63113 14.4165 3.21708V1.16667C14.4165 0.956704 14.3331 0.75534 14.1846 0.606874C14.0362 0.458407 13.8348 0.375 13.6248 0.375ZM8.31513 7.73196C8.24147 7.80535 8.18306 7.89259 8.14325 7.98864C8.10344 8.0847 8.08302 8.18769 8.08317 8.29167V12.5524L6.49984 13.3441V8.29167C6.49999 8.18769 6.47957 8.0847 6.43976 7.98864C6.39995 7.89259 6.34154 7.80535 6.26788 7.73196L1.74984 3.21708V1.95833H12.834L12.8355 3.21154L8.31513 7.73196Z" fill="#292D32"/>
</svg>
