<svg width="14" height="15" viewBox="0 0 14 15" fill="none" xmlns="http://www.w3.org/2000/svg">
<path d="M8.002 0.387991C7.72668 0.140626 7.36962 0.00378418 6.9995 0.00378418C6.62938 0.00378418 6.27232 0.140626 5.997 0.387991L0.497 5.32999C0.340623 5.47062 0.215564 5.64256 0.129942 5.83465C0.0443201 6.02673 4.81578e-05 6.23468 0 6.44499V13.5C0 13.8978 0.158035 14.2793 0.43934 14.5607C0.720644 14.842 1.10218 15 1.5 15H3.5C3.89782 15 4.27936 14.842 4.56066 14.5607C4.84196 14.2793 5 13.8978 5 13.5V9.49999C5 9.36738 5.05268 9.24021 5.14645 9.14644C5.24021 9.05267 5.36739 8.99999 5.5 8.99999H8.5C8.63261 8.99999 8.75979 9.05267 8.85355 9.14644C8.94732 9.24021 9 9.36738 9 9.49999V13.5C9 13.8978 9.15804 14.2793 9.43934 14.5607C9.72064 14.842 10.1022 15 10.5 15H12.5C12.8978 15 13.2794 14.842 13.5607 14.5607C13.842 14.2793 14 13.8978 14 13.5V6.44499C14 6.23468 13.9557 6.02673 13.8701 5.83465C13.7844 5.64256 13.6594 5.47062 13.503 5.32999L8.003 0.387991H8.002Z" fill="#838383"/>
</svg>
