<?xml version="1.0" standalone="no"?>
<!DOCTYPE svg PUBLIC "-//W3C//DTD SVG 20010904//EN"
 "http://www.w3.org/TR/2001/REC-SVG-20010904/DTD/svg10.dtd">
<svg version="1.0" xmlns="http://www.w3.org/2000/svg"
 width="2000.000000pt" height="2000.000000pt" viewBox="830.000000 330.000000 1340.000000 1340.000000"
 preserveAspectRatio="xMidYMid meet">

<g transform="translate(0.000000,2000.000000) scale(0.100000,-0.100000)"
fill="#33A9FF" stroke="none">
<path d="M14620 16654 c-165 -12 -406 -37 -560 -59 -1667 -240 -3197 -1123
-4265 -2460 -741 -928 -1217 -2021 -1389 -3190 -52 -353 -61 -489 -61 -945 0
-455 9 -585 61 -950 288 -2022 1517 -3820 3309 -4844 814 -466 1703 -745 2675
-842 221 -22 785 -30 1017 -15 912 60 1715 270 2518 660 999 486 1854 1209
2501 2114 616 862 1019 1867 1168 2917 53 366 61 495 61 955 0 461 -9 590 -61
955 -307 2144 -1652 4013 -3594 4994 -761 385 -1523 606 -2385 692 -152 15
-854 27 -995 18z m730 -674 c546 -34 1046 -130 1547 -296 2110 -701 3669
-2536 4017 -4729 265 -1670 -173 -3354 -1212 -4670 -408 -515 -925 -984 -1473
-1334 -814 -519 -1692 -819 -2689 -918 -221 -22 -815 -25 -1025 -5 -827 78
-1525 274 -2215 622 -1517 767 -2632 2133 -3081 3772 -225 824 -268 1733 -124
2589 330 1954 1622 3628 3435 4449 680 307 1406 481 2190 523 140 8 481 6 630
-3z"/>
<path d="M13705 11015 c-451 -349 -822 -634 -825 -634 -3 -1 -18 38 -33 87
-70 220 -193 420 -366 593 -175 175 -338 276 -561 350 -203 66 -245 69 -979
69 l-651 0 0 -1461 0 -1460 693 4 c669 3 695 4 789 25 331 75 616 245 817 488
128 154 223 336 267 512 10 39 21 72 24 72 3 -1 376 -286 829 -635 530 -409
828 -632 835 -626 6 5 378 291 826 635 l815 627 3 -551 2 -550 930 0 930 0 0
295 0 295 -615 0 -615 0 0 1165 0 1165 -335 0 -335 0 0 -549 0 -550 -780 -633
c-430 -348 -785 -634 -790 -636 -11 -4 -334 276 -337 292 -2 6 160 137 359
291 304 235 1164 911 1191 935 11 10 -444 382 -459 376 -6 -2 -357 -275 -779
-606 -422 -331 -773 -604 -780 -606 -7 -3 -88 61 -180 142 -161 141 -166 147
-148 164 10 10 353 270 763 580 410 309 753 570 763 580 18 17 10 24 -209 204
-126 102 -231 186 -234 185 -3 0 -374 -286 -825 -634z m-2094 -143 c315 -85
564 -372 619 -714 19 -120 8 -312 -24 -421 -50 -169 -130 -301 -253 -417 -92
-87 -162 -131 -276 -174 l-82 -31 -337 -3 -338 -3 0 889 c0 489 3 892 8 896 4
5 142 6 307 3 261 -4 310 -7 376 -25z"/>
<path d="M18320 10020 l0 -1460 930 0 930 0 0 295 0 295 -595 0 -595 0 0 1165
0 1165 -335 0 -335 0 0 -1460z"/>
</g>
</svg>
