<svg width="23" height="19" viewBox="0 0 23 19" fill="none" xmlns="http://www.w3.org/2000/svg">
<path d="M6.52348 7.17562C5.66465 7.17562 4.96842 7.87185 4.96842 8.73068C4.96842 9.58952 5.66465 10.2857 6.52348 10.2857C7.38232 10.2857 8.07854 9.58952 8.07854 8.73068C8.07854 7.87185 7.38232 7.17562 6.52348 7.17562Z" fill="white"/>
<path d="M11.4997 7.17562C10.6408 7.17562 9.94461 7.87185 9.94461 8.73068C9.94461 9.58952 10.6408 10.2857 11.4997 10.2857C12.3585 10.2857 13.0547 9.58952 13.0547 8.73068C13.0547 7.87185 12.3585 7.17562 11.4997 7.17562Z" fill="white"/>
<path d="M14.9208 8.73068C14.9208 7.87185 15.617 7.17562 16.4759 7.17562C17.3347 7.17562 18.0309 7.87185 18.0309 8.73068C18.0309 9.58952 17.3347 10.2857 16.4759 10.2857C15.617 10.2857 14.9208 9.58952 14.9208 8.73068Z" fill="white"/>
<path fill-rule="evenodd" clip-rule="evenodd" d="M16.6012 1.07082C13.2495 0.784987 9.88025 0.768399 6.5259 1.02122L6.28551 1.03933C3.08668 1.28043 0.614258 3.94621 0.614258 7.15411V17.75C0.614258 18.0783 0.786765 18.3824 1.06852 18.5509C1.35027 18.7193 1.69982 18.7273 1.98898 18.5719L6.85419 15.9573C7.0805 15.8356 7.33341 15.772 7.59033 15.772H18.7574C20.1658 15.772 21.3727 14.7651 21.6252 13.3795C22.1368 10.5714 22.1773 7.6977 21.7448 4.87631L21.6173 4.04488C21.3853 2.53119 20.147 1.37321 18.6212 1.24308L16.6012 1.07082ZM6.66615 2.88201C9.92102 2.63669 13.1903 2.65279 16.4426 2.93014L18.4626 3.10241C19.1299 3.15931 19.6714 3.66569 19.7728 4.32761L19.9003 5.15904C20.3013 7.77563 20.2639 10.4407 19.7894 13.045C19.6985 13.5436 19.2642 13.9059 18.7574 13.9059H7.59033C7.02511 13.9059 6.4687 14.046 5.97082 14.3135L2.48033 16.1894V7.15411C2.48033 4.92241 4.20037 3.06785 6.42576 2.90013L6.66615 2.88201Z" fill="white"/>
</svg>
