<svg width="36" height="36" viewBox="0 0 36 36" fill="none" xmlns="http://www.w3.org/2000/svg">
<path d="M27.0001 10.74C26.9101 10.725 26.8051 10.725 26.7151 10.74C24.6451 10.665 22.9951 8.97 22.9951 6.87C22.9951 4.725 24.7201 3 26.8651 3C29.0101 3 30.7351 4.74 30.7351 6.87C30.7201 8.97 29.0701 10.665 27.0001 10.74Z" stroke="white" stroke-width="3" stroke-linecap="round" stroke-linejoin="round"/>
<path d="M25.4552 21.6601C27.5102 22.0051 29.7752 21.6451 31.3652 20.5801C33.4802 19.1701 33.4802 16.8601 31.3652 15.4501C29.7602 14.3851 27.4652 14.0251 25.4102 14.3851" stroke="white" stroke-width="3" stroke-linecap="round" stroke-linejoin="round"/>
<path d="M8.95473 10.74C9.04473 10.725 9.14973 10.725 9.23973 10.74C11.3097 10.665 12.9597 8.97 12.9597 6.87C12.9597 4.725 11.2347 3 9.08973 3C6.94473 3 5.21973 4.74 5.21973 6.87C5.23473 8.97 6.88473 10.665 8.95473 10.74Z" stroke="white" stroke-width="3" stroke-linecap="round" stroke-linejoin="round"/>
<path d="M10.5002 21.6601C8.44515 22.0051 6.18016 21.6451 4.59016 20.5801C2.47516 19.1701 2.47516 16.8601 4.59016 15.4501C6.19516 14.3851 8.49015 14.0251 10.5452 14.3851" stroke="white" stroke-width="3" stroke-linecap="round" stroke-linejoin="round"/>
<path d="M18.0001 21.945C17.9101 21.93 17.8051 21.93 17.7151 21.945C15.6451 21.87 13.9951 20.175 13.9951 18.075C13.9951 15.93 15.7201 14.205 17.8651 14.205C20.0101 14.205 21.7351 15.945 21.7351 18.075C21.7201 20.175 20.0701 21.885 18.0001 21.945Z" stroke="white" stroke-width="3" stroke-linecap="round" stroke-linejoin="round"/>
<path d="M13.6351 26.67C11.5201 28.08 11.5201 30.39 13.6351 31.8C16.0351 33.405 19.9651 33.405 22.3651 31.8C24.4801 30.39 24.4801 28.08 22.3651 26.67C19.9801 25.08 16.0351 25.08 13.6351 26.67Z" stroke="white" stroke-width="3" stroke-linecap="round" stroke-linejoin="round"/>
</svg>
