<svg width="22" height="22" viewBox="0 0 22 22" fill="none" xmlns="http://www.w3.org/2000/svg">
<path d="M9 1V0.25V1ZM13 1V1.75V1ZM17 5H16.25H17ZM5 5H4.25H5ZM5.58579 1.58579L5.05546 1.05546L5.05546 1.05546L5.58579 1.58579ZM1 14.5H1.75H1ZM1.13815 11.8328L0.408873 11.6577L1.13815 11.8328ZM7.5 8V7.25V8ZM4.83277 8.13815L5.00786 8.86743L4.83277 8.13815ZM7.5 21V21.75V21ZM4.83277 20.8618L4.65769 21.5911L4.83277 20.8618ZM1.13815 17.1672L1.86743 16.9921L1.13815 17.1672ZM21 14.5H20.25H21ZM20.8618 17.1672L21.5911 17.3423L20.8618 17.1672ZM14.5 21V20.25V21ZM17.1672 20.8619L16.9921 20.1326L17.1672 20.8619ZM20.8618 11.8328L20.1326 12.0079L20.8618 11.8328ZM14.5 8V8.75V8ZM17.1672 8.13815L17.3423 7.40887L17.1672 8.13815ZM19.1031 12.2995L18.9861 11.5587L19.1031 12.2995ZM3.88791 12.3582L3.99916 11.6165H3.99916L3.88791 12.3582ZM1.5 12L1.38473 12.7411L1.38875 12.7417L1.5 12ZM1.11429 11.94L0.379637 11.7891L1.11429 11.94ZM9 1.75L13 1.75V0.25L9 0.25V1.75ZM16.25 5V8H17.75V5H16.25ZM5.75 8V5H4.25V8H5.75ZM9 0.25C8.07839 0.25 7.31174 0.248407 6.70552 0.329911C6.07773 0.414316 5.51093 0.599986 5.05546 1.05546L6.11612 2.11612C6.24643 1.9858 6.44393 1.87858 6.90539 1.81654C7.38843 1.75159 8.03599 1.75 9 1.75V0.25ZM5.75 5C5.75 4.03599 5.75159 3.38843 5.81654 2.90539C5.87858 2.44393 5.9858 2.24643 6.11612 2.11612L5.05546 1.05546C4.59999 1.51093 4.41432 2.07773 4.32991 2.70552C4.24841 3.31174 4.25 4.07839 4.25 5H5.75ZM13 1.75C13.964 1.75 14.6116 1.75159 15.0946 1.81654C15.5561 1.87858 15.7536 1.9858 15.8839 2.11612L16.9445 1.05546C16.4891 0.599987 15.9223 0.414316 15.2945 0.329911C14.6883 0.248407 13.9216 0.25 13 0.25V1.75ZM17.75 5C17.75 4.07839 17.7516 3.31174 17.6701 2.70552C17.5857 2.07773 17.4 1.51093 16.9445 1.05546L15.8839 2.11612C16.0142 2.24643 16.1214 2.44393 16.1835 2.90539C16.2484 3.38843 16.25 4.03599 16.25 5H17.75ZM14.5 20.25H7.5V21.75H14.5V20.25ZM7.5 8.75L14.5 8.75V7.25L7.5 7.25V8.75ZM1.86743 12.0079C2.24051 10.4538 3.45385 9.24051 5.00786 8.86743L4.65769 7.40887C2.55521 7.91363 0.913634 9.55521 0.408873 11.6577L1.86743 12.0079ZM7.5 20.25C6.06216 20.25 5.47522 20.2448 5.00786 20.1326L4.65769 21.5911C5.3412 21.7552 6.14879 21.75 7.5 21.75V20.25ZM0.25 14.5C0.25 15.8512 0.244776 16.6588 0.408873 17.3423L1.86743 16.9921C1.75522 16.5248 1.75 15.9378 1.75 14.5H0.25ZM5.00786 20.1326C3.45385 19.7595 2.24051 18.5462 1.86743 16.9921L0.408873 17.3423C0.913634 19.4448 2.55521 21.0864 4.65769 21.5911L5.00786 20.1326ZM20.25 14.5C20.25 15.9378 20.2448 16.5248 20.1326 16.9921L21.5911 17.3423C21.7552 16.6588 21.75 15.8512 21.75 14.5H20.25ZM14.5 21.75C15.8512 21.75 16.6588 21.7552 17.3423 21.5911L16.9921 20.1326C16.5248 20.2448 15.9378 20.25 14.5 20.25V21.75ZM20.1326 16.9921C19.7595 18.5462 18.5462 19.7595 16.9921 20.1326L17.3423 21.5911C19.4448 21.0864 21.0864 19.4448 21.5911 17.3423L20.1326 16.9921ZM21.5911 11.6577C21.0864 9.55521 19.4448 7.91363 17.3423 7.40887L16.9921 8.86743C18.5462 9.24051 19.7595 10.4538 20.1326 12.0079L21.5911 11.6577ZM3.99916 11.6165L1.61126 11.2583L1.38875 12.7417L3.77665 13.0999L3.99916 11.6165ZM18.9861 11.5587C14.0226 12.3424 8.9685 12.3619 3.99916 11.6165L3.77665 13.0999C8.89734 13.868 14.1054 13.8479 19.22 13.0403L18.9861 11.5587ZM1.75 14.5C1.75 13.1534 1.75388 12.5536 1.84894 12.091L0.379637 11.7891C0.246116 12.4389 0.25 13.2284 0.25 14.5H1.75ZM1.84894 12.091C1.85478 12.0625 1.86094 12.0349 1.86743 12.0079L0.408873 11.6577C0.398442 11.7011 0.388713 11.7449 0.379637 11.7891L1.84894 12.091ZM1.61527 11.2589L1.22956 11.1989L0.999018 12.6811L1.38473 12.7411L1.61527 11.2589ZM20.7834 11.2749L18.9861 11.5587L19.22 13.0403L21.0174 12.7565L20.7834 11.2749ZM21.75 14.5C21.75 13.283 21.7531 12.5087 21.6381 11.8807L20.1627 12.1508C20.2469 12.6109 20.25 13.2162 20.25 14.5H21.75ZM21.6381 11.8807C21.6243 11.8052 21.6087 11.731 21.5911 11.6577L20.1326 12.0079C20.1435 12.0534 20.1535 12.1008 20.1627 12.1508L21.6381 11.8807ZM14.5 8.75C15.7967 8.75 16.4011 8.75325 16.8617 8.83965L17.1383 7.36536C16.5059 7.24675 15.7282 7.25 14.5 7.25V8.75ZM16.8617 8.83965C16.9071 8.84816 16.9504 8.8574 16.9921 8.86743L17.3423 7.40887C17.2751 7.39274 17.2072 7.3783 17.1383 7.36536L16.8617 8.83965ZM16.25 8V8.10251H17.75V8H16.25ZM7.5 7.25C6.27177 7.25 5.49413 7.24675 4.86174 7.36536L5.13826 8.83965C5.59889 8.75325 6.20326 8.75 7.5 8.75V7.25ZM4.86174 7.36536C4.79276 7.3783 4.72489 7.39274 4.65769 7.40887L5.00786 8.86743C5.04963 8.8574 5.09292 8.84816 5.13826 8.83965L4.86174 7.36536ZM4.25 8V8.1025H5.75V8H4.25Z" fill="#838383"/>
</svg>
