<svg width="12" height="13" viewBox="0 0 12 13" fill="none" xmlns="http://www.w3.org/2000/svg">
<path d="M4.4169 2.49733C4.4169 3.4386 3.6202 4.24467 2.58345 4.24467C1.54669 4.24467 0.75 3.4386 0.75 2.49733C0.75 1.55607 1.54669 0.75 2.58345 0.75C3.6202 0.75 4.4169 1.55607 4.4169 2.49733Z" stroke="#CC284F" stroke-width="1.5"/>
<path d="M10.8739 9.98928C10.8739 10.9305 10.0772 11.7366 9.04048 11.7366C8.00372 11.7366 7.20703 10.9305 7.20703 9.98928C7.20703 9.04801 8.00372 8.24194 9.04048 8.24194C10.0772 8.24194 10.8739 9.04801 10.8739 9.98928Z" stroke="#CC284F" stroke-width="1.5"/>
<line y1="-0.75" x2="14.3727" y2="-0.75" transform="matrix(0.718988 -0.695022 0.718988 0.695022 1.29297 11.238)" stroke="#CC284F" stroke-width="1.5"/>
</svg>
