<svg width="21" height="20" viewBox="0 0 21 20" fill="none" xmlns="http://www.w3.org/2000/svg">
<path d="M13.3672 8.125C13.3672 8.9538 13.6964 9.74866 14.2825 10.3347C14.8685 10.9208 15.6634 11.25 16.4922 11.25C17.321 11.25 18.1158 10.9208 18.7019 10.3347C19.2879 9.74866 19.6172 8.9538 19.6172 8.125C19.6173 8.02805 19.5948 7.9324 19.5516 7.84563L17.0516 2.84562C16.9843 2.71095 16.8708 2.60507 16.7317 2.54743C16.5927 2.48979 16.4375 2.48427 16.2947 2.53188L12.3378 3.85062C12.1186 3.57199 11.8256 3.36043 11.4922 3.24V1.875C11.4922 1.52982 11.2124 1.25 10.8672 1.25C10.522 1.25 10.2422 1.52982 10.2422 1.875V3.24C9.88364 3.36677 9.5722 3.59974 9.34934 3.9079C9.12649 4.21606 9.00278 4.58479 8.99469 4.965L5.04469 6.28187C4.88753 6.33425 4.7576 6.44688 4.68344 6.595L2.18344 11.595C2.13988 11.6819 2.11719 11.7778 2.11719 11.875C2.11719 12.7038 2.44643 13.4987 3.03248 14.0847C3.61853 14.6708 4.41339 15 5.24219 15C6.07099 15 6.86585 14.6708 7.4519 14.0847C8.03795 13.4987 8.36719 12.7038 8.36719 11.875C8.36728 11.778 8.34481 11.6824 8.30156 11.5956L6.12344 7.24L9.39656 6.14875C9.6157 6.42746 9.9087 6.63903 10.2422 6.75937V17.5H5.24219C4.89701 17.5 4.61719 17.7798 4.61719 18.125C4.61719 18.4702 4.89701 18.75 5.24219 18.75H16.4922C16.8374 18.75 17.1172 18.4702 17.1172 18.125C17.1172 17.7798 16.8374 17.5 16.4922 17.5H11.4922V6.76C11.8507 6.63323 12.1622 6.40026 12.385 6.0921C12.6079 5.78395 12.7316 5.41521 12.7397 5.035L15.2584 4.195L13.4334 7.845C13.3899 7.93191 13.3672 8.02778 13.3672 8.125ZM5.24219 13.75C4.85579 13.7486 4.47929 13.6278 4.1643 13.404C3.84931 13.1802 3.61126 12.8644 3.48281 12.5H7.00156C6.87311 12.8644 6.63507 13.1802 6.32008 13.404C6.00509 13.6278 5.62858 13.7486 5.24219 13.75ZM6.73094 11.25H3.75344L5.24219 8.2725L6.73094 11.25ZM10.8672 5.625C10.7436 5.625 10.6227 5.58834 10.52 5.51967C10.4172 5.45099 10.3371 5.35338 10.2898 5.23918C10.2425 5.12497 10.2301 4.99931 10.2542 4.87807C10.2783 4.75683 10.3378 4.64547 10.4252 4.55806C10.5127 4.47065 10.624 4.41112 10.7453 4.38701C10.8665 4.36289 10.9922 4.37527 11.1064 4.42258C11.2206 4.46988 11.3182 4.54999 11.3869 4.65277C11.4555 4.75555 11.4922 4.87639 11.4922 5C11.4922 5.16576 11.4263 5.32473 11.3091 5.44194C11.1919 5.55915 11.0329 5.625 10.8672 5.625ZM16.4922 10C16.1058 9.99863 15.7293 9.87776 15.4143 9.65397C15.0993 9.43018 14.8613 9.11442 14.7328 8.75H18.2516C18.1231 9.11442 17.8851 9.43018 17.5701 9.65397C17.2551 9.87776 16.8786 9.99863 16.4922 10ZM16.4922 4.5225L17.9809 7.5H15.0034L16.4922 4.5225Z" fill="#C0C0C0"/>
</svg>
