<svg width="26" height="26" viewBox="0 0 26 26" fill="none" xmlns="http://www.w3.org/2000/svg">
<path d="M12.2714 10.6774C12.2714 11.5437 11.54 12.2747 10.6018 12.2747C9.66355 12.2747 8.93213 11.5437 8.93213 10.6774C8.93213 9.81101 9.66355 9.08002 10.6018 9.08002C11.54 9.08002 12.2714 9.81101 12.2714 10.6774Z" stroke="white"/>
<path d="M17.6958 16.9693C17.6958 17.8357 16.9643 18.5667 16.0261 18.5667C15.0879 18.5667 14.3564 17.8357 14.3564 16.9693C14.3564 16.103 15.0879 15.372 16.0261 15.372C16.9643 15.372 17.6958 16.103 17.6958 16.9693Z" stroke="white"/>
<line y1="-0.5" x2="12.0706" y2="-0.5" transform="matrix(0.718988 -0.695022 0.718988 0.695022 9.51709 18.018)" stroke="white"/>
<path d="M3.19862 17.4095L2.87863 17.7937L3.19862 17.4095L2.78328 17.0636C2.2656 16.6324 2.0989 15.909 2.37568 15.2947L2.5759 14.8504C2.87019 14.1973 2.87019 13.4494 2.5759 12.7963L2.37569 12.3519C2.0989 11.7377 2.2656 11.0143 2.78329 10.5831L3.19862 10.2372C3.74255 9.78417 4.06892 9.12178 4.09674 8.41445L4.11708 7.89708C4.14307 7.23622 4.59882 6.67036 5.23897 6.50416L5.85457 6.34433C6.52189 6.17107 7.08804 5.72992 7.41915 5.12518L7.71062 4.59284C8.02099 4.02597 8.65955 3.72163 9.29535 3.83754L9.98455 3.96319C10.6488 4.08429 11.3338 3.93155 11.8837 3.53973L11.5935 3.13253L11.8837 3.53973L12.4435 3.14086C12.9644 2.76967 13.6634 2.76967 14.1844 3.14086L14.7441 3.53973C15.294 3.93155 15.979 4.08429 16.6433 3.96319L17.3325 3.83754C17.9683 3.72163 18.6068 4.02597 18.9172 4.59284L19.2087 5.12518C19.5398 5.72992 20.1059 6.17107 20.7733 6.34433L21.3889 6.50416C22.029 6.67036 22.4848 7.23622 22.5108 7.89708L22.5311 8.41445C22.5589 9.12178 22.8853 9.78417 23.4292 10.2372L23.8445 10.5831C24.3622 11.0143 24.5289 11.7377 24.2521 12.3519L24.0519 12.7963C23.7576 13.4494 23.7576 14.1973 24.0519 14.8504L24.2521 15.2947C24.5289 15.909 24.3622 16.6324 23.8445 17.0636L23.4292 17.4095C22.8853 17.8625 22.5589 18.5249 22.5311 19.2322L22.5108 19.7496C22.4848 20.4105 22.029 20.9763 21.3889 21.1425L20.7733 21.3024C20.1059 21.4756 19.5398 21.9168 19.2087 22.5215L18.9172 23.0538C18.6068 23.6207 17.9683 23.9251 17.3325 23.8091L16.6433 23.6835C15.979 23.5624 15.294 23.7151 14.7442 24.107L15.0343 24.5142L14.7441 24.107L14.1844 24.5058C13.6634 24.877 12.9644 24.877 12.4435 24.5058L11.8837 24.107C11.3338 23.7151 10.6488 23.5624 9.98455 23.6835L9.29534 23.8091C8.65955 23.9251 8.02099 23.6207 7.71062 23.0538L7.41915 22.5215C7.08804 21.9168 6.52189 21.4756 5.85457 21.3024L5.23897 21.1425C4.59882 20.9763 4.14307 20.4105 4.11708 19.7496L4.09674 19.2322C4.06892 18.5249 3.74255 17.8625 3.19862 17.4095Z" stroke="white"/>
</svg>
