<svg width="36" height="36" viewBox="0 0 36 36" fill="none" xmlns="http://www.w3.org/2000/svg">
<path d="M12.5703 18.0001L16.1853 21.6302L23.4303 14.3701" stroke="white" stroke-width="3" stroke-linecap="round" stroke-linejoin="round"/>
<path d="M16.1253 3.67498C17.1603 2.78998 18.8553 2.78998 19.9053 3.67498L22.2753 5.71499C22.7253 6.10499 23.5653 6.41999 24.1653 6.41999H26.7153C28.3053 6.41999 29.6103 7.72499 29.6103 9.31499V11.865C29.6103 12.45 29.9253 13.305 30.3153 13.755L32.3553 16.125C33.2403 17.16 33.2403 18.855 32.3553 19.905L30.3153 22.275C29.9253 22.725 29.6103 23.565 29.6103 24.165V26.715C29.6103 28.305 28.3053 29.61 26.7153 29.61H24.1653C23.5803 29.61 22.7253 29.925 22.2753 30.315L19.9053 32.355C18.8703 33.24 17.1753 33.24 16.1253 32.355L13.7553 30.315C13.3053 29.925 12.4653 29.61 11.8653 29.61H9.27031C7.68031 29.61 6.37531 28.305 6.37531 26.715V24.15C6.37531 23.565 6.06031 22.725 5.68531 22.275L3.66031 19.89C2.79031 18.855 2.79031 17.175 3.66031 16.14L5.68531 13.755C6.06031 13.305 6.37531 12.465 6.37531 11.88V9.29999C6.37531 7.70999 7.68031 6.40499 9.27031 6.40499H11.8653C12.4503 6.40499 13.3053 6.08999 13.7553 5.69999L16.1253 3.67498Z" stroke="white" stroke-width="3" stroke-linecap="round" stroke-linejoin="round"/>
</svg>
