<svg width="24" height="24" viewBox="0 0 24 24" fill="none" xmlns="http://www.w3.org/2000/svg">
<path d="M4.38668 21.2632L4.77855 20.6237L4.38668 21.2632ZM2.73597 19.6125L3.37545 19.2206H3.37545L2.73597 19.6125ZM21.2624 19.6125L20.6229 19.2206L21.2624 19.6125ZM19.6117 21.2632L19.2198 20.6237L19.6117 21.2632ZM19.6117 5.7368L19.2198 6.37628L19.6117 5.7368ZM21.2624 7.38751L20.6229 7.77938L21.2624 7.38751ZM4.38668 5.7368L4.77855 6.37628H4.77855L4.38668 5.7368ZM2.73597 7.38751L3.37545 7.77938H3.37545L2.73597 7.38751ZM18.476 2.54645L19.0172 2.02728V2.02728L18.476 2.54645ZM3.84339 2.89079L4.29624 3.48865V3.48865L3.84339 2.89079ZM2.85362 3.92267L3.46894 4.35148L2.85362 3.92267ZM18.9992 5.13032H19.7492L19.7492 5.12662L18.9992 5.13032ZM18.3628 13.6137C18.777 13.6137 19.1128 13.2779 19.1128 12.8637C19.1128 12.4494 18.777 12.1137 18.3628 12.1137V13.6137ZM15.6355 12.1137C15.2213 12.1137 14.8855 12.4494 14.8855 12.8637C14.8855 13.2779 15.2213 13.6137 15.6355 13.6137V12.1137ZM10.4992 5.75H13.4992V4.25H10.4992V5.75ZM13.4992 21.25H10.4992V22.75H13.4992V21.25ZM10.4992 21.25C8.84794 21.25 7.66218 21.2492 6.73726 21.1613C5.82351 21.0744 5.24208 20.9078 4.77855 20.6237L3.99481 21.9027C4.73363 22.3554 5.57173 22.5572 6.59528 22.6545C7.60767 22.7508 8.87698 22.75 10.4992 22.75V21.25ZM1.24917 13.5C1.24917 15.1222 1.24838 16.3915 1.34464 17.4039C1.44196 18.4274 1.64374 19.2655 2.09649 20.0044L3.37545 19.2206C3.0914 18.7571 2.92479 18.1757 2.83791 17.2619C2.74997 16.337 2.74917 15.1512 2.74917 13.5H1.24917ZM4.77855 20.6237C4.20669 20.2733 3.72589 19.7925 3.37545 19.2206L2.09649 20.0044C2.57061 20.7781 3.22111 21.4286 3.99481 21.9027L4.77855 20.6237ZM13.4992 22.75C15.1214 22.75 16.3907 22.7508 17.4031 22.6545C18.4266 22.5572 19.2647 22.3554 20.0035 21.9027L19.2198 20.6237C18.7563 20.9078 18.1748 21.0744 17.2611 21.1613C16.3362 21.2492 15.1504 21.25 13.4992 21.25V22.75ZM20.6229 19.2206C20.2725 19.7925 19.7917 20.2733 19.2198 20.6237L20.0035 21.9027C20.7772 21.4286 21.4277 20.7781 21.9019 20.0044L20.6229 19.2206ZM19.2198 6.37628C19.7917 6.72672 20.2725 7.20752 20.6229 7.77938L21.9019 6.99563C21.4277 6.22194 20.7772 5.57144 20.0035 5.09732L19.2198 6.37628ZM10.4992 4.25C8.87698 4.25 7.60767 4.24921 6.59528 4.34547C5.57173 4.44279 4.73363 4.64457 3.99481 5.09732L4.77855 6.37628C5.24208 6.09223 5.82351 5.92561 6.73726 5.83873C7.66218 5.75079 8.84794 5.75 10.4992 5.75V4.25ZM2.74917 13.5C2.74917 11.8488 2.74997 10.663 2.83791 9.73809C2.92479 8.82434 3.0914 8.24291 3.37545 7.77938L2.09649 6.99563C1.64374 7.73445 1.44196 8.57256 1.34464 9.59611C1.24838 10.6085 1.24917 11.8778 1.24917 13.5H2.74917ZM3.99481 5.09732C3.22111 5.57144 2.57061 6.22194 2.09649 6.99563L3.37545 7.77938C3.72589 7.20752 4.20669 6.72672 4.77855 6.37628L3.99481 5.09732ZM10.0522 2.75H15.421V1.25H10.0522V2.75ZM15.421 2.75C16.2867 2.75 16.8573 2.75173 17.2805 2.81105C17.6788 2.86687 17.8338 2.96039 17.9347 3.06562L19.0172 2.02728C18.594 1.58606 18.0651 1.40635 17.4887 1.32557C16.9373 1.24827 16.2425 1.25 15.421 1.25V2.75ZM10.0522 1.25C8.39205 1.25 7.08411 1.24888 6.04645 1.36609C4.99284 1.4851 4.12886 1.7337 3.39055 2.29293L4.29624 3.48865C4.73397 3.15709 5.29681 2.9603 6.21481 2.85661C7.14877 2.75112 8.35724 2.75 10.0522 2.75V1.25ZM2.74917 10.3956C2.74917 8.63063 2.75012 7.36468 2.85196 6.38472C2.95253 5.41704 3.14467 4.81679 3.46894 4.35148L2.2383 3.49385C1.70812 4.25462 1.47304 5.14188 1.36 6.22968C1.24823 7.3052 1.24917 8.6627 1.24917 10.3956H2.74917ZM3.39055 2.29293C2.94723 2.62872 2.55862 3.03422 2.2383 3.49385L3.46894 4.35148C3.70052 4.01918 3.97993 3.72823 4.29624 3.48865L3.39055 2.29293ZM19.7492 5.12662C19.7458 4.44995 19.7314 3.86358 19.6467 3.37747C19.5586 2.87228 19.3846 2.41025 19.0172 2.02728L17.9347 3.06562C18.028 3.16295 18.1123 3.30988 18.1689 3.63506C18.2289 3.97932 18.2458 4.44473 18.2492 5.13403L19.7492 5.12662ZM1.24917 10.3956C1.24917 11.3713 1.22901 12.2642 1.24943 13.0202L2.74888 12.9798C2.72913 12.2482 2.74917 11.424 2.74917 10.3956H1.24917ZM21.4991 14.8409H15.6355V16.3409H21.4991V14.8409ZM12.1583 12.8637C12.1583 14.7841 13.7151 16.3409 15.6355 16.3409V14.8409C14.5435 14.8409 13.6583 13.9557 13.6583 12.8637H12.1583ZM13.6583 12.8637C13.6583 11.7716 14.5435 10.8864 15.6355 10.8864V9.38638C13.7151 9.38638 12.1583 10.9432 12.1583 12.8637H13.6583ZM18.3628 12.1137H15.6355V13.6137H18.3628V12.1137ZM13.4992 5.75C14.8838 5.75 15.9441 5.75032 16.8027 5.8033C17.6605 5.85623 18.2602 5.95942 18.7329 6.13895L19.2654 4.73667C18.5854 4.47839 17.8111 4.36267 16.8951 4.30615C15.9799 4.24968 14.8666 4.25 13.4992 4.25V5.75ZM18.7329 6.13895C18.91 6.20619 19.0702 6.2846 19.2198 6.37628L20.0035 5.09732C19.7701 4.95427 19.5252 4.83534 19.2654 4.73667L18.7329 6.13895ZM18.2492 5.13032V5.43781H19.7492V5.13032H18.2492ZM15.6355 10.8864H21.9436V9.38638H15.6355V10.8864ZM22.7492 13.5C22.7492 12.1255 22.7495 11.0077 22.6921 10.0896L21.195 10.1832C21.2488 11.0439 21.2492 12.108 21.2492 13.5H22.7492ZM22.6921 10.0896C22.6137 8.83476 22.4239 7.84749 21.9019 6.99563L20.6229 7.77938C20.9518 8.3161 21.1215 9.00707 21.195 10.1832L22.6921 10.0896ZM21.2492 13.5C21.2492 14.2875 21.2492 14.9722 21.2391 15.5785L22.7389 15.6034C22.7492 14.9821 22.7492 14.2839 22.7492 13.5H21.2492ZM21.2391 15.5785C21.2066 17.537 21.0626 18.5031 20.6229 19.2206L21.9019 20.0044C22.582 18.8944 22.7069 17.5313 22.7389 15.6034L21.2391 15.5785ZM21.4991 16.3409H21.989V14.8409H21.4991V16.3409Z" fill="#292D32"/>
</svg>
