<svg width="38" height="38" viewBox="0 0 38 38" fill="none" xmlns="http://www.w3.org/2000/svg">
<path d="M9.36724 33.3911L8.76998 33.0004L8.09002 33.2173C7.67666 33.3492 7.12251 33.5214 6.49304 33.717C5.6119 33.9907 4.58316 34.3103 3.5864 34.6295C3.69996 34.2695 3.81574 33.9016 3.92998 33.5356C4.36589 32.139 4.8171 30.656 4.93122 29.9866L5.03554 29.3748L4.67707 28.8681C2.67573 26.0395 1.5 22.5873 1.5 18.856C1.5 9.27056 9.27056 1.5 18.856 1.5C28.4415 1.5 36.212 9.27056 36.212 18.856C36.212 28.4415 28.4415 36.212 18.856 36.212C15.3514 36.212 12.0936 35.1749 9.36724 33.3911Z" stroke="#292D32" stroke-width="3"/>
<path d="M28.2838 24.8242C28.2838 25.1636 28.2082 25.5124 28.0477 25.8518C27.8872 26.1912 27.6795 26.5118 27.4056 26.8135C26.943 27.3226 26.4331 27.6903 25.8571 27.926C25.2906 28.1617 24.6768 28.2842 24.0159 28.2842C23.0528 28.2842 22.0236 28.058 20.9377 27.596C19.8519 27.134 18.766 26.5118 17.6896 25.7293C16.6038 24.9373 15.5746 24.0605 14.5926 23.0894C13.6201 22.1089 12.7419 21.0812 11.9582 20.0065C11.184 18.9317 10.5608 17.8569 10.1076 16.7915C9.65435 15.7167 9.42773 14.6891 9.42773 13.7085C9.42773 13.0674 9.54104 12.4546 9.76765 11.8889C9.99426 11.3138 10.3531 10.7859 10.8535 10.3145C11.4578 9.72049 12.1188 9.42822 12.8175 9.42822C13.0819 9.42822 13.3462 9.48479 13.5823 9.59793C13.8278 9.71106 14.045 9.88077 14.2149 10.1259L16.4055 13.2089C16.5755 13.4446 16.6982 13.6614 16.7832 13.8688C16.8682 14.0668 16.9154 14.2648 16.9154 14.4439C16.9154 14.6702 16.8493 14.8965 16.7171 15.1133C16.5943 15.3302 16.4149 15.5564 16.1883 15.7827L15.4707 16.5275C15.3669 16.6312 15.3197 16.7538 15.3197 16.9046C15.3197 16.9801 15.3291 17.0461 15.348 17.1215C15.3763 17.1969 15.4046 17.2535 15.4235 17.31C15.5935 17.6212 15.8862 18.0266 16.3016 18.5168C16.7265 19.0071 17.1798 19.5068 17.6708 20.0065C18.1806 20.5061 18.6716 20.9681 19.1721 21.3924C19.6631 21.8072 20.0691 22.09 20.3901 22.2597C20.4373 22.2786 20.494 22.3069 20.5601 22.3352C20.6356 22.3635 20.7111 22.3729 20.7961 22.3729C20.9566 22.3729 21.0794 22.3163 21.1832 22.2126L21.9008 21.5055C22.1369 21.2698 22.3635 21.0907 22.5807 20.9775C22.7979 20.8455 23.015 20.7795 23.2511 20.7795C23.4305 20.7795 23.6193 20.8173 23.8271 20.9021C24.0348 20.987 24.252 21.1095 24.488 21.2698L27.6134 23.4854C27.8589 23.6551 28.0288 23.8531 28.1327 24.0888C28.2271 24.3245 28.2838 24.5602 28.2838 24.8242Z" fill="#292D32"/>
</svg>
