<svg width="20" height="30" viewBox="0 0 20 30" fill="none" xmlns="http://www.w3.org/2000/svg">
<path d="M9.99943 14.3703C12.7112 14.3703 14.9173 12.1644 14.9173 9.45307C14.9173 6.74171 12.7112 4.53589 9.99943 4.53589C7.28771 4.53589 5.08154 6.74171 5.08154 9.45307C5.08154 12.1644 7.28771 14.3703 9.99943 14.3703ZM9.99943 6.29347C11.7419 6.29347 13.1595 7.71091 13.1595 9.45307C13.1595 11.1953 11.742 12.6127 9.99943 12.6127C8.25691 12.6127 6.83936 11.1953 6.83936 9.45307C6.83936 7.71091 8.25697 6.29347 9.99943 6.29347Z" fill="#333333"/>
<path d="M4.64484 18.2889C5.97697 20.0923 5.44177 19.391 9.27878 24.8692C9.62753 25.369 10.3692 25.3714 10.7199 24.8699C14.5743 19.3657 14.0439 20.0629 15.3544 18.2889C16.6818 16.4917 18.0545 14.6333 18.8068 12.4556C19.8955 9.30322 19.4249 6.1841 17.4817 3.67277C17.4817 3.67277 17.4817 3.67271 17.4816 3.67271C15.7017 1.37297 12.9046 0 9.9996 0C7.09458 0 4.29755 1.37297 2.51753 3.67283C0.574388 6.18416 0.103763 9.30334 1.19255 12.4557C1.94466 14.6334 3.3174 16.4917 4.64484 18.2889ZM3.90773 4.74838C5.35722 2.87566 7.63458 1.75758 9.9996 1.75758C12.3646 1.75758 14.642 2.87566 16.0915 4.74838L16.0914 4.74832C17.6597 6.7752 18.0339 9.30867 17.1452 11.882C16.4808 13.8055 15.1893 15.5539 13.9404 17.2447C12.968 18.5612 13.259 18.1585 9.9996 22.8306C6.74361 18.1632 7.03095 18.5607 6.05882 17.2447C4.8099 15.5539 3.51843 13.8054 2.85404 11.882C1.96529 9.30861 2.33947 6.7752 3.90773 4.74838Z" fill="#333333"/>
<path d="M5.3666 22.0995C5.10739 21.6893 4.56457 21.5666 4.15418 21.8259L1.65516 23.4042C1.11 23.7485 1.10948 24.5455 1.65516 24.8902L9.53016 29.8641C9.81686 30.0452 10.1822 30.0451 10.4689 29.8641L18.3439 24.8902C18.8891 24.5459 18.8896 23.7489 18.3439 23.4042L15.8449 21.8259C15.4344 21.5667 14.8916 21.6893 14.6324 22.0995C14.3732 22.5099 14.4957 23.0526 14.9061 23.3118L16.2288 24.1472L9.99949 28.0817L3.77022 24.1472L5.09291 23.3118C5.5033 23.0527 5.62582 22.5099 5.3666 22.0995Z" fill="#333333"/>
</svg>
