<svg width="28" height="30" viewBox="0 0 28 30" fill="none" xmlns="http://www.w3.org/2000/svg">
<path d="M3.45312 21.1523H6.08984V22.9102H7.84766V10.6055H6.08984V12.3633H4.33203V11.4844C4.33203 6.12111 8.66908 1.75781 14 1.75781C19.3309 1.75781 23.668 6.12111 23.668 11.4844V12.3633H21.9102V10.6055H20.1523V22.9102H21.9102V21.1523H23.668V23.8477C23.668 25.3015 22.4851 26.4844 21.0312 26.4844H16.4855C16.1227 25.4614 15.1458 24.7266 14 24.7266C12.5461 24.7266 11.3633 25.9094 11.3633 27.3633C11.3633 28.8172 12.5461 30 14 30C15.1458 30 16.1227 29.2652 16.4855 28.2422H21.0312C23.4544 28.2422 25.4258 26.2708 25.4258 23.8477V21.0012C26.4488 20.6384 27.1836 19.6614 27.1836 18.5156V15C27.1836 13.8542 26.4488 12.8773 25.4258 12.5145V11.4844C25.4258 5.15186 20.3002 0 14 0C7.69982 0 2.57422 5.15186 2.57422 11.4844V12.5145C1.55123 12.8773 0.816406 13.8543 0.816406 15.0001V18.5157C0.816406 19.9695 1.99924 21.1523 3.45312 21.1523ZM14 28.2422C13.5154 28.2422 13.1211 27.8479 13.1211 27.3633C13.1211 26.8787 13.5154 26.4844 14 26.4844C14.4846 26.4844 14.8789 26.8787 14.8789 27.3633C14.8789 27.8479 14.4846 28.2422 14 28.2422ZM25.4258 15V18.5156C25.4258 19.0003 25.0315 19.3945 24.5469 19.3945H21.9102V14.1211H24.5469C25.0315 14.1211 25.4258 14.5154 25.4258 15ZM2.57422 15C2.57422 14.5154 2.9685 14.1211 3.45312 14.1211H6.08984V19.3945H3.45312C2.9685 19.3945 2.57422 19.0003 2.57422 18.5156V15Z" fill="#333333"/>
</svg>
