<svg width="42" height="25" viewBox="0 0 42 25" fill="none" xmlns="http://www.w3.org/2000/svg">
<path d="M8.07474 23.3131C9.72784 23.3131 11.0679 21.973 11.0679 20.3199C11.0679 18.6668 9.72784 17.3267 8.07474 17.3267C6.42164 17.3267 5.08154 18.6668 5.08154 20.3199C5.08154 21.973 6.42164 23.3131 8.07474 23.3131Z" stroke="white" stroke-width="1.5" stroke-linecap="round" stroke-linejoin="round"/>
<path d="M16.2381 23.3131C17.8912 23.3131 19.2313 21.973 19.2313 20.3199C19.2313 18.6668 17.8912 17.3267 16.2381 17.3267C14.585 17.3267 13.2449 18.6668 13.2449 20.3199C13.2449 21.973 14.585 23.3131 16.2381 23.3131Z" stroke="white" stroke-width="1.5" stroke-linecap="round" stroke-linejoin="round"/>
<path d="M35.8301 23.3131C37.4832 23.3131 38.8233 21.973 38.8233 20.3199C38.8233 18.6668 37.4832 17.3267 35.8301 17.3267C34.177 17.3267 32.8369 18.6668 32.8369 20.3199C32.8369 21.973 34.177 23.3131 35.8301 23.3131Z" stroke="white" stroke-width="1.5" stroke-linecap="round" stroke-linejoin="round"/>
<path d="M11.2041 20.5916H13.2449M5.08163 20.5916H1V14.061H27.1224V20.5916H19.3673" stroke="white" stroke-width="1.5" stroke-linejoin="round"/>
<rect x="1" y="1" width="26.1224" height="9.79592" stroke="white" stroke-width="1.5" stroke-linejoin="round"/>
<path d="M40.9999 14.0612V20.5918H38.551M40.9999 14.0612H30.3877M40.9999 14.0612V9.57143V5.08163V3.44898L35.6938 1H30.3877V14.0612M30.3877 14.0612V20.5918H32.8367" stroke="white" stroke-width="1.5" stroke-linejoin="round"/>
<path d="M6.30591 10.7959V14.0612" stroke="white" stroke-width="1.5" stroke-linejoin="round"/>
<path d="M22.2244 10.7959V14.0612" stroke="white" stroke-width="1.5" stroke-linejoin="round"/>
<path d="M27.1223 17.3267H30.3876" stroke="white" stroke-width="1.5" stroke-linejoin="round"/>
</svg>
