<svg width="27" height="36" viewBox="0 0 27 36" fill="none" xmlns="http://www.w3.org/2000/svg">
<path d="M6.42481 26.2795C8.27607 28.7856 7.53231 27.811 12.8646 35.4242C13.3493 36.1188 14.3799 36.1221 14.8674 35.4252C20.2238 27.7759 19.4868 28.7448 21.3079 26.2794C23.1527 23.7819 25.0604 21.1993 26.1057 18.173C27.6188 13.792 26.9647 9.45737 24.2643 5.96736C24.2642 5.96736 24.2642 5.96728 24.2642 5.96728C21.7905 2.77131 17.9035 0.863281 13.8664 0.863281C9.82924 0.863281 5.94218 2.77131 3.46848 5.96744C0.768075 9.45745 0.114044 13.7922 1.62714 18.1731C2.67235 21.1994 4.58005 23.782 6.42481 26.2795ZM5.40044 7.46214C7.41481 4.85961 10.5797 3.3058 13.8664 3.3058C17.153 3.3058 20.3179 4.85961 22.3323 7.46214L22.3321 7.46206C24.5117 10.2788 25.0317 13.7996 23.7966 17.3758C22.8733 20.0489 21.0785 22.4786 19.3429 24.8284C17.9915 26.6578 18.396 26.0983 13.8664 32.5912C9.34148 26.1048 9.7408 26.6573 8.38983 24.8284C6.65419 22.4786 4.85943 20.0488 3.93612 17.3758C2.70102 13.7995 3.22102 10.2788 5.40044 7.46214Z" fill="#333333"/>
<path d="M13.8345 20.8293C17.603 20.8293 20.6689 17.7854 20.6689 14.044C20.6689 10.3026 17.603 7.25879 13.8345 7.25879C10.066 7.25879 7 10.3026 7 14.044C7 17.7854 10.066 20.8293 13.8345 20.8293ZM13.8345 9.68407C16.256 9.68407 18.2261 11.64 18.2261 14.044C18.2261 16.4481 16.2561 18.404 13.8345 18.404C11.4129 18.404 9.44286 16.4481 9.44286 14.044C9.44286 11.64 11.4129 9.68407 13.8345 9.68407Z" fill="#333333"/>
</svg>
