<svg width="30" height="32" viewBox="0 0 30 32" fill="none" xmlns="http://www.w3.org/2000/svg">
<g opacity="0.7">
<path d="M15.253 30.3597C23.3975 30.3597 30 23.7573 30 15.6127C30 7.46818 23.3975 0.865723 15.253 0.865723C7.10846 0.865723 0.506002 7.46818 0.506002 15.6127C0.506002 18.3672 1.26118 20.9453 2.5758 23.1513L0 31.0441L8.01726 28.4655C10.1549 29.6716 12.6236 30.3597 15.253 30.3597Z" fill="#65BC54"/>
<path d="M15.253 30.3597C23.3975 30.3597 30 23.7573 30 15.6127C30 7.46818 23.3975 0.865723 15.253 0.865723C7.10846 0.865723 0.506002 7.46818 0.506002 15.6127C0.506002 18.3672 1.26118 20.9453 2.5758 23.1513L0 31.0441L8.01726 28.4655C10.1549 29.6716 12.6236 30.3597 15.253 30.3597Z" fill="white" fill-opacity="0.3"/>
<path d="M15.253 30.3578C23.3975 30.3578 30 23.7553 30 15.6108C30 7.46623 23.3975 0.86377 15.253 0.86377C7.10846 0.86377 0.506002 7.46623 0.506002 15.6108C0.506002 18.3652 1.26118 20.9433 2.57579 23.1493L0 31.0422L8.01726 28.4636C10.1549 29.6696 12.6236 30.3578 15.253 30.3578Z" fill="white"/>
<path fill-rule="evenodd" clip-rule="evenodd" d="M13.0695 12.392C13.0695 12.0292 12.8276 11.4245 12.7067 11.0617C12.5857 10.6989 11.9811 8.88493 11.7392 8.64307C11.4616 8.22664 10.2078 8.4513 9.76445 8.60417C8.81659 8.93102 8.45625 9.46917 8.19022 10.1953C7.63832 11.7018 8.34745 14.6207 8.95773 15.5363C9.67164 16.6071 10.2977 17.6032 11.1345 18.5596C11.7392 19.1642 12.2229 19.7689 12.8276 20.2526C14.4845 21.4953 16.2718 23.1349 18.6324 23.0341C20.157 22.969 21.6989 22.7059 22.2604 21.5829C22.5022 21.2201 22.7441 20.3736 22.7441 19.8898C22.7441 19.2284 21.5037 18.6753 20.9958 18.4013C20.1266 17.9324 19.0056 17.4929 18.6324 17.9549C18.1706 18.5264 18.1061 19.5048 17.3021 19.527C16.6815 19.5442 16.0342 19.0745 15.4881 18.8014C14.2788 17.9549 13.0695 16.8665 12.2229 15.6572L11.6183 14.6897C11.6183 13.6826 12.8413 13.3044 13.0695 12.392Z" fill="#272727"/>
</g>
</svg>
