<?xml version="1.0" standalone="no"?>
<!DOCTYPE svg PUBLIC "-//W3C//DTD SVG 1.1//EN" "http://www.w3.org/Graphics/SVG/1.1/DTD/svg11.dtd" >
<svg>
<metadata>
Created by FontForge 20090914 at Mon Nov  1 10:50:18 2021
 By www-data
Copyright (c) 2018 by Swiss Typefaces. All rights reserved. |DCNT
</metadata>
<defs>
<font id="EuclidCircularA-Regular" horiz-adv-x="0" >
  <font-face 
    font-family="Euclid Circular A"
    font-weight="400"
    font-stretch="normal"
    units-per-em="1000"
    panose-1="2 11 5 4 0 0 0 0 0 0"
    ascent="732"
    descent="-268"
    x-height="500"
    cap-height="710"
    bbox="-361 -269.003 1382 1000"
    underline-thickness="75"
    underline-position="-244"
    unicode-range="U+0020-U+FEFF"
  />
<missing-glyph horiz-adv-x="682" 
d="M91 0v710h500v-710h-500zM330 355l-220 327v-654zM351 355l221 -327v654zM557 691h-432l216 -321zM341 339l-216 -320h432z" />
    <glyph glyph-name="uni0407_uni0407" unicode="&#x407;&#x407;" horiz-adv-x="562" 
d="M94 0v710h93v-710h-93zM375 0v710h93v-710h-93zM25 785c-16.667 0 -30.667 5.66699 -42 17s-17 25 -17 41s5.66699 29.833 17 41.5s25.333 17.5 42 17.5c16 0 29.667 -5.83301 41 -17.5s17 -25.5 17 -41.5s-5.66699 -29.667 -17 -41s-25 -17 -41 -17zM280 785
c-16.667 0 -30.667 5.66699 -42 17s-17 25 -17 41s5.66699 29.833 17 41.5s25.333 17.5 42 17.5c16 0 29.667 -5.83301 41 -17.5s17 -25.5 17 -41.5s-5.66699 -29.667 -17 -41s-25 -17 -41 -17zM535 785c-16.667 0 -30.667 5.66699 -42 17s-17 25 -17 41
s5.66699 29.833 17 41.5s25.333 17.5 42 17.5c16 0 29.667 -5.83301 41 -17.5s17 -25.5 17 -41.5s-5.66699 -29.667 -17 -41s-25 -17 -41 -17z" />
    <glyph glyph-name="uni0457_uni0457" unicode="&#x457;&#x457;" horiz-adv-x="497" 
d="M167 0h-86v500h86v-500zM416 0h-86v500h86v-500zM42 596c-17.333 0 -31.833 5.83301 -43.5 17.5s-17.5 26.167 -17.5 43.5c0 16.667 5.83301 30.834 17.5 42.501s26.167 17.5 43.5 17.5c16.667 0 30.834 -5.83301 42.501 -17.5s17.5 -25.834 17.5 -42.501
c0 -17.333 -5.83301 -31.833 -17.5 -43.5s-25.834 -17.5 -42.501 -17.5zM248 596c-17.333 0 -31.833 5.83301 -43.5 17.5s-17.5 26.167 -17.5 43.5c0 16.667 5.83301 30.834 17.5 42.501s26.167 17.5 43.5 17.5c16.667 0 30.834 -5.83301 42.501 -17.5
s17.5 -25.834 17.5 -42.501c0 -17.333 -5.83301 -31.833 -17.5 -43.5s-25.834 -17.5 -42.501 -17.5zM454 596c-17.333 0 -31.833 5.83301 -43.5 17.5s-17.5 26.167 -17.5 43.5c0 16.667 5.83301 30.834 17.5 42.501s26.167 17.5 43.5 17.5c16.667 0 31 -5.83301 43 -17.5
s18 -25.834 18 -42.501c0 -17.333 -6 -31.833 -18 -43.5s-26.333 -17.5 -43 -17.5z" />
    <glyph glyph-name="uni0457_uni0458" unicode="&#x457;&#x458;" horiz-adv-x="497" 
d="M167 0h-86v500h86v-500zM42 596c-17.333 0 -31.833 5.83301 -43.5 17.5s-17.5 26.167 -17.5 43.5c0 16.667 5.83301 30.834 17.5 42.501s26.167 17.5 43.5 17.5c16.667 0 30.834 -5.83301 42.501 -17.5s17.5 -25.834 17.5 -42.501
c0 -17.333 -5.83301 -31.833 -17.5 -43.5s-25.834 -17.5 -42.501 -17.5zM248 596c-17.333 0 -31.833 5.83301 -43.5 17.5s-17.5 26.167 -17.5 43.5c0 16.667 5.83301 30.834 17.5 42.501s26.167 17.5 43.5 17.5c16.667 0 30.834 -5.83301 42.501 -17.5
s17.5 -25.834 17.5 -42.501c0 -17.333 -5.83301 -31.833 -17.5 -43.5s-25.834 -17.5 -42.501 -17.5zM454 596c-17.333 0 -31.833 5.83301 -43.5 17.5s-17.5 26.167 -17.5 43.5c0 16.667 5.83301 30.834 17.5 42.501s26.167 17.5 43.5 17.5c16.667 0 31 -5.83301 43 -17.5
s18 -25.834 18 -42.501c0 -17.333 -6 -31.833 -18 -43.5s-26.333 -17.5 -43 -17.5zM416 500v-566c0 -50 -14.167 -88 -42.5 -114s-64.833 -39 -109.5 -39c-16 0 -29.333 1 -40 3v77c10.667 -1.33301 20 -2 28 -2c52 0 78 28.333 78 85v556h86z" />
    <glyph glyph-name="_515" unicode="ff" horiz-adv-x="717" 
d="M123 0v421h-106v79h106v103c0 50 14 88 42 114s65 39 111 39c27.333 0 53.333 -4.33301 78 -13v-76c-14 6.66699 -34.667 10 -62 10c-28.667 0 -49.667 -6.33301 -63 -19s-20 -34.667 -20 -66v-92h123v-79h-123v-421h-86zM473 0v421h-86v79h86v103c0 50 14 88 42 114
s65 39 111 39c27.333 0 53.333 -4.33301 78 -13v-76c-15.333 6.66699 -36.333 10 -63 10c-28.667 0 -49.5 -6.33301 -62.5 -19s-19.5 -34.667 -19.5 -66v-92h145v-79h-145v-421h-86z" />
    <glyph glyph-name="f_i" unicode="fi" horiz-adv-x="615" 
d="M123 0v421h-106v79h106v101c0 50 14 88.333 42 115s65 40 111 40c27.333 0 53.333 -4.33301 78 -13v-76c-15.333 6.66699 -36 10 -62 10c-28.667 0 -49.667 -6.33301 -63 -19s-20 -34.667 -20 -66v-92h145v-79h-145v-421h-86zM492 634c-17.333 0 -32 5.83301 -44 17.5
s-18 26.167 -18 43.5c0 16.667 6 31 18 43s26.667 18 44 18s31.666 -6 42.999 -18s17 -26.333 17 -43c0 -17.333 -5.66699 -31.833 -17 -43.5s-25.666 -17.5 -42.999 -17.5zM448 0v500h86v-500h-86z" />
    <glyph glyph-name="_519" unicode="ffi" horiz-adv-x="966" 
d="M842 634c-17.333 0 -32 5.83301 -44 17.5s-18 26.167 -18 43.5c0 16.667 6 31 18 43s26.667 18 44 18s31.666 -6 42.999 -18s17 -26.333 17 -43c0 -17.333 -5.66699 -31.833 -17 -43.5s-25.666 -17.5 -42.999 -17.5zM798 0v500h86v-500h-86zM123 0v421h-106v79h106v103
c0 50 14 88 42 114s65 39 111 39c27.333 0 53.333 -4.33301 78 -13v-76c-14 6.66699 -34.667 10 -62 10c-28.667 0 -49.667 -6.33301 -63 -19s-20 -34.667 -20 -66v-92h123v-79h-123v-421h-86zM473 0v421h-86v79h86v103c0 50 14 88 42 114s65 39 111 39
c27.333 0 53.333 -4.33301 78 -13v-76c-15.333 6.66699 -36.333 10 -63 10c-28.667 0 -49.5 -6.33301 -62.5 -19s-19.5 -34.667 -19.5 -66v-92h145v-79h-145v-421h-86z" />
    <glyph glyph-name="f_l" unicode="fl" horiz-adv-x="615" 
d="M123 0v421h-106v79h106v101c0 50 14 88.333 42 115s65 40 111 40c27.333 0 53.333 -4.33301 78 -13v-76c-15.333 6.66699 -36 10 -62 10c-28.667 0 -49.667 -6.33301 -63 -19s-20 -34.667 -20 -66v-92h145v-79h-145v-421h-86zM448 0v750h86v-750h-86z" />
    <glyph glyph-name="_523" unicode="ffl" horiz-adv-x="965" 
d="M798 0v750h86v-750h-86zM123 0v421h-106v79h106v103c0 50 14 88 42 114s65 39 111 39c27.333 0 53.333 -4.33301 78 -13v-76c-14 6.66699 -34.667 10 -62 10c-28.667 0 -49.667 -6.33301 -63 -19s-20 -34.667 -20 -66v-92h123v-79h-123v-421h-86zM473 0v421h-86v79h86
v103c0 50 14 88 42 114s65 39 111 39c27.333 0 53.333 -4.33301 78 -13v-76c-15.333 6.66699 -36.333 10 -63 10c-28.667 0 -49.5 -6.33301 -62.5 -19s-19.5 -34.667 -19.5 -66v-92h145v-79h-145v-421h-86z" />
    <glyph glyph-name="f_t" unicode="ft" horiz-adv-x="743" 
d="M123 0v421h-106v79h106v103c0 50 14 88 42 114s65 39 111 39c27.333 0 53.333 -4.33301 78 -13v-76c-15.333 6.66699 -36 10 -62 10c-28.667 0 -49.667 -6.33301 -63 -19s-20 -34.667 -20 -66v-92h128v-79h-128v-421h-86zM637 -5c-46 0 -83.167 13 -111.5 39
s-42.5 64 -42.5 114v273h-90v79h90v139h86v-139h145v-79h-145v-262c0 -31.333 6.66699 -53.333 20 -66s34.333 -19 63 -19c26 0 46.667 3.33301 62 10v-77c-26 -8 -51.667 -12 -77 -12z" />
    <glyph glyph-name="t_t" unicode="tt" horiz-adv-x="748" 
d="M641 -5c-46 0 -83 13 -111 39s-42 64 -42 114v273h-94v79h94v139h86v-139h145v-79h-145v-262c0 -31.333 6.66699 -53.333 20 -66s34.333 -19 63 -19c26 0 46.667 3.33301 62 10v-77c-26 -8 -52 -12 -78 -12zM275 -5c-46 0 -82.999 13 -110.999 39s-42 64 -42 114v273
h-106v79h106v139h86v-139h130v-79h-130v-262c0 -31.333 6.66699 -53.333 20 -66s34.333 -19 63 -19c25.333 0 45.666 3.33301 60.999 10v-77c-24 -8 -49.667 -12 -77 -12z" />
    <glyph glyph-name=".notdef" horiz-adv-x="682" 
d="M91 0v710h500v-710h-500zM330 355l-220 327v-654zM351 355l221 -327v654zM557 691h-432l216 -321zM341 339l-216 -320h432z" />
    <glyph glyph-name="space" unicode=" " horiz-adv-x="241" 
 />
    <glyph glyph-name="exclam" unicode="!" horiz-adv-x="271" 
d="M109 222l-17 204v284h87v-284l-17 -204h-53zM135 -8c-20.667 0 -38.167 7.33301 -52.5 22s-21.5 32.334 -21.5 53.001c0 20 7.33301 37.5 22 52.5s32 22.5 52 22.5s37.333 -7.5 52 -22.5s22 -32.5 22 -52.5c0 -20.667 -7.16699 -38.334 -21.5 -53.001
s-31.833 -22 -52.5 -22z" />
    <glyph glyph-name="quotedbl" unicode="&#x22;" horiz-adv-x="413" 
d="M66 463v247h78v-247h-78zM268 463v247h78v-247h-78z" />
    <glyph glyph-name="numbersign" unicode="#" horiz-adv-x="737" 
d="M347 0l62 200h-181l-61 -200h-80l62 200h-116v73h139l54 171h-120v73h143l60 193h79l-60 -193h180l61 193h78l-60 -193h116v-73h-139l-53 -171h120v-73h-144l-61 -200h-79zM305 444l-53 -171h180l53 171h-180z" />
    <glyph glyph-name="dollar" unicode="$" horiz-adv-x="522" 
d="M237 -88v80.0029c-54.667 6 -100 26.833 -136 62.5s-54.667 84.167 -56 145.5h86c8.66699 -70.667 44 -112 106 -124v249l-34 13c-102.667 41.333 -154 108.666 -154 201.999c0 53.333 17.667 95.833 53 127.5s80.333 49.5 135 53.5v77h54v-79
c48 -7.33301 88.5 -26.5 121.5 -57.5s49.5 -71.167 49.5 -120.5h-86c-8.66699 51.333 -37 82.666 -85 93.999v-234l25 -10c54 -22 94.5 -49.667 121.5 -83s40.5 -75 40.5 -125c0 -58.667 -17.167 -104.334 -51.5 -137.001s-79.5 -51 -135.5 -55v-79h-54zM392 177.003
c0 30.667 -8.33301 55.667 -25 75s-42 36.333 -76 51v-229c28.667 3.33301 52.667 14.5 72 33.5s29 42.167 29 69.5zM135 540.003c0 -27.333 7.83105 -49.833 23.498 -67.5s41.834 -34.5 78.501 -50.5v216c-31.333 -3.33301 -56.166 -14 -74.499 -32s-27.5 -40 -27.5 -66z
" />
    <glyph glyph-name="percent" unicode="%" horiz-adv-x="991" 
d="M317 0h-93l450 710h93zM762 -8c-54.667 0 -101.167 19.333 -139.5 58s-57.5 85 -57.5 139c0 54.667 19.167 101.167 57.5 139.5s84.833 57.5 139.5 57.5c54 0 100.333 -19.167 139 -57.5s58 -84.833 58 -139.5c0 -54 -19.333 -100.333 -58 -139s-85 -58 -139 -58zM762 70
c32 0 59.667 11.833 83 35.5s35 51.5 35 83.5s-11.667 59.833 -35 83.5s-51 35.5 -83 35.5c-33.333 0 -61.333 -11.667 -84 -35s-34 -51.333 -34 -84s11.333 -60.667 34 -84s50.667 -35 84 -35zM229 324c-54.667 0 -101.167 19.333 -139.5 58s-57.5 85 -57.5 139
c0 54.667 19.167 101.167 57.5 139.5s84.833 57.5 139.5 57.5c54 0 100.333 -19.167 139 -57.5s58 -84.833 58 -139.5c0 -54 -19.333 -100.333 -58 -139s-85 -58 -139 -58zM229 402c32 0 59.667 11.833 83 35.5s35 51.5 35 83.5s-11.667 59.833 -35 83.5s-51 35.5 -83 35.5
c-33.333 0 -61.333 -11.667 -84 -35s-34 -51.333 -34 -84s11.333 -60.667 34 -84s50.667 -35 84 -35z" />
    <glyph glyph-name="ampersand" unicode="&#x26;" horiz-adv-x="745" 
d="M284 -10c-64.667 0 -117.167 19.1689 -157.5 57.502s-60.5 87.166 -60.5 146.499c0 46.667 13.667 85.5 41 116.5s64 59.833 110 86.5l5 3c-57.333 53.333 -86 107 -86 161c0 46.667 17.333 85.167 52 115.5s77.667 45.5 129 45.5s93.333 -15.833 126 -47.5
s49 -70.834 49 -117.501c0 -70 -45.667 -128 -137 -174l151 -148l84 107h100l-128 -162l185 -180h-113l-122 118c-38 -44.667 -74.5 -77.167 -109.5 -97.5s-74.5 -30.5 -118.5 -30.5zM287 68.002c31.333 0 59.667 8.16699 85 24.5s53.333 42.833 84 79.5l-177 172l-13 -7
c-38 -20 -66.333 -41 -85 -63s-28 -49 -28 -81c0 -38 13.167 -68.333 39.5 -91s57.833 -34 94.5 -34zM219.001 559.002c0 -15.333 4.00098 -30.333 12.001 -45s16.333 -26.667 25 -36s23 -23.333 43 -42l5 3c34.667 18 60.5 35 77.5 51s25.5 36.333 25.5 61
c0 28 -8.33301 51 -25 69s-39 27 -67 27c-26.667 0 -49.334 -8 -68.001 -24s-28 -37.333 -28 -64z" />
    <glyph glyph-name="quotesingle" unicode="'" horiz-adv-x="211" 
d="M66 463v247h78v-247h-78z" />
    <glyph glyph-name="parenleft" unicode="(" horiz-adv-x="275" 
d="M245 -160h-70c-85.333 155.333 -128 315.333 -128 480s42.667 324.667 128 480h70c-80.667 -156.667 -121 -316.667 -121 -480s40.333 -323.333 121 -480z" />
    <glyph glyph-name="parenright" unicode=")" horiz-adv-x="274" 
d="M99 -160h-70c80.667 156.667 121 316.667 121 480s-40.333 323.333 -121 480h70c85.333 -155.333 128 -315.333 128 -480s-42.667 -324.667 -128 -480z" />
    <glyph glyph-name="asterisk" unicode="*" horiz-adv-x="440" 
d="M142 372l-54 39l77 107l-126 42l19 64l128 -42v128h67v-128l127 41l21 -63l-127 -42l79 -107l-54 -39l-79 107z" />
    <glyph glyph-name="plus" unicode="+" horiz-adv-x="500" 
d="M38 251v77h173v172h78v-172h172v-77h-172v-172h-78v172h-173z" />
    <glyph glyph-name="comma" unicode="," horiz-adv-x="256" 
d="M188 22l-103 -164.999h-57l67 143c-27.333 13.333 -41 35.666 -41 66.999c0 20 7.33301 37.5 22 52.5s32 22.5 52 22.5s37.333 -7.5 52 -22.5s22 -32.5 22 -52.5c0 -14.667 -4.66699 -29.667 -14 -45z" />
    <glyph glyph-name="hyphen" unicode="-" horiz-adv-x="386" 
d="M65 237v86h255v-86h-255z" />
    <glyph glyph-name="period" unicode="." horiz-adv-x="252" 
d="M126 -8c-20.667 0 -38.167 7.33301 -52.5 22s-21.5 32.334 -21.5 53.001c0 20 7.33301 37.5 22 52.5s32 22.5 52 22.5s37.333 -7.5 52 -22.5s22 -32.5 22 -52.5c0 -20.667 -7.16699 -38.334 -21.5 -53.001s-31.833 -22 -52.5 -22z" />
    <glyph glyph-name="slash" unicode="/" horiz-adv-x="509" 
d="M21 -110l386 820h81l-386 -820h-81z" />
    <glyph glyph-name="zero" unicode="0" horiz-adv-x="623" 
d="M311 -10c-74 0 -134.333 24.832 -181 74.499s-70 113.834 -70 192.501v198c0 78.667 23.5 142.834 70.5 192.501s107.167 74.5 180.5 74.5s133.666 -25 180.999 -75s71 -114 71 -192v-198c0 -78.667 -23.667 -142.834 -71 -192.501s-107.666 -74.5 -180.999 -74.5z
M311 73.999c49.333 0 89.333 16.333 120 49s46 77.334 46 134.001v198c0 56.667 -15.333 101.334 -46 134.001s-70.667 49 -120 49c-48.667 0 -88.334 -16.333 -119.001 -49s-46 -77.334 -46 -134.001v-198c0 -56.667 15.333 -101.334 46 -134.001s70.334 -49 119.001 -49z
" />
    <glyph glyph-name="one" unicode="1" horiz-adv-x="325" 
d="M145 0v625h-137l70 85h153v-710h-86z" />
    <glyph glyph-name="two" unicode="2" horiz-adv-x="558" 
d="M509 83l0.00292969 -82.999h-460v34c0 24.667 3.83301 48.167 11.5 70.5s16.167 41.166 25.5 56.499s24 32.5 44 51.5s35.667 33 47 42s30.333 23 57 42l53 37.5c47.333 34.667 80.166 63.834 98.499 87.501s27.5 54.834 27.5 93.501c0 37.333 -12 67.166 -36 89.499
s-55.333 33.5 -94 33.5c-40.667 0 -75.334 -12.333 -104.001 -37s-43 -59 -43 -103h-88c0 66.667 22.167 120.667 66.5 162s100.166 62 167.499 62c62.667 0 114.834 -18 156.501 -54s62.5 -87.333 62.5 -154c0 -50.667 -12.333 -93.834 -37 -129.501
s-67 -75.167 -127 -118.5l-48 -33.5c-20.667 -14.333 -36.667 -25.833 -48 -34.5s-23.833 -19.167 -37.5 -31.5s-24.334 -25.333 -32.001 -39s-13.167 -28.5 -16.5 -44.5h354z" />
    <glyph glyph-name="three" unicode="3" horiz-adv-x="580" 
d="M297 -10c-70.667 0 -130.496 21.502 -179.496 64.502s-73.5 96.833 -73.5 161.5h87c2.66699 -42 19.667 -76.167 51 -102.5s69.666 -39.5 114.999 -39.5c41.333 0 75.666 11.333 102.999 34s41 54 41 94c0 42.667 -13.833 74.667 -41.5 96s-65.5 32 -113.5 32h-53v79h57
c38 0 69.167 10.667 93.5 32s36.833 49 37.5 83c0 33.333 -12.167 60.666 -36.5 81.999s-54.833 32 -91.5 32c-42 0 -77.333 -12.333 -106 -37s-43 -59 -43 -103h-88c0 68 22.667 122.333 68 163s101.666 61 168.999 61c62 0 113.5 -17.833 154.5 -53.5
s61.5 -82.834 61.5 -141.501c-0.666992 -34 -9.83398 -64.667 -27.501 -92s-40.5 -48.333 -68.5 -63c36 -14.667 64.333 -37.167 85 -67.5s31 -65.5 31 -105.5c0 -62 -21.667 -112.333 -65 -151s-99 -58 -167 -58z" />
    <glyph glyph-name="four" unicode="4" horiz-adv-x="617" 
d="M395 0v193h-378v69l389 448h75v-436h98v-81h-98v-193h-86zM129 274h266v306z" />
    <glyph glyph-name="five" unicode="5" horiz-adv-x="555" 
d="M274 -10c-64 0 -119.331 20.002 -165.998 60.002s-70.667 87.333 -72 142h88c8 -34.667 25.667 -63 53 -85s59.666 -33 96.999 -33c43.333 0 79.666 14.667 108.999 44s44 65.333 44 108c0 43.333 -14 79.666 -42 108.999s-63.667 44 -107 44
c-59.333 0 -104 -24 -134 -72l-82 24l73 379h332v-84h-263l-39 -203c34.667 24.667 76 37 124 37c66 0 120.167 -23.167 162.5 -69.5s63.5 -104.833 63.5 -175.5c0 -62.667 -23 -115.834 -69 -159.501s-103.333 -65.5 -172 -65.5z" />
    <glyph glyph-name="six" unicode="6" horiz-adv-x="559" 
d="M277 -10c-68.667 0 -125.998 22.666 -171.998 67.999s-69 100.666 -69 165.999c0 34.667 6.83301 65.834 20.5 93.501s33.5 56.834 59.5 87.501l259 305h109l-217 -257c12 1.33301 21.333 2 28 2c59.333 0 111.166 -22.667 155.499 -68s66.5 -99 66.5 -161
c0 -66 -22.833 -121.833 -68.5 -167.5s-102.834 -68.5 -171.501 -68.5zM277.002 72.999c42.667 0 78.667 15.002 108 45.002s44 66 44 108s-14.667 78 -44 108s-65.333 45 -108 45c-43.333 0 -79.666 -14.833 -108.999 -44.5s-44 -65.834 -44 -108.501
s14.667 -78.834 44 -108.501s65.666 -44.5 108.999 -44.5z" />
    <glyph glyph-name="seven" unicode="7" horiz-adv-x="509" 
d="M157 0h-96l331 626h-363v84h466v-72z" />
    <glyph glyph-name="eight" unicode="8" horiz-adv-x="571" 
d="M286 -10c-69.333 0 -126.5 21 -171.5 63s-67.5 95.333 -67.5 160c0 86.667 37.333 148.334 112 185.001c-48.667 34.667 -73 81.667 -73 141c0 53.333 18.833 97.166 56.5 131.499s85.5 51.5 143.5 51.5c58.667 0 106.5 -17.167 143.5 -51.5s55.5 -78.166 55.5 -131.499
c0 -60 -24 -107 -72 -141c74 -36.667 111 -98.334 111 -185.001c0 -64.667 -22.167 -118 -66.5 -160s-101.5 -63 -171.5 -63zM286 72c46.667 0 83.5 13.332 110.5 39.999s40.5 60.334 40.5 101.001c0 41.333 -13.5 75.333 -40.5 102s-63.833 40 -110.5 40
c-45.333 0 -82 -13.5 -110 -40.5s-42 -60.833 -42 -101.5c0 -40 14 -73.5 42 -100.5s64.667 -40.5 110 -40.5zM286 431.999c34.667 0 62.332 10.1689 82.999 30.502s31 45.166 31 74.499c0 30.667 -10.167 55.667 -30.5 75s-48.166 29 -83.499 29
c-34 0 -61.667 -9.83301 -83 -29.5s-32 -44.5 -32 -74.5c0 -28.667 10.667 -53.334 32 -74.001s49 -31 83 -31z" />
    <glyph glyph-name="nine" unicode="9" horiz-adv-x="559" 
d="M74 0l218.997 258.001c-7.33301 -0.666992 -16.666 -1 -27.999 -1c-59.333 0 -111.166 22.667 -155.499 68s-66.5 98.666 -66.5 159.999c0 66.667 22.833 122.834 68.5 168.501s102.834 68.5 171.501 68.5s126 -22.667 172 -68s69 -100.666 69 -165.999
c0 -34.667 -6.83301 -65.834 -20.5 -93.501s-33.5 -56.834 -59.5 -87.501l-260 -307h-110zM282.997 333.001c43.333 0 79.666 14.833 108.999 44.5s44 65.834 44 108.501s-14.667 78.834 -44 108.501s-65.666 44.5 -108.999 44.5s-79.5 -14.833 -108.5 -44.5
s-43.5 -65.834 -43.5 -108.501s14.5 -78.834 43.5 -108.501s65.167 -44.5 108.5 -44.5z" />
    <glyph glyph-name="colon" unicode=":" horiz-adv-x="274" 
d="M137 362c-20.667 0 -38.167 7.33301 -52.5 22s-21.5 32.334 -21.5 53.001c0 20 7.33301 37.5 22 52.5s32 22.5 52 22.5s37.333 -7.5 52 -22.5s22 -32.5 22 -52.5c0 -20.667 -7.16699 -38.334 -21.5 -53.001s-31.833 -22 -52.5 -22zM137 -8
c-20.667 0 -38.167 7.33301 -52.5 22s-21.5 32.334 -21.5 53.001c0 20 7.33301 37.5 22 52.5s32 22.5 52 22.5s37.333 -7.5 52 -22.5s22 -32.5 22 -52.5c0 -20.667 -7.16699 -38.334 -21.5 -53.001s-31.833 -22 -52.5 -22z" />
    <glyph glyph-name="semicolon" unicode=";" horiz-adv-x="285" 
d="M204 22l-103 -164.999h-57l67 143c-27.333 13.333 -41 35.666 -41 66.999c0 20 7.33301 37.5 22 52.5s32 22.5 52 22.5s37.333 -7.5 52 -22.5s22 -32.5 22 -52.5c0 -14.667 -4.66699 -29.667 -14 -45zM144 362.001c-20.667 0 -38.167 7.33301 -52.5 22
s-21.5 32.334 -21.5 53.001c0 20 7.33301 37.5 22 52.5s32 22.5 52 22.5s37.333 -7.5 52 -22.5s22 -32.5 22 -52.5c0 -20.667 -7.16699 -38.334 -21.5 -53.001s-31.833 -22 -52.5 -22z" />
    <glyph glyph-name="less" unicode="&#x3c;" horiz-adv-x="427" 
d="M394 543l-253 -253l253 -253h-109l-253 253l253 253h109z" />
    <glyph glyph-name="equal" unicode="=" horiz-adv-x="560" 
d="M68 143v76h424v-76h-424zM68 360v77h424v-77h-424z" />
    <glyph glyph-name="greater" unicode="&#x3e;" horiz-adv-x="427" 
d="M286 290l-253 253h109l253 -253l-253 -253h-109z" />
    <glyph glyph-name="question" unicode="?" horiz-adv-x="506" 
d="M190 236l-0.00292969 20c0 42.667 30.333 86 91 130c32.667 24 56.334 45 71.001 63s22 40.333 22 67c0 34.667 -11.167 63.667 -33.5 87s-51.166 35 -86.499 35c-40 0 -72.5 -12.167 -97.5 -36.5s-37.5 -56.5 -37.5 -96.5h-86c0 60.667 21 112 63 154s94.667 63 158 63
c60.667 0 110.167 -20 148.5 -60s57.5 -88 57.5 -144c0 -40 -9.66699 -74 -29 -102s-44.666 -54 -75.999 -78l-15.5 -12l-16.5 -13l-14.5 -12c-6.33301 -5.33301 -10.833 -9.83301 -13.5 -13.5l-9.5 -13c-3.66699 -5 -6.16699 -10 -7.5 -15s-2 -10.167 -2 -15.5v-8h-86z
M231.997 -8c-20.667 0 -38.167 7.33301 -52.5 22s-21.5 32.334 -21.5 53.001c0 20 7.33301 37.5 22 52.5s32 22.5 52 22.5s37.333 -7.5 52 -22.5s22 -32.5 22 -52.5c0 -20.667 -7.16699 -38.334 -21.5 -53.001s-31.833 -22 -52.5 -22z" />
    <glyph glyph-name="at" unicode="@" horiz-adv-x="812" 
d="M396 -10c-105.333 0 -189.835 32.9971 -253.502 98.9971s-95.5 148.667 -95.5 248c0 111.333 38.5 203.333 115.5 276s168.167 109 273.5 109c98 0 179.167 -29 243.5 -87s96.5 -134.333 96.5 -229c0 -80.667 -17.167 -142 -51.5 -184s-76.5 -63 -126.5 -63
c-53.333 0 -88.333 20 -105 60c-12.667 -17.333 -31 -31.5 -55 -42.5s-48.333 -16.5 -73 -16.5c-44 0 -80.667 15.667 -110 47s-44 73.333 -44 126c0 62 19.667 113.833 59 155.5s87 62.5 143 62.5c28.667 0 53.334 -7 74.001 -21s34.334 -30.667 41.001 -50l12 62h76
l-50 -238c-10.667 -52.667 2.33301 -79 39 -79c31.333 0 56 15.333 74 46s27 76.334 27 137.001c0 74.667 -25.5 134.834 -76.5 180.501s-115.833 68.5 -194.5 68.5c-86.667 0 -161.167 -29.667 -223.5 -89s-93.5 -136.333 -93.5 -231
c0 -83.333 25.167 -151.166 75.5 -203.499s117.833 -78.5 202.5 -78.5c70 0 131.333 13 184 39v-71c-56.667 -22 -118 -33 -184 -33zM375.998 227.997c31.333 0 58.8301 10.833 82.4971 32.5s38.5 48.834 44.5 81.501c6.66699 40 1.83398 73.5 -14.499 100.5
s-41.166 40.5 -74.499 40.5c-31.333 0 -58.666 -10.833 -81.999 -32.5s-38 -48.834 -44 -81.501c-6.66699 -40 -1.66699 -73.5 15 -100.5s41 -40.5 73 -40.5z" />
    <glyph glyph-name="A" unicode="A" horiz-adv-x="718" 
d="M6 0l314 710h77l315 -710h-97l-92 207h-331l-90 -207h-96zM357 584l-128 -293h257z" />
    <glyph glyph-name="B" unicode="B" horiz-adv-x="629" 
d="M94 0v709.999h233c64 0 115.333 -18.333 154 -55s58 -81 58 -133c0 -65.333 -25.333 -113.666 -76 -144.999c82 -30 123 -86.667 123 -170c0 -60 -21.833 -109.5 -65.5 -148.5s-101.167 -58.5 -172.5 -58.5h-254zM187 83.999l165 -0.000976562
c46.667 0 82.167 10.833 106.5 32.5s36.5 50.834 36.5 87.501c0 36 -12.167 65.167 -36.5 87.5s-59.5 33.5 -105.5 33.5h-166v-241zM187 404.998l140 0.000976562c37.333 0 66.833 10.167 88.5 30.5s32.5 46.833 32.5 79.5c0 31.333 -11 57.666 -33 78.999
s-51.333 32 -88 32h-140v-221z" />
    <glyph glyph-name="C" unicode="C" horiz-adv-x="788" 
d="M414 -12c-104.667 0 -192.167 35.1689 -262.5 105.502s-105.5 157.5 -105.5 261.5s35.167 191.167 105.5 261.5s157.833 105.5 262.5 105.5c85.333 0 159.166 -24 221.499 -72s101.833 -106 118.5 -174h-98c-16.667 46 -46.834 83.833 -90.501 113.5
s-94.167 44.5 -151.5 44.5c-78.667 0 -144.167 -26.833 -196.5 -80.5s-78.5 -119.834 -78.5 -198.501s26.167 -144.834 78.5 -198.501s117.833 -80.5 196.5 -80.5c57.333 0 107.833 14.833 151.5 44.5s73.834 67.5 90.501 113.5h98c-16.667 -68 -56.167 -126 -118.5 -174
s-136.166 -72 -221.499 -72z" />
    <glyph glyph-name="D" unicode="D" horiz-adv-x="721" 
d="M94 0v710h204c108.667 0 198.834 -33.667 270.501 -101s107.5 -152 107.5 -254s-35.833 -186.667 -107.5 -254s-161.834 -101 -270.501 -101h-204zM187 87h111c84.667 0 153.167 25.167 205.5 75.5s78.5 114.5 78.5 192.5s-26.167 142.167 -78.5 192.5
s-120.833 75.5 -205.5 75.5h-111v-536z" />
    <glyph glyph-name="E" unicode="E" horiz-adv-x="557" 
d="M94 0v710h414v-88h-321v-215h261v-88h-261v-231h321v-88h-414z" />
    <glyph glyph-name="F" unicode="F" horiz-adv-x="531" 
d="M94 0v710h413v-88h-320v-215h253v-88h-253v-319h-93z" />
    <glyph glyph-name="G" unicode="G" horiz-adv-x="816" 
d="M414 -12c-104.667 0 -192.166 35.1699 -262.499 105.503s-105.5 157.5 -105.5 261.5s35.167 191.167 105.5 261.5s157.833 105.5 262.5 105.5c80 0 150.667 -21.5 212 -64.5s102.666 -95.5 123.999 -157.5h-103c-20 40 -50.667 72.333 -92 97s-88.333 37 -141 37
c-78.667 0 -144.167 -26.833 -196.5 -80.5s-78.5 -119.834 -78.5 -198.501s26.167 -144.834 78.5 -198.501s117.833 -80.5 196.5 -80.5c72.667 0 132.5 22.667 179.5 68s73.833 103.666 80.5 174.999h-264v87h360c9.33301 -125.333 -20.667 -226.333 -90 -303
s-158 -115 -266 -115z" />
    <glyph glyph-name="H" unicode="H" horiz-adv-x="763" 
d="M94 0v710h93v-303h389v303h93v-710h-93v320h-389v-320h-93z" />
    <glyph glyph-name="I" unicode="I" horiz-adv-x="281" 
d="M94 0v710h93v-710h-93z" />
    <glyph glyph-name="J" unicode="J" horiz-adv-x="529" 
d="M233 -12c-60.667 0 -111 17.834 -151 53.501s-60 85.167 -60 148.5h92c0 -36 11.5 -64.333 34.5 -85s50.833 -31 83.5 -31c34 0 62 10.667 84 32s33 54.666 33 99.999v504h92v-514c0 -70 -19.667 -122.167 -59 -156.5s-89 -51.5 -149 -51.5z" />
    <glyph glyph-name="K" unicode="K" horiz-adv-x="671" 
d="M563 0l-377 338v-338h-92v710h92v-308l310 308h121l-338 -338l415 -372h-131z" />
    <glyph glyph-name="L" unicode="L" horiz-adv-x="548" 
d="M94 0v710h93v-622h343v-88h-436z" />
    <glyph glyph-name="M" unicode="M" horiz-adv-x="886" 
d="M94 710h85l263 -354l265 354h84v-710h-92v552l-256 -344l-256 344v-552h-93v710z" />
    <glyph glyph-name="N" unicode="N" horiz-adv-x="794" 
d="M699 0h-80l-432 553v-553h-93v710h81l432 -553v553h92v-710z" />
    <glyph glyph-name="O" unicode="O" horiz-adv-x="825" 
d="M412 76c78 0 143.167 27 195.5 81s78.5 120 78.5 198s-26.167 144 -78.5 198s-117.5 81 -195.5 81c-77.333 0 -142.166 -27 -194.499 -81s-78.5 -120 -78.5 -198s26.167 -144 78.5 -198s117.166 -81 194.499 -81zM412 -12c-102 0 -188.667 35.5 -260 106.5
s-107 157.833 -107 260.5s35.667 189.5 107 260.5s158 106.5 260 106.5c102.667 0 189.5 -35.5 260.5 -106.5s106.5 -157.833 106.5 -260.5s-35.5 -189.5 -106.5 -260.5s-157.833 -106.5 -260.5 -106.5z" />
    <glyph glyph-name="P" unicode="P" horiz-adv-x="586" 
d="M555 484c0 -65.333 -22.5 -119.167 -67.5 -161.5s-103.833 -63.5 -176.5 -63.5h-124v-259h-93v710h217c72.667 0 131.5 -21.333 176.5 -64s67.5 -96.667 67.5 -162zM463 483.999c0 40.667 -13.5 74 -40.5 100s-64.167 39 -111.5 39h-124v-278h124
c47.333 0 84.5 13 111.5 39s40.5 59.333 40.5 100z" />
    <glyph glyph-name="Q" unicode="Q" horiz-adv-x="839" 
d="M412 -12c-102 0 -188.667 35.5 -260 106.5s-107 157.833 -107 260.5s35.667 189.5 107 260.5s158 106.5 260 106.5c102.667 0 189.5 -35.5 260.5 -106.5s106.5 -157.833 106.5 -260.5c0 -87.333 -27 -165 -81 -233l132 -122h-127l-68 62
c-64 -49.333 -138.333 -74 -223 -74zM412 76c60 0 112.333 16 157 48l-113 105l57 64l117 -109c37.333 50 56 107 56 171c0 78 -26.167 144 -78.5 198s-117.5 81 -195.5 81c-77.333 0 -142.166 -27 -194.499 -81s-78.5 -120 -78.5 -198s26.167 -144 78.5 -198
s117.166 -81 194.499 -81z" />
    <glyph glyph-name="R" unicode="R" horiz-adv-x="635" 
d="M94 0v710h242c65.333 0 117 -17.833 155 -53.5s57 -83.167 57 -142.5c0 -52 -15.5 -94.667 -46.5 -128s-74.167 -54 -129.5 -62l274 -324h-117l-273 323h-69v-323h-93zM187 406l138 0.000976562c41.333 0 73.333 9.16699 96 27.5s34 45.166 34 80.499
s-11.333 62.5 -34 81.5s-54.667 28.5 -96 28.5h-138v-218z" />
    <glyph glyph-name="S" unicode="S" horiz-adv-x="562" 
d="M290 -12c-72 0 -130.831 19.6641 -176.498 58.9971s-69.167 87 -70.5 143h93c4 -36.667 21.167 -65 51.5 -85s64.166 -30 101.499 -30c38.667 0 70.667 9.66699 96 29s38 45 38 77c0 54 -33.667 93.667 -101 119l-98 36c-56 19.333 -97.167 45 -123.5 77
s-39.833 73 -40.5 123c0 56.667 20.167 101.834 60.5 135.501s92.166 50.5 155.499 50.5c66.667 0 119.5 -19.167 158.5 -57.5s60.833 -83.166 65.5 -134.499h-92c-8.66699 35.333 -25.167 61.666 -49.5 78.999s-52.5 26 -84.5 26c-34.667 0 -63.5 -8.66699 -86.5 -26
s-34.5 -40.666 -34.5 -69.999s8 -52.666 24 -69.999s42 -32.333 78 -45l91 -33c56 -20 98.333 -46.5 127 -79.5s43 -75.5 43 -127.5c0 -59.333 -21 -106.833 -63 -142.5s-96.333 -53.5 -163 -53.5z" />
    <glyph glyph-name="T" unicode="T" horiz-adv-x="567" 
d="M238 0v622h-221v88h533v-88h-221v-622h-91z" />
    <glyph glyph-name="U" unicode="U" horiz-adv-x="726" 
d="M363 -12c-82.667 0 -149.667 26.167 -201 78.5s-77 122.166 -77 209.499v434h93v-436c0 -63.333 16.667 -112.166 50 -146.499s78.333 -51.5 135 -51.5s101.667 17.167 135 51.5s50 83.166 50 146.499v436h93v-434c0 -87.333 -25.667 -157.166 -77 -209.499
s-118.333 -78.5 -201 -78.5z" />
    <glyph glyph-name="V" unicode="V" horiz-adv-x="701" 
d="M311 0l-303 710h103l239 -565l240 565h101l-302 -710h-78z" />
    <glyph glyph-name="W" unicode="W" horiz-adv-x="947" 
d="M647 0l-174 482l-173 -482h-83l-194 710h97l148 -554l205 566l205 -566l149 554h97l-194 -710h-83z" />
    <glyph glyph-name="X" unicode="X" horiz-adv-x="670" 
d="M118 0h-114l274 359l-263 351h111l209 -277l209 277h111l-262 -351l273 -359h-113l-218 284z" />
    <glyph glyph-name="Y" unicode="Y" horiz-adv-x="674" 
d="M291 0v301l-276 409h111l211 -316l212 316h111l-277 -410v-300h-92z" />
    <glyph glyph-name="Z" unicode="Z" horiz-adv-x="587" 
d="M34 0v62l385 560h-374v88h497v-62l-385 -560h395v-88h-518z" />
    <glyph glyph-name="bracketleft" unicode="[" horiz-adv-x="305" 
d="M92 -160v960h187v-72h-109v-816h109v-72h-187z" />
    <glyph glyph-name="backslash" unicode="\" horiz-adv-x="509" 
d="M102 710l386 -820h-81l-386 820h81z" />
    <glyph glyph-name="bracketright" unicode="]" horiz-adv-x="305" 
d="M213 800v-960h-187v72h109v816h-109v72h187z" />
    <glyph glyph-name="asciicircum" unicode="^" horiz-adv-x="407" 
d="M124 500h-72l126 210h52l126 -210h-73l-80 132z" />
    <glyph glyph-name="underscore" unicode="_" horiz-adv-x="532" 
d="M54 -73v73h424v-73h-424z" />
    <glyph glyph-name="grave" unicode="`" 
d="M32 560l-134 190h110l94 -190h-70z" />
    <glyph glyph-name="a" unicode="a" horiz-adv-x="630" 
d="M287 -10c-69.333 0 -127.5 25.3311 -174.5 75.998s-70.5 112 -70.5 184s23.5 133.333 70.5 184s105.167 76 174.5 76c36.667 0 70.834 -8.16699 102.501 -24.5s56.167 -37.166 73.5 -62.499v77h86v-500h-86v77c-17.333 -25.333 -41.833 -46.166 -73.5 -62.499
s-65.834 -24.5 -102.501 -24.5zM300 68.998c49.333 0 90 17.333 122 52s48 77.667 48 129s-16 94.333 -48 129s-72.667 52 -122 52c-50 0 -91 -17.333 -123 -52s-48 -77.667 -48 -129s16 -94.333 48 -129s73 -52 123 -52z" />
    <glyph glyph-name="b" unicode="b" horiz-adv-x="630" 
d="M343 -10c-36.667 0 -70.834 8.16895 -102.501 24.502s-56.167 37.166 -73.5 62.499v-77h-86v750h86v-327c17.333 25.333 41.833 46.166 73.5 62.499s65.834 24.5 102.501 24.5c69.333 0 127.5 -25.333 174.5 -76s70.5 -112 70.5 -184s-23.5 -133.333 -70.5 -184
s-105.167 -76 -174.5 -76zM330 69.002c49.333 0 90 17.333 122 52s48 77.667 48 129s-16 94.333 -48 129s-72.667 52 -122 52s-90 -17.333 -122 -52s-48 -77.667 -48 -129s16 -94.333 48 -129s72.667 -52 122 -52z" />
    <glyph glyph-name="c" unicode="c" horiz-adv-x="588" 
d="M303 -10c-75.333 0 -137.665 25.165 -186.998 75.498s-74 111.833 -74 184.5s24.667 134.167 74 184.5s111.666 75.5 186.999 75.5c62 0 115.667 -17.167 161 -51.5s75.666 -79.166 90.999 -134.499h-92c-12 32.667 -32 58.667 -60 78s-61.333 29 -100 29
c-51.333 0 -93.166 -17.333 -125.499 -52s-48.5 -77.667 -48.5 -129s16.167 -94.333 48.5 -129s74.166 -52 125.499 -52c38.667 0 72 9.66699 100 29s48 45.333 60 78h92c-14.667 -55.333 -44.667 -100.166 -90 -134.499s-99.333 -51.5 -162 -51.5z" />
    <glyph glyph-name="d" unicode="d" horiz-adv-x="630" 
d="M287 -10c-69.333 0 -127.5 25.3311 -174.5 75.998s-70.5 112 -70.5 184s23.5 133.333 70.5 184s105.167 76 174.5 76c36.667 0 70.834 -8.16699 102.501 -24.5s56.167 -37.166 73.5 -62.499v327h86v-750h-86v77c-17.333 -25.333 -41.833 -46.166 -73.5 -62.499
s-65.834 -24.5 -102.501 -24.5zM300 68.998c49.333 0 90 17.333 122 52s48 77.667 48 129s-16 94.333 -48 129s-72.667 52 -122 52c-50 0 -91 -17.333 -123 -52s-48 -77.667 -48 -129s16 -94.333 48 -129s73 -52 123 -52z" />
    <glyph glyph-name="e" unicode="e" horiz-adv-x="579" 
d="M294 -10c-72.667 0 -132.833 24.667 -180.5 74s-71.5 111.333 -71.5 186c0 75.333 23.167 137.5 69.5 186.5s107.833 73.5 184.5 73.5c77.333 0 138 -27.333 182 -82s63.333 -121.667 58 -201h-407c1.33301 -45.333 18 -83.166 50 -113.499s70.667 -45.5 116 -45.5
c68 0 116.333 28 145 84h88c-12.667 -46.667 -39.667 -85.334 -81 -116.001s-92.333 -46 -153 -46zM293.001 434c-38.667 0 -73.168 -11.667 -103.501 -35s-49.166 -58 -56.499 -104h312c-8 45.333 -25.667 79.833 -53 103.5s-60.333 35.5 -99 35.5z" />
    <glyph glyph-name="f" unicode="f" horiz-adv-x="367" 
d="M123 0v421h-106v79h106v101c0 50 14 88.333 42 115s65 40 111 40c27.333 0 53.333 -4.33301 78 -13v-76c-15.333 6.66699 -36 10 -62 10c-28.667 0 -49.667 -6.33301 -63 -19s-20 -34.667 -20 -66v-92h145v-79h-145v-421h-86z" />
    <glyph glyph-name="g" unicode="g" horiz-adv-x="628" 
d="M301 -219c-66 0 -120.834 16.167 -164.501 48.5s-69.5 73.833 -77.5 124.5h84c22 -64.667 75.333 -97 160 -97c47.333 0 85.5 15.167 114.5 45.5s43.5 72.833 43.5 127.5v59c-18 -26.667 -42.333 -48 -73 -64s-64.334 -24 -101.001 -24c-70 0 -128.333 24.5 -175 73.5
s-70 109.5 -70 181.5c0 71.333 23.5 131.5 70.5 180.5s105.167 73.5 174.5 73.5c36.667 0 70.334 -8 101.001 -24s55 -37 73 -63v77h86v-469c0 -80 -23.167 -141.667 -69.5 -185s-105.166 -65 -176.499 -65zM298.999 81c50 0 90.667 16.5 122 49.5s47 74.833 47 125.5
s-15.833 92.5 -47.5 125.5s-72.167 49.5 -121.5 49.5s-89.833 -16.5 -121.5 -49.5s-47.5 -74.833 -47.5 -125.5s15.667 -92.5 47 -125.5s72 -49.5 122 -49.5z" />
    <glyph glyph-name="h" unicode="h" horiz-adv-x="589" 
d="M167 0l-86.001 0.000976562v750h86v-327c34 58 87 87 159 87c56.667 0 102.334 -18.333 137.001 -55s52 -85.667 52 -147v-308h-85v295c0 42 -10.667 75.167 -32 99.5s-50 36.5 -86 36.5c-41.333 0 -75.833 -16.333 -103.5 -49s-41.5 -77.334 -41.5 -134.001v-248z" />
    <glyph glyph-name="i" unicode="i" horiz-adv-x="249" 
d="M125 634c-17.333 0 -32 5.83301 -44 17.5s-18 26.167 -18 43.5c0 16.667 6 31 18 43s26.667 18 44 18s31.666 -6 42.999 -18s17 -26.333 17 -43c0 -17.333 -5.66699 -31.833 -17 -43.5s-25.666 -17.5 -42.999 -17.5zM81 0v500h86v-500h-86z" />
    <glyph glyph-name="j" unicode="j" horiz-adv-x="257" 
d="M175 500l-0.000976562 -566c0 -50 -14 -88 -42 -114s-64.333 -39 -109 -39c-15.333 0 -29 1 -41 3v77c10.667 -1.33301 20.334 -2 29.001 -2c51.333 0 77 28.333 77 85v556h86zM132.999 634c-17.333 0 -32 5.83301 -44 17.5s-18 26.167 -18 43.5c0 16.667 6 31 18 43
s26.667 18 44 18s31.666 -6 42.999 -18s17 -26.333 17 -43c0 -17.333 -5.66699 -31.833 -17 -43.5s-25.666 -17.5 -42.999 -17.5z" />
    <glyph glyph-name="k" unicode="k" horiz-adv-x="539" 
d="M438 0l-271 250v-250h-86v750h86v-445l218 195h114l-246 -221l301 -279h-116z" />
    <glyph glyph-name="l" unicode="l" horiz-adv-x="249" 
d="M81 0v750h86v-750h-86z" />
    <glyph glyph-name="m" unicode="m" horiz-adv-x="885" 
d="M725 0l0.000976562 294c0 41.333 -8.5 74.5 -25.5 99.5s-41.5 37.5 -73.5 37.5c-40 0 -72.5 -15.667 -97.5 -47s-38.167 -74 -39.5 -128v-256h-86v294c0 42 -8.5 75.333 -25.5 100s-41.167 37 -72.5 37c-41.333 0 -74.666 -16.5 -99.999 -49.5s-38 -77.5 -38 -133.5v-248
h-86v500h86v-77c32 58 82.333 87 151 87c76 0 127.333 -35.667 154 -107c13.333 32.667 34.666 58.667 63.999 78s62.666 29 99.999 29c54 0 96.667 -18.333 128 -55s47 -86 47 -148v-307h-86z" />
    <glyph glyph-name="n" unicode="n" horiz-adv-x="589" 
d="M81 0l-0.000976562 500.001h86v-77c34 58 87 87 159 87c56.667 0 102.334 -18.333 137.001 -55s52 -85.667 52 -147v-308h-85v295c0 42 -10.667 75.167 -32 99.5s-50 36.5 -86 36.5c-41.333 0 -75.833 -16.333 -103.5 -49s-41.5 -77.334 -41.5 -134.001v-248h-86z" />
    <glyph glyph-name="o" unicode="o" horiz-adv-x="606" 
d="M303 -10c-75.333 0 -137.833 25.167 -187.5 75.5s-74.5 111.833 -74.5 184.5s24.833 134.167 74.5 184.5s112.167 75.5 187.5 75.5c74.667 0 136.834 -25.167 186.501 -75.5s74.5 -111.833 74.5 -184.5s-24.833 -134.167 -74.5 -184.5s-111.834 -75.5 -186.501 -75.5z
M303 70c51.333 0 93 17.333 125 52s48 77.334 48 128.001s-16 93.334 -48 128.001s-73.667 52 -125 52s-93.166 -17.333 -125.499 -52s-48.5 -77.334 -48.5 -128.001s16.167 -93.334 48.5 -128.001s74.166 -52 125.499 -52z" />
    <glyph glyph-name="p" unicode="p" horiz-adv-x="631" 
d="M167 -209l-86 0.00195312v709h86v-77c17.333 25.333 41.833 46.166 73.5 62.499s65.834 24.5 102.501 24.5c69.333 0 127.5 -25.333 174.5 -76s70.5 -112 70.5 -184s-23.5 -133.333 -70.5 -184s-105.167 -76 -174.5 -76c-36.667 0 -70.834 8.16699 -102.501 24.5
s-56.167 37.166 -73.5 62.499v-286zM330 69.002c49.333 0 90 17.333 122 52s48 77.667 48 129s-16 94.333 -48 129s-72.667 52 -122 52s-90 -17.333 -122 -52s-48 -77.667 -48 -129s16 -94.333 48 -129s72.667 -52 122 -52z" />
    <glyph glyph-name="q" unicode="q" horiz-adv-x="630" 
d="M549 -209l-86 -0.00195312v286c-17.333 -25.333 -41.833 -46.166 -73.5 -62.499s-65.834 -24.5 -102.501 -24.5c-69.333 0 -127.5 25.333 -174.5 76s-70.5 112 -70.5 184s23.5 133.333 70.5 184s105.167 76 174.5 76c36.667 0 70.834 -8.16699 102.501 -24.5
s56.167 -37.166 73.5 -62.499v77h86v-709zM300 68.998c49.333 0 90 17.333 122 52s48 77.667 48 129s-16 94.333 -48 129s-72.667 52 -122 52c-50 0 -91 -17.333 -123 -52s-48 -77.667 -48 -129s16 -94.333 48 -129s73 -52 123 -52z" />
    <glyph glyph-name="r" unicode="r" horiz-adv-x="366" 
d="M81 0l0.000976562 499.999h86v-97c9.33301 30.667 27.5 55.334 54.5 74.001s55.5 28 85.5 28c14.667 0 27.667 -1.33301 39 -4v-89c-12 5.33301 -27.667 8 -47 8c-34.667 0 -65.334 -15 -92.001 -45s-40 -72.333 -40 -127v-248h-86z" />
    <glyph glyph-name="s" unicode="s" horiz-adv-x="467" 
d="M242 -10c-56 0 -102.835 13.665 -140.502 40.998s-58.5 65.333 -62.5 114h88c5.33301 -28 18.833 -48.667 40.5 -62s46.834 -20 75.501 -20s51.834 5.66699 69.501 17s26.5 27.666 26.5 48.999c0 20 -6.5 36.333 -19.5 49s-34.167 23 -63.5 31l-72 19
c-86 22.667 -129 71.667 -129 147c0 40.667 16.167 73.334 48.5 98.001s73.833 37 124.5 37c51.333 0 93.5 -13.5 126.5 -40.5s51.5 -61.167 55.5 -102.5h-86c-6.66699 22 -18.5 39.333 -35.5 52s-37.167 19 -60.5 19c-24.667 0 -45.167 -5.66699 -61.5 -17
s-24.5 -26.333 -24.5 -45c0 -18 6 -32.667 18 -44s31.333 -20.666 58 -27.999l80 -21c85.333 -21.333 128 -70.666 128 -147.999c0 -48 -17 -84.167 -51 -108.5s-78.333 -36.5 -133 -36.5z" />
    <glyph glyph-name="t" unicode="t" horiz-adv-x="381" 
d="M275 -5c-46 0 -82.999 13 -110.999 39s-42 64 -42 114v273h-106v79h106v139h86v-139h144v-79h-144v-262c0 -31.333 6.66699 -53.333 20 -66s34.333 -19 63 -19c25.333 0 45.666 3.33301 60.999 10v-77c-24 -8 -49.667 -12 -77 -12z" />
    <glyph glyph-name="u" unicode="u" horiz-adv-x="579" 
d="M258 -10c-54.667 0 -99 18.5 -133 55.5s-51 86.167 -51 147.5v307h86v-294c0 -42 10.167 -75.333 30.5 -100s47.833 -37 82.5 -37c40 0 73.167 16.5 99.5 49.5s39.5 77.5 39.5 133.5v248h86v-500h-86v77c-32.667 -58 -84 -87 -154 -87z" />
    <glyph glyph-name="v" unicode="v" horiz-adv-x="546" 
d="M237 0l-231 500h96l171 -379l171 379h96l-231 -500h-72z" />
    <glyph glyph-name="w" unicode="w" horiz-adv-x="763" 
d="M505 0l-124 359l-123 -359h-76l-170 500h90l121 -365l125 365h66l125 -365l121 365h91l-170 -500h-76z" />
    <glyph glyph-name="x" unicode="x" horiz-adv-x="530" 
d="M417 0l-152 189l-152 -189h-107l205 253l-188 247h104l138 -181l137 181h105l-189 -247l205 -253h-106z" />
    <glyph glyph-name="y" unicode="y" horiz-adv-x="547" 
d="M214 -209h-96l109 235l-219 474h95l172 -380l171 380h96z" />
    <glyph glyph-name="z" unicode="z" horiz-adv-x="484" 
d="M40 0v68l286 353h-282v79h393v-69l-286 -352h295v-79h-406z" />
    <glyph glyph-name="braceleft" unicode="{" horiz-adv-x="316" 
d="M290 -160l-59.999 -0.000976562c-46 0 -78.667 11.667 -98 35s-29 59.333 -29 108v230c0 24.667 -3.83301 42.667 -11.5 54s-23.167 17 -46.5 17h-15v72h15c23.333 0 38.833 5.33301 46.5 16s11.5 28.667 11.5 54v231c0 48.667 9.5 84.667 28.5 108s51.5 35 97.5 35h61
v-72h-48c-24.667 0 -41 -5.5 -49 -16.5s-12 -29.833 -12 -56.5v-225c0 -32 -3.83301 -56 -11.5 -72s-21.834 -28.667 -42.501 -38c20 -9.33301 34 -22.166 42 -38.499s12 -40.5 12 -72.5v-224c0 -27.333 4 -46.333 12 -57s24.333 -16 49 -16h48v-72z" />
    <glyph glyph-name="bar" unicode="|" horiz-adv-x="262" 
d="M92 -110v820h79v-820h-79z" />
    <glyph glyph-name="braceright" unicode="}" horiz-adv-x="316" 
d="M86 -160l-59.999 0.000976562v72h48c24.667 0 41 5.33301 49 16s12 29.667 12 57v224c0 32 4 56.167 12 72.5s22 29.166 42 38.499c-20.667 9.33301 -34.834 22 -42.501 38s-11.5 40 -11.5 72v225c0 26.667 -4 45.5 -12 56.5s-24.333 16.5 -49 16.5h-48v72h61
c46 0 78.5 -11.667 97.5 -35s28.5 -59.333 28.5 -108v-231c0 -25.333 3.83301 -43.333 11.5 -54s23.167 -16 46.5 -16h15v-72h-15c-23.333 0 -38.833 -5.66699 -46.5 -17s-11.5 -29.333 -11.5 -54v-230c0 -48.667 -9.66699 -84.667 -29 -108s-52 -35 -98 -35z" />
    <glyph glyph-name="asciitilde" unicode="~" horiz-adv-x="412" 
d="M69 230l55 119h46l81 -59l27 59h67l-55 -119h-46l-82 58l-26 -58h-67z" />
    <glyph glyph-name="uni00A0" unicode="&#xa0;" horiz-adv-x="241" 
 />
    <glyph glyph-name="exclamdown" unicode="&#xa1;" horiz-adv-x="258" 
d="M156 280l16 -204v-285h-86v285l16 204h54zM129 362c-20.667 0 -38.167 7.33301 -52.5 22s-21.5 32.334 -21.5 53.001c0 20 7.33301 37.5 22 52.5s32 22.5 52 22.5s37.333 -7.5 52 -22.5s22 -32.5 22 -52.5c0 -20.667 -7.16699 -38.334 -21.5 -53.001
s-31.833 -22 -52.5 -22z" />
    <glyph glyph-name="cent" unicode="&#xa2;" horiz-adv-x="592" 
d="M277 -88l-0.000976562 79.998c-68 6.66699 -123.667 34.5 -167 83.5s-65 107.167 -65 174.5c0 66.667 21.833 124.667 65.5 174s99.167 77.333 166.5 84v80h54v-79c56.667 -5.33301 105.334 -24.666 146.001 -57.999s67.667 -75.666 81 -126.999h-92
c-10 28.667 -27 52.334 -51 71.001s-52 30 -84 34v-359c32 4.66699 60 16.5 84 35.5s41 42.5 51 70.5h92c-14 -51.333 -41.167 -93.833 -81.5 -127.5s-88.833 -52.834 -145.5 -57.501v-79h-54zM131.999 249.998c0 -46 13.333 -85.665 40 -118.998s61.667 -53.333 105 -60
v357c-44 -6.66699 -79.167 -26.334 -105.5 -59.001s-39.5 -72.334 -39.5 -119.001z" />
    <glyph glyph-name="sterling" unicode="&#xa3;" horiz-adv-x="563" 
d="M51 336l-0.00292969 55.001h62c-14.667 52.667 -22 94.667 -22 126c0 56.667 19.667 105 59 145s90.333 60 153 60c62 0 112.833 -20.833 152.5 -62.5s60.167 -92.5 61.5 -152.5h-86c-1.33301 37.333 -13.666 68.5 -36.999 93.5s-53.666 37.5 -90.999 37.5
s-67.666 -11.667 -90.999 -35s-35 -53 -35 -89c0 -26.667 8.33301 -67.667 25 -123h191v-55h-173c16 -52.667 24 -95.334 24 -128.001c0 -50 -12.333 -91.333 -37 -124h310v-84h-466v84h62c31.333 33.333 47 73 47 119c0 20.667 -10 65 -30 133h-79z" />
    <glyph glyph-name="yen" unicode="&#xa5;" horiz-adv-x="673" 
d="M86 300v54h174l-230 356h103l203 -324l203 324h104l-229 -356h173v-54h-207v-75h207v-54h-207v-171h-86v171h-208v54h208v75h-208z" />
    <glyph glyph-name="brokenbar" unicode="&#xa6;" horiz-adv-x="262" 
d="M92 -110v362h79v-362h-79zM92 348v362h79v-362h-79z" />
    <glyph glyph-name="section" unicode="&#xa7;" horiz-adv-x="458" 
d="M239 -219c-44 0 -82.167 11.333 -114.5 34s-51.166 57.667 -56.499 105h80c10 -46 40.333 -69 91 -69c24.667 0 45.167 7.66699 61.5 23s24.166 35.666 23.499 60.999c-2.66699 52 -35 92.667 -97 122l-63 30c-74 34.667 -111 89.334 -111 164.001
s35.667 129.334 107 164.001c-68.667 40.667 -103 94.334 -103 161.001c0 44 14 79.333 42 106s65.667 40 113 40c43.333 0 79.833 -11.333 109.5 -34s47.167 -57.667 52.5 -105h-80c-10 46 -37.333 69 -82 69c-23.333 0 -41.833 -7 -55.5 -21s-20.5 -32.333 -20.5 -55
c0 -14.667 2.5 -27.834 7.5 -39.501s12.667 -22 23 -31s20 -16.333 29 -22s21.167 -12.5 36.5 -20.5l63 -30c74.667 -34.667 112 -89.334 112 -164.001c0 -76.667 -36.333 -131.334 -109 -164.001c67.333 -41.333 102.333 -98.333 105 -171
c0 -45.333 -15.5 -82.166 -46.5 -110.499s-70.167 -42.5 -117.5 -42.5zM132 255c0 -45.333 26.333 -80.001 79 -104.001l7 -4c36.667 14 64.167 29.833 82.5 47.5s27.5 41.5 27.5 71.5c0 44.667 -26.333 79.334 -79 104.001l-7 3
c-36.667 -13.333 -64.167 -28.833 -82.5 -46.5s-27.5 -41.5 -27.5 -71.5z" />
    <glyph glyph-name="dieresis" unicode="&#xa8;" 
d="M-112 596c-16.667 0 -30.667 5.66699 -42 17s-17 25 -17 41s5.66699 29.833 17 41.5s25.333 17.5 42 17.5c16 0 29.667 -5.83301 41 -17.5s17 -25.5 17 -41.5s-5.66699 -29.667 -17 -41s-25 -17 -41 -17zM113 596c-16 0 -29.833 5.66699 -41.5 17s-17.5 25 -17.5 41
s5.83301 29.833 17.5 41.5s25.5 17.5 41.5 17.5s29.667 -5.83301 41 -17.5s17 -25.5 17 -41.5s-5.66699 -29.667 -17 -41s-25 -17 -41 -17z" />
    <glyph glyph-name="copyright" unicode="&#xa9;" horiz-adv-x="824" 
d="M416 163c-56 0 -102.5 18.5 -139.5 55.5s-55.5 82.5 -55.5 136.5s18.5 99.667 55.5 137s83.5 56 139.5 56c43.333 0 81.833 -12.333 115.5 -37s55.167 -56.667 64.5 -96h-76c-8 20 -21.5 35.833 -40.5 47.5s-40.167 17.5 -63.5 17.5c-36 0 -65.667 -12.167 -89 -36.5
s-35 -53.833 -35 -88.5c0 -36 11.333 -65.667 34 -89s52.667 -35 90 -35c23.333 0 44.5 5.83301 63.5 17.5s32.5 27.167 40.5 46.5h76c-9.33301 -38 -30.833 -69.5 -64.5 -94.5s-72.167 -37.5 -115.5 -37.5zM411 59c81.333 0 151.166 29 209.499 87s87.5 127.667 87.5 209
s-29.167 151 -87.5 209s-128.166 87 -209.499 87c-80.667 0 -150 -29 -208 -87s-87 -127.667 -87 -209s29 -151 87 -209s127.333 -87 208 -87zM411 -12c-100.667 0 -186.834 36 -258.501 108s-107.5 158.333 -107.5 259s35.833 187 107.5 259s157.834 108 258.501 108
c101.333 0 188 -35.833 260 -107.5s108 -158.167 108 -259.5s-36 -187.833 -108 -259.5s-158.667 -107.5 -260 -107.5z" />
    <glyph glyph-name="ordfeminine" unicode="&#xaa;" horiz-adv-x="420" 
d="M186 404c-40 0 -73.833 15.3311 -101.5 45.998s-41.5 67.334 -41.5 110.001s13.833 79.334 41.5 110.001s61.5 46 101.5 46c42.667 0 74.334 -14.667 95.001 -44v38h70v-300h-70v38c-20.667 -29.333 -52.334 -44 -95.001 -44zM200 466.998
c25.333 0 46.166 8.83301 62.499 26.5s24.5 39.834 24.5 66.501s-8.16699 48.834 -24.5 66.501s-37.166 26.5 -62.499 26.5s-46 -8.83301 -62 -26.5s-24 -39.834 -24 -66.501s8 -48.834 24 -66.501s36.667 -26.5 62 -26.5z" />
    <glyph glyph-name="guillemotleft" unicode="&#xab;" horiz-adv-x="477" 
d="M216 250l141 217h73l-116 -217l116 -217h-73zM43 250l141 217h73l-116 -217l116 -217h-73z" />
    <glyph glyph-name="uni00AD" unicode="&#xad;" horiz-adv-x="386" 
d="M65 237v86h255v-86h-255z" />
    <glyph glyph-name="registered" unicode="&#xae;" horiz-adv-x="824" 
d="M411 -12c-100.667 0 -186.834 36 -258.501 108s-107.5 158.333 -107.5 259s35.833 187 107.5 259s157.834 108 258.501 108c101.333 0 188 -35.833 260 -107.5s108 -158.167 108 -259.5s-36 -187.833 -108 -259.5s-158.667 -107.5 -260 -107.5zM411 59
c81.333 0 151.166 29 209.499 87s87.5 127.667 87.5 209s-29.167 151 -87.5 209s-128.166 87 -209.499 87c-80.667 0 -150 -29 -208 -87s-87 -127.667 -87 -209s29 -151 87 -209s127.333 -87 208 -87zM293 169l-0.000976562 373h139c34.667 0 62.334 -10.167 83.001 -30.5
s31 -46.5 31 -78.5c0 -51.333 -26.333 -84.333 -79 -99l135 -165h-85l-131 159h-22v-159h-71zM363.999 389h60c15.333 0 27.833 4 37.5 12s14.5 18.667 14.5 32c0 14 -4.66699 24.667 -14 32s-22 11 -38 11h-60v-87z" />
    <glyph glyph-name="macron" unicode="&#xaf;" 
d="M-161 641v69h322v-69h-322z" />
    <glyph glyph-name="degree" unicode="&#xb0;" horiz-adv-x="347" 
d="M174 517c18.667 0 34.5 6.5 47.5 19.5s19.5 28.833 19.5 47.5s-6.5 34.667 -19.5 48s-28.833 20 -47.5 20c-19.333 0 -35.5 -6.66699 -48.5 -20s-19.5 -29.333 -19.5 -48s6.5 -34.5 19.5 -47.5s29.167 -19.5 48.5 -19.5zM174 455c-36 0 -66.667 12.5 -92 37.5
s-38 55.5 -38 91.5s12.667 66.667 38 92s56 38 92 38s66.5 -12.667 91.5 -38s37.5 -56 37.5 -92s-12.5 -66.5 -37.5 -91.5s-55.5 -37.5 -91.5 -37.5z" />
    <glyph glyph-name="twosuperior" unicode="&#xb2;" horiz-adv-x="353" 
d="M319 478l0.000976562 -68h-287v25c0 11.333 1.33301 22.5 4 33.5s5.5 20.5 8.5 28.5s8.33301 16.667 16 26s13.5 16.666 17.5 21.999s11.5 12.333 22.5 21l22.5 17.5c4 3 12.667 9 26 18s21.333 14.5 24 16.5c25.333 18.667 43.666 35 54.999 49s17 30.667 17 50
c0 18.667 -6.16699 33.834 -18.5 45.501s-28.5 17.5 -48.5 17.5c-22 0 -40 -6.5 -54 -19.5s-21 -30.167 -21 -51.5h-71c0 41.333 14 75 42 101s63 39 105 39c38 0 70.167 -11.333 96.5 -34s39.5 -54.667 39.5 -96c0 -32.667 -7.33301 -60 -22 -82s-38.667 -45.333 -72 -70
l-28 -19c-14.667 -10 -25.167 -17.5 -31.5 -22.5s-13.5 -12 -21.5 -21s-13.333 -17.833 -16 -26.5h195z" />
    <glyph glyph-name="threesuperior" unicode="&#xb3;" horiz-adv-x="365" 
d="M186 404c-43.333 0 -80.332 13.002 -110.999 39.002s-46 60.333 -46 103h69c2 -23.333 11.167 -41.5 27.5 -54.5s36.833 -19.5 61.5 -19.5c22 0 39.833 5.66699 53.5 17s20.5 27 20.5 47c0 21.333 -7.33301 37.833 -22 49.5s-34.334 17.5 -59.001 17.5h-34v60h34
c21.333 0 38 5.33301 50 16s18.333 25 19 43c0.666992 17.333 -5.33301 31.333 -18 42s-28.334 16 -47.001 16c-22 0 -40.333 -6.5 -55 -19.5s-22 -30.167 -22 -51.5h-70c0 42.667 14.333 76.667 43 102s63.334 38 104.001 38c41.333 0 74.333 -11.333 99 -34
s37 -52.334 37 -89.001c-0.666992 -41.333 -18 -72.333 -52 -93c42.667 -18.667 64 -52.334 64 -101.001c0 -38 -13.5 -68.833 -40.5 -92.5s-62.167 -35.5 -105.5 -35.5z" />
    <glyph glyph-name="acute" unicode="&#xb4;" 
d="M-102 560l93 190h110l-134 -190h-69z" />
    <glyph glyph-name="paragraph" unicode="&#xb6;" horiz-adv-x="624" 
d="M255 -184v444c-62 0 -115 22 -159 66s-66 97 -66 159s22 115 66 159s97 66 159 66h265v-894h-79v815h-107v-815h-79z" />
    <glyph glyph-name="periodcentered" unicode="&#xb7;" horiz-adv-x="270" 
d="M135 197c-20.667 0 -38.167 7.33301 -52.5 22s-21.5 32.334 -21.5 53.001c0 20 7.33301 37.5 22 52.5s32 22.5 52 22.5s37.333 -7.5 52 -22.5s22 -32.5 22 -52.5c0 -20.667 -7.16699 -38.334 -21.5 -53.001s-31.833 -22 -52.5 -22z" />
    <glyph glyph-name="cedilla" unicode="&#xb8;" 
d="M-107 -204v55c20 -11.333 45.333 -17 76 -17c19.333 0 35.5 3.5 48.5 10.5s19.5 17.167 19.5 30.5c0 20 -15.667 30 -47 30c-15.333 0 -30 -3.33301 -44 -10l-33 21l53 87h54l-34 -56c10 4.66699 23.333 7 40 7c24 0 43.5 -6.83301 58.5 -20.5s22.5 -32.167 22.5 -55.5
c0 -28.667 -12.5 -52 -37.5 -70s-55.833 -27 -92.5 -27c-35.333 0 -63.333 5 -84 15z" />
    <glyph glyph-name="onesuperior" unicode="&#xb9;" horiz-adv-x="229" 
d="M98 410v363h-87l52 69h105v-432h-70z" />
    <glyph glyph-name="ordmasculine" unicode="&#xba;" horiz-adv-x="398" 
d="M199 404c-44.667 0 -82 15 -112 45s-45 67 -45 111s15 81 45 111s67.333 45 112 45c44 0 81.167 -15 111.5 -45s45.5 -67 45.5 -111s-15.167 -81 -45.5 -111s-67.5 -45 -111.5 -45zM199 469c25.333 0 46.166 8.66699 62.499 26s24.5 39 24.5 65s-8.16699 47.667 -24.5 65
s-37.166 26 -62.499 26s-46 -8.66699 -62 -26s-24 -39 -24 -65s8 -47.667 24 -65s36.667 -26 62 -26z" />
    <glyph glyph-name="guillemotright" unicode="&#xbb;" horiz-adv-x="477" 
d="M293 467l141 -217l-141 -217h-73l116 217l-116 217h73zM120 467l141 -217l-141 -217h-73l116 217l-116 217h73z" />
    <glyph glyph-name="onequarter" unicode="&#xbc;" horiz-adv-x="788" 
d="M98 278v363h-87l52 69h105v-432h-70zM125 0h-81l500 710h81zM637 1v107h-221v56l228 269h63v-261h58v-64h-58v-107h-70zM502 172h135v157z" />
    <glyph glyph-name="onehalf" unicode="&#xbd;" horiz-adv-x="777" 
d="M98 278v363h-87l52 69h105v-432h-70zM125 0h-81l500 710h81zM743 69l0.000976562 -68h-287v25c0 11.333 1.33301 22.5 4 33.5s5.5 20.5 8.5 28.5s8.33301 16.667 16 26s13.5 16.666 17.5 21.999s11.5 12.333 22.5 21l22.5 17.5c4 3 12.667 9 26 18s21.333 14.5 24 16.5
c25.333 18.667 43.666 35 54.999 49s17 30.667 17 50c0 18.667 -6.16699 33.834 -18.5 45.501s-28.5 17.5 -48.5 17.5c-22 0 -40 -6.5 -54 -19.5s-21 -30.167 -21 -51.5h-71c0 41.333 14 75 42 101s63 39 105 39c38 0 70.167 -11.333 96.5 -34s39.5 -54.667 39.5 -96
c0 -32.667 -7.33301 -60 -22 -82s-38.667 -45.333 -72 -70l-28 -19c-14.667 -10 -25.167 -17.5 -31.5 -22.5s-13.5 -12 -21.5 -21s-13.333 -17.833 -16 -26.5h195z" />
    <glyph glyph-name="threequarters" unicode="&#xbe;" horiz-adv-x="908" 
d="M186 272c-43.333 0 -80.332 13.002 -110.999 39.002s-46 60.333 -46 103h69c2 -23.333 11.167 -41.5 27.5 -54.5s36.833 -19.5 61.5 -19.5c22 0 39.833 5.66699 53.5 17s20.5 27 20.5 47c0 21.333 -7.33301 37.833 -22 49.5s-34.334 17.5 -59.001 17.5h-34v60h34
c21.333 0 38 5.33301 50 16s18.333 25 19 43c0.666992 17.333 -5.33301 31.333 -18 42s-28.334 16 -47.001 16c-22 0 -40.333 -6.5 -55 -19.5s-22 -30.167 -22 -51.5h-70c0 42.667 14.333 76.667 43 102s63.334 38 104.001 38c41.333 0 74.333 -11.333 99 -34
s37 -52.334 37 -89.001c-0.666992 -41.333 -18 -72.333 -52 -93c42.667 -18.667 64 -52.334 64 -101.001c0 -38 -13.5 -68.833 -40.5 -92.5s-62.167 -35.5 -105.5 -35.5zM246.001 0.00195312h-81l500 710h81zM758.001 1.00195v107h-221v56l228 269h63v-261h58v-64h-58v-107
h-70zM623.001 172.002h135v157z" />
    <glyph glyph-name="questiondown" unicode="&#xbf;" horiz-adv-x="494" 
d="M308 266l0.00292969 -20.001c0 -42.667 -30.333 -86 -91 -130c-32.667 -23.333 -56.334 -44.166 -71.001 -62.499s-22 -40.833 -22 -67.5c0 -34.667 11.167 -63.667 33.5 -87s51.166 -35 86.499 -35c40 0 72.5 12.167 97.5 36.5s37.5 56.5 37.5 96.5h86
c0 -60.667 -21 -112 -63 -154s-94.667 -63 -158 -63c-60.667 0 -110.167 20 -148.5 60s-57.5 88 -57.5 144c0 40 9.66699 74 29 102s44.666 54 75.999 78l15.5 12l16.5 13l14.5 12c6.33301 5.33301 10.833 9.83301 13.5 13.5l9.5 13c3.66699 5 6.16699 10 7.5 15
s2 10.167 2 15.5v8h86zM266.003 509.999c20.667 0 38.167 -7.33301 52.5 -22s21.5 -32.334 21.5 -53.001c0 -20 -7.33301 -37.5 -22 -52.5s-32 -22.5 -52 -22.5s-37.333 7.5 -52 22.5s-22 32.5 -22 52.5c0 20.667 7.16699 38.334 21.5 53.001s31.833 22 52.5 22z" />
    <glyph glyph-name="Agrave" unicode="&#xc0;" horiz-adv-x="718" 
d="M6 0l314 710h77l315 -710h-97l-92 207h-331l-90 -207h-96zM357 584l-128 -293h257zM392 770h-72l-114 157h108z" />
    <glyph glyph-name="Aacute" unicode="&#xc1;" horiz-adv-x="718" 
d="M6 0l314 710h77l315 -710h-97l-92 207h-331l-90 -207h-96zM357 584l-128 -293h257zM331 770l78 157h108l-114 -157h-72z" />
    <glyph glyph-name="Acircumflex" unicode="&#xc2;" horiz-adv-x="718" 
d="M6 0l314 710h77l315 -710h-97l-92 207h-331l-90 -207h-96zM357 584l-128 -293h257zM192 768v77l166 87l166 -87v-77l-166 87z" />
    <glyph glyph-name="Atilde" unicode="&#xc3;" horiz-adv-x="718" 
d="M6 0l314 710h77l315 -710h-97l-92 207h-331l-90 -207h-96zM357 584l-128 -293h257zM185 786l3.00293 18c5.33301 28.667 17.666 51.667 36.999 69s42.333 26 69 26c18.667 0 42.667 -7.33301 72 -22s48.333 -22 57 -22c21.333 0 35.666 14.667 42.999 44h66l-4 -19
c-5.33301 -28.667 -17.5 -51.5 -36.5 -68.5s-42.167 -25.5 -69.5 -25.5c-19.333 0 -43.333 7.33301 -72 22s-47.334 22 -56.001 22c-21.333 0 -36 -14.667 -44 -44h-65z" />
    <glyph glyph-name="Adieresis" unicode="&#xc4;" horiz-adv-x="718" 
d="M6 0l314 710h77l315 -710h-97l-92 207h-331l-90 -207h-96zM357 584l-128 -293h257zM246 785c-16.667 0 -30.667 5.66699 -42 17s-17 25 -17 41s5.66699 29.833 17 41.5s25.333 17.5 42 17.5c16 0 29.667 -5.83301 41 -17.5s17 -25.5 17 -41.5s-5.66699 -29.667 -17 -41
s-25 -17 -41 -17zM471 785c-16 0 -29.833 5.66699 -41.5 17s-17.5 25 -17.5 41s5.83301 29.833 17.5 41.5s25.5 17.5 41.5 17.5s29.667 -5.83301 41 -17.5s17 -25.5 17 -41.5s-5.66699 -29.667 -17 -41s-25 -17 -41 -17z" />
    <glyph glyph-name="Aring" unicode="&#xc5;" horiz-adv-x="718" 
d="M6 0l314 710h77l315 -710h-97l-92 207h-331l-90 -207h-96zM357 584l-128 -293h257zM358 753c-33.333 0 -61.833 11.6709 -85.5 35.0039s-35.5 51.666 -35.5 84.999s11.833 61.666 35.5 84.999s52.167 35 85.5 35s62 -11.833 86 -35.5s36 -51.834 36 -84.501
s-12 -60.834 -36 -84.501s-52.667 -35.5 -86 -35.5zM358 804.004c19.333 0 36 6.66699 50 20s21 29.666 21 48.999s-7 35.833 -21 49.5s-30.667 20.5 -50 20.5s-35.666 -6.83301 -48.999 -20.5s-20 -30.167 -20 -49.5s6.66699 -35.666 20 -48.999s29.666 -20 48.999 -20z
" />
    <glyph glyph-name="AE" unicode="&#xc6;" horiz-adv-x="914" 
d="M451 0v207h-248l-123 -207h-103l425 710h463v-88h-321v-215h261v-88h-261v-231h321v-88h-414zM450 622l-197 -331h198v331h-1z" />
    <glyph glyph-name="Ccedilla" unicode="&#xc7;" horiz-adv-x="788" 
d="M414 -12c-104.667 0 -192.167 35.1689 -262.5 105.502s-105.5 157.5 -105.5 261.5s35.167 191.167 105.5 261.5s157.833 105.5 262.5 105.5c85.333 0 159.166 -24 221.499 -72s101.833 -106 118.5 -174h-98c-16.667 46 -46.834 83.833 -90.501 113.5
s-94.167 44.5 -151.5 44.5c-78.667 0 -144.167 -26.833 -196.5 -80.5s-78.5 -119.834 -78.5 -198.501s26.167 -144.834 78.5 -198.501s117.833 -80.5 196.5 -80.5c57.333 0 107.833 14.833 151.5 44.5s73.834 67.5 90.501 113.5h98c-16.667 -68 -56.167 -126 -118.5 -174
s-136.166 -72 -221.499 -72zM306 -203.998v55c20 -11.333 45.333 -17 76 -17c19.333 0 35.5 3.33301 48.5 10s19.5 17 19.5 31c0 20 -15.333 30 -46 30c-16 0 -31 -3.33301 -45 -10l-32 21l52 87h55l-34 -56c10 4.66699 23.333 7 40 7c24 0 43.333 -6.83301 58 -20.5
s22 -32.167 22 -55.5c0 -28.667 -12.333 -52 -37 -70s-55.334 -27 -92.001 -27c-35.333 0 -63.666 5 -84.999 15z" />
    <glyph glyph-name="Egrave" unicode="&#xc8;" horiz-adv-x="557" 
d="M94 0v710h414v-88h-321v-215h261v-88h-261v-231h321v-88h-414zM334 770h-72l-114 157h108z" />
    <glyph glyph-name="Eacute" unicode="&#xc9;" horiz-adv-x="557" 
d="M94 0v710h414v-88h-321v-215h261v-88h-261v-231h321v-88h-414zM273 770l78 157h108l-114 -157h-72z" />
    <glyph glyph-name="Ecircumflex" unicode="&#xca;" horiz-adv-x="557" 
d="M94 0v710h414v-88h-321v-215h261v-88h-261v-231h321v-88h-414zM135 768v77l166 87l166 -87v-77l-166 87z" />
    <glyph glyph-name="Edieresis" unicode="&#xcb;" horiz-adv-x="557" 
d="M94 0v710h414v-88h-321v-215h261v-88h-261v-231h321v-88h-414zM189 785c-16.667 0 -30.667 5.66699 -42 17s-17 25 -17 41s5.66699 29.833 17 41.5s25.333 17.5 42 17.5c16 0 29.667 -5.83301 41 -17.5s17 -25.5 17 -41.5s-5.66699 -29.667 -17 -41s-25 -17 -41 -17z
M414 785c-16 0 -29.833 5.66699 -41.5 17s-17.5 25 -17.5 41s5.83301 29.833 17.5 41.5s25.5 17.5 41.5 17.5s29.667 -5.83301 41 -17.5s17 -25.5 17 -41.5s-5.66699 -29.667 -17 -41s-25 -17 -41 -17z" />
    <glyph glyph-name="Igrave" unicode="&#xcc;" horiz-adv-x="281" 
d="M94 0v710h93v-710h-93zM174 770h-72l-114 157h108z" />
    <glyph glyph-name="Iacute" unicode="&#xcd;" horiz-adv-x="281" 
d="M94 0v710h93v-710h-93zM113 770l78 157h108l-114 -157h-72z" />
    <glyph glyph-name="Icircumflex" unicode="&#xce;" horiz-adv-x="281" 
d="M94 0v710h93v-710h-93zM-25 768v77l166 87l166 -87v-77l-166 87z" />
    <glyph glyph-name="Idieresis" unicode="&#xcf;" horiz-adv-x="281" 
d="M94 0v710h93v-710h-93zM29 785c-16.667 0 -30.667 5.66699 -42 17s-17 25 -17 41s5.66699 29.833 17 41.5s25.333 17.5 42 17.5c16 0 29.667 -5.83301 41 -17.5s17 -25.5 17 -41.5s-5.66699 -29.667 -17 -41s-25 -17 -41 -17zM254 785c-16 0 -29.833 5.66699 -41.5 17
s-17.5 25 -17.5 41s5.83301 29.833 17.5 41.5s25.5 17.5 41.5 17.5s29.667 -5.83301 41 -17.5s17 -25.5 17 -41.5s-5.66699 -29.667 -17 -41s-25 -17 -41 -17z" />
    <glyph glyph-name="Eth" unicode="&#xd0;" horiz-adv-x="729" 
d="M101 0v710h204c108.667 0 198.834 -33.667 270.501 -101s107.5 -152 107.5 -254s-35.833 -186.667 -107.5 -254s-161.834 -101 -270.501 -101h-204zM194 87h111c84.667 0 153.167 25.167 205.5 75.5s78.5 114.5 78.5 192.5s-26.167 142.167 -78.5 192.5
s-120.833 75.5 -205.5 75.5h-111v-536zM28 319v82h326v-82h-326z" />
    <glyph glyph-name="Ntilde" unicode="&#xd1;" horiz-adv-x="794" 
d="M699 0h-80l-432 553v-553h-93v710h81l432 -553v553h92v-710zM220 786l3.00293 18c5.33301 28.667 17.666 51.667 36.999 69s42.333 26 69 26c19.333 0 43.333 -7.33301 72 -22s47.667 -22 57 -22c21.333 0 35.666 14.667 42.999 44h66l-4 -19
c-5.33301 -28.667 -17.5 -51.5 -36.5 -68.5s-42.167 -25.5 -69.5 -25.5c-19.333 0 -43.333 7.33301 -72 22s-47.334 22 -56.001 22c-21.333 0 -36 -14.667 -44 -44h-65z" />
    <glyph glyph-name="Ograve" unicode="&#xd2;" horiz-adv-x="825" 
d="M412 76c78 0 143.167 27 195.5 81s78.5 120 78.5 198s-26.167 144 -78.5 198s-117.5 81 -195.5 81c-77.333 0 -142.166 -27 -194.499 -81s-78.5 -120 -78.5 -198s26.167 -144 78.5 -198s117.166 -81 194.499 -81zM412 -12c-102 0 -188.667 35.5 -260 106.5
s-107 157.833 -107 260.5s35.667 189.5 107 260.5s158 106.5 260 106.5c102.667 0 189.5 -35.5 260.5 -106.5s106.5 -157.833 106.5 -260.5s-35.5 -189.5 -106.5 -260.5s-157.833 -106.5 -260.5 -106.5zM446 770h-72l-114 157h108z" />
    <glyph glyph-name="Oacute" unicode="&#xd3;" horiz-adv-x="825" 
d="M412 76c78 0 143.167 27 195.5 81s78.5 120 78.5 198s-26.167 144 -78.5 198s-117.5 81 -195.5 81c-77.333 0 -142.166 -27 -194.499 -81s-78.5 -120 -78.5 -198s26.167 -144 78.5 -198s117.166 -81 194.499 -81zM412 -12c-102 0 -188.667 35.5 -260 106.5
s-107 157.833 -107 260.5s35.667 189.5 107 260.5s158 106.5 260 106.5c102.667 0 189.5 -35.5 260.5 -106.5s106.5 -157.833 106.5 -260.5s-35.5 -189.5 -106.5 -260.5s-157.833 -106.5 -260.5 -106.5zM385 770l78 157h108l-114 -157h-72z" />
    <glyph glyph-name="Ocircumflex" unicode="&#xd4;" horiz-adv-x="825" 
d="M412 76c78 0 143.167 27 195.5 81s78.5 120 78.5 198s-26.167 144 -78.5 198s-117.5 81 -195.5 81c-77.333 0 -142.166 -27 -194.499 -81s-78.5 -120 -78.5 -198s26.167 -144 78.5 -198s117.166 -81 194.499 -81zM412 -12c-102 0 -188.667 35.5 -260 106.5
s-107 157.833 -107 260.5s35.667 189.5 107 260.5s158 106.5 260 106.5c102.667 0 189.5 -35.5 260.5 -106.5s106.5 -157.833 106.5 -260.5s-35.5 -189.5 -106.5 -260.5s-157.833 -106.5 -260.5 -106.5zM246 768v77l166 87l166 -87v-77l-166 87z" />
    <glyph glyph-name="Otilde" unicode="&#xd5;" horiz-adv-x="825" 
d="M412 76c78 0 143.167 27 195.5 81s78.5 120 78.5 198s-26.167 144 -78.5 198s-117.5 81 -195.5 81c-77.333 0 -142.166 -27 -194.499 -81s-78.5 -120 -78.5 -198s26.167 -144 78.5 -198s117.166 -81 194.499 -81zM412 -12c-102 0 -188.667 35.5 -260 106.5
s-107 157.833 -107 260.5s35.667 189.5 107 260.5s158 106.5 260 106.5c102.667 0 189.5 -35.5 260.5 -106.5s106.5 -157.833 106.5 -260.5s-35.5 -189.5 -106.5 -260.5s-157.833 -106.5 -260.5 -106.5zM239 786l3.00293 18c5.33301 28.667 17.666 51.667 36.999 69
s42.333 26 69 26c18.667 0 42.667 -7.33301 72 -22s48.333 -22 57 -22c21.333 0 35.666 14.667 42.999 44h66l-4 -19c-5.33301 -28.667 -17.5 -51.5 -36.5 -68.5s-42.167 -25.5 -69.5 -25.5c-19.333 0 -43.333 7.33301 -72 22s-47.334 22 -56.001 22
c-21.333 0 -36 -14.667 -44 -44h-65z" />
    <glyph glyph-name="Odieresis" unicode="&#xd6;" horiz-adv-x="825" 
d="M412 76c78 0 143.167 27 195.5 81s78.5 120 78.5 198s-26.167 144 -78.5 198s-117.5 81 -195.5 81c-77.333 0 -142.166 -27 -194.499 -81s-78.5 -120 -78.5 -198s26.167 -144 78.5 -198s117.166 -81 194.499 -81zM412 -12c-102 0 -188.667 35.5 -260 106.5
s-107 157.833 -107 260.5s35.667 189.5 107 260.5s158 106.5 260 106.5c102.667 0 189.5 -35.5 260.5 -106.5s106.5 -157.833 106.5 -260.5s-35.5 -189.5 -106.5 -260.5s-157.833 -106.5 -260.5 -106.5zM300 785c-16.667 0 -30.667 5.66699 -42 17s-17 25 -17 41
s5.66699 29.833 17 41.5s25.333 17.5 42 17.5c16 0 29.667 -5.83301 41 -17.5s17 -25.5 17 -41.5s-5.66699 -29.667 -17 -41s-25 -17 -41 -17zM525 785c-16 0 -29.833 5.66699 -41.5 17s-17.5 25 -17.5 41s5.83301 29.833 17.5 41.5s25.5 17.5 41.5 17.5
s29.667 -5.83301 41 -17.5s17 -25.5 17 -41.5s-5.66699 -29.667 -17 -41s-25 -17 -41 -17z" />
    <glyph glyph-name="multiply" unicode="&#xd7;" horiz-adv-x="503" 
d="M109 94l-56 55l143 141l-143 140l56 56l143 -140l142 140l56 -56l-143 -140l143 -141l-56 -55l-142 140z" />
    <glyph glyph-name="Oslash" unicode="&#xd8;" horiz-adv-x="826" 
d="M413 76c78 0 143.167 27 195.5 81s78.5 120 78.5 198s-26.167 144 -78.5 198s-117.5 81 -195.5 81c-77.333 0 -142.166 -27 -194.499 -81s-78.5 -120 -78.5 -198s26.167 -144 78.5 -198s117.166 -81 194.499 -81zM413 -12c-102 0 -188.667 35.5 -260 106.5
s-107 157.833 -107 260.5s35.667 189.5 107 260.5s158 106.5 260 106.5c102.667 0 189.5 -35.5 260.5 -106.5s106.5 -157.833 106.5 -260.5s-35.5 -189.5 -106.5 -260.5s-157.833 -106.5 -260.5 -106.5zM752 679l-622 -699l-56 52l623 698z" />
    <glyph glyph-name="Ugrave" unicode="&#xd9;" horiz-adv-x="726" 
d="M363 -12c-82.667 0 -149.667 26.167 -201 78.5s-77 122.166 -77 209.499v434h93v-436c0 -63.333 16.667 -112.166 50 -146.499s78.333 -51.5 135 -51.5s101.667 17.167 135 51.5s50 83.166 50 146.499v436h93v-434c0 -87.333 -25.667 -157.166 -77 -209.499
s-118.333 -78.5 -201 -78.5zM396 770h-72l-114 157h108z" />
    <glyph glyph-name="Uacute" unicode="&#xda;" horiz-adv-x="726" 
d="M363 -12c-82.667 0 -149.667 26.167 -201 78.5s-77 122.166 -77 209.499v434h93v-436c0 -63.333 16.667 -112.166 50 -146.499s78.333 -51.5 135 -51.5s101.667 17.167 135 51.5s50 83.166 50 146.499v436h93v-434c0 -87.333 -25.667 -157.166 -77 -209.499
s-118.333 -78.5 -201 -78.5zM335 770l78 157h108l-114 -157h-72z" />
    <glyph glyph-name="Ucircumflex" unicode="&#xdb;" horiz-adv-x="726" 
d="M363 -12c-82.667 0 -149.667 26.167 -201 78.5s-77 122.166 -77 209.499v434h93v-436c0 -63.333 16.667 -112.166 50 -146.499s78.333 -51.5 135 -51.5s101.667 17.167 135 51.5s50 83.166 50 146.499v436h93v-434c0 -87.333 -25.667 -157.166 -77 -209.499
s-118.333 -78.5 -201 -78.5zM197 768v77l166 87l166 -87v-77l-166 87z" />
    <glyph glyph-name="Udieresis" unicode="&#xdc;" horiz-adv-x="726" 
d="M363 -12c-82.667 0 -149.667 26.167 -201 78.5s-77 122.166 -77 209.499v434h93v-436c0 -63.333 16.667 -112.166 50 -146.499s78.333 -51.5 135 -51.5s101.667 17.167 135 51.5s50 83.166 50 146.499v436h93v-434c0 -87.333 -25.667 -157.166 -77 -209.499
s-118.333 -78.5 -201 -78.5zM251 785c-16.667 0 -30.667 5.66699 -42 17s-17 25 -17 41s5.66699 29.833 17 41.5s25.333 17.5 42 17.5c16 0 29.667 -5.83301 41 -17.5s17 -25.5 17 -41.5s-5.66699 -29.667 -17 -41s-25 -17 -41 -17zM476 785c-16 0 -29.833 5.66699 -41.5 17
s-17.5 25 -17.5 41s5.83301 29.833 17.5 41.5s25.5 17.5 41.5 17.5s29.667 -5.83301 41 -17.5s17 -25.5 17 -41.5s-5.66699 -29.667 -17 -41s-25 -17 -41 -17z" />
    <glyph glyph-name="Yacute" unicode="&#xdd;" horiz-adv-x="674" 
d="M291 0v301l-276 409h111l211 -316l212 316h111l-277 -410v-300h-92zM309 770l78 157h108l-114 -157h-72z" />
    <glyph glyph-name="Thorn" unicode="&#xde;" horiz-adv-x="595" 
d="M555 355c0 -64.667 -22.5 -118.333 -67.5 -161s-103.833 -64 -176.5 -64h-124v-130h-93v710h93v-129h124c72.667 0 131.5 -21.333 176.5 -64s67.5 -96.667 67.5 -162zM463 355.001c0 40.667 -13.5 74.167 -40.5 100.5s-64.167 39.5 -111.5 39.5h-124v-279h124
c47.333 0 84.5 13 111.5 39s40.5 59.333 40.5 100z" />
    <glyph glyph-name="germandbls" unicode="&#xdf;" horiz-adv-x="573" 
d="M81 0l-0.00195312 547c0 61.333 19.833 111.5 59.5 150.5s88.167 58.5 145.5 58.5c56 0 104.167 -18.667 144.5 -56s60.5 -82.666 60.5 -135.999c0 -32.667 -7.66699 -63 -23 -91s-37 -50.667 -65 -68c40.667 -16.667 72.334 -42.334 95.001 -77.001s34 -71.667 34 -111
c0 -60 -21.167 -111.167 -63.5 -153.5s-97.833 -63.5 -166.5 -63.5h-51v81h47c42.667 0 78 13 106 39s42 59 42 99c0 39.333 -14 72.166 -42 98.499s-63.333 39.5 -106 39.5h-45v81h26c36.667 0 66.834 11.5 90.501 34.5s35.5 50.833 35.5 83.5
c0 33.333 -11.333 61.5 -34 84.5s-50.667 34.5 -84 34.5c-34 0 -62.5 -12.167 -85.5 -36.5s-34.5 -55.166 -34.5 -92.499v-546h-86z" />
    <glyph glyph-name="agrave" unicode="&#xe0;" horiz-adv-x="630" 
d="M287 -10c-69.333 0 -127.5 25.3311 -174.5 75.998s-70.5 112 -70.5 184s23.5 133.333 70.5 184s105.167 76 174.5 76c36.667 0 70.834 -8.16699 102.501 -24.5s56.167 -37.166 73.5 -62.499v77h86v-500h-86v77c-17.333 -25.333 -41.833 -46.166 -73.5 -62.499
s-65.834 -24.5 -102.501 -24.5zM300 68.998c49.333 0 90 17.333 122 52s48 77.667 48 129s-16 94.333 -48 129s-72.667 52 -122 52c-50 0 -91 -17.333 -123 -52s-48 -77.667 -48 -129s16 -94.333 48 -129s73 -52 123 -52zM282 559.998l-134 190h110l94 -190h-70z" />
    <glyph glyph-name="aacute" unicode="&#xe1;" horiz-adv-x="630" 
d="M287 -10c-69.333 0 -127.5 25.3311 -174.5 75.998s-70.5 112 -70.5 184s23.5 133.333 70.5 184s105.167 76 174.5 76c36.667 0 70.834 -8.16699 102.501 -24.5s56.167 -37.166 73.5 -62.499v77h86v-500h-86v77c-17.333 -25.333 -41.833 -46.166 -73.5 -62.499
s-65.834 -24.5 -102.501 -24.5zM300 68.998c49.333 0 90 17.333 122 52s48 77.667 48 129s-16 94.333 -48 129s-72.667 52 -122 52c-50 0 -91 -17.333 -123 -52s-48 -77.667 -48 -129s16 -94.333 48 -129s73 -52 123 -52zM290 559.998l93 190h110l-134 -190h-69z" />
    <glyph glyph-name="acircumflex" unicode="&#xe2;" horiz-adv-x="630" 
d="M287 -10c-69.333 0 -127.5 25.3311 -174.5 75.998s-70.5 112 -70.5 184s23.5 133.333 70.5 184s105.167 76 174.5 76c36.667 0 70.834 -8.16699 102.501 -24.5s56.167 -37.166 73.5 -62.499v77h86v-500h-86v77c-17.333 -25.333 -41.833 -46.166 -73.5 -62.499
s-65.834 -24.5 -102.501 -24.5zM300 68.998c49.333 0 90 17.333 122 52s48 77.667 48 129s-16 94.333 -48 129s-72.667 52 -122 52c-50 0 -91 -17.333 -123 -52s-48 -77.667 -48 -129s16 -94.333 48 -129s73 -52 123 -52zM320 755.998l159 -101v-79l-159 101l-159 -101v79z
" />
    <glyph glyph-name="atilde" unicode="&#xe3;" horiz-adv-x="630" 
d="M287 -10c-69.333 0 -127.5 25.3311 -174.5 75.998s-70.5 112 -70.5 184s23.5 133.333 70.5 184s105.167 76 174.5 76c36.667 0 70.834 -8.16699 102.501 -24.5s56.167 -37.166 73.5 -62.499v77h86v-500h-86v77c-17.333 -25.333 -41.833 -46.166 -73.5 -62.499
s-65.834 -24.5 -102.501 -24.5zM300 68.998c49.333 0 90 17.333 122 52s48 77.667 48 129s-16 94.333 -48 129s-72.667 52 -122 52c-50 0 -91 -17.333 -123 -52s-48 -77.667 -48 -129s16 -94.333 48 -129s73 -52 123 -52zM146 592.998l3 18
c5.33301 28.667 17.666 51.667 36.999 69s42.333 26 69 26c19.333 0 43.5 -7.33301 72.5 -22s47.833 -22 56.5 -22c21.333 0 35.666 14.667 42.999 44h66l-3 -18c-5.33301 -28.667 -17.666 -51.667 -36.999 -69s-42.333 -26 -69 -26c-19.333 0 -43.5 7.33301 -72.5 22
s-47.833 22 -56.5 22c-21.333 0 -35.666 -14.667 -42.999 -44h-66z" />
    <glyph glyph-name="adieresis" unicode="&#xe4;" horiz-adv-x="630" 
d="M287 -10c-69.333 0 -127.5 25.3311 -174.5 75.998s-70.5 112 -70.5 184s23.5 133.333 70.5 184s105.167 76 174.5 76c36.667 0 70.834 -8.16699 102.501 -24.5s56.167 -37.166 73.5 -62.499v77h86v-500h-86v77c-17.333 -25.333 -41.833 -46.166 -73.5 -62.499
s-65.834 -24.5 -102.501 -24.5zM300 68.998c49.333 0 90 17.333 122 52s48 77.667 48 129s-16 94.333 -48 129s-72.667 52 -122 52c-50 0 -91 -17.333 -123 -52s-48 -77.667 -48 -129s16 -94.333 48 -129s73 -52 123 -52zM208 595.998c-16.667 0 -30.667 5.66699 -42 17
s-17 25 -17 41s5.66699 29.833 17 41.5s25.333 17.5 42 17.5c16 0 29.667 -5.83301 41 -17.5s17 -25.5 17 -41.5s-5.66699 -29.667 -17 -41s-25 -17 -41 -17zM433 595.998c-16 0 -29.833 5.66699 -41.5 17s-17.5 25 -17.5 41s5.83301 29.833 17.5 41.5s25.5 17.5 41.5 17.5
s29.667 -5.83301 41 -17.5s17 -25.5 17 -41.5s-5.66699 -29.667 -17 -41s-25 -17 -41 -17z" />
    <glyph glyph-name="aring" unicode="&#xe5;" horiz-adv-x="630" 
d="M287 -10c-69.333 0 -127.5 25.3311 -174.5 75.998s-70.5 112 -70.5 184s23.5 133.333 70.5 184s105.167 76 174.5 76c36.667 0 70.834 -8.16699 102.501 -24.5s56.167 -37.166 73.5 -62.499v77h86v-500h-86v77c-17.333 -25.333 -41.833 -46.166 -73.5 -62.499
s-65.834 -24.5 -102.501 -24.5zM300 68.998c49.333 0 90 17.333 122 52s48 77.667 48 129s-16 94.333 -48 129s-72.667 52 -122 52c-50 0 -91 -17.333 -123 -52s-48 -77.667 -48 -129s16 -94.333 48 -129s73 -52 123 -52zM320 542.998
c-33.333 0 -61.833 11.6709 -85.5 35.0039s-35.5 51.666 -35.5 84.999s11.833 61.666 35.5 84.999s52.167 35 85.5 35s62 -11.833 86 -35.5s36 -51.834 36 -84.501s-12 -60.834 -36 -84.501s-52.667 -35.5 -86 -35.5zM320 594.002c19.333 0 36 6.66699 50 20
s21 29.666 21 48.999s-7 35.833 -21 49.5s-30.667 20.5 -50 20.5s-35.666 -6.83301 -48.999 -20.5s-20 -30.167 -20 -49.5s6.66699 -35.666 20 -48.999s29.666 -20 48.999 -20z" />
    <glyph glyph-name="ae" unicode="&#xe6;" horiz-adv-x="900" 
d="M617 -10c-84 0 -151.332 32.332 -201.999 96.999c-37.333 -64.667 -102 -97 -194 -97c-56 0 -100 14.5 -132 43.5s-48 62.833 -48 101.5c0 46 17.5 80.5 52.5 103.5s89.167 41.833 162.5 56.5c54.667 11.333 87.334 21 98.001 29c10 8 15 19 15 33
c0 22.667 -8.83301 41.167 -26.5 55.5s-43.167 21.5 -76.5 21.5c-37.333 0 -67.333 -8.66699 -90 -26s-34.667 -41.666 -36 -72.999h-87c0 48.667 20 90 60 124s90.667 51 152 51c81.333 0 136.666 -29 165.999 -87c20.667 27.333 47.5 48.666 80.5 63.999
s68.833 23 107.5 23c76 0 136 -27.333 180 -82s63.333 -121.667 58 -201h-406c1.33301 -45.333 17.833 -83.166 49.5 -113.499s70.5 -45.5 116.5 -45.5c67.333 0 115.333 28 144 84h89c-12.667 -46 -39.834 -84.5 -81.501 -115.5s-92.167 -46.5 -151.5 -46.5z
M614.001 433.999c-38.667 0 -73.168 -11.667 -103.501 -35s-49.166 -58 -56.499 -104h312c-8 45.333 -25.667 79.833 -53 103.5s-60.333 35.5 -99 35.5zM372 188.999l0.00292969 73.999c-8.66699 -4.66699 -20.834 -9.66699 -36.501 -15s-34.834 -11.166 -57.501 -17.499
l-41 -11.5c-38.667 -10.667 -65.334 -21.667 -80.001 -33s-22 -27.333 -22 -48c0 -23.333 9 -41.5 27 -54.5s41.667 -19.5 71 -19.5c42.667 0 76.5 10.333 101.5 31s37.5 52 37.5 94z" />
    <glyph glyph-name="ccedilla" unicode="&#xe7;" horiz-adv-x="588" 
d="M303 -10c-75.333 0 -137.665 25.165 -186.998 75.498s-74 111.833 -74 184.5s24.667 134.167 74 184.5s111.666 75.5 186.999 75.5c62 0 115.667 -17.167 161 -51.5s75.666 -79.166 90.999 -134.499h-92c-12 32.667 -32 58.667 -60 78s-61.333 29 -100 29
c-51.333 0 -93.166 -17.333 -125.499 -52s-48.5 -77.667 -48.5 -129s16.167 -94.333 48.5 -129s74.166 -52 125.499 -52c38.667 0 72 9.66699 100 29s48 45.333 60 78h92c-14.667 -55.333 -44.667 -100.166 -90 -134.499s-99.333 -51.5 -162 -51.5zM198.001 -204.002v55
c20 -11.333 45.333 -17 76 -17c19.333 0 35.5 3.5 48.5 10.5s19.5 17.167 19.5 30.5c0 20 -15.667 30 -47 30c-15.333 0 -30 -3.33301 -44 -10l-33 21l53 87h54l-34 -56c10 4.66699 23.333 7 40 7c24 0 43.5 -6.83301 58.5 -20.5s22.5 -32.167 22.5 -55.5
c0 -28.667 -12.5 -52 -37.5 -70s-55.833 -27 -92.5 -27c-35.333 0 -63.333 5 -84 15z" />
    <glyph glyph-name="egrave" unicode="&#xe8;" horiz-adv-x="579" 
d="M294 -10c-72.667 0 -132.833 24.667 -180.5 74s-71.5 111.333 -71.5 186c0 75.333 23.167 137.5 69.5 186.5s107.833 73.5 184.5 73.5c77.333 0 138 -27.333 182 -82s63.333 -121.667 58 -201h-407c1.33301 -45.333 18 -83.166 50 -113.499s70.667 -45.5 116 -45.5
c68 0 116.333 28 145 84h88c-12.667 -46.667 -39.667 -85.334 -81 -116.001s-92.333 -46 -153 -46zM293.001 434c-38.667 0 -73.168 -11.667 -103.501 -35s-49.166 -58 -56.499 -104h312c-8 45.333 -25.667 79.833 -53 103.5s-60.333 35.5 -99 35.5zM258 560l-134 190h110
l94 -190h-70z" />
    <glyph glyph-name="eacute" unicode="&#xe9;" horiz-adv-x="579" 
d="M294 -10c-72.667 0 -132.833 24.667 -180.5 74s-71.5 111.333 -71.5 186c0 75.333 23.167 137.5 69.5 186.5s107.833 73.5 184.5 73.5c77.333 0 138 -27.333 182 -82s63.333 -121.667 58 -201h-407c1.33301 -45.333 18 -83.166 50 -113.499s70.667 -45.5 116 -45.5
c68 0 116.333 28 145 84h88c-12.667 -46.667 -39.667 -85.334 -81 -116.001s-92.333 -46 -153 -46zM293.001 434c-38.667 0 -73.168 -11.667 -103.501 -35s-49.166 -58 -56.499 -104h312c-8 45.333 -25.667 79.833 -53 103.5s-60.333 35.5 -99 35.5zM265 560l93 190h110
l-134 -190h-69z" />
    <glyph glyph-name="ecircumflex" unicode="&#xea;" horiz-adv-x="579" 
d="M294 -10c-72.667 0 -132.833 24.667 -180.5 74s-71.5 111.333 -71.5 186c0 75.333 23.167 137.5 69.5 186.5s107.833 73.5 184.5 73.5c77.333 0 138 -27.333 182 -82s63.333 -121.667 58 -201h-407c1.33301 -45.333 18 -83.166 50 -113.499s70.667 -45.5 116 -45.5
c68 0 116.333 28 145 84h88c-12.667 -46.667 -39.667 -85.334 -81 -116.001s-92.333 -46 -153 -46zM293.001 434c-38.667 0 -73.168 -11.667 -103.501 -35s-49.166 -58 -56.499 -104h312c-8 45.333 -25.667 79.833 -53 103.5s-60.333 35.5 -99 35.5zM296 756l159 -101v-79
l-159 101l-159 -101v79z" />
    <glyph glyph-name="edieresis" unicode="&#xeb;" horiz-adv-x="579" 
d="M294 -10c-72.667 0 -132.833 24.667 -180.5 74s-71.5 111.333 -71.5 186c0 75.333 23.167 137.5 69.5 186.5s107.833 73.5 184.5 73.5c77.333 0 138 -27.333 182 -82s63.333 -121.667 58 -201h-407c1.33301 -45.333 18 -83.166 50 -113.499s70.667 -45.5 116 -45.5
c68 0 116.333 28 145 84h88c-12.667 -46.667 -39.667 -85.334 -81 -116.001s-92.333 -46 -153 -46zM293.001 434c-38.667 0 -73.168 -11.667 -103.501 -35s-49.166 -58 -56.499 -104h312c-8 45.333 -25.667 79.833 -53 103.5s-60.333 35.5 -99 35.5zM184 596
c-16.667 0 -30.667 5.66699 -42 17s-17 25 -17 41s5.66699 29.833 17 41.5s25.333 17.5 42 17.5c16 0 29.667 -5.83301 41 -17.5s17 -25.5 17 -41.5s-5.66699 -29.667 -17 -41s-25 -17 -41 -17zM409 596c-16 0 -29.833 5.66699 -41.5 17s-17.5 25 -17.5 41
s5.83301 29.833 17.5 41.5s25.5 17.5 41.5 17.5s29.667 -5.83301 41 -17.5s17 -25.5 17 -41.5s-5.66699 -29.667 -17 -41s-25 -17 -41 -17z" />
    <glyph glyph-name="igrave" unicode="&#xec;" horiz-adv-x="249" 
d="M81 0v500h86v-500h-86zM86 560l-134 190h110l94 -190h-70z" />
    <glyph glyph-name="iacute" unicode="&#xed;" horiz-adv-x="249" 
d="M81 0v500h86v-500h-86zM94 560l93 190h110l-134 -190h-69z" />
    <glyph glyph-name="icircumflex" unicode="&#xee;" horiz-adv-x="249" 
d="M81 0v500h86v-500h-86zM124 756l159 -101v-79l-159 101l-159 -101v79z" />
    <glyph glyph-name="idieresis" unicode="&#xef;" horiz-adv-x="249" 
d="M81 0v500h86v-500h-86zM26 596c-17.333 0 -31.833 5.83301 -43.5 17.5s-17.5 26.167 -17.5 43.5c0 16.667 5.83301 30.834 17.5 42.501s26.167 17.5 43.5 17.5c16.667 0 31 -5.83301 43 -17.5s18 -25.834 18 -42.501c0 -17.333 -6 -31.833 -18 -43.5
s-26.333 -17.5 -43 -17.5zM222 596c-17.333 0 -31.833 5.83301 -43.5 17.5s-17.5 26.167 -17.5 43.5c0 16.667 5.83301 30.834 17.5 42.501s26.167 17.5 43.5 17.5c16.667 0 31 -5.83301 43 -17.5s18 -25.834 18 -42.501c0 -17.333 -6 -31.833 -18 -43.5
s-26.333 -17.5 -43 -17.5z" />
    <glyph glyph-name="eth" unicode="&#xf0;" horiz-adv-x="606" 
d="M478 574h-78l111 -164c36 -54.667 54 -108 54 -160c0 -72.667 -24.833 -134.167 -74.5 -184.5s-112.167 -75.5 -187.5 -75.5c-74 0 -136 25.333 -186 76s-75 112 -75 184c0 73.333 25.167 134.833 75.5 184.5s111.166 74.5 182.499 74.5c14.667 0 32.334 -2 53.001 -6
l-47 71h-143v68h97l-73 108h94l73 -108h124v-68zM303 70c51.333 0 93.166 17.333 125.499 52s48.5 77.334 48.5 128.001s-16.167 93.334 -48.5 128.001s-74.166 52 -125.499 52s-93.166 -17.333 -125.499 -52s-48.5 -77.334 -48.5 -128.001s16.167 -93.334 48.5 -128.001
s74.166 -52 125.499 -52z" />
    <glyph glyph-name="ntilde" unicode="&#xf1;" horiz-adv-x="589" 
d="M81 0l-0.000976562 500.001h86v-77c34 58 87 87 159 87c56.667 0 102.334 -18.333 137.001 -55s52 -85.667 52 -147v-308h-85v295c0 42 -10.667 75.167 -32 99.5s-50 36.5 -86 36.5c-41.333 0 -75.833 -16.333 -103.5 -49s-41.5 -77.334 -41.5 -134.001v-248h-86z
M123.999 593.001l3 18c5.33301 28.667 17.666 51.667 36.999 69s42.333 26 69 26c19.333 0 43.5 -7.33301 72.5 -22s47.833 -22 56.5 -22c21.333 0 35.666 14.667 42.999 44h66l-3 -18c-5.33301 -28.667 -17.666 -51.667 -36.999 -69s-42.333 -26 -69 -26
c-19.333 0 -43.5 7.33301 -72.5 22s-47.833 22 -56.5 22c-21.333 0 -35.666 -14.667 -42.999 -44h-66z" />
    <glyph glyph-name="ograve" unicode="&#xf2;" horiz-adv-x="606" 
d="M303 -10c-75.333 0 -137.833 25.167 -187.5 75.5s-74.5 111.833 -74.5 184.5s24.833 134.167 74.5 184.5s112.167 75.5 187.5 75.5c74.667 0 136.834 -25.167 186.501 -75.5s74.5 -111.833 74.5 -184.5s-24.833 -134.167 -74.5 -184.5s-111.834 -75.5 -186.501 -75.5z
M303 70c51.333 0 93 17.333 125 52s48 77.334 48 128.001s-16 93.334 -48 128.001s-73.667 52 -125 52s-93.166 -17.333 -125.499 -52s-48.5 -77.334 -48.5 -128.001s16.167 -93.334 48.5 -128.001s74.166 -52 125.499 -52zM265 560l-134 190h110l94 -190h-70z" />
    <glyph glyph-name="oacute" unicode="&#xf3;" horiz-adv-x="606" 
d="M303 -10c-75.333 0 -137.833 25.167 -187.5 75.5s-74.5 111.833 -74.5 184.5s24.833 134.167 74.5 184.5s112.167 75.5 187.5 75.5c74.667 0 136.834 -25.167 186.501 -75.5s74.5 -111.833 74.5 -184.5s-24.833 -134.167 -74.5 -184.5s-111.834 -75.5 -186.501 -75.5z
M303 70c51.333 0 93 17.333 125 52s48 77.334 48 128.001s-16 93.334 -48 128.001s-73.667 52 -125 52s-93.166 -17.333 -125.499 -52s-48.5 -77.334 -48.5 -128.001s16.167 -93.334 48.5 -128.001s74.166 -52 125.499 -52zM273 560l93 190h110l-134 -190h-69z" />
    <glyph glyph-name="ocircumflex" unicode="&#xf4;" horiz-adv-x="606" 
d="M303 -10c-75.333 0 -137.833 25.167 -187.5 75.5s-74.5 111.833 -74.5 184.5s24.833 134.167 74.5 184.5s112.167 75.5 187.5 75.5c74.667 0 136.834 -25.167 186.501 -75.5s74.5 -111.833 74.5 -184.5s-24.833 -134.167 -74.5 -184.5s-111.834 -75.5 -186.501 -75.5z
M303 70c51.333 0 93 17.333 125 52s48 77.334 48 128.001s-16 93.334 -48 128.001s-73.667 52 -125 52s-93.166 -17.333 -125.499 -52s-48.5 -77.334 -48.5 -128.001s16.167 -93.334 48.5 -128.001s74.166 -52 125.499 -52zM303 756l159 -101v-79l-159 101l-159 -101v79z
" />
    <glyph glyph-name="otilde" unicode="&#xf5;" horiz-adv-x="606" 
d="M303 -10c-75.333 0 -137.833 25.167 -187.5 75.5s-74.5 111.833 -74.5 184.5s24.833 134.167 74.5 184.5s112.167 75.5 187.5 75.5c74.667 0 136.834 -25.167 186.501 -75.5s74.5 -111.833 74.5 -184.5s-24.833 -134.167 -74.5 -184.5s-111.834 -75.5 -186.501 -75.5z
M303 70c51.333 0 93 17.333 125 52s48 77.334 48 128.001s-16 93.334 -48 128.001s-73.667 52 -125 52s-93.166 -17.333 -125.499 -52s-48.5 -77.334 -48.5 -128.001s16.167 -93.334 48.5 -128.001s74.166 -52 125.499 -52zM129 593l3 18
c5.33301 28.667 17.666 51.667 36.999 69s42.333 26 69 26c19.333 0 43.5 -7.33301 72.5 -22s47.833 -22 56.5 -22c21.333 0 35.666 14.667 42.999 44h66l-3 -18c-5.33301 -28.667 -17.666 -51.667 -36.999 -69s-42.333 -26 -69 -26c-19.333 0 -43.5 7.33301 -72.5 22
s-47.833 22 -56.5 22c-21.333 0 -35.666 -14.667 -42.999 -44h-66z" />
    <glyph glyph-name="odieresis" unicode="&#xf6;" horiz-adv-x="606" 
d="M303 -10c-75.333 0 -137.833 25.167 -187.5 75.5s-74.5 111.833 -74.5 184.5s24.833 134.167 74.5 184.5s112.167 75.5 187.5 75.5c74.667 0 136.834 -25.167 186.501 -75.5s74.5 -111.833 74.5 -184.5s-24.833 -134.167 -74.5 -184.5s-111.834 -75.5 -186.501 -75.5z
M303 70c51.333 0 93 17.333 125 52s48 77.334 48 128.001s-16 93.334 -48 128.001s-73.667 52 -125 52s-93.166 -17.333 -125.499 -52s-48.5 -77.334 -48.5 -128.001s16.167 -93.334 48.5 -128.001s74.166 -52 125.499 -52zM191 596c-16.667 0 -30.667 5.66699 -42 17
s-17 25 -17 41s5.66699 29.833 17 41.5s25.333 17.5 42 17.5c16 0 29.667 -5.83301 41 -17.5s17 -25.5 17 -41.5s-5.66699 -29.667 -17 -41s-25 -17 -41 -17zM416 596c-16 0 -29.833 5.66699 -41.5 17s-17.5 25 -17.5 41s5.83301 29.833 17.5 41.5s25.5 17.5 41.5 17.5
s29.667 -5.83301 41 -17.5s17 -25.5 17 -41.5s-5.66699 -29.667 -17 -41s-25 -17 -41 -17z" />
    <glyph glyph-name="oslash" unicode="&#xf8;" horiz-adv-x="616" 
d="M308 -10c-75.333 0 -137.833 25.167 -187.5 75.5s-74.5 111.833 -74.5 184.5s24.833 134.167 74.5 184.5s112.167 75.5 187.5 75.5c74.667 0 136.834 -25.167 186.501 -75.5s74.5 -111.833 74.5 -184.5s-24.833 -134.167 -74.5 -184.5s-111.834 -75.5 -186.501 -75.5z
M308 70c51.333 0 93 17.333 125 52s48 77.334 48 128.001s-16 93.334 -48 128.001s-73.667 52 -125 52s-93.166 -17.333 -125.499 -52s-48.5 -77.334 -48.5 -128.001s16.167 -93.334 48.5 -128.001s74.166 -52 125.499 -52zM563 471l-470 -481l-40 40l471 480z" />
    <glyph glyph-name="ugrave" unicode="&#xf9;" horiz-adv-x="579" 
d="M258 -10c-54.667 0 -99 18.5 -133 55.5s-51 86.167 -51 147.5v307h86v-294c0 -42 10.167 -75.333 30.5 -100s47.833 -37 82.5 -37c40 0 73.167 16.5 99.5 49.5s39.5 77.5 39.5 133.5v248h86v-500h-86v77c-32.667 -58 -84 -87 -154 -87zM247 560l-134 190h110l94 -190h-70
z" />
    <glyph glyph-name="uacute" unicode="&#xfa;" horiz-adv-x="579" 
d="M258 -10c-54.667 0 -99 18.5 -133 55.5s-51 86.167 -51 147.5v307h86v-294c0 -42 10.167 -75.333 30.5 -100s47.833 -37 82.5 -37c40 0 73.167 16.5 99.5 49.5s39.5 77.5 39.5 133.5v248h86v-500h-86v77c-32.667 -58 -84 -87 -154 -87zM255 560l93 190h110l-134 -190h-69
z" />
    <glyph glyph-name="ucircumflex" unicode="&#xfb;" horiz-adv-x="579" 
d="M258 -10c-54.667 0 -99 18.5 -133 55.5s-51 86.167 -51 147.5v307h86v-294c0 -42 10.167 -75.333 30.5 -100s47.833 -37 82.5 -37c40 0 73.167 16.5 99.5 49.5s39.5 77.5 39.5 133.5v248h86v-500h-86v77c-32.667 -58 -84 -87 -154 -87zM285 756l159 -101v-79l-159 101
l-159 -101v79z" />
    <glyph glyph-name="udieresis" unicode="&#xfc;" horiz-adv-x="579" 
d="M258 -10c-54.667 0 -99 18.5 -133 55.5s-51 86.167 -51 147.5v307h86v-294c0 -42 10.167 -75.333 30.5 -100s47.833 -37 82.5 -37c40 0 73.167 16.5 99.5 49.5s39.5 77.5 39.5 133.5v248h86v-500h-86v77c-32.667 -58 -84 -87 -154 -87zM173 596
c-16.667 0 -30.667 5.66699 -42 17s-17 25 -17 41s5.66699 29.833 17 41.5s25.333 17.5 42 17.5c16 0 29.667 -5.83301 41 -17.5s17 -25.5 17 -41.5s-5.66699 -29.667 -17 -41s-25 -17 -41 -17zM398 596c-16 0 -29.833 5.66699 -41.5 17s-17.5 25 -17.5 41
s5.83301 29.833 17.5 41.5s25.5 17.5 41.5 17.5s29.667 -5.83301 41 -17.5s17 -25.5 17 -41.5s-5.66699 -29.667 -17 -41s-25 -17 -41 -17z" />
    <glyph glyph-name="yacute" unicode="&#xfd;" horiz-adv-x="547" 
d="M214 -209h-96l109 235l-219 474h95l172 -380l171 380h96zM245 560l93 190h110l-134 -190h-69z" />
    <glyph glyph-name="thorn" unicode="&#xfe;" horiz-adv-x="630" 
d="M167 -209l-86 0.00195312v959h86v-327c17.333 25.333 41.833 46.166 73.5 62.499s65.834 24.5 102.501 24.5c69.333 0 127.5 -25.333 174.5 -76s70.5 -112 70.5 -184s-23.5 -133.333 -70.5 -184s-105.167 -76 -174.5 -76c-36.667 0 -70.834 8.16699 -102.501 24.5
s-56.167 37.166 -73.5 62.499v-286zM330 69.002c49.333 0 90 17.333 122 52s48 77.667 48 129s-16 94.333 -48 129s-72.667 52 -122 52s-90 -17.333 -122 -52s-48 -77.667 -48 -129s16 -94.333 48 -129s72.667 -52 122 -52z" />
    <glyph glyph-name="ydieresis" unicode="&#xff;" horiz-adv-x="547" 
d="M214 -209h-96l109 235l-219 474h95l172 -380l171 380h96zM163 596c-16.667 0 -30.667 5.66699 -42 17s-17 25 -17 41s5.66699 29.833 17 41.5s25.333 17.5 42 17.5c16 0 29.667 -5.83301 41 -17.5s17 -25.5 17 -41.5s-5.66699 -29.667 -17 -41s-25 -17 -41 -17zM388 596
c-16 0 -29.833 5.66699 -41.5 17s-17.5 25 -17.5 41s5.83301 29.833 17.5 41.5s25.5 17.5 41.5 17.5s29.667 -5.83301 41 -17.5s17 -25.5 17 -41.5s-5.66699 -29.667 -17 -41s-25 -17 -41 -17z" />
    <glyph glyph-name="Amacron" unicode="&#x100;" horiz-adv-x="718" 
d="M6 0l314 710h77l315 -710h-97l-92 207h-331l-90 -207h-96zM357 584l-128 -293h257zM197 805v69h322v-69h-322z" />
    <glyph glyph-name="amacron" unicode="&#x101;" horiz-adv-x="630" 
d="M287 -10c-69.333 0 -127.5 25.3311 -174.5 75.998s-70.5 112 -70.5 184s23.5 133.333 70.5 184s105.167 76 174.5 76c36.667 0 70.834 -8.16699 102.501 -24.5s56.167 -37.166 73.5 -62.499v77h86v-500h-86v77c-17.333 -25.333 -41.833 -46.166 -73.5 -62.499
s-65.834 -24.5 -102.501 -24.5zM300 68.998c49.333 0 90 17.333 122 52s48 77.667 48 129s-16 94.333 -48 129s-72.667 52 -122 52c-50 0 -91 -17.333 -123 -52s-48 -77.667 -48 -129s16 -94.333 48 -129s73 -52 123 -52zM159 640.998v69h322v-69h-322z" />
    <glyph glyph-name="Abreve" unicode="&#x102;" horiz-adv-x="718" 
d="M6 0l314 710h77l315 -710h-97l-92 207h-331l-90 -207h-96zM357 584l-128 -293h257zM358 759c-45.333 0 -83.168 14.5 -113.501 43.5s-45.5 67.167 -45.5 114.5h58c0 -31.333 9.5 -56 28.5 -74s43.167 -27 72.5 -27s53.5 9 72.5 27s28.5 42.667 28.5 74h58
c0 -47.333 -15.167 -85.5 -45.5 -114.5s-68.166 -43.5 -113.499 -43.5z" />
    <glyph glyph-name="abreve" unicode="&#x103;" horiz-adv-x="630" 
d="M287 -10c-69.333 0 -127.5 25.3311 -174.5 75.998s-70.5 112 -70.5 184s23.5 133.333 70.5 184s105.167 76 174.5 76c36.667 0 70.834 -8.16699 102.501 -24.5s56.167 -37.166 73.5 -62.499v77h86v-500h-86v77c-17.333 -25.333 -41.833 -46.166 -73.5 -62.499
s-65.834 -24.5 -102.501 -24.5zM300 68.998c49.333 0 90 17.333 122 52s48 77.667 48 129s-16 94.333 -48 129s-72.667 52 -122 52c-50 0 -91 -17.333 -123 -52s-48 -77.667 -48 -129s16 -94.333 48 -129s73 -52 123 -52zM320 577.998c-45.333 0 -83.168 14.667 -113.501 44
s-45.5 67.666 -45.5 114.999v13h58v-13c0 -32 9.5 -56.833 28.5 -74.5s43.167 -26.5 72.5 -26.5s53.5 8.83301 72.5 26.5s28.5 42.5 28.5 74.5v13h58v-13c0 -47.333 -15.167 -85.666 -45.5 -114.999s-68.166 -44 -113.499 -44z" />
    <glyph glyph-name="Aogonek" unicode="&#x104;" horiz-adv-x="718" 
d="M6 0l313.999 710.001h77l315 -710c-61.333 -38 -92 -75.333 -92 -112c0 -22 12 -33 36 -33c18.667 0 37.334 7.33301 56.001 22v-70c-19.333 -17.333 -46.333 -26 -81 -26c-26.667 0 -49.167 8.33301 -67.5 25s-27.5 38 -27.5 64c0 45.333 26.333 88.666 79 129.999
l-92 207h-331l-90 -207h-96zM356.999 584.001l-128 -293h257z" />
    <glyph glyph-name="aogonek" unicode="&#x105;" horiz-adv-x="630" 
d="M287 -10c-69.333 0 -127.5 25.3311 -174.5 75.998s-70.5 112 -70.5 184s23.5 133.333 70.5 184s105.167 76 174.5 76c36.667 0 70.834 -8.16699 102.501 -24.5s56.167 -37.166 73.5 -62.499v77h86v-500h-86v77c-17.333 -25.333 -41.833 -46.166 -73.5 -62.499
s-65.834 -24.5 -102.501 -24.5zM300 68.998c49.333 0 90 17.333 122 52s48 77.667 48 129s-16 94.333 -48 129s-72.667 52 -122 52c-50 0 -91 -17.333 -123 -52s-48 -77.667 -48 -129s16 -94.333 48 -129s73 -52 123 -52zM471 -219.002
c-26.667 0 -48.999 8.16797 -66.999 24.501s-27 37.166 -27 62.499c0 20 5.33301 39.333 16 58s20.5 32.167 29.5 40.5s22.167 19.5 39.5 33.5h86c-62 -38.667 -93 -77 -93 -115c0 -24.667 12.667 -37 38 -37c16.667 0 35 7.33301 55 22v-63
c-18.667 -17.333 -44.334 -26 -77.001 -26z" />
    <glyph glyph-name="Cacute" unicode="&#x106;" horiz-adv-x="788" 
d="M414 -12c-104.667 0 -192.167 35.1689 -262.5 105.502s-105.5 157.5 -105.5 261.5s35.167 191.167 105.5 261.5s157.833 105.5 262.5 105.5c85.333 0 159.166 -24 221.499 -72s101.833 -106 118.5 -174h-98c-16.667 46 -46.834 83.833 -90.501 113.5
s-94.167 44.5 -151.5 44.5c-78.667 0 -144.167 -26.833 -196.5 -80.5s-78.5 -119.834 -78.5 -198.501s26.167 -144.834 78.5 -198.501s117.833 -80.5 196.5 -80.5c57.333 0 107.833 14.833 151.5 44.5s73.834 67.5 90.501 113.5h98c-16.667 -68 -56.167 -126 -118.5 -174
s-136.166 -72 -221.499 -72zM381 770.002l78 157h108l-114 -157h-72z" />
    <glyph glyph-name="cacute" unicode="&#x107;" horiz-adv-x="588" 
d="M303 -10c-75.333 0 -137.665 25.165 -186.998 75.498s-74 111.833 -74 184.5s24.667 134.167 74 184.5s111.666 75.5 186.999 75.5c62 0 115.667 -17.167 161 -51.5s75.666 -79.166 90.999 -134.499h-92c-12 32.667 -32 58.667 -60 78s-61.333 29 -100 29
c-51.333 0 -93.166 -17.333 -125.499 -52s-48.5 -77.667 -48.5 -129s16.167 -94.333 48.5 -129s74.166 -52 125.499 -52c38.667 0 72 9.66699 100 29s48 45.333 60 78h92c-14.667 -55.333 -44.667 -100.166 -90 -134.499s-99.333 -51.5 -162 -51.5zM273.001 559.998l93 190
h110l-134 -190h-69z" />
    <glyph glyph-name="Ccircumflex" unicode="&#x108;" horiz-adv-x="788" 
d="M414 -12c-104.667 0 -192.167 35.1689 -262.5 105.502s-105.5 157.5 -105.5 261.5s35.167 191.167 105.5 261.5s157.833 105.5 262.5 105.5c85.333 0 159.166 -24 221.499 -72s101.833 -106 118.5 -174h-98c-16.667 46 -46.834 83.833 -90.501 113.5
s-94.167 44.5 -151.5 44.5c-78.667 0 -144.167 -26.833 -196.5 -80.5s-78.5 -119.834 -78.5 -198.501s26.167 -144.834 78.5 -198.501s117.833 -80.5 196.5 -80.5c57.333 0 107.833 14.833 151.5 44.5s73.834 67.5 90.501 113.5h98c-16.667 -68 -56.167 -126 -118.5 -174
s-136.166 -72 -221.499 -72zM243 768.002v77l166 87l166 -87v-77l-166 87z" />
    <glyph glyph-name="ccircumflex" unicode="&#x109;" horiz-adv-x="588" 
d="M303 -10c-75.333 0 -137.665 25.165 -186.998 75.498s-74 111.833 -74 184.5s24.667 134.167 74 184.5s111.666 75.5 186.999 75.5c62 0 115.667 -17.167 161 -51.5s75.666 -79.166 90.999 -134.499h-92c-12 32.667 -32 58.667 -60 78s-61.333 29 -100 29
c-51.333 0 -93.166 -17.333 -125.499 -52s-48.5 -77.667 -48.5 -129s16.167 -94.333 48.5 -129s74.166 -52 125.499 -52c38.667 0 72 9.66699 100 29s48 45.333 60 78h92c-14.667 -55.333 -44.667 -100.166 -90 -134.499s-99.333 -51.5 -162 -51.5zM304.001 755.998
l159 -101v-79l-159 101l-159 -101v79z" />
    <glyph glyph-name="Cdotaccent" unicode="&#x10a;" horiz-adv-x="788" 
d="M414 -12c-104.667 0 -192.167 35.1689 -262.5 105.502s-105.5 157.5 -105.5 261.5s35.167 191.167 105.5 261.5s157.833 105.5 262.5 105.5c85.333 0 159.166 -24 221.499 -72s101.833 -106 118.5 -174h-98c-16.667 46 -46.834 83.833 -90.501 113.5
s-94.167 44.5 -151.5 44.5c-78.667 0 -144.167 -26.833 -196.5 -80.5s-78.5 -119.834 -78.5 -198.501s26.167 -144.834 78.5 -198.501s117.833 -80.5 196.5 -80.5c57.333 0 107.833 14.833 151.5 44.5s73.834 67.5 90.501 113.5h98c-16.667 -68 -56.167 -126 -118.5 -174
s-136.166 -72 -221.499 -72zM409 785.002c-16.667 0 -30.667 5.66699 -42 17s-17 25 -17 41s5.66699 29.833 17 41.5s25.333 17.5 42 17.5c16 0 29.667 -5.83301 41 -17.5s17 -25.5 17 -41.5s-5.66699 -29.667 -17 -41s-25 -17 -41 -17z" />
    <glyph glyph-name="cdotaccent" unicode="&#x10b;" horiz-adv-x="588" 
d="M303 -10c-75.333 0 -137.665 25.165 -186.998 75.498s-74 111.833 -74 184.5s24.667 134.167 74 184.5s111.666 75.5 186.999 75.5c62 0 115.667 -17.167 161 -51.5s75.666 -79.166 90.999 -134.499h-92c-12 32.667 -32 58.667 -60 78s-61.333 29 -100 29
c-51.333 0 -93.166 -17.333 -125.499 -52s-48.5 -77.667 -48.5 -129s16.167 -94.333 48.5 -129s74.166 -52 125.499 -52c38.667 0 72 9.66699 100 29s48 45.333 60 78h92c-14.667 -55.333 -44.667 -100.166 -90 -134.499s-99.333 -51.5 -162 -51.5zM304.001 595.998
c-16.667 0 -30.667 5.66699 -42 17s-17 25 -17 41s5.66699 29.833 17 41.5s25.333 17.5 42 17.5c16 0 29.667 -5.83301 41 -17.5s17 -25.5 17 -41.5s-5.66699 -29.667 -17 -41s-25 -17 -41 -17z" />
    <glyph glyph-name="Ccaron" unicode="&#x10c;" horiz-adv-x="788" 
d="M414 -12c-104.667 0 -192.167 35.1689 -262.5 105.502s-105.5 157.5 -105.5 261.5s35.167 191.167 105.5 261.5s157.833 105.5 262.5 105.5c85.333 0 159.166 -24 221.499 -72s101.833 -106 118.5 -174h-98c-16.667 46 -46.834 83.833 -90.501 113.5
s-94.167 44.5 -151.5 44.5c-78.667 0 -144.167 -26.833 -196.5 -80.5s-78.5 -119.834 -78.5 -198.501s26.167 -144.834 78.5 -198.501s117.833 -80.5 196.5 -80.5c57.333 0 107.833 14.833 151.5 44.5s73.834 67.5 90.501 113.5h98c-16.667 -68 -56.167 -126 -118.5 -174
s-136.166 -72 -221.499 -72zM409 768.002l-166 87v77l166 -87l166 87v-77z" />
    <glyph glyph-name="ccaron" unicode="&#x10d;" horiz-adv-x="588" 
d="M303 -10c-75.333 0 -137.665 25.165 -186.998 75.498s-74 111.833 -74 184.5s24.667 134.167 74 184.5s111.666 75.5 186.999 75.5c62 0 115.667 -17.167 161 -51.5s75.666 -79.166 90.999 -134.499h-92c-12 32.667 -32 58.667 -60 78s-61.333 29 -100 29
c-51.333 0 -93.166 -17.333 -125.499 -52s-48.5 -77.667 -48.5 -129s16.167 -94.333 48.5 -129s74.166 -52 125.499 -52c38.667 0 72 9.66699 100 29s48 45.333 60 78h92c-14.667 -55.333 -44.667 -100.166 -90 -134.499s-99.333 -51.5 -162 -51.5zM304.001 575.998
l-159 101v79l159 -101l159 101v-79z" />
    <glyph glyph-name="Dcaron" unicode="&#x10e;" horiz-adv-x="721" 
d="M94 0v710h204c108.667 0 198.834 -33.667 270.501 -101s107.5 -152 107.5 -254s-35.833 -186.667 -107.5 -254s-161.834 -101 -270.501 -101h-204zM187 87h111c84.667 0 153.167 25.167 205.5 75.5s78.5 114.5 78.5 192.5s-26.167 142.167 -78.5 192.5
s-120.833 75.5 -205.5 75.5h-111v-536zM341 768l-166 87v77l166 -87l166 87v-77z" />
    <glyph glyph-name="dcaron" unicode="&#x10f;" horiz-adv-x="630" 
d="M287 -10c-69.333 0 -127.5 25.3311 -174.5 75.998s-70.5 112 -70.5 184s23.5 133.333 70.5 184s105.167 76 174.5 76c36.667 0 70.834 -8.16699 102.501 -24.5s56.167 -37.166 73.5 -62.499v327h86v-750h-86v77c-17.333 -25.333 -41.833 -46.166 -73.5 -62.499
s-65.834 -24.5 -102.501 -24.5zM300 68.998c49.333 0 90 17.333 122 52s48 77.667 48 129s-16 94.333 -48 129s-72.667 52 -122 52c-50 0 -91 -17.333 -123 -52s-48 -77.667 -48 -129s16 -94.333 48 -129s73 -52 123 -52zM584 584.998l24 165h86l-50 -165h-60z" />
    <glyph glyph-name="Dcroat" unicode="&#x110;" horiz-adv-x="729" 
d="M101 0v710h204c108.667 0 198.834 -33.667 270.501 -101s107.5 -152 107.5 -254s-35.833 -186.667 -107.5 -254s-161.834 -101 -270.501 -101h-204zM194 87h111c84.667 0 153.167 25.167 205.5 75.5s78.5 114.5 78.5 192.5s-26.167 142.167 -78.5 192.5
s-120.833 75.5 -205.5 75.5h-111v-536zM28 319v82h326v-82h-326z" />
    <glyph glyph-name="dcroat" unicode="&#x111;" horiz-adv-x="630" 
d="M287 -10c-69.333 0 -127.5 25.3311 -174.5 75.998s-70.5 112 -70.5 184s23.5 133.333 70.5 184s105.167 76 174.5 76c36.667 0 70.834 -8.16699 102.501 -24.5s56.167 -37.166 73.5 -62.499v327h86v-750h-86v77c-17.333 -25.333 -41.833 -46.166 -73.5 -62.499
s-65.834 -24.5 -102.501 -24.5zM300 68.998c49.333 0 90 17.333 122 52s48 77.667 48 129s-16 94.333 -48 129s-72.667 52 -122 52c-50 0 -91 -17.333 -123 -52s-48 -77.667 -48 -129s16 -94.333 48 -129s73 -52 123 -52zM620 576.998h-323v68h323v-68z" />
    <glyph glyph-name="Emacron" unicode="&#x112;" horiz-adv-x="557" 
d="M94 0v710h414v-88h-321v-215h261v-88h-261v-231h321v-88h-414zM140 805v69h322v-69h-322z" />
    <glyph glyph-name="emacron" unicode="&#x113;" horiz-adv-x="579" 
d="M294 -10c-72.667 0 -132.833 24.667 -180.5 74s-71.5 111.333 -71.5 186c0 75.333 23.167 137.5 69.5 186.5s107.833 73.5 184.5 73.5c77.333 0 138 -27.333 182 -82s63.333 -121.667 58 -201h-407c1.33301 -45.333 18 -83.166 50 -113.499s70.667 -45.5 116 -45.5
c68 0 116.333 28 145 84h88c-12.667 -46.667 -39.667 -85.334 -81 -116.001s-92.333 -46 -153 -46zM293.001 434c-38.667 0 -73.168 -11.667 -103.501 -35s-49.166 -58 -56.499 -104h312c-8 45.333 -25.667 79.833 -53 103.5s-60.333 35.5 -99 35.5zM135 641v69h322v-69
h-322z" />
    <glyph glyph-name="Ebreve" unicode="&#x114;" horiz-adv-x="557" 
d="M94 0v710h414v-88h-321v-215h261v-88h-261v-231h321v-88h-414zM301 759c-45.333 0 -83.168 14.5 -113.501 43.5s-45.5 67.167 -45.5 114.5h58c0 -31.333 9.5 -56 28.5 -74s43.167 -27 72.5 -27s53.5 9 72.5 27s28.5 42.667 28.5 74h58
c0 -47.333 -15.167 -85.5 -45.5 -114.5s-68.166 -43.5 -113.499 -43.5z" />
    <glyph glyph-name="ebreve" unicode="&#x115;" horiz-adv-x="579" 
d="M294 -10c-72.667 0 -132.833 24.667 -180.5 74s-71.5 111.333 -71.5 186c0 75.333 23.167 137.5 69.5 186.5s107.833 73.5 184.5 73.5c77.333 0 138 -27.333 182 -82s63.333 -121.667 58 -201h-407c1.33301 -45.333 18 -83.166 50 -113.499s70.667 -45.5 116 -45.5
c68 0 116.333 28 145 84h88c-12.667 -46.667 -39.667 -85.334 -81 -116.001s-92.333 -46 -153 -46zM293.001 434c-38.667 0 -73.168 -11.667 -103.501 -35s-49.166 -58 -56.499 -104h312c-8 45.333 -25.667 79.833 -53 103.5s-60.333 35.5 -99 35.5zM296 578
c-45.333 0 -83.168 14.667 -113.501 44s-45.5 67.666 -45.5 114.999v13h58v-13c0 -32 9.5 -56.833 28.5 -74.5s43.167 -26.5 72.5 -26.5s53.5 8.83301 72.5 26.5s28.5 42.5 28.5 74.5v13h58v-13c0 -47.333 -15.167 -85.666 -45.5 -114.999s-68.166 -44 -113.499 -44z" />
    <glyph glyph-name="Edotaccent" unicode="&#x116;" horiz-adv-x="557" 
d="M94 0v710h414v-88h-321v-215h261v-88h-261v-231h321v-88h-414zM301 785c-16.667 0 -30.667 5.66699 -42 17s-17 25 -17 41s5.66699 29.833 17 41.5s25.333 17.5 42 17.5c16 0 29.667 -5.83301 41 -17.5s17 -25.5 17 -41.5s-5.66699 -29.667 -17 -41s-25 -17 -41 -17z" />
    <glyph glyph-name="edotaccent" unicode="&#x117;" horiz-adv-x="579" 
d="M294 -10c-72.667 0 -132.833 24.667 -180.5 74s-71.5 111.333 -71.5 186c0 75.333 23.167 137.5 69.5 186.5s107.833 73.5 184.5 73.5c77.333 0 138 -27.333 182 -82s63.333 -121.667 58 -201h-407c1.33301 -45.333 18 -83.166 50 -113.499s70.667 -45.5 116 -45.5
c68 0 116.333 28 145 84h88c-12.667 -46.667 -39.667 -85.334 -81 -116.001s-92.333 -46 -153 -46zM293.001 434c-38.667 0 -73.168 -11.667 -103.501 -35s-49.166 -58 -56.499 -104h312c-8 45.333 -25.667 79.833 -53 103.5s-60.333 35.5 -99 35.5zM296 596
c-16.667 0 -30.667 5.66699 -42 17s-17 25 -17 41s5.66699 29.833 17 41.5s25.333 17.5 42 17.5c16 0 29.667 -5.83301 41 -17.5s17 -25.5 17 -41.5s-5.66699 -29.667 -17 -41s-25 -17 -41 -17z" />
    <glyph glyph-name="Eogonek" unicode="&#x118;" horiz-adv-x="557" 
d="M94 0v710h414v-88h-321v-215h261v-88h-261v-231h321v-88h-414zM427 -219c-26.667 0 -49.168 8.33203 -67.501 24.999s-27.5 38 -27.5 64c0 18.667 4.83301 36.834 14.5 54.501s19.5 31.5 29.5 41.5s23 21.333 39 34h93c-61.333 -38 -92 -75.333 -92 -112
c0 -22 12 -33 36 -33c18.667 0 37.334 7.33301 56.001 22v-70c-19.333 -17.333 -46.333 -26 -81 -26z" />
    <glyph glyph-name="eogonek" unicode="&#x119;" horiz-adv-x="580" 
d="M440 152l88.0029 -0.00195312c-6 -20.667 -17.333 -44 -34 -70c-53.333 -77.333 -80 -139.666 -80 -186.999c0 -31.333 16.667 -47 50 -47c17.333 0 35.333 7.33301 54 22v-63c-18.667 -17.333 -44.334 -26 -77.001 -26c-30.667 0 -55.834 9.16699 -75.501 27.5
s-29.5 41.833 -29.5 70.5c0 42 16.333 83.667 49 125c-28 -9.33301 -58.333 -14 -91 -14c-72.667 0 -132.834 24.667 -180.501 74s-71.5 111.333 -71.5 186c0 75.333 23.167 137.5 69.5 186.5s107.833 73.5 184.5 73.5c77.333 0 138 -27.333 182 -82
s63.333 -121.667 58 -201h-407c1.33301 -45.333 18 -83.166 50 -113.499s70.667 -45.5 116 -45.5c68 0 116.333 28 145 84zM293.003 433.998c-38.667 0 -73.168 -11.667 -103.501 -35s-49.166 -58 -56.499 -104h312c-8 45.333 -25.667 79.833 -53 103.5
s-60.333 35.5 -99 35.5z" />
    <glyph glyph-name="Ecaron" unicode="&#x11a;" horiz-adv-x="557" 
d="M94 0v710h414v-88h-321v-215h261v-88h-261v-231h321v-88h-414zM301 768l-166 87v77l166 -87l166 87v-77z" />
    <glyph glyph-name="ecaron" unicode="&#x11b;" horiz-adv-x="579" 
d="M294 -10c-72.667 0 -132.833 24.667 -180.5 74s-71.5 111.333 -71.5 186c0 75.333 23.167 137.5 69.5 186.5s107.833 73.5 184.5 73.5c77.333 0 138 -27.333 182 -82s63.333 -121.667 58 -201h-407c1.33301 -45.333 18 -83.166 50 -113.499s70.667 -45.5 116 -45.5
c68 0 116.333 28 145 84h88c-12.667 -46.667 -39.667 -85.334 -81 -116.001s-92.333 -46 -153 -46zM293.001 434c-38.667 0 -73.168 -11.667 -103.501 -35s-49.166 -58 -56.499 -104h312c-8 45.333 -25.667 79.833 -53 103.5s-60.333 35.5 -99 35.5zM296 576l-159 101v79
l159 -101l159 101v-79z" />
    <glyph glyph-name="Gcircumflex" unicode="&#x11c;" horiz-adv-x="816" 
d="M414 -12c-104.667 0 -192.166 35.1699 -262.499 105.503s-105.5 157.5 -105.5 261.5s35.167 191.167 105.5 261.5s157.833 105.5 262.5 105.5c80 0 150.667 -21.5 212 -64.5s102.666 -95.5 123.999 -157.5h-103c-20 40 -50.667 72.333 -92 97s-88.333 37 -141 37
c-78.667 0 -144.167 -26.833 -196.5 -80.5s-78.5 -119.834 -78.5 -198.501s26.167 -144.834 78.5 -198.501s117.833 -80.5 196.5 -80.5c72.667 0 132.5 22.667 179.5 68s73.833 103.666 80.5 174.999h-264v87h360c9.33301 -125.333 -20.667 -226.333 -90 -303
s-158 -115 -266 -115zM248.001 768.003v77l166 87l166 -87v-77l-166 87z" />
    <glyph glyph-name="gcircumflex" unicode="&#x11d;" horiz-adv-x="628" 
d="M301 -219c-66 0 -120.834 16.167 -164.501 48.5s-69.5 73.833 -77.5 124.5h84c22 -64.667 75.333 -97 160 -97c47.333 0 85.5 15.167 114.5 45.5s43.5 72.833 43.5 127.5v59c-18 -26.667 -42.333 -48 -73 -64s-64.334 -24 -101.001 -24c-70 0 -128.333 24.5 -175 73.5
s-70 109.5 -70 181.5c0 71.333 23.5 131.5 70.5 180.5s105.167 73.5 174.5 73.5c36.667 0 70.334 -8 101.001 -24s55 -37 73 -63v77h86v-469c0 -80 -23.167 -141.667 -69.5 -185s-105.166 -65 -176.499 -65zM298.999 81c50 0 90.667 16.5 122 49.5s47 74.833 47 125.5
s-15.833 92.5 -47.5 125.5s-72.167 49.5 -121.5 49.5s-89.833 -16.5 -121.5 -49.5s-47.5 -74.833 -47.5 -125.5s15.667 -92.5 47 -125.5s72 -49.5 122 -49.5zM313.999 756l159 -101v-79l-159 101l-159 -101v79z" />
    <glyph glyph-name="Gbreve" unicode="&#x11e;" horiz-adv-x="816" 
d="M414 -12c-104.667 0 -192.166 35.1699 -262.499 105.503s-105.5 157.5 -105.5 261.5s35.167 191.167 105.5 261.5s157.833 105.5 262.5 105.5c80 0 150.667 -21.5 212 -64.5s102.666 -95.5 123.999 -157.5h-103c-20 40 -50.667 72.333 -92 97s-88.333 37 -141 37
c-78.667 0 -144.167 -26.833 -196.5 -80.5s-78.5 -119.834 -78.5 -198.501s26.167 -144.834 78.5 -198.501s117.833 -80.5 196.5 -80.5c72.667 0 132.5 22.667 179.5 68s73.833 103.666 80.5 174.999h-264v87h360c9.33301 -125.333 -20.667 -226.333 -90 -303
s-158 -115 -266 -115zM414.001 759.003c-45.333 0 -83.168 14.5 -113.501 43.5s-45.5 67.167 -45.5 114.5h58c0 -31.333 9.5 -56 28.5 -74s43.167 -27 72.5 -27s53.5 9 72.5 27s28.5 42.667 28.5 74h58c0 -47.333 -15.167 -85.5 -45.5 -114.5s-68.166 -43.5 -113.499 -43.5z
" />
    <glyph glyph-name="gbreve" unicode="&#x11f;" horiz-adv-x="628" 
d="M301 -219c-66 0 -120.834 16.167 -164.501 48.5s-69.5 73.833 -77.5 124.5h84c22 -64.667 75.333 -97 160 -97c47.333 0 85.5 15.167 114.5 45.5s43.5 72.833 43.5 127.5v59c-18 -26.667 -42.333 -48 -73 -64s-64.334 -24 -101.001 -24c-70 0 -128.333 24.5 -175 73.5
s-70 109.5 -70 181.5c0 71.333 23.5 131.5 70.5 180.5s105.167 73.5 174.5 73.5c36.667 0 70.334 -8 101.001 -24s55 -37 73 -63v77h86v-469c0 -80 -23.167 -141.667 -69.5 -185s-105.166 -65 -176.499 -65zM298.999 81c50 0 90.667 16.5 122 49.5s47 74.833 47 125.5
s-15.833 92.5 -47.5 125.5s-72.167 49.5 -121.5 49.5s-89.833 -16.5 -121.5 -49.5s-47.5 -74.833 -47.5 -125.5s15.667 -92.5 47 -125.5s72 -49.5 122 -49.5zM313.999 578c-45.333 0 -83.168 14.667 -113.501 44s-45.5 67.666 -45.5 114.999v13h58v-13
c0 -32 9.5 -56.833 28.5 -74.5s43.167 -26.5 72.5 -26.5s53.5 8.83301 72.5 26.5s28.5 42.5 28.5 74.5v13h58v-13c0 -47.333 -15.167 -85.666 -45.5 -114.999s-68.166 -44 -113.499 -44z" />
    <glyph glyph-name="Gdotaccent" unicode="&#x120;" horiz-adv-x="816" 
d="M414 -12c-104.667 0 -192.166 35.1699 -262.499 105.503s-105.5 157.5 -105.5 261.5s35.167 191.167 105.5 261.5s157.833 105.5 262.5 105.5c80 0 150.667 -21.5 212 -64.5s102.666 -95.5 123.999 -157.5h-103c-20 40 -50.667 72.333 -92 97s-88.333 37 -141 37
c-78.667 0 -144.167 -26.833 -196.5 -80.5s-78.5 -119.834 -78.5 -198.501s26.167 -144.834 78.5 -198.501s117.833 -80.5 196.5 -80.5c72.667 0 132.5 22.667 179.5 68s73.833 103.666 80.5 174.999h-264v87h360c9.33301 -125.333 -20.667 -226.333 -90 -303
s-158 -115 -266 -115zM414.001 785.003c-16.667 0 -30.667 5.66699 -42 17s-17 25 -17 41s5.66699 29.833 17 41.5s25.333 17.5 42 17.5c16 0 29.667 -5.83301 41 -17.5s17 -25.5 17 -41.5s-5.66699 -29.667 -17 -41s-25 -17 -41 -17z" />
    <glyph glyph-name="gdotaccent" unicode="&#x121;" horiz-adv-x="628" 
d="M301 -219c-66 0 -120.834 16.167 -164.501 48.5s-69.5 73.833 -77.5 124.5h84c22 -64.667 75.333 -97 160 -97c47.333 0 85.5 15.167 114.5 45.5s43.5 72.833 43.5 127.5v59c-18 -26.667 -42.333 -48 -73 -64s-64.334 -24 -101.001 -24c-70 0 -128.333 24.5 -175 73.5
s-70 109.5 -70 181.5c0 71.333 23.5 131.5 70.5 180.5s105.167 73.5 174.5 73.5c36.667 0 70.334 -8 101.001 -24s55 -37 73 -63v77h86v-469c0 -80 -23.167 -141.667 -69.5 -185s-105.166 -65 -176.499 -65zM298.999 81c50 0 90.667 16.5 122 49.5s47 74.833 47 125.5
s-15.833 92.5 -47.5 125.5s-72.167 49.5 -121.5 49.5s-89.833 -16.5 -121.5 -49.5s-47.5 -74.833 -47.5 -125.5s15.667 -92.5 47 -125.5s72 -49.5 122 -49.5zM313.999 596c-16.667 0 -30.667 5.66699 -42 17s-17 25 -17 41s5.66699 29.833 17 41.5s25.333 17.5 42 17.5
c16 0 29.667 -5.83301 41 -17.5s17 -25.5 17 -41.5s-5.66699 -29.667 -17 -41s-25 -17 -41 -17z" />
    <glyph glyph-name="uni0122" unicode="&#x122;" horiz-adv-x="816" 
d="M414 -12c-104.667 0 -192.166 35.1699 -262.499 105.503s-105.5 157.5 -105.5 261.5s35.167 191.167 105.5 261.5s157.833 105.5 262.5 105.5c80 0 150.667 -21.5 212 -64.5s102.666 -95.5 123.999 -157.5h-103c-20 40 -50.667 72.333 -92 97s-88.333 37 -141 37
c-78.667 0 -144.167 -26.833 -196.5 -80.5s-78.5 -119.834 -78.5 -198.501s26.167 -144.834 78.5 -198.501s117.833 -80.5 196.5 -80.5c72.667 0 132.5 22.667 179.5 68s73.833 103.666 80.5 174.999h-264v87h360c9.33301 -125.333 -20.667 -226.333 -90 -303
s-158 -115 -266 -115zM352.001 -268.997l36 85c-21.333 12.667 -32 30 -32 52c0 16 5.66699 29.833 17 41.5s25 17.5 41 17.5s29.667 -5.83301 41 -17.5s17 -25.5 17 -41.5c0 -12 -3.66699 -23.667 -11 -35l-64 -102h-45z" />
    <glyph glyph-name="uni0123" unicode="&#x123;" horiz-adv-x="628" 
d="M301 -219c-66 0 -120.834 16.167 -164.501 48.5s-69.5 73.833 -77.5 124.5h84c22 -64.667 75.333 -97 160 -97c47.333 0 85.5 15.167 114.5 45.5s43.5 72.833 43.5 127.5v59c-18 -26.667 -42.333 -48 -73 -64s-64.334 -24 -101.001 -24c-70 0 -128.333 24.5 -175 73.5
s-70 109.5 -70 181.5c0 71.333 23.5 131.5 70.5 180.5s105.167 73.5 174.5 73.5c36.667 0 70.334 -8 101.001 -24s55 -37 73 -63v77h86v-469c0 -80 -23.167 -141.667 -69.5 -185s-105.166 -65 -176.499 -65zM298.999 81c50 0 90.667 16.5 122 49.5s47 74.833 47 125.5
s-15.833 92.5 -47.5 125.5s-72.167 49.5 -121.5 49.5s-89.833 -16.5 -121.5 -49.5s-47.5 -74.833 -47.5 -125.5s15.667 -92.5 47 -125.5s72 -49.5 122 -49.5zM313.999 596c-16 0 -29.667 5.83398 -41 17.501s-17 25.5 -17 41.5c0 13.333 3.66699 24.666 11 33.999l64 103h45
l-36 -85c21.333 -12.667 32 -30 32 -52c0 -16 -5.66699 -29.833 -17 -41.5s-25 -17.5 -41 -17.5z" />
    <glyph glyph-name="Hcircumflex" unicode="&#x124;" horiz-adv-x="763" 
d="M94 0v710h93v-303h389v303h93v-710h-93v320h-389v-320h-93zM215 768v77l166 87l166 -87v-77l-166 87z" />
    <glyph glyph-name="hcircumflex" unicode="&#x125;" horiz-adv-x="589" 
d="M167 0l-86.001 0.000976562v750h86v-327c34 58 87 87 159 87c56.667 0 102.334 -18.333 137.001 -55s52 -85.667 52 -147v-308h-85v295c0 42 -10.667 75.167 -32 99.5s-50 36.5 -86 36.5c-41.333 0 -75.833 -16.333 -103.5 -49s-41.5 -77.334 -41.5 -134.001v-248z
M134.999 768.001v77l166 87l166 -87v-77l-166 87z" />
    <glyph glyph-name="Hbar" unicode="&#x126;" horiz-adv-x="776" 
d="M101 0v710h93v-303h389v303h93v-710h-93v320h-389v-320h-93zM28 523v72h721v-72h-721z" />
    <glyph glyph-name="hbar" unicode="&#x127;" horiz-adv-x="589" 
d="M167 0l-86.001 0.000976562v750h86v-327c34 58 87 87 159 87c56.667 0 102.334 -18.333 137.001 -55s52 -85.667 52 -147v-308h-85v295c0 42 -10.667 75.167 -32 99.5s-50 36.5 -86 36.5c-41.333 0 -75.833 -16.333 -103.5 -49s-41.5 -77.334 -41.5 -134.001v-248z
M333.999 577.001h-323v68h323v-68z" />
    <glyph glyph-name="Itilde" unicode="&#x128;" horiz-adv-x="281" 
d="M94 0v710h93v-710h-93zM-32 786l3.00293 18c5.33301 28.667 17.666 51.667 36.999 69s42.333 26 69 26c19.333 0 43.333 -7.33301 72 -22s47.667 -22 57 -22c21.333 0 35.666 14.667 42.999 44h66l-4 -19c-5.33301 -28.667 -17.5 -51.5 -36.5 -68.5
s-42.167 -25.5 -69.5 -25.5c-19.333 0 -43.333 7.33301 -72 22s-47.334 22 -56.001 22c-21.333 0 -36 -14.667 -44 -44h-65z" />
    <glyph glyph-name="itilde" unicode="&#x129;" horiz-adv-x="249" 
d="M81 0v500h86v-500h-86zM-50 593l3 18c5.33301 28.667 17.666 51.667 36.999 69s42.333 26 69 26c19.333 0 43.5 -7.33301 72.5 -22s47.833 -22 56.5 -22c21.333 0 35.666 14.667 42.999 44h66l-3 -18c-5.33301 -28.667 -17.666 -51.667 -36.999 -69s-42.333 -26 -69 -26
c-19.333 0 -43.5 7.33301 -72.5 22s-47.833 22 -56.5 22c-21.333 0 -35.666 -14.667 -42.999 -44h-66z" />
    <glyph glyph-name="Imacron" unicode="&#x12a;" horiz-adv-x="281" 
d="M94 0v710h93v-710h-93zM-20 805v69h322v-69h-322z" />
    <glyph glyph-name="imacron" unicode="&#x12b;" horiz-adv-x="249" 
d="M81 0v500h86v-500h-86zM-37 641v69h322v-69h-322z" />
    <glyph glyph-name="Ibreve" unicode="&#x12c;" horiz-adv-x="281" 
d="M94 0v710h93v-710h-93zM141 759c-45.333 0 -83.168 14.5 -113.501 43.5s-45.5 67.167 -45.5 114.5h58c0 -31.333 9.5 -56 28.5 -74s43.167 -27 72.5 -27s53.5 9 72.5 27s28.5 42.667 28.5 74h58c0 -47.333 -15.167 -85.5 -45.5 -114.5s-68.166 -43.5 -113.499 -43.5z" />
    <glyph glyph-name="ibreve" unicode="&#x12d;" horiz-adv-x="249" 
d="M81 0v500h86v-500h-86zM124 578c-45.333 0 -83.168 14.667 -113.501 44s-45.5 67.666 -45.5 114.999v13h58v-13c0 -32 9.5 -56.833 28.5 -74.5s43.167 -26.5 72.5 -26.5s53.5 8.83301 72.5 26.5s28.5 42.5 28.5 74.5v13h58v-13c0 -47.333 -15.167 -85.666 -45.5 -114.999
s-68.166 -44 -113.499 -44z" />
    <glyph glyph-name="Iogonek" unicode="&#x12e;" horiz-adv-x="281" 
d="M94 0v710h93v-710h-93zM106 -219c-26.667 0 -49.168 8.33203 -67.501 24.999s-27.5 38 -27.5 64c0 18.667 4.83301 36.834 14.5 54.501s19.5 31.5 29.5 41.5s23 21.333 39 34h93c-61.333 -38 -92 -75.333 -92 -112c0 -22 12 -33 36 -33
c18.667 0 37.334 7.33301 56.001 22v-70c-19.333 -17.333 -46.333 -26 -81 -26z" />
    <glyph glyph-name="iogonek" unicode="&#x12f;" horiz-adv-x="249" 
d="M125 634c-17.333 0 -32 5.83301 -44 17.5s-18 26.167 -18 43.5c0 16.667 6 31 18 43s26.667 18 44 18s31.666 -6 42.999 -18s17 -26.333 17 -43c0 -17.333 -5.66699 -31.833 -17 -43.5s-25.666 -17.5 -42.999 -17.5zM81 0v500h86v-500h-86zM90 -219
c-26.667 0 -48.999 8.16797 -66.999 24.501s-27 37.166 -27 62.499c0 20 5.33301 39.333 16 58s20.5 32.167 29.5 40.5s22.167 19.5 39.5 33.5h86c-62 -38.667 -93 -77 -93 -115c0 -24.667 12.667 -37 38 -37c16.667 0 35 7.33301 55 22v-63
c-18.667 -17.333 -44.334 -26 -77.001 -26z" />
    <glyph glyph-name="Idotaccent" unicode="&#x130;" horiz-adv-x="281" 
d="M94 0v710h93v-710h-93zM141 785c-16.667 0 -30.667 5.66699 -42 17s-17 25 -17 41s5.66699 29.833 17 41.5s25.333 17.5 42 17.5c16 0 29.667 -5.83301 41 -17.5s17 -25.5 17 -41.5s-5.66699 -29.667 -17 -41s-25 -17 -41 -17z" />
    <glyph glyph-name="dotlessi" unicode="&#x131;" horiz-adv-x="249" 
d="M81 0v500h86v-500h-86z" />
    <glyph glyph-name="Jcircumflex" unicode="&#x134;" horiz-adv-x="529" 
d="M233 -12c-60.667 0 -111 17.834 -151 53.501s-60 85.167 -60 148.5h92c0 -36 11.5 -64.333 34.5 -85s50.833 -31 83.5 -31c34 0 62 10.667 84 32s33 54.666 33 99.999v504h92v-514c0 -70 -19.667 -122.167 -59 -156.5s-89 -51.5 -149 -51.5zM229 768.001v77l166 87
l166 -87v-77l-166 87z" />
    <glyph glyph-name="jcircumflex" unicode="&#x135;" horiz-adv-x="257" 
d="M175 500l-0.000976562 -566c0 -50 -14 -88 -42 -114s-64.333 -39 -109 -39c-15.333 0 -29 1 -41 3v77c10.667 -1.33301 20.334 -2 29.001 -2c51.333 0 77 28.333 77 85v556h86zM131.999 756l159 -101v-79l-159 101l-159 -101v79z" />
    <glyph glyph-name="uni0136" unicode="&#x136;" horiz-adv-x="671" 
d="M563 0l-377 338v-338h-92v710h92v-308l310 308h121l-338 -338l415 -372h-131zM312 -269l36 85c-21.333 12.667 -32 30 -32 52c0 16 5.66699 29.833 17 41.5s25 17.5 41 17.5s29.667 -5.83301 41 -17.5s17 -25.5 17 -41.5c0 -12 -3.66699 -23.667 -11 -35l-64 -102h-45z
" />
    <glyph glyph-name="uni0137" unicode="&#x137;" horiz-adv-x="539" 
d="M438 0l-271 250v-250h-86v750h86v-445l218 195h114l-246 -221l301 -279h-116zM239 -269l36 85c-21.333 12.667 -32 30 -32 52c0 16 5.66699 29.833 17 41.5s25 17.5 41 17.5s29.667 -5.83301 41 -17.5s17 -25.5 17 -41.5c0 -12 -3.66699 -23.667 -11 -35l-64 -102h-45z
" />
    <glyph glyph-name="Lacute" unicode="&#x139;" horiz-adv-x="548" 
d="M94 0v710h93v-622h343v-88h-436zM113 770l78 157h108l-114 -157h-72z" />
    <glyph glyph-name="lacute" unicode="&#x13a;" horiz-adv-x="249" 
d="M81 0v750h86v-750h-86zM94 810l93 190h110l-134 -190h-69z" />
    <glyph glyph-name="uni013B" unicode="&#x13b;" horiz-adv-x="548" 
d="M94 0v710h93v-622h343v-88h-436zM244 -269l36 85c-21.333 12.667 -32 30 -32 52c0 16 5.66699 29.833 17 41.5s25 17.5 41 17.5s29.667 -5.83301 41 -17.5s17 -25.5 17 -41.5c0 -12 -3.66699 -23.667 -11 -35l-64 -102h-45z" />
    <glyph glyph-name="uni013C" unicode="&#x13c;" horiz-adv-x="249" 
d="M81 0v750h86v-750h-86zM62 -269l36 85c-21.333 12.667 -32 30 -32 52c0 16 5.66699 29.833 17 41.5s25 17.5 41 17.5s29.667 -5.83301 41 -17.5s17 -25.5 17 -41.5c0 -12 -3.66699 -23.667 -11 -35l-64 -102h-45z" />
    <glyph glyph-name="Lcaron" unicode="&#x13d;" horiz-adv-x="548" 
d="M94 0v710h93v-622h343v-88h-436zM287 585l24 165h86l-50 -165h-60z" />
    <glyph glyph-name="lcaron" unicode="&#x13e;" horiz-adv-x="249" 
d="M81 0v750h86v-750h-86zM204 585l24 165h86l-50 -165h-60z" />
    <glyph glyph-name="Ldot" unicode="&#x13f;" horiz-adv-x="553" 
d="M94 0v710h93v-622h343v-88h-436zM417 341c-16.667 0 -30.667 5.66699 -42 17s-17 25 -17 41s5.66699 29.833 17 41.5s25.333 17.5 42 17.5c16 0 29.667 -5.83301 41 -17.5s17 -25.5 17 -41.5s-5.66699 -29.667 -17 -41s-25 -17 -41 -17z" />
    <glyph glyph-name="ldot" unicode="&#x140;" horiz-adv-x="383" 
d="M81 0v750h86v-750h-86zM317 317c-16.667 0 -30.667 5.66699 -42 17s-17 25 -17 41s5.66699 29.833 17 41.5s25.333 17.5 42 17.5c16 0 29.667 -5.83301 41 -17.5s17 -25.5 17 -41.5s-5.66699 -29.667 -17 -41s-25 -17 -41 -17z" />
    <glyph glyph-name="Lslash" unicode="&#x141;" horiz-adv-x="567" 
d="M113 0v710h93v-622h343v-88h-436zM365 423l-325 -210v84l325 210v-84z" />
    <glyph glyph-name="lslash" unicode="&#x142;" horiz-adv-x="319" 
d="M118 0v750h86v-750h-86zM283 414l-244 -157v78l244 156v-77z" />
    <glyph glyph-name="Nacute" unicode="&#x143;" horiz-adv-x="794" 
d="M699 0h-80l-432 553v-553h-93v710h81l432 -553v553h92v-710zM365 770l78 157h108l-114 -157h-72z" />
    <glyph glyph-name="nacute" unicode="&#x144;" horiz-adv-x="589" 
d="M81 0l-0.000976562 500.001h86v-77c34 58 87 87 159 87c56.667 0 102.334 -18.333 137.001 -55s52 -85.667 52 -147v-308h-85v295c0 42 -10.667 75.167 -32 99.5s-50 36.5 -86 36.5c-41.333 0 -75.833 -16.333 -103.5 -49s-41.5 -77.334 -41.5 -134.001v-248h-86z
M267.999 560.001l93 190h110l-134 -190h-69z" />
    <glyph glyph-name="uni0145" unicode="&#x145;" horiz-adv-x="794" 
d="M699 0h-80l-432 553v-553h-93v710h81l432 -553v553h92v-710zM338 -269l36 85c-21.333 12.667 -32 30 -32 52c0 16 5.66699 29.833 17 41.5s25 17.5 41 17.5s29.667 -5.83301 41 -17.5s17 -25.5 17 -41.5c0 -12 -3.66699 -23.667 -11 -35l-64 -102h-45z" />
    <glyph glyph-name="uni0146" unicode="&#x146;" horiz-adv-x="589" 
d="M81 0l-0.000976562 500.001h86v-77c34 58 87 87 159 87c56.667 0 102.334 -18.333 137.001 -55s52 -85.667 52 -147v-308h-85v295c0 42 -10.667 75.167 -32 99.5s-50 36.5 -86 36.5c-41.333 0 -75.833 -16.333 -103.5 -49s-41.5 -77.334 -41.5 -134.001v-248h-86z
M235.999 -268.999l36 85c-21.333 12.667 -32 30 -32 52c0 16 5.66699 29.833 17 41.5s25 17.5 41 17.5s29.667 -5.83301 41 -17.5s17 -25.5 17 -41.5c0 -12 -3.66699 -23.667 -11 -35l-64 -102h-45z" />
    <glyph glyph-name="Ncaron" unicode="&#x147;" horiz-adv-x="794" 
d="M699 0h-80l-432 553v-553h-93v710h81l432 -553v553h92v-710zM393 768l-166 87v77l166 -87l166 87v-77z" />
    <glyph glyph-name="ncaron" unicode="&#x148;" horiz-adv-x="589" 
d="M81 0l-0.000976562 500.001h86v-77c34 58 87 87 159 87c56.667 0 102.334 -18.333 137.001 -55s52 -85.667 52 -147v-308h-85v295c0 42 -10.667 75.167 -32 99.5s-50 36.5 -86 36.5c-41.333 0 -75.833 -16.333 -103.5 -49s-41.5 -77.334 -41.5 -134.001v-248h-86z
M297.999 576.001l-159 101v79l159 -101l159 101v-79z" />
    <glyph glyph-name="Eng" unicode="&#x14a;" horiz-adv-x="794" 
d="M699 710l0.00195312 -776c0 -50 -14 -88 -42 -114s-65 -39 -111 -39c-28.667 0 -54.334 4.33301 -77.001 13v81c16.667 -7.33301 37.667 -11 63 -11s44.166 6.5 56.499 19.5s18.5 34.833 18.5 65.5v66l-420 538v-553h-93v710h81l432 -553v553h92z" />
    <glyph glyph-name="eng" unicode="&#x14b;" horiz-adv-x="589" 
d="M81 0l-0.00292969 500.001h86v-77c34 58 87 87 159 87c56.667 0 102.334 -18.333 137.001 -55s52 -85.667 52 -147v-369c0 -50 -14 -88 -42 -114s-65 -39 -111 -39c-20 0 -38 2 -54 6v77c10.667 -2.66699 23.334 -4 38.001 -4c28.667 0 49.834 6.33301 63.501 19
s20.5 34.667 20.5 66v345c0 42 -10.667 75.167 -32 99.5s-50 36.5 -86 36.5c-41.333 0 -75.833 -16.333 -103.5 -49s-41.5 -77.334 -41.5 -134.001v-248h-86z" />
    <glyph glyph-name="Omacron" unicode="&#x14c;" horiz-adv-x="825" 
d="M412 76c78 0 143.167 27 195.5 81s78.5 120 78.5 198s-26.167 144 -78.5 198s-117.5 81 -195.5 81c-77.333 0 -142.166 -27 -194.499 -81s-78.5 -120 -78.5 -198s26.167 -144 78.5 -198s117.166 -81 194.499 -81zM412 -12c-102 0 -188.667 35.5 -260 106.5
s-107 157.833 -107 260.5s35.667 189.5 107 260.5s158 106.5 260 106.5c102.667 0 189.5 -35.5 260.5 -106.5s106.5 -157.833 106.5 -260.5s-35.5 -189.5 -106.5 -260.5s-157.833 -106.5 -260.5 -106.5zM251 805v69h322v-69h-322z" />
    <glyph glyph-name="omacron" unicode="&#x14d;" horiz-adv-x="606" 
d="M303 -10c-75.333 0 -137.833 25.167 -187.5 75.5s-74.5 111.833 -74.5 184.5s24.833 134.167 74.5 184.5s112.167 75.5 187.5 75.5c74.667 0 136.834 -25.167 186.501 -75.5s74.5 -111.833 74.5 -184.5s-24.833 -134.167 -74.5 -184.5s-111.834 -75.5 -186.501 -75.5z
M303 70c51.333 0 93 17.333 125 52s48 77.334 48 128.001s-16 93.334 -48 128.001s-73.667 52 -125 52s-93.166 -17.333 -125.499 -52s-48.5 -77.334 -48.5 -128.001s16.167 -93.334 48.5 -128.001s74.166 -52 125.499 -52zM142 641v69h322v-69h-322z" />
    <glyph glyph-name="Obreve" unicode="&#x14e;" horiz-adv-x="825" 
d="M412 76c78 0 143.167 27 195.5 81s78.5 120 78.5 198s-26.167 144 -78.5 198s-117.5 81 -195.5 81c-77.333 0 -142.166 -27 -194.499 -81s-78.5 -120 -78.5 -198s26.167 -144 78.5 -198s117.166 -81 194.499 -81zM412 -12c-102 0 -188.667 35.5 -260 106.5
s-107 157.833 -107 260.5s35.667 189.5 107 260.5s158 106.5 260 106.5c102.667 0 189.5 -35.5 260.5 -106.5s106.5 -157.833 106.5 -260.5s-35.5 -189.5 -106.5 -260.5s-157.833 -106.5 -260.5 -106.5zM412 759c-45.333 0 -83.168 14.5 -113.501 43.5
s-45.5 67.167 -45.5 114.5h58c0 -31.333 9.5 -56 28.5 -74s43.167 -27 72.5 -27s53.5 9 72.5 27s28.5 42.667 28.5 74h58c0 -47.333 -15.167 -85.5 -45.5 -114.5s-68.166 -43.5 -113.499 -43.5z" />
    <glyph glyph-name="obreve" unicode="&#x14f;" horiz-adv-x="606" 
d="M303 -10c-75.333 0 -137.833 25.167 -187.5 75.5s-74.5 111.833 -74.5 184.5s24.833 134.167 74.5 184.5s112.167 75.5 187.5 75.5c74.667 0 136.834 -25.167 186.501 -75.5s74.5 -111.833 74.5 -184.5s-24.833 -134.167 -74.5 -184.5s-111.834 -75.5 -186.501 -75.5z
M303 70c51.333 0 93 17.333 125 52s48 77.334 48 128.001s-16 93.334 -48 128.001s-73.667 52 -125 52s-93.166 -17.333 -125.499 -52s-48.5 -77.334 -48.5 -128.001s16.167 -93.334 48.5 -128.001s74.166 -52 125.499 -52zM303 578c-45.333 0 -83.168 14.667 -113.501 44
s-45.5 67.666 -45.5 114.999v13h58v-13c0 -32 9.5 -56.833 28.5 -74.5s43.167 -26.5 72.5 -26.5s53.5 8.83301 72.5 26.5s28.5 42.5 28.5 74.5v13h58v-13c0 -47.333 -15.167 -85.666 -45.5 -114.999s-68.166 -44 -113.499 -44z" />
    <glyph glyph-name="Ohungarumlaut" unicode="&#x150;" horiz-adv-x="825" 
d="M412 76c78 0 143.167 27 195.5 81s78.5 120 78.5 198s-26.167 144 -78.5 198s-117.5 81 -195.5 81c-77.333 0 -142.166 -27 -194.499 -81s-78.5 -120 -78.5 -198s26.167 -144 78.5 -198s117.166 -81 194.499 -81zM412 -12c-102 0 -188.667 35.5 -260 106.5
s-107 157.833 -107 260.5s35.667 189.5 107 260.5s158 106.5 260 106.5c102.667 0 189.5 -35.5 260.5 -106.5s106.5 -157.833 106.5 -260.5s-35.5 -189.5 -106.5 -260.5s-157.833 -106.5 -260.5 -106.5zM467 770l69 157h99l-109 -157h-59zM300 770l69 157h99l-109 -157h-59z
" />
    <glyph glyph-name="ohungarumlaut" unicode="&#x151;" horiz-adv-x="606" 
d="M303 -10c-75.333 0 -137.833 25.167 -187.5 75.5s-74.5 111.833 -74.5 184.5s24.833 134.167 74.5 184.5s112.167 75.5 187.5 75.5c74.667 0 136.834 -25.167 186.501 -75.5s74.5 -111.833 74.5 -184.5s-24.833 -134.167 -74.5 -184.5s-111.834 -75.5 -186.501 -75.5z
M303 70c51.333 0 93 17.333 125 52s48 77.334 48 128.001s-16 93.334 -48 128.001s-73.667 52 -125 52s-93.166 -17.333 -125.499 -52s-48.5 -77.334 -48.5 -128.001s16.167 -93.334 48.5 -128.001s74.166 -52 125.499 -52zM355 560l69 190h99l-109 -190h-59zM188 560
l69 190h99l-109 -190h-59z" />
    <glyph glyph-name="OE" unicode="&#x152;" horiz-adv-x="1149" 
d="M412 76c78 0 143.167 27 195.5 81s78.5 120 78.5 198s-26.167 144 -78.5 198s-117.5 81 -195.5 81c-77.333 0 -142.166 -27 -194.499 -81s-78.5 -120 -78.5 -198s26.167 -144 78.5 -198s117.166 -81 194.499 -81zM686 0v118c-66.667 -86.667 -158 -130 -274 -130
c-102 0 -188.667 35.5 -260 106.5s-107 157.833 -107 260.5s35.667 189.5 107 260.5s158 106.5 260 106.5c116 0 207.333 -43.333 274 -130v118h414v-88h-322v-215h262v-88h-262v-231h322v-88h-414z" />
    <glyph glyph-name="oe" unicode="&#x153;" horiz-adv-x="1013" 
d="M303 -10c-75.333 0 -137.833 25.165 -187.5 75.498s-74.5 111.833 -74.5 184.5s24.833 134.167 74.5 184.5s112.167 75.5 187.5 75.5c45.333 0 86.5 -9.83301 123.5 -29.5s67.5 -46.5 91.5 -80.5c46.667 73.333 117.334 110 212.001 110c77.333 0 138 -27.333 182 -82
s63.333 -121.667 58 -201h-407c1.33301 -45.333 18 -83.166 50 -113.499s70.667 -45.5 116 -45.5c68 0 116.333 28 145 84h89c-14.667 -47.333 -42.334 -86.166 -83.001 -116.499s-91.334 -45.5 -152.001 -45.5c-45.333 0 -86.166 9.66699 -122.499 29
s-65.5 46.333 -87.5 81c-24 -34 -54.5 -60.833 -91.5 -80.5s-78.167 -29.5 -123.5 -29.5zM303 69.998c51.333 0 93 17.333 125 52s48 77.334 48 128.001s-16 93.334 -48 128.001s-73.667 52 -125 52s-93.166 -17.333 -125.499 -52s-48.5 -77.334 -48.5 -128.001
s16.167 -93.334 48.5 -128.001s74.166 -52 125.499 -52zM727 433.998c-38.667 0 -73.168 -11.667 -103.501 -35s-49.166 -58 -56.499 -104h312c-8 45.333 -25.667 79.833 -53 103.5s-60.333 35.5 -99 35.5z" />
    <glyph glyph-name="Racute" unicode="&#x154;" horiz-adv-x="635" 
d="M94 0v710h242c65.333 0 117 -17.833 155 -53.5s57 -83.167 57 -142.5c0 -52 -15.5 -94.667 -46.5 -128s-74.167 -54 -129.5 -62l274 -324h-117l-273 323h-69v-323h-93zM187 406l138 0.000976562c41.333 0 73.333 9.16699 96 27.5s34 45.166 34 80.499
s-11.333 62.5 -34 81.5s-54.667 28.5 -96 28.5h-138v-218zM272 770.001l78 157h108l-114 -157h-72z" />
    <glyph glyph-name="racute" unicode="&#x155;" horiz-adv-x="366" 
d="M81 0l0.000976562 499.999h86v-97c9.33301 30.667 27.5 55.334 54.5 74.001s55.5 28 85.5 28c14.667 0 27.667 -1.33301 39 -4v-89c-12 5.33301 -27.667 8 -47 8c-34.667 0 -65.334 -15 -92.001 -45s-40 -72.333 -40 -127v-248h-86zM183.001 559.999l93 190h110
l-134 -190h-69z" />
    <glyph glyph-name="uni0156" unicode="&#x156;" horiz-adv-x="635" 
d="M94 0v710h242c65.333 0 117 -17.833 155 -53.5s57 -83.167 57 -142.5c0 -52 -15.5 -94.667 -46.5 -128s-74.167 -54 -129.5 -62l274 -324h-117l-273 323h-69v-323h-93zM187 406l138 0.000976562c41.333 0 73.333 9.16699 96 27.5s34 45.166 34 80.499
s-11.333 62.5 -34 81.5s-54.667 28.5 -96 28.5h-138v-218zM296 -268.999l36 85c-21.333 12.667 -32 30 -32 52c0 16 5.66699 29.833 17 41.5s25 17.5 41 17.5s29.667 -5.83301 41 -17.5s17 -25.5 17 -41.5c0 -12 -3.66699 -23.667 -11 -35l-64 -102h-45z" />
    <glyph glyph-name="uni0157" unicode="&#x157;" horiz-adv-x="366" 
d="M81 0l0.000976562 499.999h86v-97c9.33301 30.667 27.5 55.334 54.5 74.001s55.5 28 85.5 28c14.667 0 27.667 -1.33301 39 -4v-89c-12 5.33301 -27.667 8 -47 8c-34.667 0 -65.334 -15 -92.001 -45s-40 -72.333 -40 -127v-248h-86zM63.001 -269.001l36 85
c-21.333 12.667 -32 30 -32 52c0 16 5.66699 29.833 17 41.5s25 17.5 41 17.5s29.667 -5.83301 41 -17.5s17 -25.5 17 -41.5c0 -12 -3.66699 -23.667 -11 -35l-64 -102h-45z" />
    <glyph glyph-name="Rcaron" unicode="&#x158;" horiz-adv-x="635" 
d="M94 0v710h242c65.333 0 117 -17.833 155 -53.5s57 -83.167 57 -142.5c0 -52 -15.5 -94.667 -46.5 -128s-74.167 -54 -129.5 -62l274 -324h-117l-273 323h-69v-323h-93zM187 406l138 0.000976562c41.333 0 73.333 9.16699 96 27.5s34 45.166 34 80.499
s-11.333 62.5 -34 81.5s-54.667 28.5 -96 28.5h-138v-218zM299 768.001l-166 87v77l166 -87l166 87v-77z" />
    <glyph glyph-name="rcaron" unicode="&#x159;" horiz-adv-x="366" 
d="M81 0l0.000976562 499.999h86v-97c9.33301 30.667 27.5 55.334 54.5 74.001s55.5 28 85.5 28c14.667 0 27.667 -1.33301 39 -4v-89c-12 5.33301 -27.667 8 -47 8c-34.667 0 -65.334 -15 -92.001 -45s-40 -72.333 -40 -127v-248h-86zM213.001 575.999l-159 101v79
l159 -101l159 101v-79z" />
    <glyph glyph-name="Sacute" unicode="&#x15a;" horiz-adv-x="562" 
d="M290 -12c-72 0 -130.831 19.6641 -176.498 58.9971s-69.167 87 -70.5 143h93c4 -36.667 21.167 -65 51.5 -85s64.166 -30 101.499 -30c38.667 0 70.667 9.66699 96 29s38 45 38 77c0 54 -33.667 93.667 -101 119l-98 36c-56 19.333 -97.167 45 -123.5 77
s-39.833 73 -40.5 123c0 56.667 20.167 101.834 60.5 135.501s92.166 50.5 155.499 50.5c66.667 0 119.5 -19.167 158.5 -57.5s60.833 -83.166 65.5 -134.499h-92c-8.66699 35.333 -25.167 61.666 -49.5 78.999s-52.5 26 -84.5 26c-34.667 0 -63.5 -8.66699 -86.5 -26
s-34.5 -40.666 -34.5 -69.999s8 -52.666 24 -69.999s42 -32.333 78 -45l91 -33c56 -20 98.333 -46.5 127 -79.5s43 -75.5 43 -127.5c0 -59.333 -21 -106.833 -63 -142.5s-96.333 -53.5 -163 -53.5zM256.002 769.997l78 157h108l-114 -157h-72z" />
    <glyph glyph-name="sacute" unicode="&#x15b;" horiz-adv-x="467" 
d="M242 -10c-56 0 -102.835 13.665 -140.502 40.998s-58.5 65.333 -62.5 114h88c5.33301 -28 18.833 -48.667 40.5 -62s46.834 -20 75.501 -20s51.834 5.66699 69.501 17s26.5 27.666 26.5 48.999c0 20 -6.5 36.333 -19.5 49s-34.167 23 -63.5 31l-72 19
c-86 22.667 -129 71.667 -129 147c0 40.667 16.167 73.334 48.5 98.001s73.833 37 124.5 37c51.333 0 93.5 -13.5 126.5 -40.5s51.5 -61.167 55.5 -102.5h-86c-6.66699 22 -18.5 39.333 -35.5 52s-37.167 19 -60.5 19c-24.667 0 -45.167 -5.66699 -61.5 -17
s-24.5 -26.333 -24.5 -45c0 -18 6 -32.667 18 -44s31.333 -20.666 58 -27.999l80 -21c85.333 -21.333 128 -70.666 128 -147.999c0 -48 -17 -84.167 -51 -108.5s-78.333 -36.5 -133 -36.5zM208.998 559.998l93 190h110l-134 -190h-69z" />
    <glyph glyph-name="Scircumflex" unicode="&#x15c;" horiz-adv-x="562" 
d="M290 -12c-72 0 -130.831 19.6641 -176.498 58.9971s-69.167 87 -70.5 143h93c4 -36.667 21.167 -65 51.5 -85s64.166 -30 101.499 -30c38.667 0 70.667 9.66699 96 29s38 45 38 77c0 54 -33.667 93.667 -101 119l-98 36c-56 19.333 -97.167 45 -123.5 77
s-39.833 73 -40.5 123c0 56.667 20.167 101.834 60.5 135.501s92.166 50.5 155.499 50.5c66.667 0 119.5 -19.167 158.5 -57.5s60.833 -83.166 65.5 -134.499h-92c-8.66699 35.333 -25.167 61.666 -49.5 78.999s-52.5 26 -84.5 26c-34.667 0 -63.5 -8.66699 -86.5 -26
s-34.5 -40.666 -34.5 -69.999s8 -52.666 24 -69.999s42 -32.333 78 -45l91 -33c56 -20 98.333 -46.5 127 -79.5s43 -75.5 43 -127.5c0 -59.333 -21 -106.833 -63 -142.5s-96.333 -53.5 -163 -53.5zM117.002 767.997v77l166 87l166 -87v-77l-166 87z" />
    <glyph glyph-name="scircumflex" unicode="&#x15d;" horiz-adv-x="467" 
d="M242 -10c-56 0 -102.835 13.665 -140.502 40.998s-58.5 65.333 -62.5 114h88c5.33301 -28 18.833 -48.667 40.5 -62s46.834 -20 75.501 -20s51.834 5.66699 69.501 17s26.5 27.666 26.5 48.999c0 20 -6.5 36.333 -19.5 49s-34.167 23 -63.5 31l-72 19
c-86 22.667 -129 71.667 -129 147c0 40.667 16.167 73.334 48.5 98.001s73.833 37 124.5 37c51.333 0 93.5 -13.5 126.5 -40.5s51.5 -61.167 55.5 -102.5h-86c-6.66699 22 -18.5 39.333 -35.5 52s-37.167 19 -60.5 19c-24.667 0 -45.167 -5.66699 -61.5 -17
s-24.5 -26.333 -24.5 -45c0 -18 6 -32.667 18 -44s31.333 -20.666 58 -27.999l80 -21c85.333 -21.333 128 -70.666 128 -147.999c0 -48 -17 -84.167 -51 -108.5s-78.333 -36.5 -133 -36.5zM238.998 755.998l159 -101v-79l-159 101l-159 -101v79z" />
    <glyph glyph-name="Scedilla" unicode="&#x15e;" horiz-adv-x="562" 
d="M290 -12c-72 0 -130.831 19.6641 -176.498 58.9971s-69.167 87 -70.5 143h93c4 -36.667 21.167 -65 51.5 -85s64.166 -30 101.499 -30c38.667 0 70.667 9.66699 96 29s38 45 38 77c0 54 -33.667 93.667 -101 119l-98 36c-56 19.333 -97.167 45 -123.5 77
s-39.833 73 -40.5 123c0 56.667 20.167 101.834 60.5 135.501s92.166 50.5 155.499 50.5c66.667 0 119.5 -19.167 158.5 -57.5s60.833 -83.166 65.5 -134.499h-92c-8.66699 35.333 -25.167 61.666 -49.5 78.999s-52.5 26 -84.5 26c-34.667 0 -63.5 -8.66699 -86.5 -26
s-34.5 -40.666 -34.5 -69.999s8 -52.666 24 -69.999s42 -32.333 78 -45l91 -33c56 -20 98.333 -46.5 127 -79.5s43 -75.5 43 -127.5c0 -59.333 -21 -106.833 -63 -142.5s-96.333 -53.5 -163 -53.5zM182.002 -204.003v55c20 -11.333 45.333 -17 76 -17
c19.333 0 35.5 3.33301 48.5 10s19.5 17 19.5 31c0 20 -15.333 30 -46 30c-16 0 -31 -3.33301 -45 -10l-32 21l52 87h55l-34 -56c10 4.66699 23.333 7 40 7c24 0 43.333 -6.83301 58 -20.5s22 -32.167 22 -55.5c0 -28.667 -12.333 -52 -37 -70s-55.334 -27 -92.001 -27
c-35.333 0 -63.666 5 -84.999 15z" />
    <glyph glyph-name="scedilla" unicode="&#x15f;" horiz-adv-x="467" 
d="M242 -10c-56 0 -102.835 13.665 -140.502 40.998s-58.5 65.333 -62.5 114h88c5.33301 -28 18.833 -48.667 40.5 -62s46.834 -20 75.501 -20s51.834 5.66699 69.501 17s26.5 27.666 26.5 48.999c0 20 -6.5 36.333 -19.5 49s-34.167 23 -63.5 31l-72 19
c-86 22.667 -129 71.667 -129 147c0 40.667 16.167 73.334 48.5 98.001s73.833 37 124.5 37c51.333 0 93.5 -13.5 126.5 -40.5s51.5 -61.167 55.5 -102.5h-86c-6.66699 22 -18.5 39.333 -35.5 52s-37.167 19 -60.5 19c-24.667 0 -45.167 -5.66699 -61.5 -17
s-24.5 -26.333 -24.5 -45c0 -18 6 -32.667 18 -44s31.333 -20.666 58 -27.999l80 -21c85.333 -21.333 128 -70.666 128 -147.999c0 -48 -17 -84.167 -51 -108.5s-78.333 -36.5 -133 -36.5zM130.998 -204.002v55c20 -11.333 45.333 -17 76 -17c19.333 0 35.5 3.5 48.5 10.5
s19.5 17.167 19.5 30.5c0 20 -15.667 30 -47 30c-15.333 0 -30 -3.33301 -44 -10l-33 21l53 87h54l-34 -56c10 4.66699 23.333 7 40 7c24 0 43.5 -6.83301 58.5 -20.5s22.5 -32.167 22.5 -55.5c0 -28.667 -12.5 -52 -37.5 -70s-55.833 -27 -92.5 -27
c-35.333 0 -63.333 5 -84 15z" />
    <glyph glyph-name="Scaron" unicode="&#x160;" horiz-adv-x="562" 
d="M290 -12c-72 0 -130.831 19.6641 -176.498 58.9971s-69.167 87 -70.5 143h93c4 -36.667 21.167 -65 51.5 -85s64.166 -30 101.499 -30c38.667 0 70.667 9.66699 96 29s38 45 38 77c0 54 -33.667 93.667 -101 119l-98 36c-56 19.333 -97.167 45 -123.5 77
s-39.833 73 -40.5 123c0 56.667 20.167 101.834 60.5 135.501s92.166 50.5 155.499 50.5c66.667 0 119.5 -19.167 158.5 -57.5s60.833 -83.166 65.5 -134.499h-92c-8.66699 35.333 -25.167 61.666 -49.5 78.999s-52.5 26 -84.5 26c-34.667 0 -63.5 -8.66699 -86.5 -26
s-34.5 -40.666 -34.5 -69.999s8 -52.666 24 -69.999s42 -32.333 78 -45l91 -33c56 -20 98.333 -46.5 127 -79.5s43 -75.5 43 -127.5c0 -59.333 -21 -106.833 -63 -142.5s-96.333 -53.5 -163 -53.5zM283.002 767.997l-166 87v77l166 -87l166 87v-77z" />
    <glyph glyph-name="scaron" unicode="&#x161;" horiz-adv-x="467" 
d="M242 -10c-56 0 -102.835 13.665 -140.502 40.998s-58.5 65.333 -62.5 114h88c5.33301 -28 18.833 -48.667 40.5 -62s46.834 -20 75.501 -20s51.834 5.66699 69.501 17s26.5 27.666 26.5 48.999c0 20 -6.5 36.333 -19.5 49s-34.167 23 -63.5 31l-72 19
c-86 22.667 -129 71.667 -129 147c0 40.667 16.167 73.334 48.5 98.001s73.833 37 124.5 37c51.333 0 93.5 -13.5 126.5 -40.5s51.5 -61.167 55.5 -102.5h-86c-6.66699 22 -18.5 39.333 -35.5 52s-37.167 19 -60.5 19c-24.667 0 -45.167 -5.66699 -61.5 -17
s-24.5 -26.333 -24.5 -45c0 -18 6 -32.667 18 -44s31.333 -20.666 58 -27.999l80 -21c85.333 -21.333 128 -70.666 128 -147.999c0 -48 -17 -84.167 -51 -108.5s-78.333 -36.5 -133 -36.5zM238.998 575.998l-159 101v79l159 -101l159 101v-79z" />
    <glyph glyph-name="uni0162" unicode="&#x162;" horiz-adv-x="567" 
d="M238 0v622h-221v88h533v-88h-221v-622h-91zM221 -269l36 85c-21.333 12.667 -32 30 -32 52c0 16 5.66699 29.833 17 41.5s25 17.5 41 17.5s29.667 -5.83301 41 -17.5s17 -25.5 17 -41.5c0 -12 -3.66699 -23.667 -11 -35l-64 -102h-45z" />
    <glyph glyph-name="uni0163" unicode="&#x163;" horiz-adv-x="381" 
d="M275 -5c-46 0 -82.999 13 -110.999 39s-42 64 -42 114v273h-106v79h106v139h86v-139h144v-79h-144v-262c0 -31.333 6.66699 -53.333 20 -66s34.333 -19 63 -19c25.333 0 45.666 3.33301 60.999 10v-77c-24 -8 -49.667 -12 -77 -12zM178.001 -269l36 85
c-21.333 12.667 -32 30 -32 52c0 16 5.66699 29.833 17 41.5s25 17.5 41 17.5s29.667 -5.83301 41 -17.5s17 -25.5 17 -41.5c0 -12 -3.66699 -23.667 -11 -35l-64 -102h-45z" />
    <glyph glyph-name="Tcaron" unicode="&#x164;" horiz-adv-x="567" 
d="M238 0v622h-221v88h533v-88h-221v-622h-91zM283 768l-166 87v77l166 -87l166 87v-77z" />
    <glyph glyph-name="tcaron" unicode="&#x165;" horiz-adv-x="381" 
d="M275 -5c-46 0 -82.999 13 -110.999 39s-42 64 -42 114v273h-106v79h106v139h86v-139h144v-79h-144v-262c0 -31.333 6.66699 -53.333 20 -66s34.333 -19 63 -19c25.333 0 45.666 3.33301 60.999 10v-77c-24 -8 -49.667 -12 -77 -12zM243.001 545l24 165h86l-50 -165h-60z
" />
    <glyph glyph-name="Tbar" unicode="&#x166;" horiz-adv-x="593" 
d="M251 0v622h-221v88h533v-88h-221v-622h-91zM94 324v81h405v-81h-405z" />
    <glyph glyph-name="tbar" unicode="&#x167;" horiz-adv-x="395" 
d="M284 -5c-46 0 -82.999 13 -110.999 39s-42 64 -42 114v273h-106v79h106v139h86v-139h144v-79h-144v-262c0 -31.333 6.66699 -53.333 20 -66s34.333 -19 63 -19c25.333 0 45.666 3.33301 60.999 10v-77c-24 -8 -49.667 -12 -77 -12zM24.001 266v68h337v-68h-337z" />
    <glyph glyph-name="Utilde" unicode="&#x168;" horiz-adv-x="726" 
d="M363 -12c-82.667 0 -149.667 26.167 -201 78.5s-77 122.166 -77 209.499v434h93v-436c0 -63.333 16.667 -112.166 50 -146.499s78.333 -51.5 135 -51.5s101.667 17.167 135 51.5s50 83.166 50 146.499v436h93v-434c0 -87.333 -25.667 -157.166 -77 -209.499
s-118.333 -78.5 -201 -78.5zM190 786l3.00293 18c5.33301 28.667 17.666 51.667 36.999 69s42.333 26 69 26c19.333 0 43.333 -7.33301 72 -22s47.667 -22 57 -22c21.333 0 35.666 14.667 42.999 44h66l-4 -19c-5.33301 -28.667 -17.5 -51.5 -36.5 -68.5
s-42.167 -25.5 -69.5 -25.5c-19.333 0 -43.333 7.33301 -72 22s-47.334 22 -56.001 22c-21.333 0 -36 -14.667 -44 -44h-65z" />
    <glyph glyph-name="utilde" unicode="&#x169;" horiz-adv-x="579" 
d="M258 -10c-54.667 0 -99 18.5 -133 55.5s-51 86.167 -51 147.5v307h86v-294c0 -42 10.167 -75.333 30.5 -100s47.833 -37 82.5 -37c40 0 73.167 16.5 99.5 49.5s39.5 77.5 39.5 133.5v248h86v-500h-86v77c-32.667 -58 -84 -87 -154 -87zM111 593l3 18
c5.33301 28.667 17.666 51.667 36.999 69s42.333 26 69 26c19.333 0 43.5 -7.33301 72.5 -22s47.833 -22 56.5 -22c21.333 0 35.666 14.667 42.999 44h66l-3 -18c-5.33301 -28.667 -17.666 -51.667 -36.999 -69s-42.333 -26 -69 -26c-19.333 0 -43.5 7.33301 -72.5 22
s-47.833 22 -56.5 22c-21.333 0 -35.666 -14.667 -42.999 -44h-66z" />
    <glyph glyph-name="Umacron" unicode="&#x16a;" horiz-adv-x="726" 
d="M363 -12c-82.667 0 -149.667 26.167 -201 78.5s-77 122.166 -77 209.499v434h93v-436c0 -63.333 16.667 -112.166 50 -146.499s78.333 -51.5 135 -51.5s101.667 17.167 135 51.5s50 83.166 50 146.499v436h93v-434c0 -87.333 -25.667 -157.166 -77 -209.499
s-118.333 -78.5 -201 -78.5zM202 805v69h322v-69h-322z" />
    <glyph glyph-name="umacron" unicode="&#x16b;" horiz-adv-x="579" 
d="M258 -10c-54.667 0 -99 18.5 -133 55.5s-51 86.167 -51 147.5v307h86v-294c0 -42 10.167 -75.333 30.5 -100s47.833 -37 82.5 -37c40 0 73.167 16.5 99.5 49.5s39.5 77.5 39.5 133.5v248h86v-500h-86v77c-32.667 -58 -84 -87 -154 -87zM124 641v69h322v-69h-322z" />
    <glyph glyph-name="Ubreve" unicode="&#x16c;" horiz-adv-x="726" 
d="M363 -12c-82.667 0 -149.667 26.167 -201 78.5s-77 122.166 -77 209.499v434h93v-436c0 -63.333 16.667 -112.166 50 -146.499s78.333 -51.5 135 -51.5s101.667 17.167 135 51.5s50 83.166 50 146.499v436h93v-434c0 -87.333 -25.667 -157.166 -77 -209.499
s-118.333 -78.5 -201 -78.5zM363 759c-45.333 0 -83.168 14.5 -113.501 43.5s-45.5 67.167 -45.5 114.5h58c0 -31.333 9.5 -56 28.5 -74s43.167 -27 72.5 -27s53.5 9 72.5 27s28.5 42.667 28.5 74h58c0 -47.333 -15.167 -85.5 -45.5 -114.5s-68.166 -43.5 -113.499 -43.5z
" />
    <glyph glyph-name="ubreve" unicode="&#x16d;" horiz-adv-x="579" 
d="M258 -10c-54.667 0 -99 18.5 -133 55.5s-51 86.167 -51 147.5v307h86v-294c0 -42 10.167 -75.333 30.5 -100s47.833 -37 82.5 -37c40 0 73.167 16.5 99.5 49.5s39.5 77.5 39.5 133.5v248h86v-500h-86v77c-32.667 -58 -84 -87 -154 -87zM285 578
c-45.333 0 -83.168 14.667 -113.501 44s-45.5 67.666 -45.5 114.999v13h58v-13c0 -32 9.5 -56.833 28.5 -74.5s43.167 -26.5 72.5 -26.5s53.5 8.83301 72.5 26.5s28.5 42.5 28.5 74.5v13h58v-13c0 -47.333 -15.167 -85.666 -45.5 -114.999s-68.166 -44 -113.499 -44z" />
    <glyph glyph-name="Uring" unicode="&#x16e;" horiz-adv-x="726" 
d="M363 -12c-82.667 0 -149.667 26.167 -201 78.5s-77 122.166 -77 209.499v434h93v-436c0 -63.333 16.667 -112.166 50 -146.499s78.333 -51.5 135 -51.5s101.667 17.167 135 51.5s50 83.166 50 146.499v436h93v-434c0 -87.333 -25.667 -157.166 -77 -209.499
s-118.333 -78.5 -201 -78.5zM363 753c-33.333 0 -61.833 11.6709 -85.5 35.0039s-35.5 51.666 -35.5 84.999s11.833 61.666 35.5 84.999s52.167 35 85.5 35s62 -11.833 86 -35.5s36 -51.834 36 -84.501s-12 -60.834 -36 -84.501s-52.667 -35.5 -86 -35.5zM363 804.004
c19.333 0 36 6.66699 50 20s21 29.666 21 48.999s-7 35.833 -21 49.5s-30.667 20.5 -50 20.5s-35.666 -6.83301 -48.999 -20.5s-20 -30.167 -20 -49.5s6.66699 -35.666 20 -48.999s29.666 -20 48.999 -20z" />
    <glyph glyph-name="uring" unicode="&#x16f;" horiz-adv-x="579" 
d="M258 -10c-54.667 0 -99 18.5 -133 55.5s-51 86.167 -51 147.5v307h86v-294c0 -42 10.167 -75.333 30.5 -100s47.833 -37 82.5 -37c40 0 73.167 16.5 99.5 49.5s39.5 77.5 39.5 133.5v248h86v-500h-86v77c-32.667 -58 -84 -87 -154 -87zM285 543
c-33.333 0 -61.833 11.6709 -85.5 35.0039s-35.5 51.666 -35.5 84.999s11.833 61.666 35.5 84.999s52.167 35 85.5 35s62 -11.833 86 -35.5s36 -51.834 36 -84.501s-12 -60.834 -36 -84.501s-52.667 -35.5 -86 -35.5zM285 594.004c19.333 0 36 6.66699 50 20
s21 29.666 21 48.999s-7 35.833 -21 49.5s-30.667 20.5 -50 20.5s-35.666 -6.83301 -48.999 -20.5s-20 -30.167 -20 -49.5s6.66699 -35.666 20 -48.999s29.666 -20 48.999 -20z" />
    <glyph glyph-name="Uhungarumlaut" unicode="&#x170;" horiz-adv-x="726" 
d="M363 -12c-82.667 0 -149.667 26.167 -201 78.5s-77 122.166 -77 209.499v434h93v-436c0 -63.333 16.667 -112.166 50 -146.499s78.333 -51.5 135 -51.5s101.667 17.167 135 51.5s50 83.166 50 146.499v436h93v-434c0 -87.333 -25.667 -157.166 -77 -209.499
s-118.333 -78.5 -201 -78.5zM418 770l69 157h99l-109 -157h-59zM251 770l69 157h99l-109 -157h-59z" />
    <glyph glyph-name="uhungarumlaut" unicode="&#x171;" horiz-adv-x="579" 
d="M258 -10c-54.667 0 -99 18.5 -133 55.5s-51 86.167 -51 147.5v307h86v-294c0 -42 10.167 -75.333 30.5 -100s47.833 -37 82.5 -37c40 0 73.167 16.5 99.5 49.5s39.5 77.5 39.5 133.5v248h86v-500h-86v77c-32.667 -58 -84 -87 -154 -87zM337 560l69 190h99l-109 -190h-59z
M170 560l69 190h99l-109 -190h-59z" />
    <glyph glyph-name="Uogonek" unicode="&#x172;" horiz-adv-x="726" 
d="M418 -219c-27.333 0 -50 8.33105 -68 24.998s-27 38 -27 64c0 42.667 23 82.667 69 120c-16 -1.33301 -25.333 -2 -28 -2c-83.333 0 -150.666 26 -201.999 78s-77 122 -77 210v434h93v-436c0 -63.333 16.667 -112.166 50 -146.499s78.333 -51.5 135 -51.5
s101.667 17.167 135 51.5s50 83.166 50 146.499v436h93v-434c0 -97.333 -31.333 -172.666 -94 -225.999c-5.33301 -4 -14.5 -11.5 -27.5 -22.5l-28.5 -24c-6 -5 -14.333 -12.333 -25 -22s-18.667 -17.834 -24 -24.501l-17.5 -22.5
c-6.33301 -8.33301 -10.833 -16.166 -13.5 -23.499s-4 -14.666 -4 -21.999c0 -22.667 12 -34 36 -34c18 0 36.333 7.33301 55 22v-70c-18.667 -17.333 -45.334 -26 -80.001 -26z" />
    <glyph glyph-name="uogonek" unicode="&#x173;" horiz-adv-x="579" 
d="M258 -10c-54.667 0 -99 18.5 -133 55.5s-51 86.167 -51 147.5v307h86v-294c0 -42 10.167 -75.333 30.5 -100s47.833 -37 82.5 -37c40 0 73.167 16.5 99.5 49.5s39.5 77.5 39.5 133.5v248h86v-500h-86v77c-32.667 -58 -84 -87 -154 -87zM420 -219
c-26.667 0 -48.999 8.16797 -66.999 24.501s-27 37.166 -27 62.499c0 20 5.33301 39.333 16 58s20.5 32.167 29.5 40.5s22.167 19.5 39.5 33.5h86c-62 -38.667 -93 -77 -93 -115c0 -24.667 12.667 -37 38 -37c16.667 0 35 7.33301 55 22v-63
c-18.667 -17.333 -44.334 -26 -77.001 -26z" />
    <glyph glyph-name="Wcircumflex" unicode="&#x174;" horiz-adv-x="947" 
d="M647 0l-174 482l-173 -482h-83l-194 710h97l148 -554l205 566l205 -566l149 554h97l-194 -710h-83zM307 768v77l166 87l166 -87v-77l-166 87z" />
    <glyph glyph-name="wcircumflex" unicode="&#x175;" horiz-adv-x="763" 
d="M505 0l-124 359l-123 -359h-76l-170 500h90l121 -365l125 365h66l125 -365l121 365h91l-170 -500h-76zM381 756l159 -101v-79l-159 101l-159 -101v79z" />
    <glyph glyph-name="Ycircumflex" unicode="&#x176;" horiz-adv-x="674" 
d="M291 0v301l-276 409h111l211 -316l212 316h111l-277 -410v-300h-92zM171 768v77l166 87l166 -87v-77l-166 87z" />
    <glyph glyph-name="ycircumflex" unicode="&#x177;" horiz-adv-x="547" 
d="M214 -209h-96l109 235l-219 474h95l172 -380l171 380h96zM275 756l159 -101v-79l-159 101l-159 -101v79z" />
    <glyph glyph-name="Ydieresis" unicode="&#x178;" horiz-adv-x="674" 
d="M291 0v301l-276 409h111l211 -316l212 316h111l-277 -410v-300h-92zM225 785c-16.667 0 -30.667 5.66699 -42 17s-17 25 -17 41s5.66699 29.833 17 41.5s25.333 17.5 42 17.5c16 0 29.667 -5.83301 41 -17.5s17 -25.5 17 -41.5s-5.66699 -29.667 -17 -41s-25 -17 -41 -17
zM450 785c-16 0 -29.833 5.66699 -41.5 17s-17.5 25 -17.5 41s5.83301 29.833 17.5 41.5s25.5 17.5 41.5 17.5s29.667 -5.83301 41 -17.5s17 -25.5 17 -41.5s-5.66699 -29.667 -17 -41s-25 -17 -41 -17z" />
    <glyph glyph-name="Zacute" unicode="&#x179;" horiz-adv-x="587" 
d="M34 0v62l385 560h-374v88h497v-62l-385 -560h395v-88h-518zM273 770l78 157h108l-114 -157h-72z" />
    <glyph glyph-name="zacute" unicode="&#x17a;" horiz-adv-x="484" 
d="M40 0v68l286 353h-282v79h393v-69l-286 -352h295v-79h-406zM210 560l93 190h110l-134 -190h-69z" />
    <glyph glyph-name="Zdotaccent" unicode="&#x17b;" horiz-adv-x="587" 
d="M34 0v62l385 560h-374v88h497v-62l-385 -560h395v-88h-518zM301 785c-16.667 0 -30.667 5.66699 -42 17s-17 25 -17 41s5.66699 29.833 17 41.5s25.333 17.5 42 17.5c16 0 29.667 -5.83301 41 -17.5s17 -25.5 17 -41.5s-5.66699 -29.667 -17 -41s-25 -17 -41 -17z" />
    <glyph glyph-name="zdotaccent" unicode="&#x17c;" horiz-adv-x="484" 
d="M40 0v68l286 353h-282v79h393v-69l-286 -352h295v-79h-406zM240 596c-16.667 0 -30.667 5.66699 -42 17s-17 25 -17 41s5.66699 29.833 17 41.5s25.333 17.5 42 17.5c16 0 29.667 -5.83301 41 -17.5s17 -25.5 17 -41.5s-5.66699 -29.667 -17 -41s-25 -17 -41 -17z" />
    <glyph glyph-name="Zcaron" unicode="&#x17d;" horiz-adv-x="587" 
d="M34 0v62l385 560h-374v88h497v-62l-385 -560h395v-88h-518zM301 768l-166 87v77l166 -87l166 87v-77z" />
    <glyph glyph-name="zcaron" unicode="&#x17e;" horiz-adv-x="484" 
d="M40 0v68l286 353h-282v79h393v-69l-286 -352h295v-79h-406zM240 576l-159 101v79l159 -101l159 101v-79z" />
    <glyph glyph-name="uni018F" unicode="&#x18f;" horiz-adv-x="824" 
d="M412 -12c-103.333 0 -190.336 35.501 -261.003 106.501s-106 157.833 -106 260.5v45h637c-12 72 -43.167 129 -93.5 171s-109.166 63 -176.499 63c-53.333 0 -102.166 -12.5 -146.499 -37.5s-76.833 -57.167 -97.5 -96.5h-103
c20.667 61.333 63.334 113.666 128.001 156.999s137.667 65 219 65c102.667 0 189.5 -35.333 260.5 -106s106.5 -157.667 106.5 -261c0 -102.667 -35.5 -189.5 -106.5 -260.5s-157.833 -106.5 -260.5 -106.5zM411.997 76.001c69.333 0 129.333 21.833 180 65.5
s81 102.167 91 175.5h-542c9.33301 -72.667 39.5 -131 90.5 -175s111.167 -66 180.5 -66z" />
    <glyph glyph-name="uni0218" unicode="&#x218;" horiz-adv-x="562" 
d="M290 -12c-72 0 -130.831 19.6641 -176.498 58.9971s-69.167 87 -70.5 143h93c4 -36.667 21.167 -65 51.5 -85s64.166 -30 101.499 -30c38.667 0 70.667 9.66699 96 29s38 45 38 77c0 54 -33.667 93.667 -101 119l-98 36c-56 19.333 -97.167 45 -123.5 77
s-39.833 73 -40.5 123c0 56.667 20.167 101.834 60.5 135.501s92.166 50.5 155.499 50.5c66.667 0 119.5 -19.167 158.5 -57.5s60.833 -83.166 65.5 -134.499h-92c-8.66699 35.333 -25.167 61.666 -49.5 78.999s-52.5 26 -84.5 26c-34.667 0 -63.5 -8.66699 -86.5 -26
s-34.5 -40.666 -34.5 -69.999s8 -52.666 24 -69.999s42 -32.333 78 -45l91 -33c56 -20 98.333 -46.5 127 -79.5s43 -75.5 43 -127.5c0 -59.333 -21 -106.833 -63 -142.5s-96.333 -53.5 -163 -53.5zM227.002 -269.003l36 85c-21.333 12.667 -32 30 -32 52
c0 16 5.66699 29.833 17 41.5s25 17.5 41 17.5s29.667 -5.83301 41 -17.5s17 -25.5 17 -41.5c0 -12 -3.66699 -23.667 -11 -35l-64 -102h-45z" />
    <glyph glyph-name="uni0219" unicode="&#x219;" horiz-adv-x="467" 
d="M242 -10c-56 0 -102.835 13.665 -140.502 40.998s-58.5 65.333 -62.5 114h88c5.33301 -28 18.833 -48.667 40.5 -62s46.834 -20 75.501 -20s51.834 5.66699 69.501 17s26.5 27.666 26.5 48.999c0 20 -6.5 36.333 -19.5 49s-34.167 23 -63.5 31l-72 19
c-86 22.667 -129 71.667 -129 147c0 40.667 16.167 73.334 48.5 98.001s73.833 37 124.5 37c51.333 0 93.5 -13.5 126.5 -40.5s51.5 -61.167 55.5 -102.5h-86c-6.66699 22 -18.5 39.333 -35.5 52s-37.167 19 -60.5 19c-24.667 0 -45.167 -5.66699 -61.5 -17
s-24.5 -26.333 -24.5 -45c0 -18 6 -32.667 18 -44s31.333 -20.666 58 -27.999l80 -21c85.333 -21.333 128 -70.666 128 -147.999c0 -48 -17 -84.167 -51 -108.5s-78.333 -36.5 -133 -36.5zM173.998 -269.002l36 85c-21.333 12.667 -32 30 -32 52
c0 16 5.66699 29.833 17 41.5s25 17.5 41 17.5s29.667 -5.83301 41 -17.5s17 -25.5 17 -41.5c0 -12 -3.66699 -23.667 -11 -35l-64 -102h-45z" />
    <glyph glyph-name="uni021A" unicode="&#x21a;" horiz-adv-x="567" 
d="M238 0v622h-221v88h533v-88h-221v-622h-91zM221 -269l36 85c-21.333 12.667 -32 30 -32 52c0 16 5.66699 29.833 17 41.5s25 17.5 41 17.5s29.667 -5.83301 41 -17.5s17 -25.5 17 -41.5c0 -12 -3.66699 -23.667 -11 -35l-64 -102h-45z" />
    <glyph glyph-name="uni021B" unicode="&#x21b;" horiz-adv-x="381" 
d="M275 -5c-46 0 -82.999 13 -110.999 39s-42 64 -42 114v273h-106v79h106v139h86v-139h144v-79h-144v-262c0 -31.333 6.66699 -53.333 20 -66s34.333 -19 63 -19c25.333 0 45.666 3.33301 60.999 10v-77c-24 -8 -49.667 -12 -77 -12zM178.001 -269l36 85
c-21.333 12.667 -32 30 -32 52c0 16 5.66699 29.833 17 41.5s25 17.5 41 17.5s29.667 -5.83301 41 -17.5s17 -25.5 17 -41.5c0 -12 -3.66699 -23.667 -11 -35l-64 -102h-45z" />
    <glyph glyph-name="uni0232" unicode="&#x232;" horiz-adv-x="674" 
d="M291 0v301l-276 409h111l211 -316l212 316h111l-277 -410v-300h-92zM176 805v69h322v-69h-322z" />
    <glyph glyph-name="uni0233" unicode="&#x233;" horiz-adv-x="547" 
d="M214 -209h-96l109 235l-219 474h95l172 -380l171 380h96zM114 641v69h322v-69h-322z" />
    <glyph glyph-name="uni0237" unicode="&#x237;" horiz-adv-x="257" 
d="M175 500l-0.000976562 -566c0 -50 -14 -88 -42 -114s-64.333 -39 -109 -39c-15.333 0 -29 1 -41 3v77c10.667 -1.33301 20.334 -2 29.001 -2c51.333 0 77 28.333 77 85v556h86z" />
    <glyph glyph-name="uni0259" unicode="&#x259;" horiz-adv-x="580" 
d="M289 510c72 0 131.333 -24.667 178 -74s70 -111.333 70 -186c0 -78.667 -21.833 -141.667 -65.5 -189s-104.5 -71 -182.5 -71c-78.667 0 -140.667 27.333 -186 82s-65.333 121.667 -60 201h407c-2.66699 45.333 -19.334 83.166 -50.001 113.499s-67.667 45.5 -111 45.5
c-70.667 0 -120.334 -28 -149.001 -84h-89c12.667 46.667 39.834 85.334 81.501 116.001s93.834 46 156.501 46zM292 66c38.667 0 72.168 11.5 100.501 34.5s46.166 57.833 53.499 104.5h-313c8 -44.667 26.5 -79 55.5 -103s63.5 -36 103.5 -36z" />
    <glyph glyph-name="uni02BB" unicode="&#x2bb;" horiz-adv-x="251" 
d="M54 545l104 164.999h57l-67 -143c27.333 -14 41 -36.333 41 -67c0 -20 -7.33301 -37.5 -22 -52.5s-32 -22.5 -52 -22.5c-21.333 0 -39 7.33301 -53 22s-21 32.334 -21 53.001c0 16.667 4.33301 31.667 13 45z" />
    <glyph glyph-name="uni02BC" unicode="&#x2bc;" horiz-adv-x="254" 
d="M209 602l-102.999 -165h-58l67 143c-12 6 -21.833 15.167 -29.5 27.5s-11.5 25.5 -11.5 39.5c0 20.667 7.16699 38.334 21.5 53.001s32.166 22 53.499 22c20.667 0 38.167 -7.33301 52.5 -22s21.5 -32.334 21.5 -53.001c0 -14.667 -4.66699 -29.667 -14 -45z" />
    <glyph glyph-name="circumflex" unicode="&#x2c6;" 
d="M0 756l159 -101v-79l-159 101l-159 -101v79z" />
    <glyph glyph-name="caron" unicode="&#x2c7;" 
d="M0 576l-159 101v79l159 -101l159 101v-79z" />
    <glyph glyph-name="breve" unicode="&#x2d8;" 
d="M0 578c-45.333 0 -83.168 14.667 -113.501 44s-45.5 67.666 -45.5 114.999v13h58v-13c0 -32 9.5 -56.833 28.5 -74.5s43.167 -26.5 72.5 -26.5s53.5 8.83301 72.5 26.5s28.5 42.5 28.5 74.5v13h58v-13c0 -47.333 -15.167 -85.666 -45.5 -114.999
s-68.166 -44 -113.499 -44z" />
    <glyph glyph-name="dotaccent" unicode="&#x2d9;" 
d="M0 596c-16.667 0 -30.667 5.66699 -42 17s-17 25 -17 41s5.66699 29.833 17 41.5s25.333 17.5 42 17.5c16 0 29.667 -5.83301 41 -17.5s17 -25.5 17 -41.5s-5.66699 -29.667 -17 -41s-25 -17 -41 -17z" />
    <glyph glyph-name="ring" unicode="&#x2da;" 
d="M0 543c-33.333 0 -61.833 11.6709 -85.5 35.0039s-35.5 51.666 -35.5 84.999s11.833 61.666 35.5 84.999s52.167 35 85.5 35s62 -11.833 86 -35.5s36 -51.834 36 -84.501s-12 -60.834 -36 -84.501s-52.667 -35.5 -86 -35.5zM0 594.004c19.333 0 36 6.66699 50 20
s21 29.666 21 48.999s-7 35.833 -21 49.5s-30.667 20.5 -50 20.5s-35.666 -6.83301 -48.999 -20.5s-20 -30.167 -20 -49.5s6.66699 -35.666 20 -48.999s29.666 -20 48.999 -20z" />
    <glyph glyph-name="ogonek" unicode="&#x2db;" 
d="M8 -219c-26.667 0 -48.999 8.16797 -66.999 24.501s-27 37.166 -27 62.499c0 20 5.33301 39.333 16 58s20.5 32.167 29.5 40.5s22.167 19.5 39.5 33.5h86c-62 -38.667 -93 -77 -93 -115c0 -24.667 12.667 -37 38 -37c16.667 0 35 7.33301 55 22v-63
c-18.667 -17.333 -44.334 -26 -77.001 -26z" />
    <glyph glyph-name="tilde" unicode="&#x2dc;" 
d="M-174 593l3 18c5.33301 28.667 17.666 51.667 36.999 69s42.333 26 69 26c19.333 0 43.5 -7.33301 72.5 -22s47.833 -22 56.5 -22c21.333 0 35.666 14.667 42.999 44h66l-3 -18c-5.33301 -28.667 -17.666 -51.667 -36.999 -69s-42.333 -26 -69 -26
c-19.333 0 -43.5 7.33301 -72.5 22s-47.833 22 -56.5 22c-21.333 0 -35.666 -14.667 -42.999 -44h-66z" />
    <glyph glyph-name="hungarumlaut" unicode="&#x2dd;" 
d="M-1 560l69 190h99l-109 -190h-59zM-168 560l69 190h99l-109 -190h-59z" />
    <glyph glyph-name="uni0401" unicode="&#x401;" horiz-adv-x="557" 
d="M94 0v710h414v-88h-321v-215h261v-88h-261v-231h321v-88h-414zM188 785c-16.667 0 -30.667 5.66699 -42 17s-17 25 -17 41s5.66699 29.833 17 41.5s25.333 17.5 42 17.5c16 0 29.667 -5.83301 41 -17.5s17 -25.5 17 -41.5s-5.66699 -29.667 -17 -41s-25 -17 -41 -17z
M413 785c-16 0 -29.833 5.66699 -41.5 17s-17.5 25 -17.5 41s5.83301 29.833 17.5 41.5s25.5 17.5 41.5 17.5s29.667 -5.83301 41 -17.5s17 -25.5 17 -41.5s-5.66699 -29.667 -17 -41s-25 -17 -41 -17z" />
    <glyph glyph-name="uni0402" unicode="&#x402;" horiz-adv-x="748" 
d="M486 442c72 0 128.166 -22.502 168.499 -67.502s60.5 -98.833 60.5 -161.5c0 -69.333 -21.833 -124.166 -65.5 -164.499s-98.167 -60.5 -163.5 -60.5c-31.333 0 -59 2 -83 6v85c30 -3.33301 57.333 -5 82 -5c38 0 70.5 12.333 97.5 37s40.5 58.667 40.5 102
c0 42.667 -13.667 76.834 -41 102.501s-64.666 38.5 -111.999 38.5c-52.667 0 -96.667 -17.833 -132 -53.5s-53 -85.167 -53 -148.5v-152h-93v622h-174v88h491v-88h-224v-279c44.667 66 111.667 99 201 99z" />
    <glyph glyph-name="uni0403" unicode="&#x403;" horiz-adv-x="513" 
d="M495 710v-88h-308v-622h-93v710h401zM267 770l78 157h108l-114 -157h-72z" />
    <glyph glyph-name="uni0404" unicode="&#x404;" horiz-adv-x="788" 
d="M414 -11c-104.667 0 -192.168 35.166 -262.501 105.499s-105.5 157.5 -105.5 261.5s35.167 191.167 105.5 261.5s157.833 105.5 262.5 105.5c86 0 160 -24.167 222 -72.5s101.333 -106.5 118 -174.5h-98c-16.667 46.667 -46.834 84.834 -90.501 114.501
s-94.167 44.5 -151.5 44.5c-70.667 0 -131 -21.833 -181 -65.5s-80.333 -99.5 -91 -167.5h365v-86h-366c9.33301 -69.333 39.333 -126.5 90 -171.5s111.667 -67.5 183 -67.5c57.333 0 107.833 14.833 151.5 44.5s73.834 67.5 90.501 113.5h98
c-16.667 -68 -56.167 -126 -118.5 -174s-136.166 -72 -221.499 -72z" />
    <glyph glyph-name="uni0405" unicode="&#x405;" horiz-adv-x="563" 
d="M290 -12c-71.333 0 -129.831 19.6621 -175.498 58.9951s-69.167 87 -70.5 143h92c4 -36.667 21.333 -65 52 -85s64.667 -30 102 -30c38.667 0 70.667 9.66699 96 29s38 45 38 77c0 54 -33.667 93.667 -101 119l-98 36c-56 20 -97.333 46 -124 78s-40 72.667 -40 122
c0 56.667 20.167 101.834 60.5 135.501s92.166 50.5 155.499 50.5c66.667 0 119.5 -19.167 158.5 -57.5s60.833 -83.166 65.5 -134.499h-92c-8.66699 34.667 -25.334 60.834 -50.001 78.501s-52.667 26.5 -84 26.5c-34.667 0 -63.5 -8.66699 -86.5 -26
s-34.5 -40.666 -34.5 -69.999s8 -52.666 24 -69.999s42 -32.333 78 -45l91 -33c56 -20 98.333 -46.5 127 -79.5s43 -75.5 43 -127.5c0 -60 -21.167 -107.667 -63.5 -143s-96.833 -53 -163.5 -53z" />
    <glyph glyph-name="uni0406" unicode="&#x406;" horiz-adv-x="281" 
d="M94 0v710h93v-710h-93z" />
    <glyph glyph-name="uni0407" unicode="&#x407;" horiz-adv-x="281" 
d="M94 0v710h93v-710h-93zM42 806c-17.333 0 -31.833 5.83301 -43.5 17.5s-17.5 26.167 -17.5 43.5c0 16.667 5.83301 30.834 17.5 42.501s26.167 17.5 43.5 17.5c16.667 0 31 -5.83301 43 -17.5s18 -25.834 18 -42.501c0 -17.333 -6 -31.833 -18 -43.5
s-26.333 -17.5 -43 -17.5zM238 806c-17.333 0 -31.833 5.83301 -43.5 17.5s-17.5 26.167 -17.5 43.5c0 16.667 5.83301 30.834 17.5 42.501s26.167 17.5 43.5 17.5c16.667 0 31 -5.83301 43 -17.5s18 -25.834 18 -42.501c0 -17.333 -6 -31.833 -18 -43.5
s-26.333 -17.5 -43 -17.5z" />
    <glyph glyph-name="uni0408" unicode="&#x408;" horiz-adv-x="529" 
d="M233 -12c-60.667 0 -111 17.834 -151 53.501s-60 85.167 -60 148.5h92c0 -36 11.5 -64.333 34.5 -85s50.833 -31 83.5 -31c34 0 62 10.667 84 32s33 54.666 33 99.999v504h92v-514c0 -70 -19.667 -122.167 -59 -156.5s-89 -51.5 -149 -51.5z" />
    <glyph glyph-name="uni0409" unicode="&#x409;" horiz-adv-x="1031" 
d="M907 207c0 34.667 -13 62.167 -39 82.5s-63.333 30.5 -112 30.5h-123v-233h123c100.667 0 151 40 151 120zM139 710h494v-303h125c74 0 132.667 -18.5 176 -55.5s65 -84.5 65 -142.5c0 -62 -21.833 -112.333 -65.5 -151s-102.167 -58 -175.5 -58h-217v622h-309v-432
c0 -70.667 -14 -122 -42 -154s-65.667 -48 -113 -48c-22 0 -40.667 1.33301 -56 4v85c8.66699 -2 23.667 -3 45 -3c26 0 44.667 9.33301 56 28s17 52.667 17 102v506z" />
    <glyph glyph-name="uni040A" unicode="&#x40a;" horiz-adv-x="1044" 
d="M94 0v710h93v-303h369v303h92v-303h123c74 0 132.667 -18.5 176 -55.5s65 -84.5 65 -142.5c0 -62 -21.833 -112.333 -65.5 -151s-102.167 -58 -175.5 -58h-215v320h-369v-320h-93zM770 320h-121.999v-233h122c100 0 150 40 150 120c0 34.667 -12.833 62.167 -38.5 82.5
s-62.834 30.5 -111.501 30.5z" />
    <glyph glyph-name="uni040B" unicode="&#x40b;" horiz-adv-x="757" 
d="M192 622l-173.999 0.000976562v88h491v-88h-224v-279c41.333 66 109.666 99 204.999 99c66.667 0 120.5 -22.333 161.5 -67s61.5 -103.667 61.5 -177v-198h-92v183c0 55.333 -13.5 97.666 -40.5 126.999s-63.833 44 -110.5 44c-50 0 -93.333 -17.333 -130 -52
s-55 -85 -55 -151v-151h-93v622z" />
    <glyph glyph-name="uni040C" unicode="&#x40c;" horiz-adv-x="671" 
d="M563 0l-377 338v-338h-92v710h92v-308l310 308h121l-338 -338l415 -372h-131zM315 770l78 157h108l-114 -157h-72z" />
    <glyph glyph-name="uni040E" unicode="&#x40e;" horiz-adv-x="698" 
d="M134 -6l0.00390625 85c15.333 -2.66699 35.666 -4 60.999 -4c46 0 82.333 25.667 109 77l9 17l-278 541h105l226 -441l233 441h101l-299 -566c-30.667 -58 -60.334 -98.5 -89.001 -121.5s-64.334 -34.5 -107.001 -34.5c-20.667 0 -44.334 2 -71.001 6zM369.004 759
c-45.333 0 -83.168 14.5 -113.501 43.5s-45.5 67.167 -45.5 114.5h66c0 -30 8.5 -54 25.5 -72s39.5 -27 67.5 -27s50.5 9 67.5 27s25.5 42 25.5 72h66c0 -47.333 -15.167 -85.5 -45.5 -114.5s-68.166 -43.5 -113.499 -43.5z" />
    <glyph glyph-name="uni040F" unicode="&#x40f;" horiz-adv-x="741" 
d="M415 0v-148h-88v148h-233v710h93v-622h367v622h93v-710h-232z" />
    <glyph glyph-name="uni0410" unicode="&#x410;" horiz-adv-x="718" 
d="M6 0l314 710h77l315 -710h-97l-92 207h-331l-90 -207h-96zM357 584l-128 -293h257z" />
    <glyph glyph-name="uni0411" unicode="&#x411;" horiz-adv-x="624" 
d="M187 416h164c71.333 0 129.166 -18.333 173.499 -55s66.5 -87.667 66.5 -153c0 -64.667 -22.167 -115.5 -66.5 -152.5s-102.166 -55.5 -173.499 -55.5h-257v710h431v-88h-338v-206zM498 208c0 39.333 -12.667 69.5 -38 90.5s-61.666 31.5 -108.999 31.5h-164v-244h164
c47.333 0 83.666 10.667 108.999 32s38 51.333 38 90z" />
    <glyph glyph-name="uni0412" unicode="&#x412;" horiz-adv-x="629" 
d="M94 0v709.999h233c64 0 115.333 -18.333 154 -55s58 -81 58 -133c0 -65.333 -25.333 -113.666 -76 -144.999c82 -30 123 -86.667 123 -170c0 -60 -21.833 -109.5 -65.5 -148.5s-101.167 -58.5 -172.5 -58.5h-254zM187 83.999l165 -0.000976562
c46.667 0 82.167 10.833 106.5 32.5s36.5 50.834 36.5 87.501c0 36 -12.167 65.167 -36.5 87.5s-59.5 33.5 -105.5 33.5h-166v-241zM187 404.998l140 0.000976562c37.333 0 66.833 10.167 88.5 30.5s32.5 46.833 32.5 79.5c0 31.333 -11 57.666 -33 78.999
s-51.333 32 -88 32h-140v-221z" />
    <glyph glyph-name="uni0413" unicode="&#x413;" horiz-adv-x="513" 
d="M495 710v-88h-308v-622h-93v710h401z" />
    <glyph glyph-name="uni0414" unicode="&#x414;" horiz-adv-x="758" 
d="M636 -148v148h-517v-148h-86v236h13c18.667 0 34.167 6 46.5 18s23 37 32 75s13.5 89.333 13.5 154v375h496v-622h88v-236h-86zM231 622v-302c0 -106.667 -15 -184 -45 -232h355v534h-310z" />
    <glyph glyph-name="uni0415" unicode="&#x415;" horiz-adv-x="557" 
d="M94 0v710h414v-88h-321v-215h261v-88h-261v-231h321v-88h-414z" />
    <glyph glyph-name="uni0416" unicode="&#x416;" horiz-adv-x="967" 
d="M853 0l-323 317v-317h-93v317l-323 -317h-123l358 353l-329 357h114l303 -329v329h93v-329l303 329h114l-329 -357l358 -353h-123z" />
    <glyph glyph-name="uni0417" unicode="&#x417;" horiz-adv-x="583" 
d="M151 538l-92.999 -0.00195312c11.333 62 38.833 108.167 82.5 138.5s93.5 45.5 149.5 45.5c64 0 115.833 -17.667 155.5 -53s59.5 -81.333 59.5 -138c0 -69.333 -29.333 -122 -88 -158c37.333 -15.333 65.666 -38.333 84.999 -69s29 -65.667 29 -105
c0 -66.667 -23.333 -118.5 -70 -155.5s-103.667 -55.5 -171 -55.5c-66 0 -123 17 -171 51s-76.667 82.667 -86 146h93c8.66699 -37.333 28.167 -65 58.5 -83s65.833 -27 106.5 -27c45.333 0 81.5 11.833 108.5 35.5s40.5 54.834 40.5 93.501
c0 36.667 -12.5 66.334 -37.5 89.001s-60.5 34 -106.5 34h-82v79h82c37.333 0 66.333 11 87 33s31 49.333 31 82c0 34.667 -11.167 62.5 -33.5 83.5s-53.5 31.5 -93.5 31.5c-32.667 0 -61.5 -8.33301 -86.5 -25s-41.5 -41 -49.5 -73z" />
    <glyph glyph-name="uni0418" unicode="&#x418;" horiz-adv-x="794" 
d="M175 0h-81v710h93v-552l432 552h80v-710h-92v553z" />
    <glyph glyph-name="uni0419" unicode="&#x419;" horiz-adv-x="794" 
d="M175 0h-81v710h93v-552l432 552h80v-710h-92v553zM406 759c-45.333 0 -83.168 14.5 -113.501 43.5s-45.5 67.167 -45.5 114.5h66c0 -30 8.5 -54 25.5 -72s39.5 -27 67.5 -27s50.5 9 67.5 27s25.5 42 25.5 72h66c0 -47.333 -15.167 -85.5 -45.5 -114.5
s-68.166 -43.5 -113.499 -43.5z" />
    <glyph glyph-name="uni041A" unicode="&#x41a;" horiz-adv-x="671" 
d="M563 0l-377 338v-338h-92v710h92v-308l310 308h121l-338 -338l415 -372h-131z" />
    <glyph glyph-name="uni041B" unicode="&#x41b;" horiz-adv-x="729" 
d="M139 204v506h496v-710h-92v622h-311v-432c0 -70.667 -14 -122 -42 -154s-65.667 -48 -113 -48c-23.333 0 -42 1.33301 -56 4v85c8.66699 -2 23.667 -3 45 -3c26 0 44.667 9.33301 56 28s17 52.667 17 102z" />
    <glyph glyph-name="uni041C" unicode="&#x41c;" horiz-adv-x="886" 
d="M94 710h85l263 -354l265 354h84v-710h-92v552l-256 -344l-256 344v-552h-93v710z" />
    <glyph glyph-name="uni041D" unicode="&#x41d;" horiz-adv-x="763" 
d="M94 0v710h93v-303h389v303h93v-710h-93v320h-389v-320h-93z" />
    <glyph glyph-name="uni041E" unicode="&#x41e;" horiz-adv-x="825" 
d="M412 76c78 0 143.167 27 195.5 81s78.5 120 78.5 198s-26.167 144 -78.5 198s-117.5 81 -195.5 81c-77.333 0 -142.166 -27 -194.499 -81s-78.5 -120 -78.5 -198s26.167 -144 78.5 -198s117.166 -81 194.499 -81zM412 -12c-102 0 -188.667 35.5 -260 106.5
s-107 157.833 -107 260.5s35.667 189.5 107 260.5s158 106.5 260 106.5c102.667 0 189.5 -35.5 260.5 -106.5s106.5 -157.833 106.5 -260.5s-35.5 -189.5 -106.5 -260.5s-157.833 -106.5 -260.5 -106.5z" />
    <glyph glyph-name="uni041F" unicode="&#x41f;" horiz-adv-x="747" 
d="M561 0v622h-377v-622h-90v710h558v-710h-91z" />
    <glyph glyph-name="uni0420" unicode="&#x420;" horiz-adv-x="586" 
d="M555 484c0 -65.333 -22.5 -119.167 -67.5 -161.5s-103.833 -63.5 -176.5 -63.5h-124v-259h-93v710h217c72.667 0 131.5 -21.333 176.5 -64s67.5 -96.667 67.5 -162zM463 483.999c0 40.667 -13.5 74 -40.5 100s-64.167 39 -111.5 39h-124v-278h124
c47.333 0 84.5 13 111.5 39s40.5 59.333 40.5 100z" />
    <glyph glyph-name="uni0421" unicode="&#x421;" horiz-adv-x="788" 
d="M414 -12c-104.667 0 -192.167 35.1689 -262.5 105.502s-105.5 157.5 -105.5 261.5s35.167 191.167 105.5 261.5s157.833 105.5 262.5 105.5c85.333 0 159.166 -24 221.499 -72s101.833 -106 118.5 -174h-98c-16.667 46 -46.834 83.833 -90.501 113.5
s-94.167 44.5 -151.5 44.5c-78.667 0 -144.167 -26.833 -196.5 -80.5s-78.5 -119.834 -78.5 -198.501s26.167 -144.834 78.5 -198.501s117.833 -80.5 196.5 -80.5c57.333 0 107.833 14.833 151.5 44.5s73.834 67.5 90.501 113.5h98c-16.667 -68 -56.167 -126 -118.5 -174
s-136.166 -72 -221.499 -72z" />
    <glyph glyph-name="uni0422" unicode="&#x422;" horiz-adv-x="567" 
d="M238 0v622h-221v88h533v-88h-221v-622h-91z" />
    <glyph glyph-name="uni0423" unicode="&#x423;" horiz-adv-x="698" 
d="M134 -6l0.00390625 85c15.333 -2.66699 35.666 -4 60.999 -4c46 0 82.333 25.667 109 77l9 17l-278 541h105l226 -441l233 441h101l-299 -566c-30.667 -58 -60.334 -98.5 -89.001 -121.5s-64.334 -34.5 -107.001 -34.5c-20.667 0 -44.334 2 -71.001 6z" />
    <glyph glyph-name="uni0424" unicode="&#x424;" horiz-adv-x="868" 
d="M388 148l0.00195312 420h-6c-80.667 0.666992 -141.834 -17.5 -183.501 -54.5s-62.5 -88.5 -62.5 -154.5c0 -66.667 20.667 -118.5 62 -155.5s102.666 -55.5 183.999 -55.5h6zM480.002 -30h-92v93h-5c-105.333 0 -188.5 26.333 -249.5 79s-91.5 125 -91.5 217
s30.333 164 91 216s144 78 250 78h5v87h92v-87h6c106 0 189.167 -26 249.5 -78s90.5 -124 90.5 -216s-30.5 -164.333 -91.5 -217s-143.833 -79 -248.5 -79h-6v-93zM480.002 148h6c81.333 0 142.833 18.5 184.5 55.5s62.5 88.833 62.5 155.5c0 66 -21 117.5 -63 154.5
s-103.333 55.167 -184 54.5h-6v-420z" />
    <glyph glyph-name="uni0425" unicode="&#x425;" horiz-adv-x="670" 
d="M118 0h-114l274 359l-263 351h111l209 -277l209 277h111l-262 -351l273 -359h-113l-218 284z" />
    <glyph glyph-name="uni0426" unicode="&#x426;" horiz-adv-x="761" 
d="M636 88h89v-236h-87v148h-544v710h93v-622h357v622h92v-622z" />
    <glyph glyph-name="uni0427" unicode="&#x427;" horiz-adv-x="685" 
d="M591 0l-92.001 0.000976562v363c-43.333 -66 -115.333 -99 -216 -99c-72 0 -129.667 22 -173 66s-65 103.333 -65 178v202h92v-188c0 -56.667 14.333 -99.334 43 -128.001s69.334 -43 122.001 -43c54 0 100.333 17.5 139 52.5s58 85.833 58 152.5v154h92v-710z" />
    <glyph glyph-name="uni0428" unicode="&#x428;" horiz-adv-x="987" 
d="M94 0v710h93v-622h260v622h93v-622h260v622h93v-710h-799z" />
    <glyph glyph-name="uni0429" unicode="&#x429;" horiz-adv-x="1018" 
d="M894 -148v148h-800v710h93v-622h260v622h93v-622h260v622h93v-622h89v-236h-88z" />
    <glyph glyph-name="uni042A" unicode="&#x42a;" horiz-adv-x="709" 
d="M301 425h132c74 0 133 -19.333 177 -58s66 -90 66 -154s-22 -115.5 -66 -154.5s-103 -58.5 -177 -58.5h-225v622h-191v88h284v-285zM301 86h130c48.667 0 86.167 10.833 112.5 32.5s39.5 53.167 39.5 94.5c0 40 -13.167 71 -39.5 93s-63.833 33 -112.5 33h-130v-253z" />
    <glyph glyph-name="uni042B" unicode="&#x42b;" horiz-adv-x="849" 
d="M187 425h132c73.333 0 132 -19.333 176 -58s66 -90 66 -154s-22 -115.5 -66 -154.5s-102.667 -58.5 -176 -58.5h-225v710h93v-285zM187 86h129c49.333 0 87.166 10.833 113.499 32.5s39.5 53.167 39.5 94.5c0 40 -13.167 71 -39.5 93s-64.166 33 -113.499 33h-129v-253z
M662 0v710h93v-710h-93z" />
    <glyph glyph-name="uni042C" unicode="&#x42c;" horiz-adv-x="595" 
d="M187 425h132c73.333 0 132 -19.333 176 -58s66 -90 66 -154s-22 -115.5 -66 -154.5s-102.667 -58.5 -176 -58.5h-225v710h93v-285zM187 86h129c49.333 0 87.166 10.833 113.499 32.5s39.5 53.167 39.5 94.5c0 40 -13.167 71 -39.5 93s-64.166 33 -113.499 33h-129v-253z
" />
    <glyph glyph-name="uni042D" unicode="&#x42d;" horiz-adv-x="788" 
d="M374 -11c-85.333 0 -159.167 24.001 -221.5 72.001s-101.833 106 -118.5 174h98c16.667 -46 46.834 -83.833 90.501 -113.5s94.167 -44.5 151.5 -44.5c71.333 0 132.333 22.5 183 67.5s80.667 102.167 90 171.5h-366v86h365c-10.667 68 -41 123.833 -91 167.5
s-110.333 65.5 -181 65.5c-57.333 0 -107.833 -14.833 -151.5 -44.5s-73.834 -67.834 -90.501 -114.501h-98c16.667 68 56 126.167 118 174.5s136 72.5 222 72.5c104.667 0 192.167 -35.167 262.5 -105.5s105.5 -157.5 105.5 -261.5s-35.167 -191.167 -105.5 -261.5
s-157.833 -105.5 -262.5 -105.5z" />
    <glyph glyph-name="uni042E" unicode="&#x42e;" horiz-adv-x="1068" 
d="M94 0v710h93v-304h126c12 91.333 51 166.833 117 226.5s144.667 89.5 236 89.5c100 0 184.333 -35.167 253 -105.5s103 -157.5 103 -261.5s-34.333 -191.167 -103 -261.5s-153 -105.5 -253 -105.5c-93.333 0 -173.833 31.5 -241.5 94.5s-105.5 141.833 -113.5 236.5h-124
v-319h-93zM929 355c0 78.667 -25.167 144.834 -75.5 198.501s-112.833 80.5 -187.5 80.5c-74 0 -136.167 -26.833 -186.5 -80.5s-75.5 -119.834 -75.5 -198.501s25.167 -144.834 75.5 -198.501s112.5 -80.5 186.5 -80.5c74.667 0 137.167 26.833 187.5 80.5
s75.5 119.834 75.5 198.501z" />
    <glyph glyph-name="uni042F" unicode="&#x42f;" horiz-adv-x="630" 
d="M443 0l0.00195312 289h-89l-247 -289h-116l260 302c-52.667 11.333 -93.834 34.833 -123.501 70.5s-44.5 78.5 -44.5 128.5c0 62 21.667 112.333 65 151s101.666 58 174.999 58h212v-710h-92zM175.002 501c0 -38.667 13.167 -69.333 39.5 -92s63.5 -34 111.5 -34h117v249
h-117c-48 0 -85.167 -11 -111.5 -33s-39.5 -52 -39.5 -90z" />
    <glyph glyph-name="uni0430" unicode="&#x430;" horiz-adv-x="630" 
d="M287 -10c-69.333 0 -127.5 25.3311 -174.5 75.998s-70.5 112 -70.5 184s23.5 133.333 70.5 184s105.167 76 174.5 76c36.667 0 70.834 -8.16699 102.501 -24.5s56.167 -37.166 73.5 -62.499v77h86v-500h-86v77c-17.333 -25.333 -41.833 -46.166 -73.5 -62.499
s-65.834 -24.5 -102.501 -24.5zM300 68.998c49.333 0 90 17.333 122 52s48 77.667 48 129s-16 94.333 -48 129s-72.667 52 -122 52c-50 0 -91 -17.333 -123 -52s-48 -77.667 -48 -129s16 -94.333 48 -129s73 -52 123 -52z" />
    <glyph glyph-name="uni0431" unicode="&#x431;" horiz-adv-x="625" 
d="M321 -10c-78.667 0 -141.499 26 -188.499 78s-70.5 120.333 -70.5 205v51c0 122.667 22 214.5 66 275.5s116 101.167 216 120.5l186 34v-82l-167 -31c-71.333 -12.667 -122.833 -36.667 -154.5 -72s-51.5 -87.333 -59.5 -156c43.333 58 104.666 87 183.999 87
c75.333 0 135.833 -24 181.5 -72s68.5 -106.667 68.5 -176c0 -73.333 -24.833 -135.333 -74.5 -186s-112.167 -76 -187.5 -76zM321.001 70c50.667 0 92.332 17 124.999 51s49 77.667 49 131c0 50 -16.167 90.833 -48.5 122.5s-73.5 47.5 -123.5 47.5
c-51.333 0 -93.166 -16.167 -125.499 -48.5s-48.5 -72.833 -48.5 -121.5c0 -53.333 16 -97 48 -131s73.333 -51 124 -51z" />
    <glyph glyph-name="uni0432" unicode="&#x432;" horiz-adv-x="545" 
d="M81 0l0.000976562 500h218c55.333 0 97.666 -12.333 126.999 -37s44 -57.667 44 -99c0 -39.333 -16.333 -71.666 -49 -96.999c54.667 -26.667 82 -67.334 82 -122.001c0 -42 -15 -76.667 -45 -104s-75 -41 -135 -41h-242zM167.001 75l161 0.000976562
c26.667 0 47.834 6.66699 63.501 20s23.5 31.666 23.5 54.999s-7.83301 41.5 -23.5 54.5s-36.834 19.5 -63.501 19.5h-161v-149zM167.001 293.001l139 0.000976562c51.333 0 77 22.333 77 67c0 23.333 -7.33301 40.166 -22 50.499s-33 15.5 -55 15.5h-139v-133z" />
    <glyph glyph-name="uni0433" unicode="&#x433;" horiz-adv-x="411" 
d="M81 0v500h313v-79h-227v-421h-86z" />
    <glyph glyph-name="uni0434" unicode="&#x434;" horiz-adv-x="625" 
d="M33 79h12c48 0 72 54 72 162v259h397v-421h75v-205h-81v126h-394v-126h-81v205zM203 421v-194c0 -62.667 -10.333 -112 -31 -148h256v342h-225z" />
    <glyph glyph-name="uni0435" unicode="&#x435;" horiz-adv-x="579" 
d="M294 -10c-72.667 0 -132.833 24.667 -180.5 74s-71.5 111.333 -71.5 186c0 75.333 23.167 137.5 69.5 186.5s107.833 73.5 184.5 73.5c77.333 0 138 -27.333 182 -82s63.333 -121.667 58 -201h-407c1.33301 -45.333 18 -83.166 50 -113.499s70.667 -45.5 116 -45.5
c68 0 116.333 28 145 84h88c-12.667 -46.667 -39.667 -85.334 -81 -116.001s-92.333 -46 -153 -46zM293.001 434c-38.667 0 -73.168 -11.667 -103.501 -35s-49.166 -58 -56.499 -104h312c-8 45.333 -25.667 79.833 -53 103.5s-60.333 35.5 -99 35.5z" />
    <glyph glyph-name="uni0436" unicode="&#x436;" horiz-adv-x="778" 
d="M669 0l-237 222v-222h-86v222l-237 -222h-113l268 255l-233 245h107l208 -222v222h86v-222l209 222h106l-233 -246l268 -254h-113z" />
    <glyph glyph-name="uni0437" unicode="&#x437;" horiz-adv-x="484" 
d="M240 -10c-51.333 0 -96.1689 12.666 -134.502 37.999s-62.166 61 -71.499 107h87c16.667 -48 56.334 -72 119.001 -72c36.667 0 64.334 7.66699 83.001 23s28 35.333 28 60s-9.16699 44 -27.5 58s-44.5 21 -78.5 21h-58v70h58c27.333 0 49.166 6 65.499 18
s24.5 29.667 24.5 53c0 22.667 -8.66699 40.334 -26 53.001s-40.666 19 -69.999 19c-58 0 -94.333 -23.333 -109 -70h-85c9.33301 46 32 81.167 68 105.5s78.333 36.5 127 36.5c56 0 99.667 -13.167 131 -39.5s47 -59.5 47 -99.5c0 -48.667 -20.667 -85 -62 -109
c54.667 -24.667 82 -65.667 82 -123c0 -42 -17.333 -77.333 -52 -106s-83.334 -43 -146.001 -43z" />
    <glyph glyph-name="uni0438" unicode="&#x438;" horiz-adv-x="607" 
d="M158 0h-77v500h86v-367l282 367h76v-500h-85v367z" />
    <glyph glyph-name="uni0439" unicode="&#x439;" horiz-adv-x="607" 
d="M158 0h-77v500h86v-367l282 367h76v-500h-85v367zM311 578c-45.333 0 -83.168 14.667 -113.501 44s-45.5 67.666 -45.5 114.999v13h68v-13c0 -32 8.5 -56.833 25.5 -74.5s38.833 -26.5 65.5 -26.5s48.5 8.83301 65.5 26.5s25.5 42.5 25.5 74.5v13h68v-13
c0 -47.333 -15.167 -85.666 -45.5 -114.999s-68.166 -44 -113.499 -44z" />
    <glyph glyph-name="uni043A" unicode="&#x43a;" horiz-adv-x="524" 
d="M417 0l-250 223v-223h-86v500h86v-222l222 222h109l-245 -245l282 -255h-118z" />
    <glyph glyph-name="uni043B" unicode="&#x43b;" horiz-adv-x="582" 
d="M66 -7c-22.667 0 -37.668 1 -45.001 3v77c4.66699 -1.33301 15.334 -2 32.001 -2c20.667 0 36 7.16699 46 21.5s15 39.833 15 76.5v331h386v-500h-86v421h-214v-270c0 -51.333 -12.333 -90.5 -37 -117.5s-57 -40.5 -97 -40.5z" />
    <glyph glyph-name="uni043C" unicode="&#x43c;" horiz-adv-x="691" 
d="M81 500h79l185 -246l186 246h79v-500h-86v361l-179 -236l-178 236v-361h-86v500z" />
    <glyph glyph-name="uni043D" unicode="&#x43d;" horiz-adv-x="607" 
d="M81 0v500h86v-206h273v206h86v-500h-86v216h-273v-216h-86z" />
    <glyph glyph-name="uni043E" unicode="&#x43e;" horiz-adv-x="606" 
d="M303 -10c-75.333 0 -137.833 25.167 -187.5 75.5s-74.5 111.833 -74.5 184.5s24.833 134.167 74.5 184.5s112.167 75.5 187.5 75.5c74.667 0 136.834 -25.167 186.501 -75.5s74.5 -111.833 74.5 -184.5s-24.833 -134.167 -74.5 -184.5s-111.834 -75.5 -186.501 -75.5z
M303 70c51.333 0 93 17.333 125 52s48 77.334 48 128.001s-16 93.334 -48 128.001s-73.667 52 -125 52s-93.166 -17.333 -125.499 -52s-48.5 -77.334 -48.5 -128.001s16.167 -93.334 48.5 -128.001s74.166 -52 125.499 -52z" />
    <glyph glyph-name="uni043F" unicode="&#x43f;" horiz-adv-x="596" 
d="M81 0v500h434v-500h-86v421h-262v-421h-86z" />
    <glyph glyph-name="uni0440" unicode="&#x440;" horiz-adv-x="631" 
d="M167 -209l-86 0.00195312v709h86v-77c17.333 25.333 41.833 46.166 73.5 62.499s65.834 24.5 102.501 24.5c69.333 0 127.5 -25.333 174.5 -76s70.5 -112 70.5 -184s-23.5 -133.333 -70.5 -184s-105.167 -76 -174.5 -76c-36.667 0 -70.834 8.16699 -102.501 24.5
s-56.167 37.166 -73.5 62.499v-286zM330 69.002c49.333 0 90 17.333 122 52s48 77.667 48 129s-16 94.333 -48 129s-72.667 52 -122 52s-90 -17.333 -122 -52s-48 -77.667 -48 -129s16 -94.333 48 -129s72.667 -52 122 -52z" />
    <glyph glyph-name="uni0441" unicode="&#x441;" horiz-adv-x="588" 
d="M303 -10c-75.333 0 -137.665 25.165 -186.998 75.498s-74 111.833 -74 184.5s24.667 134.167 74 184.5s111.666 75.5 186.999 75.5c62 0 115.667 -17.167 161 -51.5s75.666 -79.166 90.999 -134.499h-92c-12 32.667 -32 58.667 -60 78s-61.333 29 -100 29
c-51.333 0 -93.166 -17.333 -125.499 -52s-48.5 -77.667 -48.5 -129s16.167 -94.333 48.5 -129s74.166 -52 125.499 -52c38.667 0 72 9.66699 100 29s48 45.333 60 78h92c-14.667 -55.333 -44.667 -100.166 -90 -134.499s-99.333 -51.5 -162 -51.5z" />
    <glyph glyph-name="uni0442" unicode="&#x442;" horiz-adv-x="445" 
d="M176 0v421h-159v79h411v-79h-166v-421h-86z" />
    <glyph glyph-name="uni0443" unicode="&#x443;" horiz-adv-x="548" 
d="M542 500l-270.997 -589c-20.667 -46 -43.834 -79.167 -69.501 -99.5s-57.834 -30.5 -96.501 -30.5c-24.667 0 -43.334 1.66699 -56.001 5v76c10 -2 26.333 -3 49 -3c37.333 0 67.333 25.333 90 76l41 88l-221 477h95l173 -377l170 377h96z" />
    <glyph glyph-name="uni0444" unicode="&#x444;" horiz-adv-x="732" 
d="M409 -209h-86v199h-6c-84 0 -150.833 25.167 -200.5 75.5s-74.5 111.833 -74.5 184.5s24.833 134.167 74.5 184.5s116.5 75.5 200.5 75.5h6v241h86v-241h6c84 0 150.833 -25.167 200.5 -75.5s74.5 -111.833 74.5 -184.5s-24.833 -134.167 -74.5 -184.5
s-116.5 -75.5 -200.5 -75.5h-6v-199zM415 431h-6v-362h6c58 0 103.833 17.167 137.5 51.5s50.5 77.5 50.5 129.5s-17 95.167 -51 129.5s-79.667 51.5 -137 51.5zM323 69v362h-6c-57.333 0 -103 -17.167 -137 -51.5s-51 -77.5 -51 -129.5s16.833 -95.167 50.5 -129.5
s79.5 -51.5 137.5 -51.5h6z" />
    <glyph glyph-name="uni0445" unicode="&#x445;" horiz-adv-x="530" 
d="M417 0l-152 189l-152 -189h-107l205 253l-188 247h104l138 -181l137 181h105l-189 -247l205 -253h-106z" />
    <glyph glyph-name="uni0446" unicode="&#x446;" horiz-adv-x="622" 
d="M588 79v-205h-81v126h-426v500h86v-421h258v421h86v-421h77z" />
    <glyph glyph-name="uni0447" unicode="&#x447;" horiz-adv-x="543" 
d="M462 0h-86.001v233c-13.333 -20.667 -33.666 -37 -60.999 -49s-58 -18 -92 -18c-56 0 -100.5 16 -133.5 48s-49.5 77 -49.5 135v151h86v-142c0 -76 39 -114 117 -114c34 0 64.667 11.833 92 35.5s41 57.167 41 100.5v120h86v-500z" />
    <glyph glyph-name="uni0448" unicode="&#x448;" horiz-adv-x="819" 
d="M81 0v500h86v-421h199v421h86v-421h199v421h86v-500h-656z" />
    <glyph glyph-name="uni0449" unicode="&#x449;" horiz-adv-x="849" 
d="M814 79v-205h-81v126h-652v500h86v-421h199v421h86v-421h199v421h86v-421h77z" />
    <glyph glyph-name="uni044A" unicode="&#x44a;" horiz-adv-x="573" 
d="M158 0v422.999h-140v77h226v-180h115c60 0 105.5 -15.667 136.5 -47s46.5 -68.666 46.5 -111.999c0 -44 -15.5 -81.833 -46.5 -113.5s-76.833 -47.5 -137.5 -47.5h-200zM244 241.999l-0.000976562 -164h111c32.667 0 57.834 7.33301 75.501 22s26.5 35 26.5 61
s-8.83301 46 -26.5 60s-42.5 21 -74.5 21h-112z" />
    <glyph glyph-name="uni044B" unicode="&#x44b;" horiz-adv-x="711" 
d="M543 0v500h86v-500h-86zM81 0v499.999h86v-180h116c60 0 105.5 -15.667 136.5 -47s46.5 -68.666 46.5 -111.999c0 -44 -15.667 -81.833 -47 -113.5s-77 -47.5 -137 -47.5h-201zM167 241.999v-164h112c32 0 56.833 7.33301 74.5 22s26.5 35 26.5 61s-8.66699 46 -26 60
s-42 21 -74 21h-113z" />
    <glyph glyph-name="uni044C" unicode="&#x44c;" horiz-adv-x="496" 
d="M81 0v499.999h86v-180h116c60 0 105.5 -15.667 136.5 -47s46.5 -68.666 46.5 -111.999c0 -44 -15.667 -81.833 -47 -113.5s-77 -47.5 -137 -47.5h-201zM167 241.999v-164h112c32 0 56.833 7.33301 74.5 22s26.5 35 26.5 61s-8.66699 46 -26 60s-42 21 -74 21h-113z" />
    <glyph glyph-name="uni044D" unicode="&#x44d;" horiz-adv-x="588" 
d="M285 -10c-62.667 0 -116.665 17.1699 -161.998 51.5029s-75.333 79.166 -90 134.499h92c12 -32.667 32 -58.667 60 -78s61.333 -29 100 -29c46 0 84.5 13.833 115.5 41.5s49.833 63.5 56.5 107.5h-232v72h231c-8 41.333 -27.333 75.166 -58 101.499
s-68.334 39.5 -113.001 39.5c-38.667 0 -72 -9.66699 -100 -29s-48 -45.333 -60 -78h-92c15.333 55.333 45.666 100.166 90.999 134.499s99 51.5 161 51.5c75.333 0 137.666 -25.167 186.999 -75.5s74 -111.833 74 -184.5s-24.667 -134.167 -74 -184.5
s-111.666 -75.5 -186.999 -75.5z" />
    <glyph glyph-name="uni044E" unicode="&#x44e;" horiz-adv-x="804" 
d="M511 -10c-66 0 -121.833 21.333 -167.5 64s-72.5 96.667 -80.5 162h-96v-216h-86v500h86v-207h97c10 63.333 37.5 115.333 82.5 156s99.833 61 164.5 61c72.667 0 132.667 -25 180 -75s71 -111.667 71 -185s-23.667 -135 -71 -185s-107.333 -75 -180 -75zM511 71
c47.333 0 86.333 17.167 117 51.5s46 76.833 46 127.5s-15.333 93.167 -46 127.5s-69.667 51.5 -117 51.5s-86.166 -17 -116.499 -51s-45.5 -76.667 -45.5 -128c0 -50.667 15.167 -93.167 45.5 -127.5s69.166 -51.5 116.499 -51.5z" />
    <glyph glyph-name="uni044F" unicode="&#x44f;" horiz-adv-x="524" 
d="M-4 0l201.999 196c-39.333 9.33301 -69.666 26.833 -90.999 52.5s-32 56.5 -32 92.5c0 46 15.833 84 47.5 114s76.5 45 134.5 45h185v-500h-86v182h-64l-188 -182h-108zM261.999 259h94v164h-94c-67.333 0 -101 -27.667 -101 -83c0 -26 8.83301 -46 26.5 -60
s42.5 -21 74.5 -21z" />
    <glyph glyph-name="uni0451" unicode="&#x451;" horiz-adv-x="579" 
d="M294 -10c-72.667 0 -132.833 24.667 -180.5 74s-71.5 111.333 -71.5 186c0 75.333 23.167 137.5 69.5 186.5s107.833 73.5 184.5 73.5c77.333 0 138 -27.333 182 -82s63.333 -121.667 58 -201h-407c1.33301 -45.333 18 -83.166 50 -113.499s70.667 -45.5 116 -45.5
c68 0 116.333 28 145 84h88c-12.667 -46.667 -39.667 -85.334 -81 -116.001s-92.333 -46 -153 -46zM293.001 434c-38.667 0 -73.168 -11.667 -103.501 -35s-49.166 -58 -56.499 -104h312c-8 45.333 -25.667 79.833 -53 103.5s-60.333 35.5 -99 35.5zM183 596
c-16.667 0 -30.667 5.66699 -42 17s-17 25 -17 41s5.66699 29.833 17 41.5s25.333 17.5 42 17.5c16 0 29.667 -5.83301 41 -17.5s17 -25.5 17 -41.5s-5.66699 -29.667 -17 -41s-25 -17 -41 -17zM408 596c-16 0 -29.833 5.66699 -41.5 17s-17.5 25 -17.5 41
s5.83301 29.833 17.5 41.5s25.5 17.5 41.5 17.5s29.667 -5.83301 41 -17.5s17 -25.5 17 -41.5s-5.66699 -29.667 -17 -41s-25 -17 -41 -17z" />
    <glyph glyph-name="uni0452" unicode="&#x452;" horiz-adv-x="589" 
d="M364 -219c-16 0 -29.333 1.00098 -40 3.00098v77c9.33301 -1.33301 18.666 -2 27.999 -2c52 0 78 28.333 78 85v351c0 42 -10.667 75.167 -32 99.5s-50 36.5 -86 36.5c-41.333 0 -75.833 -16.333 -103.5 -49s-41.5 -77.334 -41.5 -134.001v-248h-86v586h-77v70h77v94h86
v-94h174v-70h-174v-163c34 58 87 87 159 87c56.667 0 102.334 -18.333 137.001 -55s52 -85.667 52 -147v-374c0 -50 -14 -88 -42 -114s-64.333 -39 -109 -39z" />
    <glyph glyph-name="uni0453" unicode="&#x453;" horiz-adv-x="411" 
d="M81 0v500h313v-79h-227v-421h-86zM206 560l93 190h110l-134 -190h-69z" />
    <glyph glyph-name="uni0454" unicode="&#x454;" horiz-adv-x="588" 
d="M303 -10c-75.333 0 -137.664 25.1641 -186.997 75.4971s-74 111.833 -74 184.5s24.667 134.167 74 184.5s111.666 75.5 186.999 75.5c62 0 115.667 -17.167 161 -51.5s75.666 -79.166 90.999 -134.499h-92c-12 32.667 -32 58.667 -60 78s-61.333 29 -100 29
c-44.667 0 -82.334 -13.167 -113.001 -39.5s-50 -60.166 -58 -101.499h231v-72h-232c6.66699 -44 25.5 -79.833 56.5 -107.5s69.5 -41.5 115.5 -41.5c38.667 0 72 9.66699 100 29s48 45.333 60 78h92c-14.667 -55.333 -44.667 -100.166 -90 -134.499
s-99.333 -51.5 -162 -51.5z" />
    <glyph glyph-name="uni0455" unicode="&#x455;" horiz-adv-x="467" 
d="M242 -10c-56 0 -102.835 13.665 -140.502 40.998s-58.5 65.333 -62.5 114h88c5.33301 -28 18.833 -48.667 40.5 -62s46.834 -20 75.501 -20s51.834 5.66699 69.501 17s26.5 27.666 26.5 48.999c0 20 -6.5 36.333 -19.5 49s-34.167 23 -63.5 31l-72 19
c-86 22.667 -129 71.667 -129 147c0 40.667 16.167 73.334 48.5 98.001s73.833 37 124.5 37c51.333 0 93.5 -13.5 126.5 -40.5s51.5 -61.167 55.5 -102.5h-86c-6.66699 22 -18.5 39.333 -35.5 52s-37.167 19 -60.5 19c-24.667 0 -45.167 -5.66699 -61.5 -17
s-24.5 -26.333 -24.5 -45c0 -18 6 -32.667 18 -44s31.333 -20.666 58 -27.999l80 -21c85.333 -21.333 128 -70.666 128 -147.999c0 -48 -17 -84.167 -51 -108.5s-78.333 -36.5 -133 -36.5z" />
    <glyph glyph-name="uni0456" unicode="&#x456;" horiz-adv-x="249" 
d="M125 634c-17.333 0 -32 5.83301 -44 17.5s-18 26.167 -18 43.5c0 16.667 6 31 18 43s26.667 18 44 18s31.666 -6 42.999 -18s17 -26.333 17 -43c0 -17.333 -5.66699 -31.833 -17 -43.5s-25.666 -17.5 -42.999 -17.5zM81 0v500h86v-500h-86z" />
    <glyph glyph-name="uni0457" unicode="&#x457;" horiz-adv-x="249" 
d="M81 0v500h86v-500h-86zM26 596c-16.667 0 -30.834 5.83301 -42.501 17.5s-17.5 26.167 -17.5 43.5c0 16.667 5.83301 30.834 17.5 42.501s25.834 17.5 42.501 17.5c17.333 0 31.833 -5.83301 43.5 -17.5s17.5 -25.834 17.5 -42.501
c0 -17.333 -5.83301 -31.833 -17.5 -43.5s-26.167 -17.5 -43.5 -17.5zM222 596c-16.667 0 -30.834 5.83301 -42.501 17.5s-17.5 26.167 -17.5 43.5c0 16.667 5.83301 30.834 17.5 42.501s25.834 17.5 42.501 17.5c17.333 0 31.833 -5.83301 43.5 -17.5
s17.5 -25.834 17.5 -42.501c0 -17.333 -5.83301 -31.833 -17.5 -43.5s-26.167 -17.5 -43.5 -17.5z" />
    <glyph glyph-name="uni0458" unicode="&#x458;" horiz-adv-x="257" 
d="M175 500l-0.000976562 -566c0 -50 -14 -88 -42 -114s-64.333 -39 -109 -39c-15.333 0 -29 1 -41 3v77c10.667 -1.33301 20.334 -2 29.001 -2c51.333 0 77 28.333 77 85v556h86zM132.999 634c-17.333 0 -32 5.83301 -44 17.5s-18 26.167 -18 43.5c0 16.667 6 31 18 43
s26.667 18 44 18s31.666 -6 42.999 -18s17 -26.333 17 -43c0 -17.333 -5.66699 -31.833 -17 -43.5s-25.666 -17.5 -42.999 -17.5z" />
    <glyph glyph-name="uni0459" unicode="&#x459;" horiz-adv-x="812" 
d="M494 217v-139h115c28 0 49.667 6 65 18s23 29 23 51s-7.66699 39.167 -23 51.5s-37 18.5 -65 18.5h-115zM114 500h379.999v-206h118c54.667 0 96.834 -14.5 126.501 -43.5s44.5 -63.167 44.5 -102.5s-14.833 -73.833 -44.5 -103.5s-71.834 -44.5 -126.501 -44.5h-204v421
h-208v-270c0 -51.333 -12.333 -90.5 -37 -117.5s-57 -40.5 -97 -40.5c-22.667 0 -37.667 1 -45 3v77c4.66699 -1.33301 15.334 -2 32.001 -2c20.667 0 36 7.16699 46 21.5s15 39.833 15 76.5v331z" />
    <glyph glyph-name="uni045A" unicode="&#x45a;" horiz-adv-x="833" 
d="M718 147c0 22 -7.66699 39.167 -23 51.5s-37 18.5 -65 18.5h-114v-139h114c28 0 49.667 6 65 18s23 29 23 51zM804 148c0 -39.333 -14.833 -73.833 -44.5 -103.5s-71.834 -44.5 -126.501 -44.5h-203v216h-263v-216h-86v500h86v-206h263v206h86v-206h117
c54.667 0 96.834 -14.5 126.501 -43.5s44.5 -63.167 44.5 -102.5z" />
    <glyph glyph-name="uni045B" unicode="&#x45b;" horiz-adv-x="589" 
d="M81 578l-77.001 0.000976562v70h77v86h86v-86h174v-70h-174v-155c34 58 87 87 159 87c56.667 0 102.334 -18.333 137.001 -55s52 -85.667 52 -147v-308h-85v295c0 42 -10.667 75.167 -32 99.5s-50 36.5 -86 36.5c-41.333 0 -75.833 -16.333 -103.5 -49
s-41.5 -77.334 -41.5 -134.001v-248h-86v578z" />
    <glyph glyph-name="uni045C" unicode="&#x45c;" horiz-adv-x="524" 
d="M417 0l-250 223v-223h-86v500h86v-222l222 222h109l-245 -245l282 -255h-118zM251 560l93 190h110l-134 -190h-69z" />
    <glyph glyph-name="uni045E" unicode="&#x45e;" horiz-adv-x="548" 
d="M542 500l-270.997 -589c-20.667 -46 -43.834 -79.167 -69.501 -99.5s-57.834 -30.5 -96.501 -30.5c-24.667 0 -43.334 1.66699 -56.001 5v76c10 -2 26.333 -3 49 -3c37.333 0 67.333 25.333 90 76l41 88l-221 477h95l173 -377l170 377h96zM275.003 578
c-45.333 0 -83.168 14.667 -113.501 44s-45.5 67.666 -45.5 114.999v13h68v-13c0 -32 8.5 -56.833 25.5 -74.5s38.833 -26.5 65.5 -26.5s48.5 8.83301 65.5 26.5s25.5 42.5 25.5 74.5v13h68v-13c0 -47.333 -15.167 -85.666 -45.5 -114.999s-68.166 -44 -113.499 -44z" />
    <glyph glyph-name="uni045F" unicode="&#x45f;" horiz-adv-x="602" 
d="M520 0h-178v-126h-81v126h-180v500h86v-421h267v421h86v-500z" />
    <glyph glyph-name="uni0462" unicode="&#x462;" horiz-adv-x="712" 
d="M302 421l133 -0.000976562c74 0 132.833 -19.167 176.5 -57.5s65.5 -89.166 65.5 -152.499s-22 -114.333 -66 -153s-102.667 -58 -176 -58h-225v533h-182v79h182v98h92v-98h226v-79h-226v-112zM302 85.999h130c49.333 0 87.166 10.833 113.499 32.5s39.5 52.5 39.5 92.5
s-13.167 70.667 -39.5 92s-64.166 32 -113.499 32h-130v-249z" />
    <glyph glyph-name="uni0463" unicode="&#x463;" horiz-adv-x="550" 
d="M18 430l-0.000976562 69.999h114v250h86v-250h200v-70h-200v-110h115c60.667 0 106.334 -15.667 137.001 -47s46 -68.666 46 -111.999c0 -44 -15.5 -81.833 -46.5 -113.5s-76.833 -47.5 -137.5 -47.5h-200v430h-114zM329.999 241.999h-112.001v-164h111
c32.667 0 57.834 7.33301 75.501 22s26.5 35 26.5 61s-8.83301 46 -26.5 60s-42.5 21 -74.5 21z" />
    <glyph glyph-name="uni0472" unicode="&#x472;" horiz-adv-x="825" 
d="M412 76c78 0 143.167 27 195.5 81s78.5 120 78.5 198s-26.167 144 -78.5 198s-117.5 81 -195.5 81c-77.333 0 -142.166 -27 -194.499 -81s-78.5 -120 -78.5 -198s26.167 -144 78.5 -198s117.166 -81 194.499 -81zM412 -12c-102 0 -188.667 35.5 -260 106.5
s-107 157.833 -107 260.5s35.667 189.5 107 260.5s158 106.5 260 106.5c102.667 0 189.5 -35.5 260.5 -106.5s106.5 -157.833 106.5 -260.5s-35.5 -189.5 -106.5 -260.5s-157.833 -106.5 -260.5 -106.5zM538 374c59.333 0 110.666 15.667 153.999 47v-84
c-43.333 -31.333 -94.666 -47 -153.999 -47c-31.333 0 -74.166 7.83301 -128.499 23.5s-95.166 23.5 -122.499 23.5c-59.333 0 -110.666 -15.667 -153.999 -47v84c43.333 31.333 94.666 47 153.999 47c35.333 0 78.666 -7.83301 129.999 -23.5s91.666 -23.5 120.999 -23.5z
" />
    <glyph glyph-name="uni0473" unicode="&#x473;" horiz-adv-x="606" 
d="M303 -10c-75.333 0 -137.833 25.167 -187.5 75.5s-74.5 111.833 -74.5 184.5s24.833 134.167 74.5 184.5s112.167 75.5 187.5 75.5c74.667 0 136.834 -25.167 186.501 -75.5s74.5 -111.833 74.5 -184.5s-24.833 -134.167 -74.5 -184.5s-111.834 -75.5 -186.501 -75.5z
M303 70c51.333 0 93 17.333 125 52s48 77.334 48 128.001s-16 93.334 -48 128.001s-73.667 52 -125 52s-93.166 -17.333 -125.499 -52s-48.5 -77.334 -48.5 -128.001s16.167 -93.334 48.5 -128.001s74.166 -52 125.499 -52zM102 284v-68h402v68h-402z" />
    <glyph glyph-name="uni0474" unicode="&#x474;" horiz-adv-x="775" 
d="M111 710l239.999 -564l185 433c22 54.667 44.833 92.167 68.5 112.5s54.834 30.5 93.501 30.5c23.333 0 43 -2.66699 59 -8v-85c-37.333 6 -64.5 4.16699 -81.5 -5.5s-33.833 -34.5 -50.5 -74.5l-235 -549h-78l-303 710h102z" />
    <glyph glyph-name="uni0475" unicode="&#x475;" horiz-adv-x="594" 
d="M6 500l96.001 -0.000976562l170 -379l122 266c20 44.667 40.167 76.334 60.5 95.001s46.166 28 77.499 28c21.333 0 38 -2 50 -6v-76c-27.333 4 -47.5 2.5 -60.5 -4.5s-26.167 -24.167 -39.5 -51.5l-173 -372h-72z" />
    <glyph glyph-name="uni0490" unicode="&#x490;" horiz-adv-x="513" 
d="M495 710v-88h-308v-622h-93v710h401zM495 710h-88v148h88v-148z" />
    <glyph glyph-name="uni0491" unicode="&#x491;" horiz-adv-x="411" 
d="M81 0v500h313v-79h-227v-421h-86zM394 500h-81v126h81v-126z" />
    <glyph glyph-name="uni0492" unicode="&#x492;" horiz-adv-x="532" 
d="M511 710v-88h-308v-622h-93v710h401zM20 316v85h363v-85h-363z" />
    <glyph glyph-name="uni0493" unicode="&#x493;" horiz-adv-x="429" 
d="M99 0v500h313v-79h-227v-421h-86zM315 226h-296v70h296v-70z" />
    <glyph glyph-name="uni0496" unicode="&#x496;" horiz-adv-x="990" 
d="M853 0l-323 317v-317h-93v317l-323 -317h-123l358 353l-329 357h114l303 -329v329h93v-329l303 329h114l-329 -357l358 -353h-123zM899 -148v148h-27v88h115v-236h-88z" />
    <glyph glyph-name="uni0497" unicode="&#x497;" horiz-adv-x="799" 
d="M669 0l-237 222v-222h-86v222l-237 -222h-113l268 255l-233 245h107l208 -222v222h86v-222l209 222h106l-233 -246l268 -254h-113zM710 -126v126h-28v79h109v-205h-81z" />
    <glyph glyph-name="uni049A" unicode="&#x49a;" horiz-adv-x="694" 
d="M563 0l-377 338v-338h-92v710h92v-308l310 308h121l-338 -338l415 -372h-131zM610 -148v148h-27v88h115v-236h-88z" />
    <glyph glyph-name="uni049B" unicode="&#x49b;" horiz-adv-x="544" 
d="M417 0l-250 223v-223h-86v500h86v-222l222 222h109l-245 -245l282 -255h-118zM460 -126v126h-28v79h109v-205h-81z" />
    <glyph glyph-name="uni04A2" unicode="&#x4a2;" horiz-adv-x="793" 
d="M94 0v710h93v-303h389v303h93v-710h-93v320h-389v-320h-93zM670 -148v148h-27v88h115v-236h-88z" />
    <glyph glyph-name="uni04A3" unicode="&#x4a3;" horiz-adv-x="637" 
d="M81 0v500h86v-206h273v206h86v-500h-86v216h-273v-216h-86zM521 -126v126h-28v79h109v-205h-81z" />
    <glyph glyph-name="uni04AE" unicode="&#x4ae;" horiz-adv-x="674" 
d="M291 0v301l-276 409h111l211 -316l212 316h111l-277 -410v-300h-92z" />
    <glyph glyph-name="uni04AF" unicode="&#x4af;" horiz-adv-x="549" 
d="M232 -209v207l-225 502h96l171 -391l171 391h97l-224 -498v-211h-86z" />
    <glyph glyph-name="uni04B0" unicode="&#x4b0;" horiz-adv-x="671" 
d="M290 0v301l-276 409h111l211 -316l212 316h111l-277 -410v-300h-92zM537 301v-85h-404v85h404z" />
    <glyph glyph-name="uni04B1" unicode="&#x4b1;" horiz-adv-x="549" 
d="M232 -209v207l-225 502h96l171 -391l171 391h97l-224 -498v-211h-86zM96 -70v70h359v-70h-359z" />
    <glyph glyph-name="uni04B2" unicode="&#x4b2;" horiz-adv-x="704" 
d="M118 0h-114l274 359l-263 351h111l209 -277l209 277h111l-262 -351l273 -359h-113l-218 284zM610 -148v148h-27v88h115v-236h-88z" />
    <glyph glyph-name="uni04B3" unicode="&#x4b3;" horiz-adv-x="555" 
d="M417 0l-152 189l-152 -189h-107l205 253l-188 247h104l138 -181l137 181h105l-189 -247l205 -253h-106zM462 -126v126h-28v79h109v-205h-81z" />
    <glyph glyph-name="uni04B6" unicode="&#x4b6;" horiz-adv-x="716" 
d="M591 0l-92.001 0.000976562v363c-43.333 -66 -115.333 -99 -216 -99c-72 0 -129.667 22 -173 66s-65 103.333 -65 178v202h92v-188c0 -56.667 14.333 -99.334 43 -128.001s69.334 -43 122.001 -43c54 0 100.333 17.5 139 52.5s58 85.833 58 152.5v154h92v-710z
M592.999 -147.999v148h-27v88h115v-236h-88z" />
    <glyph glyph-name="uni04B7" unicode="&#x4b7;" horiz-adv-x="574" 
d="M462 0h-86.001v233c-13.333 -20.667 -33.666 -37 -60.999 -49s-58 -18 -92 -18c-56 0 -100.5 16 -133.5 48s-49.5 77 -49.5 135v151h86v-142c0 -76 39 -114 117 -114c34 0 64.667 11.833 92 35.5s41 57.167 41 100.5v120h86v-500zM457.999 -126v126h-28v79h109v-205h-81z
" />
    <glyph glyph-name="uni04BA" unicode="&#x4ba;" horiz-adv-x="686" 
d="M94 710l92.001 -0.000976562v-363c43.333 66 115.333 99 216 99c72 0 129.667 -22 173 -66s65 -103.333 65 -178v-202h-92v188c0 56.667 -14.333 99.334 -43 128.001s-69.334 43 -122.001 43c-54 0 -100.333 -17.5 -139 -52.5s-58 -85.833 -58 -152.5v-154h-92v710z" />
    <glyph glyph-name="uni04BB" unicode="&#x4bb;" horiz-adv-x="589" 
d="M167 0l-86.001 0.000976562v750h86v-327c34 58 87 87 159 87c56.667 0 102.334 -18.333 137.001 -55s52 -85.667 52 -147v-308h-85v295c0 42 -10.667 75.167 -32 99.5s-50 36.5 -86 36.5c-41.333 0 -75.833 -16.333 -103.5 -49s-41.5 -77.334 -41.5 -134.001v-248z" />
    <glyph glyph-name="uni04C0" unicode="&#x4c0;" horiz-adv-x="281" 
d="M94 0v710h93v-710h-93z" />
    <glyph glyph-name="uni04CF" unicode="&#x4cf;" horiz-adv-x="249" 
d="M81 0v750h86v-750h-86z" />
    <glyph glyph-name="uni04D8" unicode="&#x4d8;" horiz-adv-x="824" 
d="M412 -12c-103.333 0 -190.334 35.501 -261.001 106.501s-106 157.833 -106 260.5v45h637c-12 72 -43.167 129 -93.5 171s-109.5 63 -177.5 63c-53.333 0 -102 -12.5 -146 -37.5s-76.333 -57.167 -97 -96.5h-103c20.667 61.333 63.334 113.666 128.001 156.999
s137.667 65 219 65c102.667 0 189.5 -35.333 260.5 -106s106.5 -157.667 106.5 -261c0 -102.667 -35.5 -189.5 -106.5 -260.5s-157.833 -106.5 -260.5 -106.5zM411.999 76.001c69.333 0 129.335 22 180.002 66s80.667 102.333 90 175h-542
c9.33301 -72.667 39.666 -131 90.999 -175s111.666 -66 180.999 -66z" />
    <glyph glyph-name="uni04D9" unicode="&#x4d9;" horiz-adv-x="579" 
d="M285 510c73.333 0 133.666 -24.667 180.999 -74s71 -111.333 71 -186s-23.333 -136.667 -70 -186s-108 -74 -184 -74c-76.667 0 -137.167 27.333 -181.5 82s-63.833 121.667 -58.5 201h407c-2.66699 45.333 -19.667 83.166 -51 113.499s-69.666 45.5 -114.999 45.5
c-68.667 0 -116.667 -28 -144 -84h-89c12.667 46.667 39.667 85.334 81 116.001s92.333 46 153 46zM286 66c39.333 0 73.666 11.5 102.999 34.5s48.333 57.833 57 104.5h-313c8 -45.333 25.833 -79.833 53.5 -103.5s60.834 -35.5 99.501 -35.5z" />
    <glyph glyph-name="uni04E2" unicode="&#x4e2;" horiz-adv-x="794" 
d="M175 0h-81v710h93v-552l432 552h80v-710h-92v553zM245 805v69h322v-69h-322z" />
    <glyph glyph-name="uni04E3" unicode="&#x4e3;" horiz-adv-x="607" 
d="M158 0h-77v500h86v-367l282 367h76v-500h-85v367zM150 641v69h322v-69h-322z" />
    <glyph glyph-name="uni04E8" unicode="&#x4e8;" horiz-adv-x="825" 
d="M412 76c78 0 143.167 27 195.5 81s78.5 120 78.5 198s-26.167 144 -78.5 198s-117.5 81 -195.5 81c-77.333 0 -142.166 -27 -194.499 -81s-78.5 -120 -78.5 -198s26.167 -144 78.5 -198s117.166 -81 194.499 -81zM412 -12c-102 0 -188.667 35.5 -260 106.5
s-107 157.833 -107 260.5s35.667 189.5 107 260.5s158 106.5 260 106.5c102.667 0 189.5 -35.5 260.5 -106.5s106.5 -157.833 106.5 -260.5s-35.5 -189.5 -106.5 -260.5s-157.833 -106.5 -260.5 -106.5zM92 398v-85h640v85h-640z" />
    <glyph glyph-name="uni04E9" unicode="&#x4e9;" horiz-adv-x="606" 
d="M303 -10c-75.333 0 -137.833 25.167 -187.5 75.5s-74.5 111.833 -74.5 184.5s24.833 134.167 74.5 184.5s112.167 75.5 187.5 75.5c74.667 0 136.834 -25.167 186.501 -75.5s74.5 -111.833 74.5 -184.5s-24.833 -134.167 -74.5 -184.5s-111.834 -75.5 -186.501 -75.5z
M303 70c51.333 0 93 17.333 125 52s48 77.334 48 128.001s-16 93.334 -48 128.001s-73.667 52 -125 52s-93.166 -17.333 -125.499 -52s-48.5 -77.334 -48.5 -128.001s16.167 -93.334 48.5 -128.001s74.166 -52 125.499 -52zM102 284v-68h402v68h-402z" />
    <glyph glyph-name="uni04EE" unicode="&#x4ee;" horiz-adv-x="698" 
d="M134 -6l0.00390625 85c15.333 -2.66699 35.666 -4 60.999 -4c46 0 82.333 25.667 109 77l9 17l-278 541h105l226 -441l233 441h101l-299 -566c-30.667 -58 -60.334 -98.5 -89.001 -121.5s-64.334 -34.5 -107.001 -34.5c-20.667 0 -44.334 2 -71.001 6zM208.004 805v69
h322v-69h-322z" />
    <glyph glyph-name="uni04EF" unicode="&#x4ef;" horiz-adv-x="548" 
d="M542 500l-270.997 -589c-20.667 -46 -43.834 -79.167 -69.501 -99.5s-57.834 -30.5 -96.501 -30.5c-24.667 0 -43.334 1.66699 -56.001 5v76c10 -2 26.333 -3 49 -3c37.333 0 67.333 25.333 90 76l41 88l-221 477h95l173 -377l170 377h96zM114.003 641v69h322v-69h-322z
" />
    <glyph glyph-name="Wgrave" unicode="&#x1e80;" horiz-adv-x="947" 
d="M647 0l-174 482l-173 -482h-83l-194 710h97l148 -554l205 566l205 -566l149 554h97l-194 -710h-83zM507 770h-72l-114 157h108z" />
    <glyph glyph-name="wgrave" unicode="&#x1e81;" horiz-adv-x="763" 
d="M505 0l-124 359l-123 -359h-76l-170 500h90l121 -365l125 365h66l125 -365l121 365h91l-170 -500h-76zM343 560l-134 190h110l94 -190h-70z" />
    <glyph glyph-name="Wacute" unicode="&#x1e82;" horiz-adv-x="947" 
d="M647 0l-174 482l-173 -482h-83l-194 710h97l148 -554l205 566l205 -566l149 554h97l-194 -710h-83zM446 770l78 157h108l-114 -157h-72z" />
    <glyph glyph-name="wacute" unicode="&#x1e83;" horiz-adv-x="763" 
d="M505 0l-124 359l-123 -359h-76l-170 500h90l121 -365l125 365h66l125 -365l121 365h91l-170 -500h-76zM351 560l93 190h110l-134 -190h-69z" />
    <glyph glyph-name="Wdieresis" unicode="&#x1e84;" horiz-adv-x="947" 
d="M647 0l-174 482l-173 -482h-83l-194 710h97l148 -554l205 566l205 -566l149 554h97l-194 -710h-83zM361 785c-16.667 0 -30.667 5.66699 -42 17s-17 25 -17 41s5.66699 29.833 17 41.5s25.333 17.5 42 17.5c16 0 29.667 -5.83301 41 -17.5s17 -25.5 17 -41.5
s-5.66699 -29.667 -17 -41s-25 -17 -41 -17zM586 785c-16 0 -29.833 5.66699 -41.5 17s-17.5 25 -17.5 41s5.83301 29.833 17.5 41.5s25.5 17.5 41.5 17.5s29.667 -5.83301 41 -17.5s17 -25.5 17 -41.5s-5.66699 -29.667 -17 -41s-25 -17 -41 -17z" />
    <glyph glyph-name="wdieresis" unicode="&#x1e85;" horiz-adv-x="763" 
d="M505 0l-124 359l-123 -359h-76l-170 500h90l121 -365l125 365h66l125 -365l121 365h91l-170 -500h-76zM269 596c-16.667 0 -30.667 5.66699 -42 17s-17 25 -17 41s5.66699 29.833 17 41.5s25.333 17.5 42 17.5c16 0 29.667 -5.83301 41 -17.5s17 -25.5 17 -41.5
s-5.66699 -29.667 -17 -41s-25 -17 -41 -17zM494 596c-16 0 -29.833 5.66699 -41.5 17s-17.5 25 -17.5 41s5.83301 29.833 17.5 41.5s25.5 17.5 41.5 17.5s29.667 -5.83301 41 -17.5s17 -25.5 17 -41.5s-5.66699 -29.667 -17 -41s-25 -17 -41 -17z" />
    <glyph glyph-name="uni1E9E" unicode="&#x1e9e;" horiz-adv-x="634" 
d="M94 0l0.000976562 709.999h441v-61l-133 -204c124 -22 186 -94.333 186 -217c0 -73.333 -23.333 -129.666 -70 -168.999s-108.334 -59 -185.001 -59h-37v88h44c46.667 0 84.334 12.167 113.001 36.5s43 58.833 43 103.5s-14.333 79.167 -43 103.5
s-66.334 36.5 -113.001 36.5h-44v70l123 188h-232v-626h-93z" />
    <glyph glyph-name="uni1ECA" unicode="&#x1eca;" horiz-adv-x="281" 
d="M94 0v710h93v-710h-93zM141 -190c-16.667 0 -30.667 5.66699 -42 17s-17 25 -17 41s5.66699 29.833 17 41.5s25.333 17.5 42 17.5c16 0 29.667 -5.83301 41 -17.5s17 -25.5 17 -41.5s-5.66699 -29.667 -17 -41s-25 -17 -41 -17z" />
    <glyph glyph-name="uni1ECB" unicode="&#x1ecb;" horiz-adv-x="249" 
d="M125 634c-17.333 0 -32 5.83301 -44 17.5s-18 26.167 -18 43.5c0 16.667 6 31 18 43s26.667 18 44 18s31.666 -6 42.999 -18s17 -26.333 17 -43c0 -17.333 -5.66699 -31.833 -17 -43.5s-25.666 -17.5 -42.999 -17.5zM81 0v500h86v-500h-86zM125 -190
c-16.667 0 -30.667 5.66699 -42 17s-17 25 -17 41s5.66699 29.833 17 41.5s25.333 17.5 42 17.5c16 0 29.667 -5.83301 41 -17.5s17 -25.5 17 -41.5s-5.66699 -29.667 -17 -41s-25 -17 -41 -17z" />
    <glyph glyph-name="uni1ECC" unicode="&#x1ecc;" horiz-adv-x="825" 
d="M412 76c78 0 143.167 27 195.5 81s78.5 120 78.5 198s-26.167 144 -78.5 198s-117.5 81 -195.5 81c-77.333 0 -142.166 -27 -194.499 -81s-78.5 -120 -78.5 -198s26.167 -144 78.5 -198s117.166 -81 194.499 -81zM412 -12c-102 0 -188.667 35.5 -260 106.5
s-107 157.833 -107 260.5s35.667 189.5 107 260.5s158 106.5 260 106.5c102.667 0 189.5 -35.5 260.5 -106.5s106.5 -157.833 106.5 -260.5s-35.5 -189.5 -106.5 -260.5s-157.833 -106.5 -260.5 -106.5zM412 -190c-16.667 0 -30.667 5.66699 -42 17s-17 25 -17 41
s5.66699 29.833 17 41.5s25.333 17.5 42 17.5c16 0 29.667 -5.83301 41 -17.5s17 -25.5 17 -41.5s-5.66699 -29.667 -17 -41s-25 -17 -41 -17z" />
    <glyph glyph-name="uni1ECD" unicode="&#x1ecd;" horiz-adv-x="606" 
d="M303 -10c-75.333 0 -137.833 25.167 -187.5 75.5s-74.5 111.833 -74.5 184.5s24.833 134.167 74.5 184.5s112.167 75.5 187.5 75.5c74.667 0 136.834 -25.167 186.501 -75.5s74.5 -111.833 74.5 -184.5s-24.833 -134.167 -74.5 -184.5s-111.834 -75.5 -186.501 -75.5z
M303 70c51.333 0 93 17.333 125 52s48 77.334 48 128.001s-16 93.334 -48 128.001s-73.667 52 -125 52s-93.166 -17.333 -125.499 -52s-48.5 -77.334 -48.5 -128.001s16.167 -93.334 48.5 -128.001s74.166 -52 125.499 -52zM303 -190c-16.667 0 -30.667 5.66699 -42 17
s-17 25 -17 41s5.66699 29.833 17 41.5s25.333 17.5 42 17.5c16 0 29.667 -5.83301 41 -17.5s17 -25.5 17 -41.5s-5.66699 -29.667 -17 -41s-25 -17 -41 -17z" />
    <glyph glyph-name="uni1EE4" unicode="&#x1ee4;" horiz-adv-x="726" 
d="M363 -12c-82.667 0 -149.667 26.167 -201 78.5s-77 122.166 -77 209.499v434h93v-436c0 -63.333 16.667 -112.166 50 -146.499s78.333 -51.5 135 -51.5s101.667 17.167 135 51.5s50 83.166 50 146.499v436h93v-434c0 -87.333 -25.667 -157.166 -77 -209.499
s-118.333 -78.5 -201 -78.5zM363 -190c-16.667 0 -30.667 5.66699 -42 17s-17 25 -17 41s5.66699 29.833 17 41.5s25.333 17.5 42 17.5c16 0 29.667 -5.83301 41 -17.5s17 -25.5 17 -41.5s-5.66699 -29.667 -17 -41s-25 -17 -41 -17z" />
    <glyph glyph-name="uni1EE5" unicode="&#x1ee5;" horiz-adv-x="579" 
d="M258 -10c-54.667 0 -99 18.5 -133 55.5s-51 86.167 -51 147.5v307h86v-294c0 -42 10.167 -75.333 30.5 -100s47.833 -37 82.5 -37c40 0 73.167 16.5 99.5 49.5s39.5 77.5 39.5 133.5v248h86v-500h-86v77c-32.667 -58 -84 -87 -154 -87zM286 -190
c-16.667 0 -30.667 5.66699 -42 17s-17 25 -17 41s5.66699 29.833 17 41.5s25.333 17.5 42 17.5c16 0 29.667 -5.83301 41 -17.5s17 -25.5 17 -41.5s-5.66699 -29.667 -17 -41s-25 -17 -41 -17z" />
    <glyph glyph-name="Ygrave" unicode="&#x1ef2;" horiz-adv-x="674" 
d="M291 0v301l-276 409h111l211 -316l212 316h111l-277 -410v-300h-92zM370 770h-72l-114 157h108z" />
    <glyph glyph-name="ygrave" unicode="&#x1ef3;" horiz-adv-x="547" 
d="M214 -209h-96l109 235l-219 474h95l172 -380l171 380h96zM237 560l-134 190h110l94 -190h-70z" />
    <glyph glyph-name="uni2007" unicode="&#x2007;" horiz-adv-x="590" 
 />
    <glyph glyph-name="uni2008" unicode="&#x2008;" horiz-adv-x="252" 
 />
    <glyph glyph-name="uni2009" unicode="&#x2009;" horiz-adv-x="125" 
 />
    <glyph glyph-name="uni200B" unicode="&#x200b;" 
 />
    <glyph glyph-name="endash" unicode="&#x2013;" horiz-adv-x="565" 
d="M65 237v86h434v-86h-434z" />
    <glyph glyph-name="emdash" unicode="&#x2014;" horiz-adv-x="635" 
d="M65 237v86h505v-86h-505z" />
    <glyph glyph-name="quoteleft" unicode="&#x2018;" horiz-adv-x="251" 
d="M54 545l104 164.999h57l-67 -143c27.333 -14 41 -36.333 41 -67c0 -20 -7.33301 -37.5 -22 -52.5s-32 -22.5 -52 -22.5c-21.333 0 -39 7.33301 -53 22s-21 32.334 -21 53.001c0 16.667 4.33301 31.667 13 45z" />
    <glyph glyph-name="quoteright" unicode="&#x2019;" horiz-adv-x="254" 
d="M209 602l-102.999 -165h-58l67 143c-12 6 -21.833 15.167 -29.5 27.5s-11.5 25.5 -11.5 39.5c0 20.667 7.16699 38.334 21.5 53.001s32.166 22 53.499 22c20.667 0 38.167 -7.33301 52.5 -22s21.5 -32.334 21.5 -53.001c0 -14.667 -4.66699 -29.667 -14 -45z" />
    <glyph glyph-name="quotesinglbase" unicode="&#x201a;" horiz-adv-x="256" 
d="M188 22l-103 -164.999h-57l67 143c-27.333 13.333 -41 35.666 -41 66.999c0 20 7.33301 37.5 22 52.5s32 22.5 52 22.5s37.333 -7.5 52 -22.5s22 -32.5 22 -52.5c0 -14.667 -4.66699 -29.667 -14 -45z" />
    <glyph glyph-name="quotedblleft" unicode="&#x201c;" horiz-adv-x="436" 
d="M54 545l104 164.999h57l-67 -143c27.333 -14 41 -36.333 41 -67c0 -20 -7.33301 -37.5 -22 -52.5s-32 -22.5 -52 -22.5c-21.333 0 -39 7.33301 -53 22s-21 32.334 -21 53.001c0 16.667 4.33301 31.667 13 45zM240 544.999l104 164.999h57l-67 -143
c27.333 -14 41 -36.333 41 -67c0 -20 -7.33301 -37.5 -22 -52.5s-32 -22.5 -52 -22.5c-21.333 0 -39 7.33301 -53 22s-21 32.334 -21 53.001c0 16.667 4.33301 31.667 13 45z" />
    <glyph glyph-name="quotedblright" unicode="&#x201d;" horiz-adv-x="440" 
d="M209 602l-102.999 -165h-58l67 143c-12 6 -21.833 15.167 -29.5 27.5s-11.5 25.5 -11.5 39.5c0 20.667 7.16699 38.334 21.5 53.001s32.166 22 53.499 22c20.667 0 38.167 -7.33301 52.5 -22s21.5 -32.334 21.5 -53.001c0 -14.667 -4.66699 -29.667 -14 -45zM395.001 602
l-102.999 -165h-58l67 143c-12 6 -21.833 15.167 -29.5 27.5s-11.5 25.5 -11.5 39.5c0 20.667 7.16699 38.334 21.5 53.001s32.166 22 53.499 22c20.667 0 38.167 -7.33301 52.5 -22s21.5 -32.334 21.5 -53.001c0 -14.667 -4.66699 -29.667 -14 -45z" />
    <glyph glyph-name="quotedblbase" unicode="&#x201e;" horiz-adv-x="442" 
d="M188 22l-103 -164.999h-57l67 143c-27.333 13.333 -41 35.666 -41 66.999c0 20 7.33301 37.5 22 52.5s32 22.5 52 22.5s37.333 -7.5 52 -22.5s22 -32.5 22 -52.5c0 -14.667 -4.66699 -29.667 -14 -45zM374 22.001l-103 -164.999h-57l67 143
c-27.333 13.333 -41 35.666 -41 66.999c0 20 7.33301 37.5 22 52.5s32 22.5 52 22.5s37.333 -7.5 52 -22.5s22 -32.5 22 -52.5c0 -14.667 -4.66699 -29.667 -14 -45z" />
    <glyph glyph-name="dagger" unicode="&#x2020;" horiz-adv-x="506" 
d="M214 -98v523h-185v75h185v210h78v-210h185v-75h-185v-523h-78z" />
    <glyph glyph-name="daggerdbl" unicode="&#x2021;" horiz-adv-x="538" 
d="M493 112h-184v-210h-79v210h-185v75h185v238h-185v75h185v210h79v-210h184v-75h-184v-238h184v-75z" />
    <glyph glyph-name="bullet" unicode="&#x2022;" horiz-adv-x="419" 
d="M209 166c-37.333 0 -69.333 13.167 -96 39.5s-40 58.5 -40 96.5s13.333 70.167 40 96.5s58.667 39.5 96 39.5c38 0 70.333 -13.167 97 -39.5s40 -58.5 40 -96.5s-13.333 -70.167 -40 -96.5s-59 -39.5 -97 -39.5z" />
    <glyph glyph-name="ellipsis" unicode="&#x2026;" horiz-adv-x="721" 
d="M360 -8c-20.667 0 -38.167 7.33301 -52.5 22s-21.5 32.334 -21.5 53.001c0 20 7.33301 37.5 22 52.5s32 22.5 52 22.5s37.333 -7.5 52 -22.5s22 -32.5 22 -52.5c0 -20.667 -7.16699 -38.334 -21.5 -53.001s-31.833 -22 -52.5 -22zM601 -8
c-20.667 0 -38.167 7.33301 -52.5 22s-21.5 32.334 -21.5 53.001c0 20 7.33301 37.5 22 52.5s32 22.5 52 22.5s37.333 -7.5 52 -22.5s22 -32.5 22 -52.5c0 -20.667 -7.16699 -38.334 -21.5 -53.001s-31.833 -22 -52.5 -22zM121 -8c-20.667 0 -38.167 7.33301 -52.5 22
s-21.5 32.334 -21.5 53.001c0 20 7.33301 37.5 22 52.5s32 22.5 52 22.5s37.333 -7.5 52 -22.5s22 -32.5 22 -52.5c0 -20.667 -7.16699 -38.334 -21.5 -53.001s-31.833 -22 -52.5 -22z" />
    </font>
</defs>
</svg>
